<?xml version="1.0" standalone="no"?>
<!DOCTYPE svg PUBLIC "-//W3C//DTD SVG 20010904//EN"
 "http://www.w3.org/TR/2001/REC-SVG-20010904/DTD/svg10.dtd">
<svg version="1.0" xmlns="http://www.w3.org/2000/svg"
 width="200.000000pt" height="200.000000pt" viewBox="0 0 200.000000 200.000000"
 preserveAspectRatio="xMidYMid meet">
<metadata>
Created by potrace 1.14, written by Peter Selinger 2001-2017
</metadata>
<g transform="translate(0.000000,200.000000) scale(0.100000,-0.100000)"
fill="#000000" stroke="none">
<path d="M890 1769 c-41 -8 -150 -39 -158 -45 -2 -1 4 -14 13 -28 13 -19 21
-23 38 -17 12 5 25 19 28 32 8 26 8 26 14 -79 2 -50 9 -59 30 -42 19 16 20 3
0 -16 -25 -26 14 -140 47 -138 10 1 15 -2 12 -7 -3 -5 -13 -9 -22 -9 -13 0
-13 -2 4 -16 16 -13 16 -15 2 -10 -12 3 -18 0 -18 -9 0 -8 8 -15 18 -15 16 -1
52 -22 52 -32 0 -2 -13 -3 -30 0 -16 2 -30 0 -30 -6 0 -14 49 -44 60 -37 14 8
13 -8 -1 -22 -6 -6 -17 -9 -24 -7 -6 3 -17 -2 -24 -10 -10 -12 -9 -17 8 -25
13 -7 22 -8 26 -1 3 5 11 10 17 10 6 0 3 -9 -8 -21 -10 -12 -18 -23 -17 -25 2
-2 9 -17 17 -32 8 -15 28 -46 46 -70 l31 -43 264 263 c209 209 261 266 252
277 -21 25 -129 93 -196 123 -125 57 -323 82 -451 57z"/>
<path d="M649 1683 c-57 -31 -128 -83 -168 -121 -18 -18 -2 -47 25 -47 10 0
23 -6 27 -12 4 -7 15 -13 22 -13 8 0 15 -5 15 -11 0 -8 6 -7 17 2 14 12 16 12
11 -2 -3 -9 -2 -22 3 -30 6 -10 10 -6 15 16 3 17 20 46 38 66 l31 37 -1 -33
c-1 -18 -5 -42 -9 -54 -4 -12 -2 -21 4 -21 6 0 12 5 12 10 1 6 2 14 3 19 2 18
16 24 16 8 0 -26 20 -20 21 6 1 12 1 25 0 30 0 4 3 7 8 7 11 0 23 -29 16 -40
-11 -18 13 -19 29 -1 21 24 13 81 -15 107 -10 9 -19 25 -19 35 0 10 -8 32 -18
48 l-18 30 -65 -36z"/>
<path d="M393 1457 c-79 -111 -143 -272 -143 -360 0 -24 3 -26 23 -18 13 5 50
12 83 15 119 13 172 27 177 48 6 21 -14 34 -38 24 -10 -3 -15 1 -15 12 -1 12
-5 9 -16 -10 -8 -16 -16 -28 -18 -28 -2 0 -2 20 -1 45 1 53 -4 65 -33 68 -21
1 -32 17 -12 17 15 0 12 28 -6 55 -9 14 -12 25 -6 25 6 0 14 -4 17 -10 12 -19
25 -10 25 19 0 25 3 28 25 23 36 -7 32 37 -5 51 -10 4 -8 6 8 6 17 1 22 7 22
26 0 14 -4 25 -9 25 -5 0 -8 7 -7 16 3 37 -22 20 -71 -49z"/>
<path d="M508 1494 c-7 -40 -2 -64 12 -62 21 4 24 42 5 58 -8 7 -16 9 -17 4z"/>
<path d="M1377 1252 c-136 -136 -247 -249 -247 -252 0 -3 31 -5 68 -6 55 -1
77 -6 116 -29 26 -15 58 -29 72 -31 13 -1 38 -9 55 -18 18 -9 35 -16 40 -16 4
0 1 24 -6 53 -8 28 -16 70 -20 92 -3 21 -17 59 -32 84 l-26 45 29 22 c16 13
44 35 62 50 20 17 48 28 73 30 l40 4 -46 -52 c-46 -51 -47 -54 -43 -106 5 -56
17 -72 54 -72 19 0 23 -8 29 -57 4 -32 7 -59 6 -60 0 -2 6 -18 14 -37 22 -51
18 -83 -11 -113 -24 -24 -29 -25 -115 -21 -49 2 -89 2 -89 -1 0 -8 72 -71 82
-71 5 0 25 -8 46 -18 20 -10 53 -19 73 -20 19 -2 51 -7 70 -12 30 -9 36 -7 51
12 22 29 66 166 76 239 28 186 -28 409 -140 566 -17 23 -32 43 -32 43 -1 0
-112 -111 -249 -248z"/>
<path d="M785 1464 c-19 -29 -16 -38 9 -28 9 3 16 17 16 30 0 30 -4 30 -25 -2z"/>
<path d="M801 1394 c0 -11 3 -14 6 -6 3 7 2 16 -1 19 -3 4 -6 -2 -5 -13z"/>
<path d="M895 1290 c-3 -5 -1 -10 4 -10 6 0 11 5 11 10 0 6 -2 10 -4 10 -3 0
-8 -4 -11 -10z"/>
<path d="M19 1076 c10 -11 8 -15 -6 -19 -12 -3 -8 -5 10 -6 16 -1 27 -7 27
-15 0 -18 42 -28 77 -19 16 3 46 7 68 7 34 1 41 5 43 24 3 23 2 23 -46 17 -32
-4 -71 -1 -110 9 -73 20 -77 20 -63 2z"/>
<path d="M610 1030 c-13 -23 -35 -27 -26 -5 5 13 -1 15 -37 10 -23 -4 -58 -10
-77 -14 -19 -4 -79 -6 -133 -4 l-98 4 6 -63 c15 -171 43 -254 129 -388 72
-110 48 -119 276 109 111 110 199 205 195 211 -3 5 -22 10 -41 10 -48 0 -71
14 -79 49 -7 31 -70 101 -91 101 -7 0 -18 -9 -24 -20z"/>
<path d="M740 615 l-215 -216 25 -20 c62 -49 207 -120 272 -133 13 -3 45 -9
73 -15 77 -15 217 -10 305 10 142 33 275 107 378 211 60 59 69 78 40 79 -103
2 -170 13 -223 36 -33 14 -78 32 -100 41 -61 25 -90 44 -163 108 -49 44 -158
114 -176 114 -1 0 -98 -97 -216 -215z"/>
<path d="M1713 603 c-10 -16 -23 -34 -30 -41 -21 -22 -15 -32 21 -32 19 0 46
-4 60 -9 18 -7 28 -6 36 5 31 36 105 -1 151 -76 17 -28 35 -48 40 -44 14 8 11
52 -7 85 -8 17 -19 49 -23 72 l-7 42 -56 -3 c-31 -2 -79 3 -109 12 -29 9 -54
16 -56 16 -1 0 -10 -12 -20 -27z"/>
</g>
</svg>
