                                                                        S      1
,,9HXl1010 v1,9HXl1010 v1,7Hunknown,7Hunknown,32,38,7,99,15,,1.,2,2HMM, G      1
1,0.08,15H20240316.162648,0.01,10000.,7Hunknown,7Hunknown,11,0,15H202403G      2
16.232629;                                                              G      3
     186       1                                                00000000D      1
     186            -181       1       0                               0D      2
     186       2                                                00000000D      3
     186            -183       1       0                               0D      4
     514       3                                                00010000D      5
     514                       1       1                               0D      6
     514       4                                                00010000D      7
     514                       1       1                               0D      8
     510       5                                                00010000D      9
     510            -181       1       1                               0D     10
     510       6                                                00010000D     11
     510            -181       1       1                               0D     12
     510       7                                                00010000D     13
     510            -181       1       1                               0D     14
     510       8                                                00010000D     15
     510            -181       1       1                               0D     16
     510       9                                                00010000D     17
     510            -181       1       1                               0D     18
     510      10                                                00010000D     19
     510            -181       1       1                               0D     20
     510      11                                                00010000D     21
     510            -181       1       1                               0D     22
     510      12                                                00010000D     23
     510            -181       1       1                               0D     24
     510      13                                                00010000D     25
     510            -181       1       1                               0D     26
     510      14                                                00010000D     27
     510            -181       1       1                               0D     28
     510      15                                                00010000D     29
     510            -183       1       1                               0D     30
     510      16                                                00010000D     31
     510            -183       1       1                               0D     32
     510      17                                                00010000D     33
     510            -183       1       1                               0D     34
     510      18                                                00010000D     35
     510            -183       1       1                               0D     36
     510      19                                                00010000D     37
     510            -183       1       1                               0D     38
     510      20                                                00010000D     39
     510            -183       1       1                               0D     40
     508      21                                                00010000D     41
     508                       1       1                               0D     42
     508      22                                                00010000D     43
     508                       1       1                               0D     44
     508      23                                                00010000D     45
     508                       1       1                               0D     46
     508      24                                                00010000D     47
     508                       1       1                               0D     48
     508      25                                                00010000D     49
     508                       1       1                               0D     50
     508      26                                                00010000D     51
     508                       1       1                               0D     52
     508      27                                                00010000D     53
     508                       1       1                               0D     54
     508      28                                                00010000D     55
     508                       1       1                               0D     56
     508      29                                                00010000D     57
     508                       1       1                               0D     58
     508      30                                                00010000D     59
     508                       1       1                               0D     60
     508      31                                                00010000D     61
     508                       1       1                               0D     62
     508      32                                                00010000D     63
     508                       1       1                               0D     64
     508      33                                                00010000D     65
     508                       1       1                               0D     66
     508      34                                                00010000D     67
     508                       1       1                               0D     68
     508      35                                                00010000D     69
     508                       1       1                               0D     70
     508      36                                                00010000D     71
     508                       1       1                               0D     72
     126      37                                                00010000D     73
     126       0               2       0                               0D     74
     126      39                                                00010000D     75
     126       0               2       0                               0D     76
     126      41                                                00010000D     77
     126       0               2       0                               0D     78
     126      43                                                00010000D     79
     126       0               2       0                               0D     80
     126      45                                                00010000D     81
     126       0               2       0                               0D     82
     126      47                                                00010000D     83
     126       0               2       0                               0D     84
     126      49                                                00010000D     85
     126       0               2       0                               0D     86
     126      51                                                00010000D     87
     126       0               2       0                               0D     88
     126      53                                                00010000D     89
     126       0               2       0                               0D     90
     126      55                                                00010000D     91
     126       0               2       0                               0D     92
     126      57                                                00010000D     93
     126       0               2       0                               0D     94
     126      59                                                00010000D     95
     126       0               2       0                               0D     96
     126      61                                                00010000D     97
     126       0               5       0                               0D     98
     126      66                                                00010000D     99
     126       0               5       0                               0D    100
     126      71                                                00010000D    101
     126       0               2       0                               0D    102
     126      73                                                00010000D    103
     126       0               5       0                               0D    104
     126      78                                                00010000D    105
     126       0               2       0                               0D    106
     126      80                                                00010000D    107
     126       0               5       0                               0D    108
     126      85                                                00010000D    109
     126       0               2       0                               0D    110
     126      87                                                00010000D    111
     126       0               2       0                               0D    112
     126      89                                                00010000D    113
     126       0               2       0                               0D    114
     126      91                                                00010000D    115
     126       0               2       0                               0D    116
     126      93                                                00010000D    117
     126       0               2       0                               0D    118
     126      95                                                00010000D    119
     126       0               2       0                               0D    120
     126      97                                                00010000D    121
     126       0               2       0                               0D    122
     126      99                                                00010000D    123
     126       0               2       0                               0D    124
     126     101                                                00010000D    125
     126       0               2       0                               0D    126
     126     103                                                00010000D    127
     126       0               2       0                               0D    128
     126     105                                                00010000D    129
     126       0               2       0                               0D    130
     126     107                                                00010000D    131
     126       0               2       0                               0D    132
     126     109                                                00010000D    133
     126       0               2       0                               0D    134
     126     111                                                00010000D    135
     126       0               2       0                               0D    136
     128     113                                                00010000D    137
     128       0    -181       3       0                               0D    138
     128     116                                                00010000D    139
     128       0    -181       3       0                               0D    140
     128     119                                                00010000D    141
     128       0    -181       3       0                               0D    142
     128     122                                                00010000D    143
     128       0    -181       3       0                               0D    144
     128     125                                                00010000D    145
     128       0    -181       7       0                               0D    146
     128     132                                                00010000D    147
     128       0    -181       7       0                               0D    148
     128     139                                                00010000D    149
     128       0    -181       8       0                               0D    150
     128     147                                                00010000D    151
     128       0    -181       8       0                               0D    152
     128     155                                                00010000D    153
     128       0    -181       4       0                               0D    154
     128     159                                                00010000D    155
     128       0    -181       3       0                               0D    156
     128     162                                                00010000D    157
     128       0    -183       3       0                               0D    158
     128     165                                                00010000D    159
     128       0    -183       3       0                               0D    160
     128     168                                                00010000D    161
     128       0    -183       3       0                               0D    162
     128     171                                                00010000D    163
     128       0    -183       3       0                               0D    164
     128     174                                                00010000D    165
     128       0    -183       3       0                               0D    166
     128     177                                                00010000D    167
     128       0    -183       3       0                               0D    168
     502     180                                                00010000D    169
     502                       4       1                               0D    170
     502     184                                                00010000D    171
     502                       2       1                               0D    172
     504     186                                                00010001D    173
     504                       6       1                               0D    174
     504     192                                                00010001D    175
     504                       4       1                               0D    176
     406     196                                                00000000D    177
     406                       1      15                               0D    178
     406     197                                                00000000D    179
     406                       1      15                               0D    180
     314     198                                                00000200D    181
     314                       2       0                               0D    182
     314     200                                                00000200D    183
     314                       2       0                               0D    184
     314     202                                                00000200D    185
     314                       2       0                               0D    186
186,5,1,0,0,1,177;                                                     1P      1
186,7,1,0,0,1,179;                                                     3P      2
514,10,9,1,11,1,13,1,15,1,17,1,19,1,21,1,23,1,25,1,27,1;               5P      3
514,6,29,1,31,1,33,1,35,1,37,1,39,1;                                   7P      4
510,137,1,1,41;                                                        9P      5
510,139,1,1,43;                                                       11P      6
510,141,1,1,45;                                                       13P      7
510,143,1,1,47;                                                       15P      8
510,145,1,1,49;                                                       17P      9
510,147,1,1,51;                                                       19P     10
510,149,1,1,53;                                                       21P     11
510,151,1,1,55;                                                       23P     12
510,153,1,1,57;                                                       25P     13
510,155,1,1,59;                                                       27P     14
510,157,1,1,61;                                                       29P     15
510,159,1,1,63;                                                       31P     16
510,161,1,1,65;                                                       33P     17
510,163,1,1,67;                                                       35P     18
510,165,1,1,69;                                                       37P     19
510,167,1,1,71;                                                       39P     20
508,4,0,173,1,0,0,0,173,2,0,0,0,173,3,0,0,0,173,4,0,0;                41P     21
508,4,0,173,1,1,0,0,173,5,1,0,0,173,6,0,0,0,173,7,0,0;                43P     22
508,4,0,173,4,1,0,0,173,8,1,0,0,173,9,0,0,0,173,5,0,0;                45P     23
508,4,0,173,3,1,0,0,173,10,1,0,0,173,11,0,0,0,173,8,0,0;              47P     24
508,4,0,173,12,1,0,0,173,13,1,0,0,173,9,1,0,0,173,14,0,0;             49P     25
508,4,0,173,15,1,0,0,173,16,1,0,0,173,6,1,0,0,173,13,0,0;             51P     26
508,4,0,173,17,1,0,0,173,18,1,0,0,173,19,1,0,0,173,16,0,0;            53P     27
508,4,0,173,11,1,0,0,173,18,0,0,0,173,20,1,0,0,173,14,1,0;            55P     28
508,4,0,173,12,0,0,0,173,20,0,0,0,173,17,0,0,0,173,15,0,0;            57P     29
508,4,0,173,2,1,0,0,173,7,1,0,0,173,19,0,0,0,173,10,0,0;              59P     30
508,4,0,175,1,0,0,0,175,2,1,0,0,175,3,0,0,0,175,4,0,0;                61P     31
508,4,0,175,5,0,0,0,175,4,1,0,0,175,6,0,0,0,175,7,0,0;                63P     32
508,4,0,175,8,0,0,0,175,7,1,0,0,175,9,0,0,0,175,10,0,0;               65P     33
508,4,0,175,11,0,0,0,175,10,1,0,0,175,12,0,0,0,175,2,0,0;             67P     34
508,4,0,175,11,1,0,0,175,1,1,0,0,175,5,1,0,0,175,8,1,0;               69P     35
508,4,0,175,12,1,0,0,175,9,1,0,0,175,6,1,0,0,175,3,1,0;               71P     36
126,1,1,0,0,1,0,0.,0.,0.1,0.1,1.,1.,0.5,-0.5,0.25,0.5,0.5,0.25,       73P     37
0.,0.1,0.,0.,0.;                                                      73P     38
126,1,1,0,0,1,0,-0.05,-0.05,0.05,0.05,1.,1.,-0.5,-0.5,0.25,0.5,       75P     39
-0.5,0.25,-0.05,0.05,0.,0.,0.;                                        75P     40
126,1,1,0,0,1,0,-0.05,-0.05,0.05,0.05,1.,1.,-0.5,0.5,0.25,-0.5,       77P     41
-0.5,0.25,-0.05,0.05,0.,0.,0.;                                        77P     42
126,1,1,0,0,1,0,0.,0.,0.1,0.1,1.,1.,0.5,0.5,0.25,-0.5,0.5,0.25,       79P     43
0.,0.1,0.,0.,0.;                                                      79P     44
126,1,1,0,0,1,0,0.025,0.025,0.0746,0.0746,1.,1.,0.5,0.5,0.25,         81P     45
0.5,0.5,0.746,0.025,0.0746,0.,0.,0.;                                  81P     46
126,1,1,0,0,1,0,-0.025,-0.025,0.075,0.075,1.,1.,0.5,-0.5,0.746,       83P     47
0.5,0.5,0.746,-0.025,0.075,0.,0.,0.;                                  83P     48
126,1,1,0,0,1,0,0.025,0.025,0.0746,0.0746,1.,1.,0.5,-0.5,0.25,        85P     49
0.5,-0.5,0.746,0.025,0.0746,0.,0.,0.;                                 85P     50
126,1,1,0,0,1,0,0.025,0.025,0.0746,0.0746,1.,1.,-0.5,0.5,0.25,        87P     51
-0.5,0.5,0.746,0.025,0.0746,0.,0.,0.;                                 87P     52
126,1,1,0,0,1,0,-0.025,-0.025,0.075,0.075,1.,1.,0.5,0.5,0.746,        89P     53
-0.5,0.5,0.746,-0.025,0.075,0.,0.,0.;                                 89P     54
126,1,1,0,0,1,0,0.025,0.025,0.0746,0.0746,1.,1.,-0.5,-0.5,0.25,       91P     55
-0.5,-0.5,0.746,0.025,0.0746,0.,0.,0.;                                91P     56
126,1,1,0,0,1,0,-0.025,-0.025,0.075,0.075,1.,1.,-0.5,0.5,0.746,       93P     57
-0.5,-0.5,0.746,-0.025,0.075,0.,0.,0.;                                93P     58
126,1,1,0,0,1,0,-0.0696,-0.0696,0.0196,0.0196,1.,1.,-0.446,           95P     59
0.446,0.8,0.446,0.446,0.8,-0.0696,0.0196,0.,0.,0.;                    95P     60
126,2,2,0,0,0,0,-1.5707963267949,-1.5707963267949,                    97P     61
-1.5707963267949,3.85494105772624D-15,3.85494105772624D-15,           97P     62
3.85494105772624D-15,1.,0.707106781186545,1.,0.446,0.446,0.8,         97P     63
0.5,0.5,0.8,0.5,0.5,0.746,-1.5707963267949,3.85494105772624D-15,      97P     64
0.,0.,0.;                                                             97P     65
126,2,2,0,0,0,0,-1.5707963267949,-1.5707963267949,                    99P     66
-1.5707963267949,3.85494105772624D-15,3.85494105772624D-15,           99P     67
3.85494105772624D-15,1.,0.707106781186545,1.,-0.446,0.446,0.8,        99P     68
-0.5,0.5,0.8,-0.5,0.5,0.746,-1.5707963267949,                         99P     69
3.85494105772624D-15,0.,0.,0.;                                        99P     70
126,1,1,0,0,1,0,-0.0696,-0.0696,0.0196,0.0196,1.,1.,0.446,0.446,     101P     71
0.8,0.446,-0.446,0.8,-0.0696,0.0196,0.,0.,0.;                        101P     72
126,2,2,0,0,0,0,-1.5707963267949,-1.5707963267949,                   103P     73
-1.5707963267949,3.85494105772624D-15,3.85494105772624D-15,          103P     74
3.85494105772624D-15,1.,0.707106781186545,1.,0.446,-0.446,0.8,       103P     75
0.5,-0.5,0.8,0.5,-0.5,0.746,-1.5707963267949,                        103P     76
3.85494105772624D-15,0.,0.,0.;                                       103P     77
126,1,1,0,0,1,0,-0.0696,-0.0696,0.0196,0.0196,1.,1.,0.446,           105P     78
-0.446,0.8,-0.446,-0.446,0.8,-0.0696,0.0196,0.,0.,0.;                105P     79
126,2,2,0,0,0,0,-1.5707963267949,-1.5707963267949,                   107P     80
-1.5707963267949,3.85494105772624D-15,3.85494105772624D-15,          107P     81
3.85494105772624D-15,1.,0.707106781186545,1.,-0.446,-0.446,0.8,      107P     82
-0.5,-0.5,0.8,-0.5,-0.5,0.746,-1.5707963267949,                      107P     83
3.85494105772624D-15,0.,0.,0.;                                       107P     84
126,1,1,0,0,1,0,-0.025,-0.025,0.075,0.075,1.,1.,-0.5,-0.5,0.746,     109P     85
0.5,-0.5,0.746,-0.025,0.075,0.,0.,0.;                                109P     86
126,1,1,0,0,1,0,-0.0696,-0.0696,0.0196,0.0196,1.,1.,-0.446,          111P     87
-0.446,0.8,-0.446,0.446,0.8,-0.0696,0.0196,0.,0.,0.;                 111P     88
126,1,1,0,0,1,0,0.,0.,0.1,0.1,1.,1.,0.5,-0.5,0.,0.5,0.5,0.,0.,       113P     89
0.1,0.,0.,0.;                                                        113P     90
126,1,1,0,0,1,0,0.,0.,0.1,0.1,1.,1.,0.5,-0.5,0.,-0.5,-0.5,0.,0.,     115P     91
0.1,0.,0.,0.;                                                        115P     92
126,1,1,0,0,1,0,-0.1,-0.1,0.,0.,1.,1.,-0.5,0.5,0.,-0.5,-0.5,0.,      117P     93
-0.1,0.,0.,0.,0.;                                                    117P     94
126,1,1,0,0,1,0,0.,0.,0.1,0.1,1.,1.,0.5,0.5,0.,-0.5,0.5,0.,0.,       119P     95
0.1,0.,0.,0.;                                                        119P     96
126,1,1,0,0,1,0,0.,0.,0.025,0.025,1.,1.,0.5,0.5,0.,0.5,0.5,0.25,     121P     97
0.,0.025,0.,0.,0.;                                                   121P     98
126,1,1,0,0,1,0,-0.025,-0.025,0.,0.,1.,1.,-0.5,0.5,0.25,-0.5,        123P     99
0.5,0.,-0.025,0.,0.,0.,0.;                                           123P    100
126,1,1,0,0,1,0,0.,0.,0.1,0.1,1.,1.,0.5,0.5,0.25,-0.5,0.5,0.25,      125P    101
0.,0.1,0.,0.,0.;                                                     125P    102
126,1,1,0,0,1,0,0.,0.,0.1,0.1,1.,1.,0.5,0.5,0.25,0.5,-0.5,0.25,      127P    103
0.,0.1,0.,0.,0.;                                                     127P    104
126,1,1,0,0,1,0,-0.1,-0.1,0.,0.,1.,1.,-0.5,-0.5,0.25,-0.5,0.5,       129P    105
0.25,-0.1,0.,0.,0.,0.;                                               129P    106
126,1,1,0,0,1,0,0.,0.,0.1,0.1,1.,1.,0.5,-0.5,0.25,-0.5,-0.5,         131P    107
0.25,0.,0.1,0.,0.,0.;                                                131P    108
126,1,1,0,0,1,0,0.,0.,0.025,0.025,1.,1.,0.5,-0.5,0.25,0.5,-0.5,      133P    109
0.,0.,0.025,0.,0.,0.;                                                133P    110
126,1,1,0,0,1,0,-0.025,-0.025,0.,0.,1.,1.,-0.5,-0.5,0.,-0.5,         135P    111
-0.5,0.25,-0.025,0.,0.,0.,0.;                                        135P    112
128,1,1,1,1,0,0,1,0,0,-0.001,-0.001,0.101,0.101,-0.001,-0.001,       137P    113
0.101,0.101,1.,1.,1.,1.,0.51,0.51,0.25,0.51,-0.51,0.25,-0.51,        137P    114
0.51,0.25,-0.51,-0.51,0.25,-0.001,0.101,-0.001,0.101;                137P    115
128,1,1,1,1,0,0,1,0,0,-0.001,-0.001,0.101,0.101,0.024,0.024,         139P    116
0.0756,0.0756,1.,1.,1.,1.,0.5,-0.51,0.24,0.5,0.51,0.24,0.5,          139P    117
-0.51,0.756,0.5,0.51,0.756,-0.001,0.101,0.024,0.0756;                139P    118
128,1,1,1,1,0,0,1,0,0,-0.001,-0.001,0.101,0.101,0.024,0.024,         141P    119
0.0756,0.0756,1.,1.,1.,1.,0.51,0.5,0.24,-0.51,0.5,0.24,0.51,0.5,     141P    120
0.756,-0.51,0.5,0.756,-0.001,0.101,0.024,0.0756;                     141P    121
128,1,1,1,1,0,0,1,0,0,-0.001,-0.001,0.101,0.101,0.024,0.024,         143P    122
0.0756,0.0756,1.,1.,1.,1.,-0.5,0.51,0.24,-0.5,-0.51,0.24,-0.5,       143P    123
0.51,0.756,-0.5,-0.51,0.756,-0.001,0.101,0.024,0.0756;               143P    124
128,1,2,1,2,0,0,0,0,0,-4.62962962962963,-4.62962962962963,           145P    125
13.8888888888889,13.8888888888889,-0.785398163397451,                145P    126
-0.785398163397451,-0.785398163397451,0.78539816339745,              145P    127
0.78539816339745,0.78539816339745,1.,1.,0.707106781186546,           145P    128
0.707106781186546,1.,1.,-0.5,0.446,0.8,0.5,0.446,0.8,-0.5,0.5,       145P    129
0.8,0.5,0.5,0.8,-0.5,0.5,0.746,0.5,0.5,0.746,-4.62962962962963,      145P    130
13.8888888888889,-0.785398163397451,0.78539816339745;                145P    131
128,1,2,1,2,0,0,0,0,0,-4.62962962962963,-4.62962962962963,           147P    132
13.8888888888889,13.8888888888889,-0.785398163397451,                147P    133
-0.785398163397451,-0.785398163397451,0.78539816339745,              147P    134
0.78539816339745,0.78539816339745,1.,1.,0.707106781186546,           147P    135
0.707106781186546,1.,1.,0.446,0.5,0.8,0.446,-0.5,0.8,0.5,0.5,        147P    136
0.8,0.5,-0.5,0.8,0.5,0.5,0.746,0.5,-0.5,0.746,-4.62962962962963,     147P    137
13.8888888888889,-0.785398163397451,0.78539816339745;                147P    138
128,1,2,1,2,0,0,0,0,0,-4.62962962962963,-4.62962962962963,           149P    139
13.8888888888889,13.8888888888889,-0.785398163397451,                149P    140
-0.785398163397451,-0.785398163397451,0.78539816339745,              149P    141
0.78539816339745,0.78539816339745,1.,1.,0.707106781186546,           149P    142
0.707106781186546,1.,1.,0.5,-0.446,0.8,-0.5,-0.446,0.8,0.5,-0.5,     149P    143
0.8,-0.5,-0.5,0.8,0.5,-0.5,0.746,-0.5,-0.5,0.746,                    149P    144
-4.62962962962963,13.8888888888889,-0.785398163397451,               149P    145
0.78539816339745;                                                    149P    146
128,1,2,1,2,0,0,0,0,0,-4.62962962962963,-4.62962962962963,           151P    147
13.8888888888889,13.8888888888889,-0.785398163397451,                151P    148
-0.785398163397451,-0.785398163397451,0.78539816339745,              151P    149
0.78539816339745,0.78539816339745,1.,1.,0.707106781186546,           151P    150
0.707106781186546,1.,1.,-0.446,-0.5,0.8,-0.446,0.5,0.8,-0.5,         151P    151
-0.5,0.8,-0.5,0.5,0.8,-0.5,-0.5,0.746,-0.5,0.5,0.746,                151P    152
-4.62962962962963,13.8888888888889,-0.785398163397451,               151P    153
0.78539816339745;                                                    151P    154
128,1,1,1,1,0,0,1,0,0,-0.0456,-0.0456,0.0456,0.0456,-0.0456,         153P    155
-0.0456,0.0456,0.0456,1.,1.,1.,1.,-0.456,-0.456,0.8,0.456,           153P    156
-0.456,0.8,-0.456,0.456,0.8,0.456,0.456,0.8,-0.0456,0.0456,          153P    157
-0.0456,0.0456;                                                      153P    158
128,1,1,1,1,0,0,1,0,0,-0.001,-0.001,0.101,0.101,0.024,0.024,         155P    159
0.0756,0.0756,1.,1.,1.,1.,-0.51,-0.5,0.24,0.51,-0.5,0.24,-0.51,      155P    160
-0.5,0.756,0.51,-0.5,0.756,-0.001,0.101,0.024,0.0756;                155P    161
128,1,1,1,1,0,0,1,0,0,-0.001,-0.001,0.101,0.101,-0.001,-0.001,       157P    162
0.101,0.101,1.,1.,1.,1.,0.51,0.51,0.,0.51,-0.51,0.,-0.51,0.51,       157P    163
0.,-0.51,-0.51,0.,-0.001,0.101,-0.001,0.101;                         157P    164
128,1,1,1,1,0,0,1,0,0,-0.001,-0.001,0.026,0.026,-0.001,-0.001,       159P    165
0.101,0.101,1.,1.,1.,1.,0.51,0.5,0.26,0.51,0.5,-0.01,-0.51,0.5,      159P    166
0.26,-0.51,0.5,-0.01,-0.001,0.026,-0.001,0.101;                      159P    167
128,1,1,1,1,0,0,1,0,0,-0.001,-0.001,0.101,0.101,-0.001,-0.001,       161P    168
0.101,0.101,1.,1.,1.,1.,0.51,-0.51,0.25,0.51,0.51,0.25,-0.51,        161P    169
-0.51,0.25,-0.51,0.51,0.25,-0.001,0.101,-0.001,0.101;                161P    170
128,1,1,1,1,0,0,1,0,0,-0.001,-0.001,0.026,0.026,-0.001,-0.001,       163P    171
0.101,0.101,1.,1.,1.,1.,0.51,-0.5,-0.01,0.51,-0.5,0.26,-0.51,        163P    172
-0.5,-0.01,-0.51,-0.5,0.26,-0.001,0.026,-0.001,0.101;                163P    173
128,1,1,1,1,0,0,1,0,0,-0.051,-0.051,0.051,0.051,-0.0135,-0.0135,     165P    174
0.0135,0.0135,1.,1.,1.,1.,0.5,-0.51,-0.01,0.5,0.51,-0.01,0.5,        165P    175
-0.51,0.26,0.5,0.51,0.26,-0.051,0.051,-0.0135,0.0135;                165P    176
128,1,1,1,1,0,0,1,0,0,-0.0135,-0.0135,0.0135,0.0135,-0.051,          167P    177
-0.051,0.051,0.051,1.,1.,1.,1.,-0.5,-0.51,-0.01,-0.5,-0.51,0.26,     167P    178
-0.5,0.51,-0.01,-0.5,0.51,0.26,-0.0135,0.0135,-0.051,0.051;          167P    179
502,12,0.5,-0.5,0.25,0.5,0.5,0.25,-0.5,-0.5,0.25,-0.5,0.5,0.25,      169P    180
0.5,0.5,0.746,0.5,-0.5,0.746,-0.5,0.5,0.746,-0.5,-0.5,0.746,         169P    181
-0.446,0.446,0.8,0.446,0.446,0.8,0.446,-0.446,0.8,-0.446,-0.446,     169P    182
0.8;                                                                 169P    183
502,8,0.5,-0.5,0.,0.5,0.5,0.,-0.5,-0.5,0.,-0.5,0.5,0.,0.5,0.5,       171P    184
0.25,-0.5,0.5,0.25,0.5,-0.5,0.25,-0.5,-0.5,0.25;                     171P    185
504,20,73,169,1,169,2,75,169,3,169,1,77,169,4,169,3,79,169,2,        173P    186
169,4,81,169,2,169,5,83,169,6,169,5,85,169,1,169,6,87,169,4,169,     173P    187
7,89,169,5,169,7,91,169,3,169,8,93,169,7,169,8,95,169,9,169,10,      173P    188
97,169,10,169,5,99,169,9,169,7,101,169,10,169,11,103,169,11,169,     173P    189
6,105,169,11,169,12,107,169,12,169,8,109,169,8,169,6,111,169,12,     173P    190
169,9;                                                               173P    191
504,12,113,171,1,171,2,115,171,1,171,3,117,171,4,171,3,119,171,      175P    192
2,171,4,121,171,2,171,5,123,171,6,171,4,125,171,5,171,6,127,171,     175P    193
5,171,7,129,171,8,171,6,131,171,7,171,8,133,171,7,171,1,135,171,     175P    194
3,171,8;                                                             175P    195
406,1,5HBody2;                                                       177P    196
406,1,5HBody3;                                                       179P    197
314,76.8627450980392,20.7843137254902,15.2941176470588,9HLED (Re     181P    198
d);                                                                  181P    199
314,79.6078431372549,79.6078431372549,79.6078431372549,23HStainl     183P    200
ess Steel - Satin;                                                   183P    201
314,62.7450980392157,62.7450980392157,62.7450980392157,13HSteel      185P    202
- Satin;                                                             185P    203
S      1G      3D    186P    203                                        T      1
