G04 #@! TF.GenerationSoftware,KiCad,Pcbnew,8.0.6*
G04 #@! TF.CreationDate,2024-12-30T15:56:30-08:00*
G04 #@! TF.ProjectId,Jumperless23V50,4a756d70-6572-46c6-9573-733233563530,rev?*
G04 #@! TF.SameCoordinates,Original*
G04 #@! TF.FileFunction,Paste,Bot*
G04 #@! TF.FilePolarity,Positive*
%FSLAX46Y46*%
G04 Gerber Fmt 4.6, Leading zero omitted, Abs format (unit mm)*
G04 Created by KiCad (PCBNEW 8.0.6) date 2024-12-30 15:56:30*
%MOMM*%
%LPD*%
G01*
G04 APERTURE LIST*
G04 Aperture macros list*
%AMRoundRect*
0 Rectangle with rounded corners*
0 $1 Rounding radius*
0 $2 $3 $4 $5 $6 $7 $8 $9 X,Y pos of 4 corners*
0 Add a 4 corners polygon primitive as box body*
4,1,4,$2,$3,$4,$5,$6,$7,$8,$9,$2,$3,0*
0 Add four circle primitives for the rounded corners*
1,1,$1+$1,$2,$3*
1,1,$1+$1,$4,$5*
1,1,$1+$1,$6,$7*
1,1,$1+$1,$8,$9*
0 Add four rect primitives between the rounded corners*
20,1,$1+$1,$2,$3,$4,$5,0*
20,1,$1+$1,$4,$5,$6,$7,0*
20,1,$1+$1,$6,$7,$8,$9,0*
20,1,$1+$1,$8,$9,$2,$3,0*%
%AMRotRect*
0 Rectangle, with rotation*
0 The origin of the aperture is its center*
0 $1 length*
0 $2 width*
0 $3 Rotation angle, in degrees counterclockwise*
0 Add horizontal line*
21,1,$1,$2,0,0,$3*%
%AMFreePoly0*
4,1,21,0.922379,0.284102,0.946805,0.258670,0.997605,0.182470,1.014400,0.127000,1.014400,-0.127000,0.997605,-0.182470,0.946805,-0.258670,0.898310,-0.296983,0.863600,-0.303200,-0.838200,-0.303200,-0.896979,-0.284102,-0.921405,-0.258670,-0.972205,-0.182470,-0.989000,-0.127000,-0.989000,0.127000,-0.972205,0.182470,-0.921405,0.258670,-0.872910,0.296983,-0.838200,0.303200,0.863600,0.303200,
0.922379,0.284102,0.922379,0.284102,$1*%
%AMFreePoly1*
4,1,21,0.838850,0.288949,0.965850,0.212749,1.006426,0.166131,1.014400,0.127000,1.014400,-0.152400,0.995302,-0.211179,0.951539,-0.245248,0.824539,-0.296048,0.787400,-0.303200,-0.762000,-0.303200,-0.813450,-0.288949,-0.940450,-0.212749,-0.981026,-0.166131,-0.989000,-0.127000,-0.989000,0.127000,-0.969902,0.185779,-0.940450,0.212749,-0.813450,0.288949,-0.762000,0.303200,0.787400,0.303200,
0.838850,0.288949,0.838850,0.288949,$1*%
G04 Aperture macros list end*
%ADD10RoundRect,0.135000X-0.226274X-0.035355X-0.035355X-0.226274X0.226274X0.035355X0.035355X0.226274X0*%
%ADD11RoundRect,0.135000X0.185000X-0.135000X0.185000X0.135000X-0.185000X0.135000X-0.185000X-0.135000X0*%
%ADD12RoundRect,0.140000X-0.170000X0.140000X-0.170000X-0.140000X0.170000X-0.140000X0.170000X0.140000X0*%
%ADD13R,0.500000X0.400000*%
%ADD14R,0.500000X0.300000*%
%ADD15RoundRect,0.135000X-0.135000X-0.185000X0.135000X-0.185000X0.135000X0.185000X-0.135000X0.185000X0*%
%ADD16RoundRect,0.140000X-0.151518X-0.159820X0.127800X-0.179352X0.151518X0.159820X-0.127800X0.179352X0*%
%ADD17RoundRect,0.125000X0.475000X0.125000X-0.475000X0.125000X-0.475000X-0.125000X0.475000X-0.125000X0*%
%ADD18RoundRect,0.125000X0.125000X-0.475000X0.125000X0.475000X-0.125000X0.475000X-0.125000X-0.475000X0*%
%ADD19RoundRect,0.140000X0.162297X0.148861X-0.114978X0.187830X-0.162297X-0.148861X0.114978X-0.187830X0*%
%ADD20RoundRect,0.135000X-0.172530X0.150610X-0.196062X-0.118362X0.172530X-0.150610X0.196062X0.118362X0*%
%ADD21RoundRect,0.140000X0.187719X0.115159X-0.077026X0.206318X-0.187719X-0.115159X0.077026X-0.206318X0*%
%ADD22RoundRect,0.135000X0.070317X-0.217958X0.229019X0.000477X-0.070317X0.217958X-0.229019X-0.000477X0*%
%ADD23RoundRect,0.158750X-0.126274X-0.242181X0.188136X-0.197993X0.126274X0.242181X-0.188136X0.197993X0*%
%ADD24R,0.400000X0.500000*%
%ADD25R,0.300000X0.500000*%
%ADD26RoundRect,0.140000X0.069779X0.208880X-0.191624X0.108537X-0.069779X-0.208880X0.191624X-0.108537X0*%
%ADD27RoundRect,0.158750X-0.222250X0.158750X-0.222250X-0.158750X0.222250X-0.158750X0.222250X0.158750X0*%
%ADD28RoundRect,0.140000X0.140000X0.170000X-0.140000X0.170000X-0.140000X-0.170000X0.140000X-0.170000X0*%
%ADD29RoundRect,0.160000X-0.232181X-0.103431X0.149359X-0.205665X0.232181X0.103431X-0.149359X0.205665X0*%
%ADD30RoundRect,0.140000X-0.218823X0.024825X-0.066325X-0.210003X0.218823X-0.024825X0.066325X0.210003X0*%
%ADD31RoundRect,0.087500X0.726673X0.072298X-0.723009X0.102664X-0.726673X-0.072298X0.723009X-0.102664X0*%
%ADD32RoundRect,0.140000X-0.055243X0.213186X-0.219823X-0.013339X0.055243X-0.213186X0.219823X0.013339X0*%
%ADD33RoundRect,0.158750X0.213861X0.169883X-0.091340X0.257398X-0.213861X-0.169883X0.091340X-0.257398X0*%
%ADD34RoundRect,0.140000X-0.140000X-0.170000X0.140000X-0.170000X0.140000X0.170000X-0.140000X0.170000X0*%
%ADD35RoundRect,0.140000X-0.127800X-0.179352X0.151518X-0.159820X0.127800X0.179352X-0.151518X0.159820X0*%
%ADD36RoundRect,0.200000X-0.200000X-0.275000X0.200000X-0.275000X0.200000X0.275000X-0.200000X0.275000X0*%
%ADD37RotRect,1.700000X1.000000X315.000000*%
%ADD38RoundRect,0.135000X0.100824X0.205632X-0.165074X0.158747X-0.100824X-0.205632X0.165074X-0.158747X0*%
%ADD39RoundRect,0.225000X-0.250000X0.225000X-0.250000X-0.225000X0.250000X-0.225000X0.250000X0.225000X0*%
%ADD40RoundRect,0.135000X-0.081628X0.213979X-0.228680X-0.012462X0.081628X-0.213979X0.228680X0.012462X0*%
%ADD41RoundRect,0.225000X0.250000X-0.225000X0.250000X0.225000X-0.250000X0.225000X-0.250000X-0.225000X0*%
%ADD42RoundRect,0.140000X-0.143107X0.167393X-0.191728X-0.108353X0.143107X-0.167393X0.191728X0.108353X0*%
%ADD43RoundRect,0.160000X0.095168X0.235689X-0.250307X0.044189X-0.095168X-0.235689X0.250307X-0.044189X0*%
%ADD44RoundRect,0.158750X-0.158750X-0.222250X0.158750X-0.222250X0.158750X0.222250X-0.158750X0.222250X0*%
%ADD45RotRect,1.400000X1.200000X26.000000*%
%ADD46RoundRect,0.150000X-0.150000X0.825000X-0.150000X-0.825000X0.150000X-0.825000X0.150000X0.825000X0*%
%ADD47RoundRect,0.112500X0.806298X-0.014027X0.644064X0.485278X-0.806298X0.014027X-0.644064X-0.485278X0*%
%ADD48RoundRect,0.200000X-0.275000X0.200000X-0.275000X-0.200000X0.275000X-0.200000X0.275000X0.200000X0*%
%ADD49RoundRect,0.135000X0.107939X0.201988X-0.159433X0.164411X-0.107939X-0.201988X0.159433X-0.164411X0*%
%ADD50RoundRect,0.135000X0.226274X0.035355X0.035355X0.226274X-0.226274X-0.035355X-0.035355X-0.226274X0*%
%ADD51RoundRect,0.140000X-0.121640X0.183586X-0.203504X-0.084179X0.121640X-0.183586X0.203504X0.084179X0*%
%ADD52RoundRect,0.160000X0.197500X0.160000X-0.197500X0.160000X-0.197500X-0.160000X0.197500X-0.160000X0*%
%ADD53RoundRect,0.150000X-0.150000X0.650000X-0.150000X-0.650000X0.150000X-0.650000X0.150000X0.650000X0*%
%ADD54RoundRect,0.140000X0.051308X0.214167X-0.200354X0.091423X-0.051308X-0.214167X0.200354X-0.091423X0*%
%ADD55RoundRect,0.140000X0.114978X0.187830X-0.162297X0.148861X-0.114978X-0.187830X0.162297X-0.148861X0*%
%ADD56RoundRect,0.135000X-0.001522X0.229015X-0.218563X0.068412X0.001522X-0.229015X0.218563X-0.068412X0*%
%ADD57RoundRect,0.135000X0.135000X0.185000X-0.135000X0.185000X-0.135000X-0.185000X0.135000X-0.185000X0*%
%ADD58RoundRect,0.155000X0.155000X-0.212500X0.155000X0.212500X-0.155000X0.212500X-0.155000X-0.212500X0*%
%ADD59RoundRect,0.140000X0.207631X-0.073414X0.111865X0.189700X-0.207631X0.073414X-0.111865X-0.189700X0*%
%ADD60RoundRect,0.158750X-0.188136X-0.197993X0.126274X-0.242181X0.188136X0.197993X-0.126274X0.242181X0*%
%ADD61RoundRect,0.140000X-0.114978X-0.187830X0.162297X-0.148861X0.114978X0.187830X-0.162297X0.148861X0*%
%ADD62RoundRect,0.140000X-0.209416X-0.068155X0.026734X-0.218598X0.209416X0.068155X-0.026734X0.218598X0*%
%ADD63RoundRect,0.135000X0.096355X-0.207763X0.227254X0.028384X-0.096355X0.207763X-0.227254X-0.028384X0*%
%ADD64RoundRect,0.160000X-0.176529X-0.182877X0.215527X-0.134738X0.176529X0.182877X-0.215527X0.134738X0*%
%ADD65RoundRect,0.140000X-0.162297X-0.148861X0.114978X-0.187830X0.162297X0.148861X-0.114978X0.187830X0*%
%ADD66RoundRect,0.135000X-0.131751X-0.187328X0.138208X-0.182616X0.131751X0.187328X-0.138208X0.182616X0*%
%ADD67RoundRect,0.375000X-0.625000X-0.375000X0.625000X-0.375000X0.625000X0.375000X-0.625000X0.375000X0*%
%ADD68RoundRect,0.500000X-0.500000X-1.400000X0.500000X-1.400000X0.500000X1.400000X-0.500000X1.400000X0*%
%ADD69RoundRect,0.158750X0.142860X0.232782X-0.173867X0.210635X-0.142860X-0.232782X0.173867X-0.210635X0*%
%ADD70RoundRect,0.150000X-0.512500X-0.150000X0.512500X-0.150000X0.512500X0.150000X-0.512500X0.150000X0*%
%ADD71RoundRect,0.158750X0.091340X0.257398X-0.213861X0.169883X-0.091340X-0.257398X0.213861X-0.169883X0*%
%ADD72RoundRect,0.158750X0.173867X0.210635X-0.142860X0.232782X-0.173867X-0.210635X0.142860X-0.232782X0*%
%ADD73RoundRect,0.140000X-0.216559X0.040029X-0.080812X-0.204864X0.216559X-0.040029X0.080812X0.204864X0*%
%ADD74RoundRect,0.135000X-0.096355X0.207763X-0.227254X-0.028384X0.096355X-0.207763X0.227254X0.028384X0*%
%ADD75RoundRect,0.140000X0.220218X0.002028X0.040237X0.216520X-0.220218X-0.002028X-0.040237X-0.216520X0*%
%ADD76RoundRect,0.140000X0.187830X-0.114978X0.148861X0.162297X-0.187830X0.114978X-0.148861X-0.162297X0*%
%ADD77RoundRect,0.135000X0.159433X0.164411X-0.107939X0.201988X-0.159433X-0.164411X0.107939X-0.201988X0*%
%ADD78RoundRect,0.140000X-0.045684X-0.215437X0.202679X-0.086147X0.045684X0.215437X-0.202679X0.086147X0*%
%ADD79FreePoly0,180.000000*%
%ADD80FreePoly1,180.000000*%
%ADD81RoundRect,0.135000X-0.193966X0.121766X-0.175132X-0.147576X0.193966X-0.121766X0.175132X0.147576X0*%
%ADD82RoundRect,0.135000X-0.185000X0.135000X-0.185000X-0.135000X0.185000X-0.135000X0.185000X0.135000X0*%
G04 APERTURE END LIST*
D10*
X107173077Y-76882766D03*
X107894323Y-77604034D03*
D11*
X55209700Y-74121200D03*
X55209700Y-73101200D03*
D12*
X79593700Y-149407400D03*
X79593700Y-150367400D03*
D13*
X55963700Y-105957400D03*
D14*
X55963700Y-106457400D03*
X55963700Y-106957400D03*
D13*
X55963700Y-107457400D03*
X54963700Y-107457400D03*
D14*
X54963700Y-106957400D03*
X54963700Y-106457400D03*
D13*
X54963700Y-105957400D03*
D15*
X41745700Y-112295400D03*
X42765700Y-112295400D03*
D16*
X42284869Y-107131117D03*
X43242531Y-107198083D03*
D11*
X55209700Y-95863600D03*
X55209700Y-94843600D03*
D17*
X109372900Y-114099000D03*
X109372900Y-114899000D03*
X109372900Y-115699000D03*
X109372900Y-116499000D03*
X109372900Y-117299000D03*
X109372900Y-118099000D03*
X109372900Y-118899000D03*
X109372900Y-119699000D03*
X109372900Y-120499000D03*
X109372900Y-121299000D03*
X109372900Y-122099000D03*
D18*
X107672900Y-123799000D03*
X106872900Y-123799000D03*
X106072900Y-123799000D03*
X105272900Y-123799000D03*
X104472900Y-123799000D03*
X103672900Y-123799000D03*
X102872900Y-123799000D03*
X102072900Y-123799000D03*
X101272900Y-123799000D03*
X100472900Y-123799000D03*
X99672900Y-123799000D03*
D17*
X97972900Y-122099000D03*
X97972900Y-121299000D03*
X97972900Y-120499000D03*
X97972900Y-119699000D03*
X97972900Y-118899000D03*
X97972900Y-118099000D03*
X97972900Y-117299000D03*
X97972900Y-116499000D03*
X97972900Y-115699000D03*
X97972900Y-114899000D03*
X97972900Y-114099000D03*
D18*
X99672900Y-112399000D03*
X100472900Y-112399000D03*
X101272900Y-112399000D03*
X102072900Y-112399000D03*
X102872900Y-112399000D03*
X103672900Y-112399000D03*
X104472900Y-112399000D03*
X105272900Y-112399000D03*
X106072900Y-112399000D03*
X106872900Y-112399000D03*
X107672900Y-112399000D03*
D19*
X50859029Y-105504203D03*
X49908371Y-105370597D03*
D12*
X49113700Y-149407400D03*
X49113700Y-150367400D03*
D20*
X91703142Y-91162541D03*
X91614258Y-92178659D03*
D15*
X82385700Y-123979400D03*
X83405700Y-123979400D03*
X96355700Y-112295400D03*
X97375700Y-112295400D03*
D11*
X60289700Y-74121200D03*
X60289700Y-73101200D03*
D21*
X96557550Y-89032875D03*
X95649850Y-88720325D03*
D22*
X47010530Y-76962798D03*
X47610070Y-76137602D03*
D11*
X88229705Y-74121200D03*
X88229705Y-73101200D03*
X72989700Y-74121200D03*
X72989700Y-73101200D03*
D23*
X75531894Y-83537363D03*
X73393906Y-83837837D03*
D11*
X67909700Y-74121200D03*
X67909700Y-73101200D03*
X52669700Y-95863600D03*
X52669700Y-94843600D03*
X72989700Y-95863600D03*
X72989700Y-94843600D03*
D24*
X77803700Y-99409600D03*
D25*
X77303700Y-99409600D03*
X76803700Y-99409600D03*
D24*
X76303700Y-99409600D03*
X76303700Y-98409600D03*
D25*
X76803700Y-98409600D03*
X77303700Y-98409600D03*
D24*
X77803700Y-98409600D03*
D15*
X82639700Y-112295400D03*
X83659700Y-112295400D03*
D26*
X93757820Y-89390381D03*
X92861580Y-89734419D03*
D17*
X54749700Y-131902400D03*
X54749700Y-132702400D03*
X54749700Y-133502400D03*
X54749700Y-134302400D03*
X54749700Y-135102400D03*
X54749700Y-135902400D03*
X54749700Y-136702400D03*
X54749700Y-137502400D03*
X54749700Y-138302400D03*
X54749700Y-139102400D03*
X54749700Y-139902400D03*
D18*
X53049700Y-141602400D03*
X52249700Y-141602400D03*
X51449700Y-141602400D03*
X50649700Y-141602400D03*
X49849700Y-141602400D03*
X49049700Y-141602400D03*
X48249700Y-141602400D03*
X47449700Y-141602400D03*
X46649700Y-141602400D03*
X45849700Y-141602400D03*
X45049700Y-141602400D03*
D17*
X43349700Y-139902400D03*
X43349700Y-139102400D03*
X43349700Y-138302400D03*
X43349700Y-137502400D03*
X43349700Y-136702400D03*
X43349700Y-135902400D03*
X43349700Y-135102400D03*
X43349700Y-134302400D03*
X43349700Y-133502400D03*
X43349700Y-132702400D03*
X43349700Y-131902400D03*
D18*
X45049700Y-130202400D03*
X45849700Y-130202400D03*
X46649700Y-130202400D03*
X47449700Y-130202400D03*
X48249700Y-130202400D03*
X49049700Y-130202400D03*
X49849700Y-130202400D03*
X50649700Y-130202400D03*
X51449700Y-130202400D03*
X52249700Y-130202400D03*
X53049700Y-130202400D03*
D15*
X80226700Y-106707400D03*
X81246700Y-106707400D03*
D27*
X55692300Y-90393200D03*
X55692300Y-88234200D03*
D28*
X29908700Y-123979400D03*
X28948700Y-123979400D03*
D11*
X62829700Y-74121200D03*
X62829700Y-73101200D03*
D15*
X41745700Y-141759400D03*
X42765700Y-141759400D03*
D24*
X47323700Y-99409600D03*
D25*
X46823700Y-99409600D03*
X46323700Y-99409600D03*
D24*
X45823700Y-99409600D03*
X45823700Y-98409600D03*
D25*
X46323700Y-98409600D03*
X46823700Y-98409600D03*
D24*
X47323700Y-98409600D03*
D11*
X65369700Y-74121200D03*
X65369700Y-73101200D03*
D13*
X66123700Y-105957400D03*
D14*
X66123700Y-106457400D03*
X66123700Y-106957400D03*
D13*
X66123700Y-107457400D03*
X65123700Y-107457400D03*
D14*
X65123700Y-106957400D03*
X65123700Y-106457400D03*
D13*
X65123700Y-105957400D03*
D15*
X68923700Y-141759400D03*
X69943700Y-141759400D03*
D13*
X68663700Y-105957400D03*
D14*
X68663700Y-106457400D03*
X68663700Y-106957400D03*
D13*
X68663700Y-107457400D03*
X67663700Y-107457400D03*
D14*
X67663700Y-106957400D03*
X67663700Y-106457400D03*
D13*
X67663700Y-105957400D03*
D11*
X57749700Y-95863600D03*
X57749700Y-94843600D03*
X75529700Y-74121200D03*
X75529700Y-73101200D03*
D12*
X59273700Y-149407400D03*
X59273700Y-150367400D03*
D29*
X96923561Y-84149950D03*
X98077839Y-84459250D03*
D15*
X29113300Y-130075400D03*
X30133300Y-130075400D03*
D30*
X87587272Y-85857836D03*
X88110128Y-86662964D03*
D31*
X44998279Y-93882664D03*
X44987808Y-94382551D03*
X44977336Y-94882440D03*
X44966864Y-95382332D03*
X44956395Y-95882224D03*
X40732321Y-95793736D03*
X40742792Y-95293849D03*
X40753264Y-94793960D03*
X40763736Y-94294068D03*
X40774205Y-93794176D03*
D11*
X80609700Y-95863600D03*
X80609700Y-94843600D03*
D15*
X41745700Y-130075400D03*
X42765700Y-130075400D03*
D11*
X70449700Y-74121200D03*
X70449700Y-73101200D03*
D32*
X95369837Y-98064073D03*
X94805563Y-98840727D03*
D17*
X68387700Y-114099000D03*
X68387700Y-114899000D03*
X68387700Y-115699000D03*
X68387700Y-116499000D03*
X68387700Y-117299000D03*
X68387700Y-118099000D03*
X68387700Y-118899000D03*
X68387700Y-119699000D03*
X68387700Y-120499000D03*
X68387700Y-121299000D03*
X68387700Y-122099000D03*
D18*
X66687700Y-123799000D03*
X65887700Y-123799000D03*
X65087700Y-123799000D03*
X64287700Y-123799000D03*
X63487700Y-123799000D03*
X62687700Y-123799000D03*
X61887700Y-123799000D03*
X61087700Y-123799000D03*
X60287700Y-123799000D03*
X59487700Y-123799000D03*
X58687700Y-123799000D03*
D17*
X56987700Y-122099000D03*
X56987700Y-121299000D03*
X56987700Y-120499000D03*
X56987700Y-119699000D03*
X56987700Y-118899000D03*
X56987700Y-118099000D03*
X56987700Y-117299000D03*
X56987700Y-116499000D03*
X56987700Y-115699000D03*
X56987700Y-114899000D03*
X56987700Y-114099000D03*
D18*
X58687700Y-112399000D03*
X59487700Y-112399000D03*
X60287700Y-112399000D03*
X61087700Y-112399000D03*
X61887700Y-112399000D03*
X62687700Y-112399000D03*
X63487700Y-112399000D03*
X64287700Y-112399000D03*
X65087700Y-112399000D03*
X65887700Y-112399000D03*
X66687700Y-112399000D03*
D33*
X62862536Y-82519200D03*
X64937900Y-83114300D03*
D34*
X101409700Y-85625400D03*
X100449700Y-85625400D03*
D35*
X42284869Y-106182083D03*
X43242531Y-106115117D03*
D36*
X53495700Y-146077400D03*
X55145700Y-146077400D03*
D37*
X99644811Y-78391517D03*
X104099583Y-82846289D03*
X102331817Y-75704511D03*
X106786589Y-80159283D03*
D12*
X89753700Y-149407400D03*
X89753700Y-150367400D03*
D38*
X92414951Y-100134441D03*
X91410449Y-100311559D03*
D15*
X96355700Y-123852400D03*
X97375700Y-123852400D03*
X68923700Y-123979400D03*
X69943700Y-123979400D03*
D39*
X69154298Y-84792199D03*
X69154302Y-86342201D03*
D27*
X77409300Y-90583700D03*
X77409300Y-88424700D03*
D28*
X109859300Y-129804600D03*
X108899300Y-129804600D03*
D13*
X86443700Y-105957400D03*
D14*
X86443700Y-106457400D03*
X86443700Y-106957400D03*
D13*
X86443700Y-107457400D03*
X85443700Y-107457400D03*
D14*
X85443700Y-106957400D03*
X85443700Y-106457400D03*
D13*
X85443700Y-105957400D03*
D15*
X55207700Y-123928600D03*
X56227700Y-123928600D03*
D28*
X58610700Y-106707400D03*
X57650700Y-106707400D03*
D13*
X40723700Y-105957400D03*
D14*
X40723700Y-106457400D03*
X40723700Y-106957400D03*
D13*
X40723700Y-107457400D03*
X39723700Y-107457400D03*
D14*
X39723700Y-106957400D03*
X39723700Y-106457400D03*
D13*
X39723700Y-105957400D03*
D40*
X90412465Y-88880679D03*
X89856935Y-89736121D03*
D39*
X64480700Y-150562400D03*
X64480700Y-152112400D03*
D17*
X81991700Y-114099000D03*
X81991700Y-114899000D03*
X81991700Y-115699000D03*
X81991700Y-116499000D03*
X81991700Y-117299000D03*
X81991700Y-118099000D03*
X81991700Y-118899000D03*
X81991700Y-119699000D03*
X81991700Y-120499000D03*
X81991700Y-121299000D03*
X81991700Y-122099000D03*
D18*
X80291700Y-123799000D03*
X79491700Y-123799000D03*
X78691700Y-123799000D03*
X77891700Y-123799000D03*
X77091700Y-123799000D03*
X76291700Y-123799000D03*
X75491700Y-123799000D03*
X74691700Y-123799000D03*
X73891700Y-123799000D03*
X73091700Y-123799000D03*
X72291700Y-123799000D03*
D17*
X70591700Y-122099000D03*
X70591700Y-121299000D03*
X70591700Y-120499000D03*
X70591700Y-119699000D03*
X70591700Y-118899000D03*
X70591700Y-118099000D03*
X70591700Y-117299000D03*
X70591700Y-116499000D03*
X70591700Y-115699000D03*
X70591700Y-114899000D03*
X70591700Y-114099000D03*
D18*
X72291700Y-112399000D03*
X73091700Y-112399000D03*
X73891700Y-112399000D03*
X74691700Y-112399000D03*
X75491700Y-112399000D03*
X76291700Y-112399000D03*
X77091700Y-112399000D03*
X77891700Y-112399000D03*
X78691700Y-112399000D03*
X79491700Y-112399000D03*
X80291700Y-112399000D03*
D11*
X75529700Y-95863600D03*
X75529700Y-94843600D03*
D41*
X51247302Y-84190599D03*
X51247300Y-82640599D03*
D15*
X46444700Y-89537000D03*
X47464700Y-89537000D03*
D42*
X90174402Y-96567184D03*
X90007700Y-97512600D03*
D43*
X102468284Y-83506926D03*
X101423116Y-84086274D03*
D44*
X75771001Y-85567199D03*
X73611999Y-85567201D03*
D19*
X58479029Y-108044203D03*
X57528371Y-107910597D03*
D45*
X91948411Y-95503633D03*
X93925758Y-94539217D03*
X94670989Y-96067167D03*
X92693642Y-97031583D03*
D46*
X80863700Y-98236400D03*
X82133700Y-98236400D03*
X83403700Y-98236400D03*
X84673700Y-98236400D03*
X85943700Y-98236400D03*
X87213700Y-98236400D03*
X88483700Y-98236400D03*
X88483700Y-103186400D03*
X87213700Y-103186400D03*
X85943700Y-103186400D03*
X84673700Y-103186400D03*
X83403700Y-103186400D03*
X82133700Y-103186400D03*
X80863700Y-103186400D03*
D11*
X80609700Y-74121200D03*
X80609700Y-73101200D03*
D46*
X65623700Y-98201400D03*
X66893700Y-98201400D03*
X68163700Y-98201400D03*
X69433700Y-98201400D03*
X70703700Y-98201400D03*
X71973700Y-98201400D03*
X73243700Y-98201400D03*
X73243700Y-103151400D03*
X71973700Y-103151400D03*
X70703700Y-103151400D03*
X69433700Y-103151400D03*
X68163700Y-103151400D03*
X66893700Y-103151400D03*
X65623700Y-103151400D03*
D47*
X103940010Y-87561139D03*
X103507390Y-86229661D03*
D46*
X34508700Y-98136400D03*
X35778700Y-98136400D03*
X37048700Y-98136400D03*
X38318700Y-98136400D03*
X39588700Y-98136400D03*
X40858700Y-98136400D03*
X42128700Y-98136400D03*
X43398700Y-98136400D03*
X43398700Y-103086400D03*
X42128700Y-103086400D03*
X40858700Y-103086400D03*
X39588700Y-103086400D03*
X38318700Y-103086400D03*
X37048700Y-103086400D03*
X35778700Y-103086400D03*
X34508700Y-103086400D03*
D17*
X68339700Y-131902400D03*
X68339700Y-132702400D03*
X68339700Y-133502400D03*
X68339700Y-134302400D03*
X68339700Y-135102400D03*
X68339700Y-135902400D03*
X68339700Y-136702400D03*
X68339700Y-137502400D03*
X68339700Y-138302400D03*
X68339700Y-139102400D03*
X68339700Y-139902400D03*
D18*
X66639700Y-141602400D03*
X65839700Y-141602400D03*
X65039700Y-141602400D03*
X64239700Y-141602400D03*
X63439700Y-141602400D03*
X62639700Y-141602400D03*
X61839700Y-141602400D03*
X61039700Y-141602400D03*
X60239700Y-141602400D03*
X59439700Y-141602400D03*
X58639700Y-141602400D03*
D17*
X56939700Y-139902400D03*
X56939700Y-139102400D03*
X56939700Y-138302400D03*
X56939700Y-137502400D03*
X56939700Y-136702400D03*
X56939700Y-135902400D03*
X56939700Y-135102400D03*
X56939700Y-134302400D03*
X56939700Y-133502400D03*
X56939700Y-132702400D03*
X56939700Y-131902400D03*
D18*
X58639700Y-130202400D03*
X59439700Y-130202400D03*
X60239700Y-130202400D03*
X61039700Y-130202400D03*
X61839700Y-130202400D03*
X62639700Y-130202400D03*
X63439700Y-130202400D03*
X64239700Y-130202400D03*
X65039700Y-130202400D03*
X65839700Y-130202400D03*
X66639700Y-130202400D03*
D15*
X55461700Y-112295400D03*
X56481700Y-112295400D03*
D48*
X71186300Y-86392200D03*
X71186300Y-84742200D03*
D17*
X41060100Y-114127000D03*
X41060100Y-114927000D03*
X41060100Y-115727000D03*
X41060100Y-116527000D03*
X41060100Y-117327000D03*
X41060100Y-118127000D03*
X41060100Y-118927000D03*
X41060100Y-119727000D03*
X41060100Y-120527000D03*
X41060100Y-121327000D03*
X41060100Y-122127000D03*
D18*
X39360100Y-123827000D03*
X38560100Y-123827000D03*
X37760100Y-123827000D03*
X36960100Y-123827000D03*
X36160100Y-123827000D03*
X35360100Y-123827000D03*
X34560100Y-123827000D03*
X33760100Y-123827000D03*
X32960100Y-123827000D03*
X32160100Y-123827000D03*
X31360100Y-123827000D03*
D17*
X29660100Y-122127000D03*
X29660100Y-121327000D03*
X29660100Y-120527000D03*
X29660100Y-119727000D03*
X29660100Y-118927000D03*
X29660100Y-118127000D03*
X29660100Y-117327000D03*
X29660100Y-116527000D03*
X29660100Y-115727000D03*
X29660100Y-114927000D03*
X29660100Y-114127000D03*
D18*
X31360100Y-112427000D03*
X32160100Y-112427000D03*
X32960100Y-112427000D03*
X33760100Y-112427000D03*
X34560100Y-112427000D03*
X35360100Y-112427000D03*
X36160100Y-112427000D03*
X36960100Y-112427000D03*
X37760100Y-112427000D03*
X38560100Y-112427000D03*
X39360100Y-112427000D03*
D49*
X88988737Y-105366421D03*
X87978663Y-105508379D03*
D50*
X105354324Y-75064021D03*
X104633076Y-74342779D03*
D51*
X101297362Y-88624426D03*
X101578038Y-87706374D03*
D11*
X65369700Y-95863600D03*
X65369700Y-94843600D03*
D13*
X38183700Y-105957400D03*
D14*
X38183700Y-106457400D03*
X38183700Y-106957400D03*
D13*
X38183700Y-107457400D03*
X37183700Y-107457400D03*
D14*
X37183700Y-106957400D03*
X37183700Y-106457400D03*
D13*
X37183700Y-105957400D03*
D15*
X68923700Y-112295400D03*
X69943700Y-112295400D03*
D13*
X83903700Y-105957400D03*
D14*
X83903700Y-106457400D03*
X83903700Y-106957400D03*
D13*
X83903700Y-107457400D03*
X82903700Y-107457400D03*
D14*
X82903700Y-106957400D03*
X82903700Y-106457400D03*
D13*
X82903700Y-105957400D03*
D52*
X77651200Y-100357400D03*
X76456200Y-100357400D03*
D53*
X92293700Y-73897400D03*
X93563700Y-73897400D03*
X94833700Y-73897400D03*
X96103700Y-73897400D03*
X96103700Y-81097400D03*
X94833700Y-81097400D03*
X93563700Y-81097400D03*
X92293700Y-81097400D03*
D13*
X71203700Y-105957400D03*
D14*
X71203700Y-106457400D03*
X71203700Y-106957400D03*
D13*
X71203700Y-107457400D03*
X70203700Y-107457400D03*
D14*
X70203700Y-106957400D03*
X70203700Y-106457400D03*
D13*
X70203700Y-105957400D03*
D15*
X68923700Y-130075400D03*
X69943700Y-130075400D03*
D54*
X99202119Y-90063178D03*
X98339281Y-90484022D03*
D55*
X50859029Y-107910597D03*
X49908371Y-108044203D03*
D11*
X67909700Y-95863600D03*
X67909700Y-94843600D03*
D17*
X95669700Y-131902400D03*
X95669700Y-132702400D03*
X95669700Y-133502400D03*
X95669700Y-134302400D03*
X95669700Y-135102400D03*
X95669700Y-135902400D03*
X95669700Y-136702400D03*
X95669700Y-137502400D03*
X95669700Y-138302400D03*
X95669700Y-139102400D03*
X95669700Y-139902400D03*
D18*
X93969700Y-141602400D03*
X93169700Y-141602400D03*
X92369700Y-141602400D03*
X91569700Y-141602400D03*
X90769700Y-141602400D03*
X89969700Y-141602400D03*
X89169700Y-141602400D03*
X88369700Y-141602400D03*
X87569700Y-141602400D03*
X86769700Y-141602400D03*
X85969700Y-141602400D03*
D17*
X84269700Y-139902400D03*
X84269700Y-139102400D03*
X84269700Y-138302400D03*
X84269700Y-137502400D03*
X84269700Y-136702400D03*
X84269700Y-135902400D03*
X84269700Y-135102400D03*
X84269700Y-134302400D03*
X84269700Y-133502400D03*
X84269700Y-132702400D03*
X84269700Y-131902400D03*
D18*
X85969700Y-130202400D03*
X86769700Y-130202400D03*
X87569700Y-130202400D03*
X88369700Y-130202400D03*
X89169700Y-130202400D03*
X89969700Y-130202400D03*
X90769700Y-130202400D03*
X91569700Y-130202400D03*
X92369700Y-130202400D03*
X93169700Y-130202400D03*
X93969700Y-130202400D03*
D56*
X95370667Y-91164040D03*
X94550733Y-91770760D03*
D11*
X85689700Y-74121200D03*
X85689700Y-73101200D03*
X62829700Y-95863600D03*
X62829700Y-94843600D03*
X50129700Y-95863600D03*
X50129700Y-94843600D03*
X52669700Y-74197400D03*
X52669700Y-73177400D03*
D15*
X55207700Y-130075400D03*
X56227700Y-130075400D03*
D17*
X54737300Y-114099000D03*
X54737300Y-114899000D03*
X54737300Y-115699000D03*
X54737300Y-116499000D03*
X54737300Y-117299000D03*
X54737300Y-118099000D03*
X54737300Y-118899000D03*
X54737300Y-119699000D03*
X54737300Y-120499000D03*
X54737300Y-121299000D03*
X54737300Y-122099000D03*
D18*
X53037300Y-123799000D03*
X52237300Y-123799000D03*
X51437300Y-123799000D03*
X50637300Y-123799000D03*
X49837300Y-123799000D03*
X49037300Y-123799000D03*
X48237300Y-123799000D03*
X47437300Y-123799000D03*
X46637300Y-123799000D03*
X45837300Y-123799000D03*
X45037300Y-123799000D03*
D17*
X43337300Y-122099000D03*
X43337300Y-121299000D03*
X43337300Y-120499000D03*
X43337300Y-119699000D03*
X43337300Y-118899000D03*
X43337300Y-118099000D03*
X43337300Y-117299000D03*
X43337300Y-116499000D03*
X43337300Y-115699000D03*
X43337300Y-114899000D03*
X43337300Y-114099000D03*
D18*
X45037300Y-112399000D03*
X45837300Y-112399000D03*
X46637300Y-112399000D03*
X47437300Y-112399000D03*
X48237300Y-112399000D03*
X49037300Y-112399000D03*
X49837300Y-112399000D03*
X50637300Y-112399000D03*
X51437300Y-112399000D03*
X52237300Y-112399000D03*
X53037300Y-112399000D03*
D15*
X46444700Y-90807000D03*
X47464700Y-90807000D03*
D57*
X48734700Y-78107000D03*
X47714700Y-78107000D03*
D13*
X73743700Y-105957400D03*
D14*
X73743700Y-106457400D03*
X73743700Y-106957400D03*
D13*
X73743700Y-107457400D03*
X72743700Y-107457400D03*
D14*
X72743700Y-106957400D03*
X72743700Y-106457400D03*
D13*
X72743700Y-105957400D03*
D17*
X41135700Y-131902400D03*
X41135700Y-132702400D03*
X41135700Y-133502400D03*
X41135700Y-134302400D03*
X41135700Y-135102400D03*
X41135700Y-135902400D03*
X41135700Y-136702400D03*
X41135700Y-137502400D03*
X41135700Y-138302400D03*
X41135700Y-139102400D03*
X41135700Y-139902400D03*
D18*
X39435700Y-141602400D03*
X38635700Y-141602400D03*
X37835700Y-141602400D03*
X37035700Y-141602400D03*
X36235700Y-141602400D03*
X35435700Y-141602400D03*
X34635700Y-141602400D03*
X33835700Y-141602400D03*
X33035700Y-141602400D03*
X32235700Y-141602400D03*
X31435700Y-141602400D03*
D17*
X29735700Y-139902400D03*
X29735700Y-139102400D03*
X29735700Y-138302400D03*
X29735700Y-137502400D03*
X29735700Y-136702400D03*
X29735700Y-135902400D03*
X29735700Y-135102400D03*
X29735700Y-134302400D03*
X29735700Y-133502400D03*
X29735700Y-132702400D03*
X29735700Y-131902400D03*
D18*
X31435700Y-130202400D03*
X32235700Y-130202400D03*
X33035700Y-130202400D03*
X33835700Y-130202400D03*
X34635700Y-130202400D03*
X35435700Y-130202400D03*
X36235700Y-130202400D03*
X37035700Y-130202400D03*
X37835700Y-130202400D03*
X38635700Y-130202400D03*
X39435700Y-130202400D03*
D11*
X60289700Y-95863600D03*
X60289700Y-94843600D03*
D12*
X104993700Y-149407400D03*
X104993700Y-150367400D03*
D58*
X52644300Y-83983100D03*
X52644300Y-82848100D03*
D59*
X99315872Y-87600454D03*
X98987528Y-86698346D03*
D60*
X75534088Y-87594876D03*
X73396100Y-87294400D03*
D61*
X80388371Y-108044203D03*
X81339029Y-107910597D03*
D17*
X109383300Y-131902400D03*
X109383300Y-132702400D03*
X109383300Y-133502400D03*
X109383300Y-134302400D03*
X109383300Y-135102400D03*
X109383300Y-135902400D03*
X109383300Y-136702400D03*
X109383300Y-137502400D03*
X109383300Y-138302400D03*
X109383300Y-139102400D03*
X109383300Y-139902400D03*
D18*
X107683300Y-141602400D03*
X106883300Y-141602400D03*
X106083300Y-141602400D03*
X105283300Y-141602400D03*
X104483300Y-141602400D03*
X103683300Y-141602400D03*
X102883300Y-141602400D03*
X102083300Y-141602400D03*
X101283300Y-141602400D03*
X100483300Y-141602400D03*
X99683300Y-141602400D03*
D17*
X97983300Y-139902400D03*
X97983300Y-139102400D03*
X97983300Y-138302400D03*
X97983300Y-137502400D03*
X97983300Y-136702400D03*
X97983300Y-135902400D03*
X97983300Y-135102400D03*
X97983300Y-134302400D03*
X97983300Y-133502400D03*
X97983300Y-132702400D03*
X97983300Y-131902400D03*
D18*
X99683300Y-130202400D03*
X100483300Y-130202400D03*
X101283300Y-130202400D03*
X102083300Y-130202400D03*
X102883300Y-130202400D03*
X103683300Y-130202400D03*
X104483300Y-130202400D03*
X105283300Y-130202400D03*
X106083300Y-130202400D03*
X106883300Y-130202400D03*
X107683300Y-130202400D03*
D15*
X41745700Y-123979400D03*
X42765700Y-123979400D03*
D34*
X88130700Y-106707400D03*
X89090700Y-106707400D03*
D62*
X96079869Y-93114496D03*
X96889531Y-93630304D03*
D11*
X78069700Y-74121200D03*
X78069700Y-73101200D03*
D15*
X108928700Y-141759400D03*
X109948700Y-141759400D03*
D11*
X53787301Y-83925599D03*
X53787301Y-82905601D03*
D63*
X90014447Y-83099656D03*
X90508953Y-82207544D03*
D36*
X83828700Y-146117400D03*
X85478700Y-146117400D03*
D39*
X64480700Y-146686400D03*
X64480700Y-148236400D03*
D64*
X88398651Y-80618217D03*
X89584749Y-80472583D03*
D65*
X88008371Y-107910597D03*
X88959029Y-108044203D03*
D11*
X83149700Y-95863600D03*
X83149700Y-94843600D03*
D66*
X96482781Y-86599507D03*
X97502619Y-86581693D03*
D67*
X67045700Y-151933400D03*
X67045700Y-149633400D03*
D68*
X73345700Y-149633400D03*
D67*
X67045700Y-147333400D03*
D69*
X62493148Y-86549652D03*
X64646888Y-86399048D03*
D28*
X50736700Y-106707400D03*
X49776700Y-106707400D03*
D11*
X83149705Y-74121200D03*
X83149705Y-73101200D03*
D15*
X29113300Y-112295400D03*
X30133300Y-112295400D03*
D70*
X85314200Y-83908400D03*
X85314200Y-82958400D03*
X85314200Y-82008400D03*
X87589200Y-82008400D03*
X87589200Y-83908400D03*
D71*
X62862536Y-88600700D03*
X64937900Y-88005600D03*
D11*
X78069700Y-95863600D03*
X78069700Y-94843600D03*
D72*
X62493147Y-84519448D03*
X64646889Y-84670052D03*
D73*
X93457988Y-83630783D03*
X93923412Y-84470417D03*
D57*
X48734700Y-80647000D03*
X47714700Y-80647000D03*
X48734700Y-79377000D03*
X47714700Y-79377000D03*
D46*
X49494700Y-98136400D03*
X50764700Y-98136400D03*
X52034700Y-98136400D03*
X53304700Y-98136400D03*
X54574700Y-98136400D03*
X55844700Y-98136400D03*
X57114700Y-98136400D03*
X58384700Y-98136400D03*
X58384700Y-103086400D03*
X57114700Y-103086400D03*
X55844700Y-103086400D03*
X54574700Y-103086400D03*
X53304700Y-103086400D03*
X52034700Y-103086400D03*
X50764700Y-103086400D03*
X49494700Y-103086400D03*
D15*
X55207700Y-141759400D03*
X56227700Y-141759400D03*
X46444700Y-92077000D03*
X47464700Y-92077000D03*
X96355700Y-130329400D03*
X97375700Y-130329400D03*
X108818500Y-123979400D03*
X109838500Y-123979400D03*
D17*
X95692700Y-114097000D03*
X95692700Y-114897000D03*
X95692700Y-115697000D03*
X95692700Y-116497000D03*
X95692700Y-117297000D03*
X95692700Y-118097000D03*
X95692700Y-118897000D03*
X95692700Y-119697000D03*
X95692700Y-120497000D03*
X95692700Y-121297000D03*
X95692700Y-122097000D03*
D18*
X93992700Y-123797000D03*
X93192700Y-123797000D03*
X92392700Y-123797000D03*
X91592700Y-123797000D03*
X90792700Y-123797000D03*
X89992700Y-123797000D03*
X89192700Y-123797000D03*
X88392700Y-123797000D03*
X87592700Y-123797000D03*
X86792700Y-123797000D03*
X85992700Y-123797000D03*
D17*
X84292700Y-122097000D03*
X84292700Y-121297000D03*
X84292700Y-120497000D03*
X84292700Y-119697000D03*
X84292700Y-118897000D03*
X84292700Y-118097000D03*
X84292700Y-117297000D03*
X84292700Y-116497000D03*
X84292700Y-115697000D03*
X84292700Y-114897000D03*
X84292700Y-114097000D03*
D18*
X85992700Y-112397000D03*
X86792700Y-112397000D03*
X87592700Y-112397000D03*
X88392700Y-112397000D03*
X89192700Y-112397000D03*
X89992700Y-112397000D03*
X90792700Y-112397000D03*
X91592700Y-112397000D03*
X92392700Y-112397000D03*
X93192700Y-112397000D03*
X93992700Y-112397000D03*
D74*
X98382946Y-81369340D03*
X97888454Y-82261460D03*
D11*
X70449700Y-95863600D03*
X70449700Y-94843600D03*
D75*
X90316238Y-93867101D03*
X89699162Y-93131699D03*
D55*
X58479029Y-105370597D03*
X57528371Y-105504203D03*
D11*
X85689700Y-95863600D03*
X85689700Y-94843600D03*
X57749700Y-74121200D03*
X57749700Y-73101200D03*
D76*
X93122504Y-87370730D03*
X92988896Y-86420070D03*
D57*
X48734700Y-81917000D03*
X47714700Y-81917000D03*
D48*
X67122300Y-86392200D03*
X67122300Y-84742200D03*
D28*
X109918698Y-112168397D03*
X108958702Y-112168403D03*
D77*
X81368737Y-105508379D03*
X80358663Y-105366421D03*
D17*
X82029700Y-131902400D03*
X82029700Y-132702400D03*
X82029700Y-133502400D03*
X82029700Y-134302400D03*
X82029700Y-135102400D03*
X82029700Y-135902400D03*
X82029700Y-136702400D03*
X82029700Y-137502400D03*
X82029700Y-138302400D03*
X82029700Y-139102400D03*
X82029700Y-139902400D03*
D18*
X80329700Y-141602400D03*
X79529700Y-141602400D03*
X78729700Y-141602400D03*
X77929700Y-141602400D03*
X77129700Y-141602400D03*
X76329700Y-141602400D03*
X75529700Y-141602400D03*
X74729700Y-141602400D03*
X73929700Y-141602400D03*
X73129700Y-141602400D03*
X72329700Y-141602400D03*
D17*
X70629700Y-139902400D03*
X70629700Y-139102400D03*
X70629700Y-138302400D03*
X70629700Y-137502400D03*
X70629700Y-136702400D03*
X70629700Y-135902400D03*
X70629700Y-135102400D03*
X70629700Y-134302400D03*
X70629700Y-133502400D03*
X70629700Y-132702400D03*
X70629700Y-131902400D03*
D18*
X72329700Y-130202400D03*
X73129700Y-130202400D03*
X73929700Y-130202400D03*
X74729700Y-130202400D03*
X75529700Y-130202400D03*
X76329700Y-130202400D03*
X77129700Y-130202400D03*
X77929700Y-130202400D03*
X78729700Y-130202400D03*
X79529700Y-130202400D03*
X80329700Y-130202400D03*
D78*
X89962935Y-85720039D03*
X90814465Y-85276761D03*
D15*
X82639700Y-141759400D03*
X83659700Y-141759400D03*
X82639700Y-130329400D03*
X83659700Y-130329400D03*
X96355700Y-141759400D03*
X97375700Y-141759400D03*
D12*
X33873700Y-149407400D03*
X33873700Y-150367400D03*
D24*
X62563700Y-99409600D03*
D25*
X62063700Y-99409600D03*
X61563700Y-99409600D03*
D24*
X61063700Y-99409600D03*
X61063700Y-98409600D03*
D25*
X61563700Y-98409600D03*
X62063700Y-98409600D03*
D24*
X62563700Y-98409600D03*
D79*
X87174100Y-147982400D03*
D80*
X87174100Y-149252400D03*
X87174100Y-150522400D03*
X87174100Y-151792400D03*
X82224100Y-151792400D03*
X82224100Y-150522400D03*
X82224100Y-149252400D03*
X82224100Y-147982400D03*
D81*
X100005116Y-81941644D03*
X100076284Y-82959156D03*
D79*
X56694100Y-147982400D03*
D80*
X56694100Y-149252400D03*
X56694100Y-150522400D03*
X56694100Y-151792400D03*
X51744100Y-151792400D03*
X51744100Y-150522400D03*
X51744100Y-149252400D03*
X51744100Y-147982400D03*
D82*
X54930301Y-82905601D03*
X54930301Y-83925599D03*
D13*
X53423700Y-105957400D03*
D14*
X53423700Y-106457400D03*
X53423700Y-106957400D03*
D13*
X53423700Y-107457400D03*
X52423700Y-107457400D03*
D14*
X52423700Y-106957400D03*
X52423700Y-106457400D03*
D13*
X52423700Y-105957400D03*
M02*
