0
SECTION
2
HEADER
9
$INSUNITS
70
4
9
$ACADVER
1
AC1014
9
$HANDSEED
5
FFFF
0
ENDSEC
0
SECTION
2
TABLES
0
TABLE
2
VPORT
5
8
100
AcDbSymbolTable
0
ENDTAB
0
TABLE
2
LTYPE
5
5
100
AcDbSymbolTable
0
LTYPE
5
14
100
AcDbSymbolTableRecord
100
AcDbLinetypeTableRecord
2
BYBLOCK
70
0
0
LTYPE
5
15
100
AcDbSymbolTableRecord
100
AcDbLinetypeTableRecord
2
BYLAYER
70
0
0
LTYPE
5
16
100
AcDbSymbolTableRecord
100
AcDbLinetypeTableRecord
2
DASHED
70
0
3
Dashed __ __ __ __ __ __ __ __ __ __ __ __ __ _
72
65
73
2
40
0.75
49
0.5
74
0
49
-0.25
74
0
0
ENDTAB
0
TABLE
2
LAYER
5
2
100
AcDbSymbolTable
70
2
0
LAYER
5
50
100
AcDbSymbolTableRecord
100
AcDbLayerTableRecord
2
0
70
0
62
7
6
CONTINUOUS
0
ENDTAB
0
TABLE
2
STYLE
5
3
100
AcDbSymbolTable
70
1
0
STYLE
5
11
100
AcDbSymbolTableRecord
100
AcDbTextStyleTableRecord
2
STANDARD
70
0
0
ENDTAB
0
TABLE
2
VIEW
5
6
100
AcDbSymbolTable
70
0
0
ENDTAB
0
TABLE
2
UCS
5
7
100
AcDbSymbolTable
70
0
0
ENDTAB
0
TABLE
2
APPID
5
9
100
AcDbSymbolTable
70
2
0
APPID
5
12
100
AcDbSymbolTableRecord
100
AcDbRegAppTableRecord
2
ACAD
70
0
0
ENDTAB
0
TABLE
2
DIMSTYLE
5
A
100
AcDbSymbolTable
70
1
0
ENDTAB
0
TABLE
2
BLOCK_RECORD
5
1
100
AcDbSymbolTable
70
1
0
BLOCK_RECORD
5
1F
100
AcDbSymbolTableRecord
100
AcDbBlockTableRecord
2
*MODEL_SPACE
0
BLOCK_RECORD
5
1B
100
AcDbSymbolTableRecord
100
AcDbBlockTableRecord
2
*PAPER_SPACE
0
ENDTAB
0
ENDSEC
0
SECTION
2
BLOCKS
0
BLOCK
5
20
100
AcDbEntity
100
AcDbBlockBegin
2
*MODEL_SPACE
0
ENDBLK
5
21
100
AcDbEntity
100
AcDbBlockEnd
0
BLOCK
5
1C
100
AcDbEntity
100
AcDbBlockBegin
2
*PAPER_SPACE
0
ENDBLK
5
1D
100
AcDbEntity
100
AcDbBlockEnd
0
ENDSEC
0
SECTION
2
ENTITIES
0
CIRCLE
5
100
100
AcDbEntity
8
0
100
AcDbCircle
10
-36.862754605935507
20
-35.215563049299867
30
0
40
1.5500000000000025
210
0
220
-0
230
1
0
CIRCLE
5
101
100
AcDbEntity
8
0
100
AcDbCircle
10
-36.862754605935507
20
-43.21556304929986
30
0
40
1.5500000000000025
210
0
220
-0
230
1
0
CIRCLE
5
102
100
AcDbEntity
8
0
100
AcDbCircle
10
-28.862754605935507
20
-35.215563049299867
30
0
40
1.549999999999998
210
0
220
-0
230
1
0
CIRCLE
5
103
100
AcDbEntity
8
0
100
AcDbCircle
10
-36.862754605935507
20
-27.215563049299863
30
0
40
1.5500000000000025
210
0
220
-0
230
1
0
CIRCLE
5
104
100
AcDbEntity
8
0
100
AcDbCircle
10
-28.862754605935507
20
-43.21556304929986
30
0
40
1.549999999999998
210
0
220
-0
230
1
0
CIRCLE
5
105
100
AcDbEntity
8
0
100
AcDbCircle
10
-20.862754605935507
20
-43.21556304929986
30
0
40
1.5500000000000025
210
0
220
-0
230
1
0
CIRCLE
5
106
100
AcDbEntity
8
0
100
AcDbCircle
10
3.137245394064494
20
-43.21556304929986
30
0
40
1.5500000000000003
210
0
220
-0
230
1
0
ARC
5
107
100
AcDbEntity
8
0
100
AcDbCircle
10
14.276510985647732
20
-36.751925529957546
30
0
40
0.50000000000021572
210
0
220
-0
230
1
100
AcDbArc
50
29.714702851041551
51
44.963862275198665
0
LINE
5
108
100
AcDbEntity
8
0
100
AcDbLine
10
14.63028729990404
20
-36.39859520367429
30
0
11
-14.43027382958585
21
-7.3013526466690903
31
0
0
ARC
5
109
100
AcDbEntity
8
0
100
AcDbCircle
10
-14.784050143841988
20
-7.6546829729522194
30
0
40
0.49999999999999833
210
0
220
-0
230
1
100
AcDbArc
50
44.963862275202175
51
67.588069415958884
0
LINE
5
110
100
AcDbEntity
8
0
100
AcDbLine
10
-14.59341870162489
20
-7.1924496409236616
30
0
11
-20.16165500621323
21
-4.8960316982995931
31
0
0
ARC
5
111
100
AcDbEntity
8
0
100
AcDbCircle
10
-20.352286448430334
20
-5.3582650303281625
30
0
40
0.50000000000000533
210
0
220
-0
230
1
100
AcDbArc
50
67.588069415958827
51
120.05063043249625
0
LINE
5
112
100
AcDbEntity
8
0
100
AcDbLine
10
-20.602668990131427
20
-4.9254734144073993
30
0
11
-21.718174374977231
21
-5.5708257347030168
31
0
0
ARC
5
113
100
AcDbEntity
8
0
100
AcDbCircle
10
-21.21740929157508
20
-6.4364089665444979
30
0
40
0.99999999999995315
210
0
220
0
230
1
100
AcDbArc
50
120.05063043249575
51
150.00000000000071
0
LINE
5
114
100
AcDbEntity
8
0
100
AcDbLine
10
-22.083434695359486
20
-5.9364089665445308
30
0
11
-24.136741414207947
21
-9.4928405271126284
31
0
0
ARC
5
115
100
AcDbEntity
8
0
100
AcDbCircle
10
-23.703728712315758
20
-9.7428405271126177
30
0
40
0.49999999999996614
210
0
220
0
230
1
100
AcDbArc
50
149.99999999999929
51
183.6071423916122
0
LINE
5
116
100
AcDbEntity
8
0
100
AcDbLine
10
-24.202738158974473
20
-9.7742979927659341
30
0
11
-24.182204022468625
21
-10.100030784095331
31
0
0
ARC
5
117
100
AcDbEntity
8
0
100
AcDbCircle
10
-23.683194575809893
20
-10.068573318442034
30
0
40
0.49999999999998163
210
0
220
0
230
1
100
AcDbArc
50
183.60714239160978
51
226.23604256675023
0
LINE
5
118
100
AcDbEntity
8
0
100
AcDbLine
10
-24.029039078514955
20
-10.42967106137138
30
0
11
-19.58383972734741
21
-14.687099386893321
31
0
0
LINE
5
119
100
AcDbEntity
8
0
100
AcDbLine
10
-19.58383972734741
20
-14.687099386893321
30
0
11
-17.914419402610633
21
-17.225925048092403
31
0
0
ARC
5
120
100
AcDbEntity
8
0
100
AcDbCircle
10
-18.332192889051672
20
-17.500634556531594
30
0
40
0.50000000000000111
210
-0
220
0
230
1
100
AcDbArc
50
-21.554716987669302
51
33.327164225796466
0
LINE
5
121
100
AcDbEntity
8
0
100
AcDbLine
10
-17.867159319966245
20
-17.684329356740172
30
0
11
-18.073669308822641
21
-18.20712084055268
31
0
0
ARC
5
122
100
AcDbEntity
8
0
100
AcDbCircle
10
-18.538702877908069
20
-18.023426040344106
30
0
40
0.499999999999999
210
-0
220
0
230
1
100
AcDbArc
50
315
51
338.445283012331
0
LINE
5
123
100
AcDbEntity
8
0
100
AcDbLine
10
-18.185149487314796
20
-18.376979430937379
30
0
11
-22.911495273287464
21
-23.10332521691004
31
0
0
ARC
5
124
100
AcDbEntity
8
0
100
AcDbCircle
10
-23.265048663880737
20
-22.749771826316771
30
0
40
0.50000000000000133
210
0
220
0
230
1
100
AcDbArc
50
240.00000000000045
51
315.00000000000028
0
LINE
5
125
100
AcDbEntity
8
0
100
AcDbLine
10
-23.515048663880734
20
-23.182784528208991
30
0
11
-35.258561934507775
21
-16.402663980180556
31
0
0
ARC
5
126
100
AcDbEntity
8
0
100
AcDbCircle
10
-35.658561934507773
20
-17.095484303208103
30
0
40
0.79999999999999727
210
0
220
-0
230
1
100
AcDbArc
50
59.999999999999957
51
135.26033547223486
0
LINE
5
127
100
AcDbEntity
8
0
100
AcDbLine
10
-36.226811822420018
20
-16.532375019953317
30
0
11
-40.513614220391574
21
-20.858311484842098
31
0
0
ARC
5
128
100
AcDbEntity
8
0
100
AcDbCircle
10
-39.803301860501222
20
-21.562198088910606
30
0
40
1.0000000000000482
210
0
220
0
230
1
100
AcDbArc
50
135.26033547223571
51
169.39067169942217
0
LINE
5
129
100
AcDbEntity
8
0
100
AcDbLine
10
-40.78620724758543
20
-21.378086709466153
30
0
11
-41.578509329085414
21
-25.607906650277599
31
0
0
LINE
5
130
100
AcDbEntity
8
0
100
AcDbLine
10
-41.578509329085414
20
-25.607906650277599
30
0
11
-41.593026342134507
21
-25.685231784913
31
0
0
LINE
5
131
100
AcDbEntity
8
0
100
AcDbLine
10
-41.593026342134507
20
-25.685231784913
30
0
11
-42.697355153652133
21
-31.580629909975531
31
0
0
LINE
5
132
100
AcDbEntity
8
0
100
AcDbLine
10
-42.697355153652133
20
-31.580629909975531
30
0
11
-45.646067555705507
21
-31.028275684670568
31
0
0
LINE
5
133
100
AcDbEntity
8
0
100
AcDbLine
10
-45.646067555705507
20
-31.028275684670568
30
0
11
-45.374099703936743
21
-29.576390388667633
31
0
0
LINE
5
134
100
AcDbEntity
8
0
100
AcDbLine
10
-45.374099703936743
20
-29.576390388667633
30
0
11
-45.455624486175608
21
-29.476037487321783
31
0
0
ARC
5
135
100
AcDbEntity
8
0
100
AcDbCircle
10
-45.533240409408542
20
-29.53909118238165
30
0
40
0.10000000000001241
210
0
220
-0
230
1
100
AcDbArc
50
39.089748896347061
51
101.83298526904643
0
LINE
5
136
100
AcDbEntity
8
0
100
AcDbLine
10
-45.553746364748029
20
-29.441216232595622
30
0
11
-45.979268626691152
21
-29.530368160831031
31
0
0
ARC
5
137
100
AcDbEntity
8
0
100
AcDbCircle
10
-45.876738849993721
20
-30.01974290976101
30
0
40
0.4999999999999038
210
0
220
0
230
1
100
AcDbArc
50
101.83298526904947
51
135.00000006698096
0
LINE
5
138
100
AcDbEntity
8
0
100
AcDbLine
10
-46.230292241000242
20
-29.666189519581124
30
0
11
-51.584471967360244
21
-35.020369258458992
31
0
0
ARC
5
139
100
AcDbEntity
8
0
100
AcDbCircle
10
-51.230918576353659
20
-35.373922648638974
30
0
40
0.50000000000001787
210
0
220
0
230
1
100
AcDbArc
50
135.00000006697837
51
158.3373447420019
0
LINE
5
140
100
AcDbEntity
8
0
100
AcDbLine
10
-51.695605261811949
20
-35.189352108308718
30
0
11
-55.385117480821371
21
-44.478305811005313
31
0
0
ARC
5
141
100
AcDbEntity
8
0
100
AcDbCircle
10
-54.920430795363096
20
-44.662876351335548
30
0
40
0.49999999999999495
210
0
220
0
230
1
100
AcDbArc
50
158.33734474200358
51
204.49999999999994
0
LINE
5
142
100
AcDbEntity
8
0
100
AcDbLine
10
-55.375411430801371
20
-44.870222972663669
30
0
11
-53.850852124192848
21
-48.21556304929986
31
0
0
LINE
5
143
100
AcDbEntity
8
0
100
AcDbLine
10
-53.850852124192848
20
-48.21556304929986
30
0
11
-38.644223867108323
21
-48.21556304929986
31
0
0
LINE
5
144
100
AcDbEntity
8
0
100
AcDbLine
10
-38.644223867108323
20
-48.21556304929986
30
0
11
-38.644223867108323
21
-51.215563049299845
31
0
0
LINE
5
145
100
AcDbEntity
8
0
100
AcDbLine
10
-38.644223867108323
20
-51.215563049299845
30
0
11
-40.244223867108317
21
-51.215563049299845
31
0
0
LINE
5
146
100
AcDbEntity
8
0
100
AcDbLine
10
-40.244223867108317
20
-51.215563049299845
30
0
11
-40.244223867108317
21
-51.397195314253558
31
0
0
LINE
5
147
100
AcDbEntity
8
0
100
AcDbLine
10
-40.244223867108317
20
-51.397195314253558
30
0
11
-39.840890172165416
21
-52.012676405037361
31
0
0
ARC
5
148
100
AcDbEntity
8
0
100
AcDbCircle
10
-39.757249508090112
20
-51.957865463492404
30
0
40
0.10000000000001098
210
0
220
0
230
1
100
AcDbArc
50
213.23740740627485
51
262.92531877014096
0
LINE
5
149
100
AcDbEntity
8
0
100
AcDbLine
10
-39.769565803817166
20
-52.057104109490659
30
0
11
-38.112965852832808
21
-52.262701179991666
31
0
0
ARC
5
150
100
AcDbEntity
8
0
100
AcDbCircle
10
-37.989802895562434
20
-51.270314720009083
30
0
40
1.0000000000001719
210
0
220
0
230
1
100
AcDbArc
50
262.92531877015045
51
276.00000000000074
0
LINE
5
151
100
AcDbEntity
8
0
100
AcDbLine
10
-37.88527443229475
20
-52.264836615377526
30
0
11
-33.333885377648976
21
-51.78646634939242
31
0
0
ARC
5
152
100
AcDbEntity
8
0
100
AcDbCircle
10
-33.438413840916105
20
-50.791944454026982
30
0
40
0.99999999999712819
210
-0
220
0
230
1
100
AcDbArc
50
275.9999999999871
51
283.34441670756439
0
LINE
5
153
100
AcDbEntity
8
0
100
AcDbLine
10
-33.207609747354944
20
-51.764944695748262
30
0
11
-30.919230030654504
21
-51.222121185959494
31
0
0
ARC
5
154
100
AcDbEntity
8
0
100
AcDbCircle
10
-31.150034124222966
20
-50.249120944207924
30
0
40
1.0000000000282832
210
-0
220
0
230
1
100
AcDbArc
50
283.34441670757087
51
284.88528066546917
0
LINE
5
155
100
AcDbEntity
8
0
100
AcDbLine
10
-30.893149602380824
20
-51.215563049299845
30
0
11
-19.644223867108327
21
-51.21556304929986
31
0
0
LINE
5
156
100
AcDbEntity
8
0
100
AcDbLine
10
-19.644223867108327
20
-51.21556304929986
30
0
11
-19.644223867108327
21
-48.21556304929986
31
0
0
LINE
5
157
100
AcDbEntity
8
0
100
AcDbLine
10
-19.644223867108327
20
-48.21556304929986
30
0
11
-5.8516310343088751
21
-48.21556304929986
31
0
0
LINE
5
158
100
AcDbEntity
8
0
100
AcDbLine
10
-5.8516310343088751
20
-48.21556304929986
30
0
11
-5.8512238671083168
21
-51.215563049299845
31
0
0
LINE
5
159
100
AcDbEntity
8
0
100
AcDbLine
10
-5.8512238671083168
20
-51.215563049299845
30
0
11
-7.4512238671083164
21
-51.215563049299845
31
0
0
LINE
5
160
100
AcDbEntity
8
0
100
AcDbLine
10
-7.4512238671083164
20
-51.215563049299845
30
0
11
-7.4512238671083164
21
-51.397195314253558
31
0
0
LINE
5
161
100
AcDbEntity
8
0
100
AcDbLine
10
-7.4512238671083164
20
-51.397195314253558
30
0
11
-7.0478901721654141
21
-52.012676405037361
31
0
0
ARC
5
162
100
AcDbEntity
8
0
100
AcDbCircle
10
-6.9642495080901057
20
-51.957865463492396
30
0
40
0.10000000000001955
210
0
220
0
230
1
100
AcDbArc
50
213.23740740627687
51
262.92531877013795
0
LINE
5
163
100
AcDbEntity
8
0
100
AcDbLine
10
-6.9765658038171674
20
-52.057104109490673
30
0
11
-5.3199658528328042
21
-52.262701179991666
31
0
0
ARC
5
164
100
AcDbEntity
8
0
100
AcDbCircle
10
-5.1968028955624312
20
-51.27031472000909
30
0
40
1.0000000000001632
210
0
220
0
230
1
100
AcDbArc
50
262.92531877015045
51
276.00000000000068
0
LINE
5
165
100
AcDbEntity
8
0
100
AcDbLine
10
-5.0922744322947491
20
-52.264836615377533
30
0
11
-0.54088537764897637
21
-51.78646634939242
31
0
0
ARC
5
166
100
AcDbEntity
8
0
100
AcDbCircle
10
-0.6454138409161001
20
-50.791944454027004
30
0
40
0.99999999999710143
210
0
220
0
230
1
100
AcDbArc
50
275.99999999998693
51
283.34441670756422
0
LINE
5
167
100
AcDbEntity
8
0
100
AcDbLine
10
-0.4146097473549486
20
-51.764944695748255
30
0
11
1.8737699693454912
21
-51.222121185959494
31
0
0
ARC
5
168
100
AcDbEntity
8
0
100
AcDbCircle
10
1.6429658757960428
20
-50.249120944283625
30
0
40
0.99999999995023969
210
0
220
0
230
1
100
AcDbArc
50
283.34441670751193
51
284.88528066553062
0
LINE
5
169
100
AcDbEntity
8
0
100
AcDbLine
10
1.8998503976191721
20
-51.215563049299845
30
0
11
15.051391503542668
21
-51.215563049299824
31
0
0
SPLINE
5
170
100
AcDbEntity
8
0
100
AcDbSpline
70
0
71
3
72
18
73
14
74
0
42
0.000000001
43
0.0000000001
44
0.0000000001
40
0.054811803377029129
40
0.054811803377029129
40
0.054811803377029129
40
0.054811803377029129
40
0.10567660622084672
40
0.10567660622084672
40
0.27045380806987546
40
0.27045380806987546
40
0.57206884191258967
40
0.57206884191258967
40
1.2767534503709248
40
1.2767534503709248
40
2.7961943800843212
40
2.7961943800843212
40
4.4854650892447587
40
4.4854650892447587
40
4.4854650892447587
40
4.4854650892447587
10
17.201872834798131
20
-41.41817354552137
30
0
10
16.976690467057452
20
-41.575939945942025
30
0
10
16.725247777952454
20
-41.77020617444871
30
0
10
15.638875064330682
20
-42.787475965487481
30
0
10
15.338131330917422
20
-43.403304931603238
30
0
10
14.73795315014762
20
-44.720099570686322
30
0
10
14.64777434839788
20
-45.619946066065239
30
0
10
14.600099694007213
20
-46.652289081278838
30
0
10
14.744463264256478
20
-47.58363677521978
30
0
10
14.861033123104978
20
-48.301193395071579
30
0
10
14.942919239517632
20
-48.530724147914029
30
0
10
15.110755453334296
20
-49.635450591152662
30
0
10
15.16481643645478
20
-50.37321328725281
30
0
10
15.051391503542696
20
-51.215563049299639
30
0
0
SPLINE
5
171
100
AcDbEntity
8
0
100
AcDbSpline
70
0
71
3
72
14
73
10
74
0
42
0.000000001
43
0.0000000001
44
0.0000000001
40
0
40
0
40
0
40
0
40
0.011719334201608393
40
0.011719334201608393
40
0.023438668403215825
40
0.023438668403215825
40
0.03395692360776853
40
0.03395692360776853
40
0.044475178812321617
40
0.044475178812321617
40
0.044475178812321617
40
0.044475178812321617
10
17.290283849782643
20
-41.023770643903646
30
0
10
17.309647375761056
20
-41.057698286137679
30
0
10
17.322198952910291
20
-41.095083688824346
30
0
10
17.332265228268568
20
-41.172561390674119
30
0
10
17.329683687398639
20
-41.211912960778925
30
0
10
17.310611950441764
20
-41.283542763627182
30
0
10
17.295721170433623
20
-41.315581067933906
30
0
10
17.255554343259664
20
-41.37305870703743
30
0
10
17.230587488640762
20
-41.398055595694608
30
0
10
17.201872834798124
20
-41.41817354552137
30
0
0
LINE
5
172
100
AcDbEntity
8
0
100
AcDbLine
10
17.290283849782643
20
-41.023770643903646
30
0
11
14.710763157960493
21
-36.504084752760043
31
0
0
LWPOLYLINE
5
173
100
AcDbEntity
8
0
100
AcDbPolyline
90
4
70
1
43
0.0
10
-6.6774069399938218
20
-23.248830530046529
10
-8.7987272835534664
20
-25.370150873606178
10
-14.455581578461548
20
-19.713296578698095
10
-12.334261234901902
20
-17.59197623513845
0
LWPOLYLINE
5
174
100
AcDbEntity
8
0
100
AcDbPolyline
90
4
70
1
43
0.0
10
4.6363015135752033
20
-34.562538983615561
10
2.51498117001556
20
-36.683859327175206
10
-3.1418730340610965
20
-31.027005123098547
10
-1.0205526905014528
20
-28.905684779538898
0
CIRCLE
5
175
100
AcDbEntity
8
0
100
AcDbCircle
10
-36.862754605935507
20
-35.215563049299867
30
0
40
1.5500000000000025
210
0
220
0
230
1
0
CIRCLE
5
176
100
AcDbEntity
8
0
100
AcDbCircle
10
-36.862754605935507
20
-43.21556304929986
30
0
40
1.5500000000000025
210
0
220
0
230
1
0
CIRCLE
5
177
100
AcDbEntity
8
0
100
AcDbCircle
10
-28.862754605935507
20
-35.215563049299867
30
0
40
1.549999999999998
210
0
220
0
230
1
0
CIRCLE
5
178
100
AcDbEntity
8
0
100
AcDbCircle
10
-36.862754605935507
20
-27.215563049299863
30
0
40
1.5500000000000025
210
0
220
0
230
1
0
CIRCLE
5
179
100
AcDbEntity
8
0
100
AcDbCircle
10
-28.862754605935507
20
-43.21556304929986
30
0
40
1.549999999999998
210
0
220
0
230
1
0
CIRCLE
5
180
100
AcDbEntity
8
0
100
AcDbCircle
10
-20.862754605935507
20
-43.21556304929986
30
0
40
1.5500000000000025
210
0
220
0
230
1
0
CIRCLE
5
181
100
AcDbEntity
8
0
100
AcDbCircle
10
3.137245394064494
20
-43.21556304929986
30
0
40
1.5500000000000003
210
0
220
0
230
1
0
ARC
5
182
100
AcDbEntity
8
0
100
AcDbCircle
10
14.276510985647903
20
-36.751925529957418
30
0
40
0.49999999999999922
210
0
220
-0
230
1
100
AcDbArc
50
29.714702851038599
51
44.963862275202963
0
LINE
5
183
100
AcDbEntity
8
0
100
AcDbLine
10
-14.430273829585856
20
-7.3013526466690903
30
0
11
14.630287299904037
21
-36.398595203674283
31
0
0
ARC
5
184
100
AcDbEntity
8
0
100
AcDbCircle
10
-14.784050143841991
20
-7.6546829729522248
30
0
40
0.50000000000000233
210
0
220
-0
230
1
100
AcDbArc
50
44.96386227520275
51
67.588069415958742
0
ARC
5
185
100
AcDbEntity
8
0
100
AcDbCircle
10
-51.230918576353673
20
-35.373922648638967
30
0
40
0.499999999999999
210
0
220
0
230
1
100
AcDbArc
50
135.0000000669778
51
158.33734474200341
0
LINE
5
186
100
AcDbEntity
8
0
100
AcDbLine
10
14.710763157960491
20
-36.504084752760043
30
0
11
17.290283849782643
21
-41.02377064390366
31
0
0
SPLINE
5
187
100
AcDbEntity
8
0
100
AcDbSpline
70
0
71
3
72
14
73
10
74
0
42
0.000000001
43
0.0000000001
44
0.0000000001
40
0
40
0
40
0
40
0
40
0.011719334201607843
40
0.011719334201607843
40
0.023438668403215474
40
0.023438668403215474
40
0.03395692360776819
40
0.03395692360776819
40
0.044475178812320951
40
0.044475178812320951
40
0.044475178812320951
40
0.044475178812320951
10
17.201872834798124
20
-41.41817354552137
30
0
10
17.233866413421282
20
-41.395758328084078
30
0
10
17.261175925589136
20
-41.367308355006216
30
0
10
17.30335247591346
20
-41.301541624919871
30
0
10
17.317816283260836
20
-41.26485363369666
30
0
10
17.331146720651571
20
-41.191936836965006
30
0
10
17.331357297261135
20
-41.156607756456282
30
0
10
17.319570002727268
20
-41.087483862687847
30
0
10
17.30766286674702
20
-41.054221145047087
30
0
10
17.290283849782643
20
-41.02377064390366
30
0
0
SPLINE
5
188
100
AcDbEntity
8
0
100
AcDbSpline
70
0
71
3
72
18
73
14
74
0
42
0.000000001
43
0.0000000001
44
0.0000000001
40
0
40
0
40
0
40
0
40
0.27764693172872162
40
0.27764693172872162
40
0.62987006853332261
40
0.62987006853332261
40
0.94155625688237055
40
0.94155625688237055
40
1.398089716082445
40
1.398089716082445
40
1.8275041774315941
40
1.8275041774315941
40
2.4666885102316707
40
2.4666885102316707
40
2.4666885102316707
40
2.4666885102316707
10
15.051391503542696
20
-51.215563049299639
30
0
10
15.174896854540496
20
-50.298351106973485
30
0
10
15.09978645683084
20
-49.504651490975171
30
0
10
14.868981548297411
20
-48.137748151388841
30
0
10
14.707729132907101
20
-47.708382111293872
30
0
10
14.58229567132765
20
-45.432778338945283
30
0
10
14.870424565554583
20
-44.534543376777826
30
0
10
15.092606845110172
20
-43.895149674507323
30
0
10
15.375520327776611
20
-43.319604916899131
30
0
10
15.954754732659397
20
-42.495509999663085
30
0
10
16.304531505467075
20
-42.163739877542064
30
0
10
16.729162678915316
20
-41.767186699596266
30
0
10
16.978459951889135
20
-41.574700216316238
30
0
10
17.201872834798127
20
-41.41817354552137
30
0
0
LINE
5
189
100
AcDbEntity
8
0
100
AcDbLine
10
1.8998503976191783
20
-51.21556304929986
30
0
11
15.051391503542696
21
-51.215563049299639
31
0
0
ARC
5
190
100
AcDbEntity
8
0
100
AcDbCircle
10
1.6429658757838128
20
-50.249120944235386
30
0
40
0.99999999999999734
210
-0
220
0
230
1
100
AcDbArc
50
283.34441670755592
51
284.88528066549793
0
LINE
5
191
100
AcDbEntity
8
0
100
AcDbLine
10
-0.4146097473549526
20
-51.764944695748241
30
0
11
1.8737699693454923
21
-51.222121185959494
31
0
0
ARC
5
192
100
AcDbEntity
8
0
100
AcDbCircle
10
-0.64541384091663101
20
-50.791944454024147
30
0
40
1.0000000000000011
210
-0
220
0
230
1
100
AcDbArc
50
276.00000000000006
51
283.34441670755598
0
LINE
5
193
100
AcDbEntity
8
0
100
AcDbLine
10
-5.09227443229475
20
-52.264836615377533
30
0
11
-0.54088537764897704
21
-51.78646634939242
31
0
0
ARC
5
194
100
AcDbEntity
8
0
100
AcDbCircle
10
-5.1968028955624046
20
-51.27031472000926
30
0
40
0.99999999999999889
210
0
220
0
230
1
100
AcDbArc
50
262.92531877014773
51
276.00000000000006
0
LINE
5
195
100
AcDbEntity
8
0
100
AcDbLine
10
-6.9765658038171674
20
-52.057104109490666
30
0
11
-5.3199658528328051
21
-52.262701179991666
31
0
0
ARC
5
196
100
AcDbEntity
8
0
100
AcDbCircle
10
-6.9642495080901279
20
-51.957865463492425
30
0
40
0.099999999999999603
210
0
220
0
230
1
100
AcDbArc
50
213.23740740627056
51
262.92531877014801
0
LINE
5
197
100
AcDbEntity
8
0
100
AcDbLine
10
-7.4512238671083173
20
-51.397195314253551
30
0
11
-7.0478901721654239
21
-52.012676405037368
31
0
0
LINE
5
198
100
AcDbEntity
8
0
100
AcDbLine
10
-7.4512238671083342
20
-51.215563049299845
30
0
11
-7.4512238671083173
21
-51.397195314253551
31
0
0
LINE
5
199
100
AcDbEntity
8
0
100
AcDbLine
10
-7.4512238671083342
20
-51.215563049299845
30
0
11
-5.8512238671083168
21
-51.21556304929986
31
0
0
LINE
5
200
100
AcDbEntity
8
0
100
AcDbLine
10
-5.8512238671083168
20
-51.21556304929986
30
0
11
-5.8516310343088751
21
-48.21556304929986
31
0
0
LINE
5
201
100
AcDbEntity
8
0
100
AcDbLine
10
-5.8516310343088751
20
-48.21556304929986
30
0
11
-19.64422386710833
21
-48.21556304929986
31
0
0
LINE
5
202
100
AcDbEntity
8
0
100
AcDbLine
10
-19.64422386710833
20
-48.21556304929986
30
0
11
-19.644223867108327
21
-51.215563049299853
31
0
0
LINE
5
203
100
AcDbEntity
8
0
100
AcDbLine
10
-19.644223867108327
20
-51.215563049299853
30
0
11
-30.893149602380824
21
-51.21556304929986
31
0
0
ARC
5
204
100
AcDbEntity
8
0
100
AcDbCircle
10
-31.150034124209277
20
-50.249120944262529
30
0
40
0.99999999997199329
210
0
220
0
230
1
100
AcDbArc
50
283.34441670752989
51
284.88528066551476
0
LINE
5
205
100
AcDbEntity
8
0
100
AcDbLine
10
-30.919230030654504
20
-51.222121185959494
30
0
11
-33.207609747354951
21
-51.764944695748255
31
0
0
ARC
5
206
100
AcDbEntity
8
0
100
AcDbCircle
10
-33.438413840916311
20
-50.791944454025753
30
0
40
0.99999999999836842
210
0
220
0
230
1
100
AcDbArc
50
275.99999999999153
51
283.34441670755933
0
LINE
5
207
100
AcDbEntity
8
0
100
AcDbLine
10
-33.333885377648976
20
-51.78646634939242
30
0
11
-37.88527443229475
21
-52.264836615377533
31
0
0
ARC
5
208
100
AcDbEntity
8
0
100
AcDbCircle
10
-37.989802895562434
20
-51.270314720009118
30
0
40
1.0000000000001361
210
0
220
0
230
1
100
AcDbArc
50
262.92531877015023
51
276.00000000000091
0
LINE
5
209
100
AcDbEntity
8
0
100
AcDbLine
10
-38.112965852832808
20
-52.262701179991666
30
0
11
-39.769565803817166
21
-52.057104109490666
31
0
0
ARC
5
210
100
AcDbEntity
8
0
100
AcDbCircle
10
-39.757249508090112
20
-51.957865463492404
30
0
40
0.10000000000001098
210
0
220
0
230
1
100
AcDbArc
50
213.23740740627485
51
262.92531877014147
0
LINE
5
211
100
AcDbEntity
8
0
100
AcDbLine
10
-39.840890172165416
20
-52.012676405037361
30
0
11
-40.244223867108317
21
-51.397195314253558
31
0
0
LINE
5
212
100
AcDbEntity
8
0
100
AcDbLine
10
-40.244223867108317
20
-51.397195314253558
30
0
11
-40.244223867108317
21
-51.215563049299845
31
0
0
LINE
5
213
100
AcDbEntity
8
0
100
AcDbLine
10
-40.244223867108317
20
-51.215563049299845
30
0
11
-38.644223867108323
21
-51.215563049299845
31
0
0
LINE
5
214
100
AcDbEntity
8
0
100
AcDbLine
10
-38.644223867108323
20
-51.215563049299845
30
0
11
-38.644223867108323
21
-48.21556304929986
31
0
0
LINE
5
215
100
AcDbEntity
8
0
100
AcDbLine
10
-38.644223867108323
20
-48.21556304929986
30
0
11
-53.850852124192848
21
-48.21556304929986
31
0
0
LINE
5
216
100
AcDbEntity
8
0
100
AcDbLine
10
-53.850852124192848
20
-48.21556304929986
30
0
11
-55.375411430801364
21
-44.870222972663669
31
0
0
ARC
5
217
100
AcDbEntity
8
0
100
AcDbCircle
10
-54.920430795363089
20
-44.662876351335548
30
0
40
0.50000000000000322
210
0
220
0
230
1
100
AcDbArc
50
158.33734474200386
51
204.49999999999994
0
LINE
5
218
100
AcDbEntity
8
0
100
AcDbLine
10
-55.385117480821371
20
-44.478305811005313
30
0
11
-51.695605261811963
21
-35.189352108308725
31
0
0
LINE
5
219
100
AcDbEntity
8
0
100
AcDbLine
10
-51.584471967360244
20
-35.020369258458992
30
0
11
-46.230292241000242
21
-29.666189519581124
31
0
0
ARC
5
220
100
AcDbEntity
8
0
100
AcDbCircle
10
-45.876738849993679
20
-30.019742909761099
30
0
40
0.49999999999999983
210
0
220
0
230
1
100
AcDbArc
50
101.83298526905217
51
135.00000006697721
0
LINE
5
221
100
AcDbEntity
8
0
100
AcDbLine
10
-45.979268626691152
20
-29.530368160831031
30
0
11
-45.553746364748029
21
-29.441216232595625
31
0
0
ARC
5
222
100
AcDbEntity
8
0
100
AcDbCircle
10
-45.533240409408535
20
-29.53909118238164
30
0
40
0.099999999999999922
210
0
220
-0
230
1
100
AcDbArc
50
39.089748896344894
51
101.8329852690521
0
LINE
5
223
100
AcDbEntity
8
0
100
AcDbLine
10
-45.455624486175608
20
-29.476037487321783
30
0
11
-45.374099703936743
21
-29.576390388667633
31
0
0
LINE
5
224
100
AcDbEntity
8
0
100
AcDbLine
10
-45.374099703936743
20
-29.576390388667633
30
0
11
-45.646067555705507
21
-31.028275684670568
31
0
0
LINE
5
225
100
AcDbEntity
8
0
100
AcDbLine
10
-45.646067555705507
20
-31.028275684670568
30
0
11
-42.697355153652133
21
-31.580629909975535
31
0
0
LINE
5
226
100
AcDbEntity
8
0
100
AcDbLine
10
-42.697355153652133
20
-31.580629909975535
30
0
11
-41.593026342134507
21
-25.685231784913
31
0
0
LINE
5
227
100
AcDbEntity
8
0
100
AcDbLine
10
-41.593026342134507
20
-25.685231784913
30
0
11
-41.578509329085414
21
-25.607906650277599
31
0
0
LINE
5
228
100
AcDbEntity
8
0
100
AcDbLine
10
-41.578509329085414
20
-25.607906650277599
30
0
11
-40.786207247585423
21
-21.378086709466157
31
0
0
ARC
5
229
100
AcDbEntity
8
0
100
AcDbCircle
10
-39.803301860501264
20
-21.562198088910584
30
0
40
0.99999999999999778
210
0
220
0
230
1
100
AcDbArc
50
135.26033547223457
51
169.39067169942305
0
LINE
5
230
100
AcDbEntity
8
0
100
AcDbLine
10
-36.226811822420018
20
-16.532375019953317
30
0
11
-40.513614220391567
21
-20.858311484842098
31
0
0
ARC
5
231
100
AcDbEntity
8
0
100
AcDbCircle
10
-35.658561934507773
20
-17.095484303208107
30
0
40
0.79999999999999916
210
0
220
-0
230
1
100
AcDbArc
50
60.000000000000085
51
135.26033547223471
0
LINE
5
232
100
AcDbEntity
8
0
100
AcDbLine
10
-35.258561934507775
20
-16.402663980180556
30
0
11
-23.515048663880734
21
-23.182784528208991
31
0
0
ARC
5
233
100
AcDbEntity
8
0
100
AcDbCircle
10
-23.265048663880737
20
-22.749771826316771
30
0
40
0.50000000000000133
210
0
220
0
230
1
100
AcDbArc
50
240.00000000000045
51
315.00000000000085
0
LINE
5
234
100
AcDbEntity
8
0
100
AcDbLine
10
-22.911495273287457
20
-23.10332521691004
30
0
11
-18.185149487314799
21
-18.376979430937375
31
0
0
ARC
5
235
100
AcDbEntity
8
0
100
AcDbCircle
10
-18.538702877908065
20
-18.023426040344098
30
0
40
0.499999999999999
210
0
220
0
230
1
100
AcDbArc
50
314.99999999999915
51
338.44528301232981
0
LINE
5
236
100
AcDbEntity
8
0
100
AcDbLine
10
-17.867159319966245
20
-17.684329356740172
30
0
11
-18.073669308822641
21
-18.207120840552683
31
0
0
ARC
5
237
100
AcDbEntity
8
0
100
AcDbCircle
10
-18.332192889051669
20
-17.500634556531594
30
0
40
0.49999999999999778
210
-0
220
0
230
1
100
AcDbArc
50
-21.554716987669455
51
33.327164225796913
0
LINE
5
238
100
AcDbEntity
8
0
100
AcDbLine
10
-19.58383972734741
20
-14.687099386893319
30
0
11
-17.914419402610637
21
-17.225925048092403
31
0
0
LINE
5
239
100
AcDbEntity
8
0
100
AcDbLine
10
-24.029039078514955
20
-10.429671061371383
30
0
11
-19.58383972734741
21
-14.687099386893319
31
0
0
ARC
5
240
100
AcDbEntity
8
0
100
AcDbCircle
10
-23.683194575809875
20
-10.068573318442024
30
0
40
0.49999999999999989
210
0
220
0
230
1
100
AcDbArc
50
183.60714239161086
51
226.23604256674992
0
LINE
5
241
100
AcDbEntity
8
0
100
AcDbLine
10
-24.202738158974476
20
-9.7742979927659341
30
0
11
-24.182204022468625
21
-10.100030784095331
31
0
0
ARC
5
242
100
AcDbEntity
8
0
100
AcDbCircle
10
-23.703728712315723
20
-9.7428405271126284
30
0
40
0.50000000000000133
210
0
220
0
230
1
100
AcDbArc
50
150.00000000000045
51
183.60714239161064
0
LINE
5
243
100
AcDbEntity
8
0
100
AcDbLine
10
-24.136741414207947
20
-9.4928405271126302
30
0
11
-22.083434695359486
21
-5.9364089665445334
31
0
0
ARC
5
244
100
AcDbEntity
8
0
100
AcDbCircle
10
-21.217409291575045
20
-6.4364089665445317
30
0
40
0.99999999999999856
210
0
220
0
230
1
100
AcDbArc
50
120.05063043249638
51
150.00000000000017
0
LINE
5
245
100
AcDbEntity
8
0
100
AcDbLine
10
-20.602668990131427
20
-4.9254734144074002
30
0
11
-21.718174374977227
21
-5.5708257347030159
31
0
0
ARC
5
246
100
AcDbEntity
8
0
100
AcDbCircle
10
-20.352286448430334
20
-5.3582650303281572
30
0
40
0.50000000000000022
210
0
220
-0
230
1
100
AcDbArc
50
67.588069415958515
51
120.05063043249658
0
LINE
5
247
100
AcDbEntity
8
0
100
AcDbLine
10
-20.16165500621323
20
-4.8960316982995948
30
0
11
-14.59341870162489
21
-7.1924496409236616
31
0
0
LWPOLYLINE
5
248
100
AcDbEntity
8
0
100
AcDbPolyline
90
4
70
1
43
0.0
10
2.51498117001556
20
-36.683859327175206
10
4.6363015135752033
20
-34.562538983615561
10
-1.0205526905014528
20
-28.905684779538898
10
-3.1418730340610965
20
-31.027005123098547
0
LWPOLYLINE
5
249
100
AcDbEntity
8
0
100
AcDbPolyline
90
4
70
1
43
0.0
10
-8.7987272835534664
20
-25.370150873606178
10
-6.6774069399938218
20
-23.248830530046529
10
-12.334261234901902
20
-17.59197623513845
10
-14.455581578461548
20
-19.713296578698095
0
ENDSEC
0
SECTION
2
OBJECTS
0
DICTIONARY
5
C
100
AcDbDictionary
3
ACAD_GROUP
350
D
3
ACAD_MLINESTYLE
350
17
0
DICTIONARY
5
D
100
AcDbDictionary
0
DICTIONARY
5
1A
330
C
100
AcDbDictionary
0
DICTIONARY
5
17
100
AcDbDictionary
0
ENDSEC
0
EOF
