0
SECTION
2
HEADER
9
$INSUNITS
70
4
9
$ACADVER
1
AC1014
9
$HANDSEED
5
FFFF
0
ENDSEC
0
SECTION
2
TABLES
0
TABLE
2
VPORT
5
8
100
AcDbSymbolTable
0
ENDTAB
0
TABLE
2
LTYPE
5
5
100
AcDbSymbolTable
0
LTYPE
5
14
100
AcDbSymbolTableRecord
100
AcDbLinetypeTableRecord
2
BYBLOCK
70
0
0
LTYPE
5
15
100
AcDbSymbolTableRecord
100
AcDbLinetypeTableRecord
2
BYLAYER
70
0
0
LTYPE
5
16
100
AcDbSymbolTableRecord
100
AcDbLinetypeTableRecord
2
DASHED
70
0
3
Dashed __ __ __ __ __ __ __ __ __ __ __ __ __ _
72
65
73
2
40
0.75
49
0.5
74
0
49
-0.25
74
0
0
ENDTAB
0
TABLE
2
LAYER
5
2
100
AcDbSymbolTable
70
2
0
LAYER
5
50
100
AcDbSymbolTableRecord
100
AcDbLayerTableRecord
2
0
70
0
62
7
6
CONTINUOUS
0
ENDTAB
0
TABLE
2
STYLE
5
3
100
AcDbSymbolTable
70
1
0
STYLE
5
11
100
AcDbSymbolTableRecord
100
AcDbTextStyleTableRecord
2
STANDARD
70
0
0
ENDTAB
0
TABLE
2
VIEW
5
6
100
AcDbSymbolTable
70
0
0
ENDTAB
0
TABLE
2
UCS
5
7
100
AcDbSymbolTable
70
0
0
ENDTAB
0
TABLE
2
APPID
5
9
100
AcDbSymbolTable
70
2
0
APPID
5
12
100
AcDbSymbolTableRecord
100
AcDbRegAppTableRecord
2
ACAD
70
0
0
ENDTAB
0
TABLE
2
DIMSTYLE
5
A
100
AcDbSymbolTable
70
1
0
ENDTAB
0
TABLE
2
BLOCK_RECORD
5
1
100
AcDbSymbolTable
70
1
0
BLOCK_RECORD
5
1F
100
AcDbSymbolTableRecord
100
AcDbBlockTableRecord
2
*MODEL_SPACE
0
BLOCK_RECORD
5
1B
100
AcDbSymbolTableRecord
100
AcDbBlockTableRecord
2
*PAPER_SPACE
0
ENDTAB
0
ENDSEC
0
SECTION
2
BLOCKS
0
BLOCK
5
20
100
AcDbEntity
100
AcDbBlockBegin
2
*MODEL_SPACE
0
ENDBLK
5
21
100
AcDbEntity
100
AcDbBlockEnd
0
BLOCK
5
1C
100
AcDbEntity
100
AcDbBlockBegin
2
*PAPER_SPACE
0
ENDBLK
5
1D
100
AcDbEntity
100
AcDbBlockEnd
0
ENDSEC
0
SECTION
2
ENTITIES
0
CIRCLE
5
100
100
AcDbEntity
8
0
100
AcDbCircle
10
27.330399999999983
20
32.032589349635977
30
4.4408920985006262e-15
40
1.4999999999999993
210
-1.23259516440782e-32
220
1.6653345369377348e-16
230
1
0
LWPOLYLINE
5
101
100
AcDbEntity
8
0
100
AcDbPolyline
90
4
70
1
43
0.0
10
-2.3516000000245598
20
24.895134719334756
10
-2.3516000000245625
20
31.753134719334774
10
7.8224378423959813
20
31.75313471933476
10
7.8224378576621234
20
24.894849696177257
0
LWPOLYLINE
5
102
100
AcDbEntity
8
0
100
AcDbPolyline
90
4
70
1
43
0.0
10
7.5013202317671812
20
4.3165893496358816
10
10.501320231767179
20
4.3165893496358851
10
10.501320231767185
20
-6.9941799164792844
10
7.5013202317671857
20
-6.9941799164792826
0
LWPOLYLINE
5
103
100
AcDbEntity
8
0
100
AcDbPolyline
90
80
70
1
43
0.0
10
-40.100745750507642
20
39.52558934963595
42
0.19891236737965845
10
-42.929172875253812
20
38.354016474382142
10
-46.562416215554549
20
34.720773134081412
42
0.19775251368684996
10
-47.733949239383023
20
31.910201255469786
10
-47.804963058488774
20
16.001574497793651
10
-47.726600000000005
20
11.712589403408861
10
-47.726599999999991
20
-5.3177659302135432
10
-50.39404528128464
20
-5.3177659302135378
42
0.35903668657693116
10
-50.884858873008476
20
-5.7223614325252683
10
-51.787852092527579
20
-10.36785882639624
10
-51.562438662494529
20
-12.184129244228652
10
-50.908232264953703
20
-12.612840194941041
10
-50.726599999999991
20
-12.612840194941048
10
-50.726599999999991
20
-11.717765994441043
10
-47.726599999999991
20
-11.717765994441047
10
-47.726599999999991
20
-21.317765994441025
10
-50.394045281284633
20
-21.317765994441018
42
0.35903668657693116
10
-50.884858873008469
20
-21.72236149675275
10
-51.787852092527572
20
-26.367858890623719
10
-51.562438662494529
20
-28.184129308456136
10
-50.908232264953703
20
-28.612840259168529
10
-50.726599999999991
20
-28.612840259168522
10
-50.726599999999991
20
-27.717765930213496
10
-47.726599999999991
20
-27.717765930213499
10
-47.726599999999983
20
-35.76981255110298
42
0.34729218030207876
10
-47.496089441286998
20
-36.061653633799736
10
-41.970736208135015
20
-37.377279609201416
42
-0.075344618241849584
10
-41.804035259236713
20
-37.444667439325777
10
-37.671480975059154
20
-39.89140839858733
42
0.13444247047424021
10
-37.365801143586793
20
-39.975114063318166
10
-33.799715612107029
20
-39.975114063318159
42
0.30555253397447824
10
-33.42893980287927
20
-39.725198370597433
10
-28.714528775132983
20
-28.078480632197945
42
-0.19891236737965848
10
-28.499805423483238
20
-27.86026121904548
10
-23.204520231767187
20
-25.616617666449486
10
-23.204520231767187
20
-15.311947706879305
10
-20.204520231767184
20
-15.311947706879305
10
-20.204520231767184
20
-24.633929039266697
10
-19.421571883497279
20
-24.21770064944107
42
-0.12276620753374717
10
-19.139927261167387
20
-24.147489576007729
10
6.4367272611673947
20
-24.147489576007718
42
-0.12276620753376012
10
6.7183718834972828
20
-24.21770064944106
10
7.5013202317671954
20
-24.63392903926669
10
7.5013202317671883
20
-15.311947706879291
10
10.501320231767187
20
-15.311947706879298
10
10.501320231767199
20
-25.616617666449471
10
15.796605423483253
20
-27.860261219045462
42
-0.1989123673796708
10
16.011328775132995
20
-28.078480632197923
10
20.725739802879293
20
-39.725198370597411
42
0.30555253397449328
10
21.096515612107055
20
-39.975114063318138
10
24.662601143586819
20
-39.975114063318138
42
0.13444247047425567
10
24.96828097505918
20
-39.891408398587309
10
29.100835259236728
20
-37.444667439325748
42
-0.075344618241849806
10
29.267536208135038
20
-37.377279609201395
10
34.792889441287016
20
-36.061653633799708
42
0.34729218030209325
10
35.023399999999995
20
-35.769812551102952
10
35.023399999999995
20
-27.717765930213464
10
38.023400000000002
20
-27.717765930213464
10
38.023400000000002
20
-28.612840259168493
10
38.205032264953715
20
-28.6128402591685
10
38.859238662494533
20
-28.184129308456107
10
39.084652092527577
20
-26.367858890623683
10
38.181658873008473
20
-21.722361496752718
42
0.35903668657693116
10
37.690845281284638
20
-21.31776599444099
10
35.023399999999995
20
-21.317765994440997
10
35.023399999999995
20
-11.717765994441013
10
38.023399999999995
20
-11.717765994441008
10
38.023399999999995
20
-12.612840194941013
10
38.205032264953701
20
-12.612840194941008
10
38.859238662494526
20
-12.184129244228616
10
39.08465209252757
20
-10.367858826396208
10
38.181658873008466
20
-5.7223614325252363
42
0.35903668657693116
10
37.690845281284631
20
-5.3177659302135059
10
35.023399999999995
20
-5.3177659302135112
10
35.023399999999981
20
11.712589403408893
10
35.101763058488757
20
16.001574497793676
10
35.030749239382992
20
31.910201255469815
42
0.19775251368685243
10
33.859216215554518
20
34.720773134081441
10
30.225972875253781
20
38.354016474382171
42
0.19891236737965731
10
27.3975457505076
20
39.525589349635979
0
LWPOLYLINE
5
104
100
AcDbEntity
8
0
100
AcDbPolyline
90
4
70
1
43
0.0
10
-23.204520231767191
20
4.3165893496358727
10
-20.204520231767194
20
4.3165893496358727
10
-20.204520231767191
20
-6.9941799164792933
10
-23.204520231767187
20
-6.9941799164792959
0
LWPOLYLINE
5
105
100
AcDbEntity
8
0
100
AcDbPolyline
90
4
70
1
43
0.0
10
-10.351599999975472
20
31.753134719334764
10
-10.35159999997547
20
24.895134719334749
10
-20.525637857662154
20
24.894849696177243
10
-20.525637842396019
20
31.753134719334749
0
CIRCLE
5
106
100
AcDbEntity
8
0
100
AcDbCircle
10
27.330399999999983
20
32.03258934963597
30
0
40
1.4999999999999991
210
-0
220
1.1102230246251563e-16
230
1
0
LWPOLYLINE
5
107
100
AcDbEntity
8
0
100
AcDbPolyline
90
80
70
1
43
0.0
10
30.225972875253781
20
38.354016474382171
42
0.19891236737965795
10
27.397545750507597
20
39.525589349635972
10
-40.100745750507627
20
39.525589349635943
42
0.19891236737965762
10
-42.929172875253812
20
38.354016474382135
10
-46.562416215554549
20
34.720773134081412
42
0.19775251368685248
10
-47.733949239383037
20
31.910201255469779
10
-47.804963058488774
20
16.001574497793648
10
-47.726600000000005
20
11.71258940340886
10
-47.726600000000005
20
-5.317765930213544
10
-50.39404528128464
20
-5.3177659302135405
42
0.35903668657693133
10
-50.884858873008469
20
-5.7223614325252736
10
-51.787852092527572
20
-10.367858826396237
10
-51.562438662494529
20
-12.18412924422865
10
-50.908232264953703
20
-12.612840194941048
10
-50.726599999999991
20
-12.612840194941048
10
-50.726599999999991
20
-11.717765994441045
10
-47.726599999999991
20
-11.717765994441045
10
-47.726599999999991
20
-21.317765994441032
10
-50.394045281284633
20
-21.317765994441025
42
0.35903668657693116
10
-50.884858873008469
20
-21.722361496752754
10
-51.787852092527572
20
-26.367858890623719
10
-51.562438662494529
20
-28.184129308456139
10
-50.908232264953703
20
-28.612840259168529
10
-50.726599999999991
20
-28.612840259168529
10
-50.726599999999991
20
-27.717765930213496
10
-47.726599999999983
20
-27.717765930213503
10
-47.726599999999976
20
-35.76981255110298
42
0.34729218030209735
10
-47.496089441286998
20
-36.061653633799736
10
-41.970736208135015
20
-37.377279609201423
42
-0.075344618241845213
10
-41.804035259236713
20
-37.444667439325784
10
-37.671480975059154
20
-39.891408398587323
42
0.13444247047425664
10
-37.365801143586793
20
-39.975114063318159
10
-33.799715612107036
20
-39.975114063318159
42
0.3055525339744935
10
-33.42893980287927
20
-39.725198370597433
10
-28.714528775132983
20
-28.078480632197937
42
-0.19891236737965892
10
-28.499805423483245
20
-27.86026121904548
10
-23.204520231767187
20
-25.616617666449493
10
-23.204520231767184
20
-15.311947706879309
10
-20.204520231767191
20
-15.311947706879307
10
-20.204520231767191
20
-24.633929039266704
10
-19.421571883497279
20
-24.21770064944107
42
-0.1227662075337536
10
-19.13992726116739
20
-24.147489576007729
10
6.4367272611673947
20
-24.147489576007722
42
-0.12276620753374684
10
6.7183718834972836
20
-24.21770064944106
10
7.5013202317671945
20
-24.63392903926669
10
7.5013202317671865
20
-15.311947706879295
10
10.501320231767187
20
-15.311947706879295
10
10.501320231767197
20
-25.616617666449478
10
15.796605423483252
20
-27.860261219045462
42
-0.19891236737965373
10
16.011328775132988
20
-28.078480632197923
10
20.725739802879296
20
-39.725198370597418
42
0.30555253397448184
10
21.096515612107055
20
-39.975114063318138
10
24.662601143586819
20
-39.975114063318138
42
0.13444247047426675
10
24.96828097505918
20
-39.891408398587309
10
29.100835259236728
20
-37.444667439325755
42
-0.075344618241849917
10
29.267536208135034
20
-37.377279609201402
10
34.792889441287016
20
-36.061653633799715
42
0.34729218030209835
10
35.023399999999995
20
-35.769812551102945
10
35.023399999999995
20
-27.717765930213471
10
38.023400000000002
20
-27.717765930213464
10
38.023400000000002
20
-28.612840259168493
10
38.205032264953715
20
-28.6128402591685
10
38.859238662494533
20
-28.184129308456107
10
39.084652092527577
20
-26.367858890623683
10
38.181658873008473
20
-21.722361496752725
42
0.35903668657693361
10
37.690845281284631
20
-21.31776599444099
10
35.023399999999995
20
-21.317765994440997
10
35.023399999999995
20
-11.717765994441017
10
38.023399999999995
20
-11.717765994441011
10
38.023399999999995
20
-12.612840194941013
10
38.205032264953701
20
-12.612840194941013
10
38.859238662494526
20
-12.184129244228622
10
39.08465209252757
20
-10.367858826396203
10
38.181658873008466
20
-5.7223614325252381
42
0.35903668657693427
10
37.690845281284624
20
-5.3177659302135076
10
35.023399999999995
20
-5.3177659302135103
10
35.023399999999981
20
11.712589403408892
10
35.101763058488757
20
16.001574497793683
10
35.030749239382992
20
31.910201255469815
42
0.19775251368685234
10
33.859216215554511
20
34.720773134081441
0
LWPOLYLINE
5
108
100
AcDbEntity
8
0
100
AcDbPolyline
90
4
70
1
43
0.0
10
-2.3516000000245638
20
31.753134719334767
10
7.8224378423959804
20
31.753134719334767
10
7.8224378576621225
20
24.894849696177261
10
-2.3516000000245607
20
24.895134719334759
0
LWPOLYLINE
5
109
100
AcDbEntity
8
0
100
AcDbPolyline
90
4
70
1
43
0.0
10
10.501320231767178
20
4.3165893496358843
10
10.501320231767181
20
-6.9941799164792844
10
7.501320231767183
20
-6.9941799164792853
10
7.5013202317671794
20
4.3165893496358843
0
LWPOLYLINE
5
110
100
AcDbEntity
8
0
100
AcDbPolyline
90
4
70
1
43
0.0
10
-10.351599999975472
20
24.895134719334756
10
-10.351599999975473
20
31.753134719334764
10
-20.525637842396016
20
31.75313471933476
10
-20.525637857662147
20
24.894849696177246
0
LWPOLYLINE
5
111
100
AcDbEntity
8
0
100
AcDbPolyline
90
4
70
1
43
0.0
10
-20.204520231767194
20
4.3165893496358727
10
-23.204520231767191
20
4.3165893496358736
10
-23.204520231767187
20
-6.9941799164792968
10
-20.204520231767191
20
-6.9941799164792968
0
ENDSEC
0
SECTION
2
OBJECTS
0
DICTIONARY
5
C
100
AcDbDictionary
3
ACAD_GROUP
350
D
3
ACAD_MLINESTYLE
350
17
0
DICTIONARY
5
D
100
AcDbDictionary
0
DICTIONARY
5
1A
330
C
100
AcDbDictionary
0
DICTIONARY
5
17
100
AcDbDictionary
0
ENDSEC
0
EOF
