0
SECTION
2
HEADER
9
$INSUNITS
70
4
9
$ACADVER
1
AC1014
9
$HANDSEED
5
FFFF
0
ENDSEC
0
SECTION
2
TABLES
0
TABLE
2
VPORT
5
8
100
AcDbSymbolTable
0
ENDTAB
0
TABLE
2
LTYPE
5
5
100
AcDbSymbolTable
0
LTYPE
5
14
100
AcDbSymbolTableRecord
100
AcDbLinetypeTableRecord
2
BYBLOCK
70
0
0
LTYPE
5
15
100
AcDbSymbolTableRecord
100
AcDbLinetypeTableRecord
2
BYLAYER
70
0
0
LTYPE
5
16
100
AcDbSymbolTableRecord
100
AcDbLinetypeTableRecord
2
DASHED
70
0
3
Dashed __ __ __ __ __ __ __ __ __ __ __ __ __ _
72
65
73
2
40
0.75
49
0.5
74
0
49
-0.25
74
0
0
ENDTAB
0
TABLE
2
LAYER
5
2
100
AcDbSymbolTable
70
2
0
LAYER
5
50
100
AcDbSymbolTableRecord
100
AcDbLayerTableRecord
2
0
70
0
62
7
6
CONTINUOUS
0
ENDTAB
0
TABLE
2
STYLE
5
3
100
AcDbSymbolTable
70
1
0
STYLE
5
11
100
AcDbSymbolTableRecord
100
AcDbTextStyleTableRecord
2
STANDARD
70
0
0
ENDTAB
0
TABLE
2
VIEW
5
6
100
AcDbSymbolTable
70
0
0
ENDTAB
0
TABLE
2
UCS
5
7
100
AcDbSymbolTable
70
0
0
ENDTAB
0
TABLE
2
APPID
5
9
100
AcDbSymbolTable
70
2
0
APPID
5
12
100
AcDbSymbolTableRecord
100
AcDbRegAppTableRecord
2
ACAD
70
0
0
ENDTAB
0
TABLE
2
DIMSTYLE
5
A
100
AcDbSymbolTable
70
1
0
ENDTAB
0
TABLE
2
BLOCK_RECORD
5
1
100
AcDbSymbolTable
70
1
0
BLOCK_RECORD
5
1F
100
AcDbSymbolTableRecord
100
AcDbBlockTableRecord
2
*MODEL_SPACE
0
BLOCK_RECORD
5
1B
100
AcDbSymbolTableRecord
100
AcDbBlockTableRecord
2
*PAPER_SPACE
0
ENDTAB
0
ENDSEC
0
SECTION
2
BLOCKS
0
BLOCK
5
20
100
AcDbEntity
100
AcDbBlockBegin
2
*MODEL_SPACE
0
ENDBLK
5
21
100
AcDbEntity
100
AcDbBlockEnd
0
BLOCK
5
1C
100
AcDbEntity
100
AcDbBlockBegin
2
*PAPER_SPACE
0
ENDBLK
5
1D
100
AcDbEntity
100
AcDbBlockEnd
0
ENDSEC
0
SECTION
2
ENTITIES
0
LWPOLYLINE
5
100
100
AcDbEntity
8
0
100
AcDbPolyline
90
4
70
1
43
0.0
10
23.202544484748163
20
-13.413218962688326
10
23.202437898046796
20
-25.41321896224575
10
20.202437894792531
20
-25.413192316359773
10
20.202544481493902
20
-13.413192316802347
0
ELLIPSE
5
101
100
AcDbEntity
8
0
100
AcDbEllipse
10
50.541205554453221
20
-25.947647823174151
30
-8.8817841970012523e-15
11
-0.12589303199574053
21
0.99204382395703516
31
0.0
40
0.99999999792237404
41
4.6348588794072469
42
4.7899190812262677
0
LINE
5
102
100
AcDbEntity
8
0
100
AcDbLine
10
51.520518599082124
20
-25.745296740533838
30
-8.8830934844763477e-15
11
47.731255760405119
21
-7.406504163975085
31
0
0
ARC
5
103
100
AcDbEntity
8
0
100
AcDbCircle
10
47.241599238125943
20
-7.507679705123083
30
-4.4408920985006262e-15
40
0.4999999999371208
210
-8.6980471252631411e-15
220
-1.7972386454347048e-15
230
1
100
AcDbArc
50
11.67447770445736
51
55.173156067562559
0
LINE
5
104
100
AcDbEntity
8
0
100
AcDbLine
10
47.527148350968304
20
-7.0972388396014665
30
-4.4408920985006262e-15
11
44.214083708594522
21
-4.7922961572410294
31
4.5796699765787707e-15
0
ARC
5
105
100
AcDbEntity
8
0
100
AcDbCircle
10
43.9285345956933
20
-5.20273702280062
30
-4.4408920985006404e-15
40
0.49999999999998068
210
-1.0316262006409316e-14
220
-1.4800579378007076e-14
230
1
100
AcDbArc
50
55.173156064510835
51
89.999372467551964
0
LINE
5
106
100
AcDbEntity
8
0
100
AcDbLine
10
43.928540071946991
20
-4.70273702283062
30
-4.4547698863084422e-15
11
20.523815847620735
21
-4.7024806824161667
31
1.6093625997831706e-19
0
LINE
5
107
100
AcDbEntity
8
0
100
AcDbLine
10
20.523815847620735
20
-4.7024806824161667
30
1.6093625997831706e-19
11
20.523854630449311
21
-1.1614806826285562
31
-4.4408920985006262e-15
0
LINE
5
108
100
AcDbEntity
8
0
100
AcDbLine
10
20.523854630449311
20
-1.1614806826285562
30
-4.4408920985006262e-15
11
10.349816795988991
21
-1.1613692514042415
31
-4.4409132743243075e-15
0
LINE
5
109
100
AcDbEntity
8
0
100
AcDbLine
10
10.349816795988991
20
-1.1613692514042415
30
-4.4409132743243075e-15
11
10.349778013160414
21
-4.7023692511918513
31
0
0
LINE
5
110
100
AcDbEntity
8
0
100
AcDbLine
10
10.349778013160414
20
-4.7023692511918513
30
0
11
6.349778013400325
21
-4.7023254411623956
31
3.1763735522036263e-21
0
LINE
5
111
100
AcDbEntity
8
0
100
AcDbLine
10
6.3493678046683044
20
-42.155733901723337
30
0
11
10.563385230355395
21
-42.154901371895043
31
1.6940658945086007e-20
0
LINE
5
112
100
AcDbEntity
8
0
100
AcDbLine
10
10.563385230355395
20
-42.154901371895043
30
1.6940658945086007e-20
11
20.15610625425392
21
-43.871883415795601
31
4.40619762898109e-15
0
LINE
5
113
100
AcDbEntity
8
0
100
AcDbLine
10
20.15610625425392
20
-43.871883415795601
30
4.40619762898109e-15
11
20.202273940539222
21
-43.871883825885966
31
-8.8817843293501503e-15
0
LINE
5
114
100
AcDbEntity
8
0
100
AcDbLine
10
20.202273940539222
20
-43.871883825885966
30
-8.8817843293501503e-15
11
20.202344830141627
21
-35.890820355364852
31
4.163336342344337e-15
0
LINE
5
115
100
AcDbEntity
8
0
100
AcDbLine
10
20.202344830141627
20
-35.890820355364852
30
4.163336342344337e-15
11
23.20234483339587
21
-35.890847002040225
31
-4.4408868045447058e-15
0
LINE
5
116
100
AcDbEntity
8
0
100
AcDbLine
10
23.20234483339587
20
-35.890847002040225
30
-4.4408868045447058e-15
11
23.202273793359417
21
-43.888847002012746
31
-2.7755575615628914e-16
0
LINE
5
117
100
AcDbEntity
8
0
100
AcDbLine
10
23.202273793359417
20
-43.888847002012746
30
-2.7755575615628914e-16
11
33.6507252750974
21
-45.758994537421799
31
4.4408920985006262e-15
0
LINE
5
118
100
AcDbEntity
8
0
100
AcDbLine
10
33.6507252750974
20
-45.758994537421799
30
4.4408920985006262e-15
11
47.724248568640817
21
-55.712628211355096
31
-8.8817841970012523e-15
0
LINE
5
119
100
AcDbEntity
8
0
100
AcDbLine
10
50.724401436035848
20
-38.502537035732743
30
-4.4408920985006262e-15
11
50.724423149631477
21
-38.502537035970562
31
4.4408920985975614e-15
0
LINE
5
120
100
AcDbEntity
8
0
100
AcDbLine
10
50.724401244616757
20
-40.502537035850608
30
0
11
50.963366787658742
21
-40.502539653122476
31
4.4408905103138501e-15
0
LINE
5
121
100
AcDbEntity
8
0
100
AcDbLine
10
50.963366787658742
20
-40.502539653122476
30
4.4408905103138501e-15
11
51.572785481620791
21
-40.356721365309156
31
4.3368086899420177e-18
0
LINE
5
122
100
AcDbEntity
8
0
100
AcDbLine
10
51.572785481620791
20
-40.356721365309156
30
4.3368086899420177e-18
11
52.193033522404242
21
-39.297853998303026
31
-4.40619762898109e-15
0
LINE
5
123
100
AcDbEntity
8
0
100
AcDbLine
10
52.193033522404242
20
-39.297853998303026
30
-4.40619762898109e-15
11
51.540020047381418
21
-25.898969196009372
31
-8.8873929593218933e-15
0
LINE
5
124
100
AcDbEntity
8
0
100
AcDbLine
10
2.3499097192519018
20
-4.7022981945607842
30
0
11
6.3497780134009272
21
-4.7023254414350282
31
1.7576039534645139e-15
0
LWPOLYLINE
5
125
100
AcDbEntity
8
0
100
AcDbPolyline
90
4
70
1
43
0.0
10
-10.50326027431915
20
-25.412902932857207
10
-10.503153687765652
20
-13.412919581089557
10
-7.5032959498006981
20
-13.412946227290657
10
-7.5034025363542032
20
-25.412929579058307
0
LINE
5
126
100
AcDbEntity
8
0
100
AcDbLine
10
2.1356371794099491
20
-42.154826514739639
30
8.8817841970012523e-15
11
6.3493678046823465
21
-42.155733842522139
31
3.2928575231100377e-15
0
LINE
5
127
100
AcDbEntity
8
0
100
AcDbLine
10
2.1356371794099491
20
-42.154826514739639
30
8.8817841970012523e-15
11
-7.4572565531048927
21
-43.871663607753362
31
3.5041414214731503e-15
0
LINE
5
128
100
AcDbEntity
8
0
100
AcDbLine
10
-7.5034242391825945
20
-43.871663197700165
30
-4.4408920985006262e-15
11
-7.4572565531048927
21
-43.871663607753362
31
3.5041414214731503e-15
0
LINE
5
129
100
AcDbEntity
8
0
100
AcDbLine
10
-10.503353339344063
20
-35.890573080503813
30
0
11
-7.5034956013791021
21
-35.890599724708359
31
-4.2027996073569149e-15
0
LINE
5
130
100
AcDbEntity
8
0
100
AcDbLine
10
-10.50342437938054
20
-43.888573080476334
30
4.4408920985006262e-15
11
-10.503353339344063
21
-35.890573080503813
31
0
0
LINE
5
131
100
AcDbEntity
8
0
100
AcDbLine
10
-20.951766782603677
20
-45.75850954579554
30
0
11
-10.50342437938054
21
-43.888573080476334
31
4.4408920985006262e-15
0
LINE
5
132
100
AcDbEntity
8
0
100
AcDbLine
10
-35.025609084162191
20
-55.711993815538221
30
-4.4408920985006262e-15
11
-20.951766782603677
21
-45.75850954579554
31
0
0
LINE
5
133
100
AcDbEntity
8
0
100
AcDbLine
10
-38.025459761781747
20
-38.901748739781155
30
0
11
-35.025602023816788
21
-38.901775385192877
31
8.3739794747928267e-18
0
LINE
5
134
100
AcDbEntity
8
0
100
AcDbLine
10
-38.025479483845544
20
-38.901748739565143
30
0
11
-38.025490382954139
21
-40.501748739626393
31
1.2836953722228372e-15
0
LINE
5
135
100
AcDbEntity
8
0
100
AcDbLine
10
-38.025490382954139
20
-40.501748739626393
30
1.2836953722228372e-15
11
-38.264454496878152
21
-40.501747111816513
31
-5.4697750785965443e-15
0
LINE
5
136
100
AcDbEntity
8
0
100
AcDbLine
10
-31.228852189772823
20
-4.7020694579535434
30
0
11
-7.8244125734292291
21
-4.7022288876587446
31
-2.8701965527596143e-15
0
LINE
5
137
100
AcDbEntity
8
0
100
AcDbLine
10
-7.8241039581861962
20
-1.1612288896788603
30
0
11
-0.81222203363244816
21
-1.1612766542178312
31
-6.4730575466528852e-16
0
LINE
5
138
100
AcDbEntity
8
0
100
AcDbLine
10
-0.57280478433532023
20
-1.1612782851144532
30
0
11
2.3499338403416132
21
-1.1612981946429424
31
-8.4355481821463737e-17
0
LINE
5
139
100
AcDbEntity
8
0
100
AcDbLine
10
2.3499338403416132
20
-1.1612981946429424
30
-8.4355481821463737e-17
11
2.3499097192519018
21
-4.7022981945607842
31
0
0
ARC
5
140
100
AcDbEntity
8
0
100
AcDbCircle
10
-37.842179549256706
20
-25.946862782051294
30
0
40
0.99999999552637053
210
-1.9709061415852947e-18
220
-2.7699094265345251e-17
230
1
100
AcDbArc
50
168.3245043979588
51
177.20879958954944
0
LINE
5
141
100
AcDbEntity
8
0
100
AcDbLine
10
-38.840993172786263
20
-25.898166411503919
30
-6.1972254674162252e-19
11
-39.49424466859174
21
-39.297039611258015
31
3.8857805861880479e-15
0
LINE
5
142
100
AcDbEntity
8
0
100
AcDbLine
10
-39.49424466859174
20
-39.297039611258015
30
3.8857805861880479e-15
11
-38.87401544089181
21
-40.355917996462487
31
-4.40619762898109e-15
0
LINE
5
143
100
AcDbEntity
8
0
100
AcDbLine
10
-38.87401544089181
20
-40.355917996462487
30
-4.40619762898109e-15
11
-38.26459934014806
21
-40.501747110240828
31
-8.322335875998732e-15
0
LINE
5
144
100
AcDbEntity
8
0
100
AcDbLine
10
-35.025751335067483
20
-55.711893207227739
30
4.4408920985006262e-15
11
-35.025602023816788
21
-38.901775385192877
31
8.3739794747928267e-18
0
LINE
5
145
100
AcDbEntity
8
0
100
AcDbLine
10
-7.5035664907553716
20
-43.871637736374268
30
0
11
-7.5034956013791021
21
-35.890599724708359
31
-4.2027996073569149e-15
0
LINE
5
146
100
AcDbEntity
8
0
100
AcDbLine
10
-7.8243884523395071
20
-1.1612288871518961
30
0
11
-7.8244125734292291
21
-4.7022288876587446
31
-2.8701965527596143e-15
0
ARC
5
147
100
AcDbEntity
8
0
100
AcDbCircle
10
-31.229140099341439
20
-5.2020694554149234
30
4.4408920985006262e-15
40
0.49999999775160336
210
-7.9242394879102642e-18
220
-2.7755505307389268e-17
230
1
100
AcDbArc
50
89.999609704423676
51
124.82582598668039
0
LINE
5
148
100
AcDbEntity
8
0
100
AcDbLine
10
-34.827787492648454
20
-7.0965073445236211
30
-4.4408920985006262e-15
11
-31.514681918792004
21
-4.791623518540816
31
4.4500215311187919e-15
0
ARC
5
149
100
AcDbEntity
8
0
100
AcDbCircle
10
-34.542245672332648
20
-7.5069532826414589
30
-4.4408920985006262e-15
40
0.49999999926669586
210
-3.9192965966495184e-18
220
-2.7266028985370396e-18
230
1
100
AcDbArc
50
124.82582598667992
51
168.32450441340939
0
LINE
5
150
100
AcDbEntity
8
0
100
AcDbLine
10
-35.031900394973697
20
-7.4057690430097693
30
-4.4560168364706812e-15
11
-38.821488994501195
21
-25.744494302520327
31
3.6752965907180174e-18
0
LINE
5
151
100
AcDbEntity
8
0
100
AcDbLine
10
-31.228852189772823
20
-4.7020694579535434
30
0
11
-31.229136693370023
21
-4.7020694576749209
31
4.4547698780813266e-15
0
LINE
5
152
100
AcDbEntity
8
0
100
AcDbLine
10
-38.025479483845544
20
-38.901748739565143
30
0
11
-38.025459761781747
21
-38.901748739781155
31
0
0
LINE
5
153
100
AcDbEntity
8
0
100
AcDbLine
10
-35.025609084162191
20
-55.711993815538221
30
-4.4408920985006262e-15
11
-35.025751335067483
21
-55.711893207227739
31
4.4408920985006262e-15
0
LINE
5
154
100
AcDbEntity
8
0
100
AcDbLine
10
-38.26459934014806
20
-40.501747110240828
30
-8.322335875998732e-15
11
-38.264454496878152
21
-40.501747111816513
31
-5.4697750785965443e-15
0
LINE
5
155
100
AcDbEntity
8
0
100
AcDbLine
10
-7.5034242391825945
20
-43.871663197700165
30
-4.4408920985006262e-15
11
-7.5035664907553716
21
-43.871637736374268
31
0
0
LINE
5
156
100
AcDbEntity
8
0
100
AcDbLine
10
-0.81222203363244816
20
-1.1612766542178312
30
-6.4730575466528852e-16
11
-0.57280478433532023
21
-1.1612782851144532
31
0
0
LINE
5
157
100
AcDbEntity
8
0
100
AcDbLine
10
-7.8241039581861962
20
-1.1612288896788603
30
0
11
-7.8243884523395071
21
-1.1612288871518961
31
0
0
LINE
5
158
100
AcDbEntity
8
0
100
AcDbLine
10
10.563385230355367
20
-42.154901371895036
30
-4.4408920985006262e-15
11
6.3493678046823465
21
-42.155733842522139
31
3.2928575231100377e-15
0
ARC
5
159
100
AcDbEntity
8
0
100
AcDbCircle
10
50.541233058744425
20
-25.947839293857196
30
4.4408920985006262e-15
40
1.0000000020781921
210
6.9360769758563759e-18
220
-2.7097968117412623e-17
230
1
100
AcDbArc
50
2.7901825698976612
51
8.1744777155040342
0
LINE
5
160
100
AcDbEntity
8
0
100
AcDbLine
10
52.193061026695432
20
-39.298045468986054
30
0
11
51.540047553735342
21
-25.899160666591893
31
4.4352833361684023e-15
0
LWPOLYLINE
5
161
100
AcDbEntity
8
0
100
AcDbPolyline
90
4
70
1
43
0.0
10
23.202544484748163
20
-13.413218962688324
10
23.202437898194663
20
-25.413202314456051
10
20.202580146739301
20
-25.413175669833549
10
20.202686733292804
20
-13.413192318065823
0
LINE
5
162
100
AcDbEntity
8
0
100
AcDbLine
10
47.731255760405119
20
-7.4065041639750877
30
0
11
51.520518599076965
21
-25.745296740534904
31
-3.3306690738754696e-15
0
ARC
5
163
100
AcDbEntity
8
0
100
AcDbCircle
10
47.241599238066044
20
-7.5076797051626194
30
-4.4408920985006199e-15
40
0.50000000000378031
210
-8.6970065601105647e-15
220
-1.8022746345268877e-15
230
1
100
AcDbArc
50
11.674477707504954
51
55.173156064516334
0
LINE
5
164
100
AcDbEntity
8
0
100
AcDbLine
10
23.202344833169729
20
-35.890872462102557
30
8.8817841970012523e-15
11
23.202273793359403
21
-43.888847002012746
31
5.5511151231257827e-15
0
LINE
5
165
100
AcDbEntity
8
0
100
AcDbLine
10
50.724418768628531
20
-38.902537036181116
30
4.4408920985006262e-15
11
50.72440124461675
21
-40.502537035850608
31
2.0469737016526324e-15
0
ARC
5
166
100
AcDbEntity
8
0
100
AcDbCircle
10
43.9285345956933
20
-5.2027370228006333
30
0
40
0.50000000000000167
210
2.1548148064822726e-17
220
2.2330299755491119e-17
230
1
100
AcDbArc
50
55.173156064511439
51
89.999372467552774
0
LINE
5
167
100
AcDbEntity
8
0
100
AcDbLine
10
10.3497780131604
20
-4.7023692511918549
30
-4.4408920985006262e-15
11
6.3497780134009272
21
-4.7023254414350282
31
1.7576039534645139e-15
0
LINE
5
168
100
AcDbEntity
8
0
100
AcDbLine
10
10.349816795988986
20
-1.1613692514042384
30
0
11
10.3497780131604
21
-4.7023692511918549
31
-4.4408920985006262e-15
0
LINE
5
169
100
AcDbEntity
8
0
100
AcDbLine
10
13.272555433701383
20
-1.1614012627206982
30
0
11
10.349816795988986
21
-1.1613692514042384
31
0
0
LINE
5
170
100
AcDbEntity
8
0
100
AcDbLine
10
20.523854639893173
20
-1.1614806826286606
30
0
11
13.511972684066315
21
-1.1614038849398962
31
1.0677993794619249e-15
0
LINE
5
171
100
AcDbEntity
8
0
100
AcDbLine
10
20.523815857064594
20
-4.7024806824162706
30
-4.4408920985006262e-15
11
20.523854639893173
21
-1.1614806826286606
31
0
0
LINE
5
172
100
AcDbEntity
8
0
100
AcDbLine
10
43.928540071946983
20
-4.7027370228306227
30
-1.1165267880201158e-17
11
20.523815857064594
21
-4.7024806824162706
31
-4.4408920985006262e-15
0
LINE
5
173
100
AcDbEntity
8
0
100
AcDbLine
10
44.214083708594529
20
-4.7922961572410232
30
-1.5318322124423827e-17
11
47.527134268081497
21
-7.0972290419540984
31
5.5511151231257827e-16
0
LINE
5
174
100
AcDbEntity
8
0
100
AcDbLine
10
51.572925141948701
20
-40.356721366838777
30
-4.4408920985006262e-15
11
52.193061026695432
21
-39.298045468986054
31
0
0
LINE
5
175
100
AcDbEntity
8
0
100
AcDbLine
10
50.963506447986646
20
-40.502539654652111
30
-4.4408920985006262e-15
11
51.572925141948701
21
-40.356721366838777
31
-4.4408920985006262e-15
0
LINE
5
176
100
AcDbEntity
8
0
100
AcDbLine
10
50.724542332996862
20
-40.502537037395868
30
0
11
50.963366787658742
21
-40.502539653122469
31
-4.2560064451598368e-15
0
LINE
5
177
100
AcDbEntity
8
0
100
AcDbLine
10
50.724418768628531
20
-38.902537036181116
30
4.4408920985006262e-15
11
47.724540131690425
21
-38.902510390583743
31
4.4928554522323094e-15
0
LINE
5
178
100
AcDbEntity
8
0
100
AcDbLine
10
47.724540131690425
20
-38.902510390583743
30
4.4928554522323094e-15
11
47.724390819546102
21
-55.712728819665578
31
1.1102230246251565e-15
0
LINE
5
179
100
AcDbEntity
8
0
100
AcDbLine
10
47.724390819546102
20
-55.712728819665578
30
1.1102230246251565e-15
11
33.650725275097393
21
-45.758994537421806
31
-8.3266726846886741e-16
0
LINE
5
180
100
AcDbEntity
8
0
100
AcDbLine
10
33.650725275097393
20
-45.758994537421806
30
-8.3266726846886741e-16
11
23.202416044932175
21
-43.888872463338643
31
1.3877787807814457e-16
0
LINE
5
181
100
AcDbEntity
8
0
100
AcDbLine
10
23.202344833169729
20
-35.890872462102557
30
8.8817841970012523e-15
11
20.202487088459584
21
-35.890845815483566
31
6.7251684330736552e-15
0
LINE
5
182
100
AcDbEntity
8
0
100
AcDbLine
10
20.202487088459584
20
-35.890845815483566
30
6.7251684330736552e-15
11
20.202416192111986
21
-43.871909287211857
31
4.9960036108132044e-15
0
LINE
5
183
100
AcDbEntity
8
0
100
AcDbLine
10
20.202416192111986
20
-43.871909287211857
30
4.9960036108132044e-15
11
20.156248505826682
21
-43.871908877121498
31
-6.4061363189916301e-16
0
LINE
5
184
100
AcDbEntity
8
0
100
AcDbLine
10
10.563385230355367
20
-42.154901371895036
30
-4.4408920985006262e-15
11
20.156248505826682
21
-43.871908877121498
31
-6.4061363189916301e-16
0
LINE
5
185
100
AcDbEntity
8
0
100
AcDbLine
10
50.72440124461675
20
-40.502537035850608
30
2.0469737016526324e-15
11
50.724542332996862
21
-40.502537037395868
31
0
0
LINE
5
186
100
AcDbEntity
8
0
100
AcDbLine
10
23.202273793359403
20
-43.888847002012746
30
5.5511151231257827e-15
11
23.202416044932175
21
-43.888872463338643
31
1.3877787807814457e-16
0
LINE
5
187
100
AcDbEntity
8
0
100
AcDbLine
10
13.511972684066315
20
-1.1614038849398962
30
1.0677993794619249e-15
11
13.272555433701383
21
-1.1614012627206982
31
0
0
ENDSEC
0
SECTION
2
OBJECTS
0
DICTIONARY
5
C
100
AcDbDictionary
3
ACAD_GROUP
350
D
3
ACAD_MLINESTYLE
350
17
0
DICTIONARY
5
D
100
AcDbDictionary
0
DICTIONARY
5
1A
330
C
100
AcDbDictionary
0
DICTIONARY
5
17
100
AcDbDictionary
0
ENDSEC
0
EOF
