0
SECTION
2
HEADER
9
$INSUNITS
70
4
9
$ACADVER
1
AC1014
9
$HANDSEED
5
FFFF
0
ENDSEC
0
SECTION
2
TABLES
0
TABLE
2
VPORT
5
8
100
AcDbSymbolTable
0
ENDTAB
0
TABLE
2
LTYPE
5
5
100
AcDbSymbolTable
0
LTYPE
5
14
100
AcDbSymbolTableRecord
100
AcDbLinetypeTableRecord
2
BYBLOCK
70
0
0
LTYPE
5
15
100
AcDbSymbolTableRecord
100
AcDbLinetypeTableRecord
2
BYLAYER
70
0
0
LTYPE
5
16
100
AcDbSymbolTableRecord
100
AcDbLinetypeTableRecord
2
DASHED
70
0
3
Dashed __ __ __ __ __ __ __ __ __ __ __ __ __ _
72
65
73
2
40
0.75
49
0.5
74
0
49
-0.25
74
0
0
ENDTAB
0
TABLE
2
LAYER
5
2
100
AcDbSymbolTable
70
2
0
LAYER
5
50
100
AcDbSymbolTableRecord
100
AcDbLayerTableRecord
2
0
70
0
62
7
6
CONTINUOUS
0
ENDTAB
0
TABLE
2
STYLE
5
3
100
AcDbSymbolTable
70
1
0
STYLE
5
11
100
AcDbSymbolTableRecord
100
AcDbTextStyleTableRecord
2
STANDARD
70
0
0
ENDTAB
0
TABLE
2
VIEW
5
6
100
AcDbSymbolTable
70
0
0
ENDTAB
0
TABLE
2
UCS
5
7
100
AcDbSymbolTable
70
0
0
ENDTAB
0
TABLE
2
APPID
5
9
100
AcDbSymbolTable
70
2
0
APPID
5
12
100
AcDbSymbolTableRecord
100
AcDbRegAppTableRecord
2
ACAD
70
0
0
ENDTAB
0
TABLE
2
DIMSTYLE
5
A
100
AcDbSymbolTable
70
1
0
ENDTAB
0
TABLE
2
BLOCK_RECORD
5
1
100
AcDbSymbolTable
70
1
0
BLOCK_RECORD
5
1F
100
AcDbSymbolTableRecord
100
AcDbBlockTableRecord
2
*MODEL_SPACE
0
BLOCK_RECORD
5
1B
100
AcDbSymbolTableRecord
100
AcDbBlockTableRecord
2
*PAPER_SPACE
0
ENDTAB
0
ENDSEC
0
SECTION
2
BLOCKS
0
BLOCK
5
20
100
AcDbEntity
100
AcDbBlockBegin
2
*MODEL_SPACE
0
ENDBLK
5
21
100
AcDbEntity
100
AcDbBlockEnd
0
BLOCK
5
1C
100
AcDbEntity
100
AcDbBlockBegin
2
*PAPER_SPACE
0
ENDBLK
5
1D
100
AcDbEntity
100
AcDbBlockEnd
0
ENDSEC
0
SECTION
2
ENTITIES
0
CIRCLE
5
100
100
AcDbEntity
8
0
100
AcDbCircle
10
-36.862754605935507
20
-35.215563049299867
30
0
40
1.5500000000000025
210
0
220
-0
230
1
0
CIRCLE
5
101
100
AcDbEntity
8
0
100
AcDbCircle
10
-36.862754605935507
20
-43.21556304929986
30
0
40
1.5500000000000025
210
0
220
-0
230
1
0
CIRCLE
5
102
100
AcDbEntity
8
0
100
AcDbCircle
10
-28.862754605935507
20
-35.215563049299867
30
0
40
1.549999999999998
210
0
220
-0
230
1
0
CIRCLE
5
103
100
AcDbEntity
8
0
100
AcDbCircle
10
-36.862754605935507
20
-27.215563049299863
30
0
40
1.5500000000000025
210
0
220
-0
230
1
0
CIRCLE
5
104
100
AcDbEntity
8
0
100
AcDbCircle
10
-28.862754605935507
20
-43.21556304929986
30
0
40
1.549999999999998
210
0
220
-0
230
1
0
CIRCLE
5
105
100
AcDbEntity
8
0
100
AcDbCircle
10
-20.862754605935507
20
-43.21556304929986
30
0
40
1.5500000000000025
210
0
220
-0
230
1
0
CIRCLE
5
106
100
AcDbEntity
8
0
100
AcDbCircle
10
3.137245394064494
20
-43.21556304929986
30
0
40
1.5500000000000003
210
0
220
-0
230
1
0
LWPOLYLINE
5
107
100
AcDbEntity
8
0
100
AcDbPolyline
90
19
70
1
43
0.0
10
-3.8391088827002751
20
-42.71544306119182
10
-7.6567627785850298
20
-43.21529819493955
42
-0.15762330249963863
10
-7.9592595554589485
20
-43.159476948597174
10
-13.933283144278615
20
-39.933327256272165
10
-30.759788540697425
20
-27.202817794629887
42
-0.23174917993404512
10
-30.958076233821345
20
-26.810171751460587
10
-30.97950178606844
20
-25.051821818923685
42
-0.14031127771949209
10
-30.906993521422645
20
-24.786340959108834
10
-27.126890962275926
20
-18.556995922129339
42
-0.27114374657613222
10
-26.682572354048204
20
-18.316669192604039
10
-23.825583728171491
20
-18.413084489029814
42
-0.13867646504364947
10
-23.566379360925506
20
-18.495923217471454
10
-10.086223140513376
20
-27.422888162991619
42
-0.042420438131020075
10
-10.019827482713922
20
-27.475459592979171
10
-2.376689923167445
20
-34.660364887436259
42
-0.088068864463868538
10
-2.2722257795554537
20
-34.800493486176755
10
-0.92651739138541522
20
-37.483353866719327
42
-0.2489730343826663
10
-0.93734816662400522
20
-37.952110017074958
10
-3.4679237319149254
20
-42.464253946957967
42
-0.23664452716631371
0
ARC
5
108
100
AcDbEntity
8
0
100
AcDbCircle
10
-37.153231087383411
20
-4.2526343282535075
30
0
40
0.39999999999999158
210
0
220
-0
230
1
100
AcDbArc
50
72.400015428972424
51
113.92909130978876
0
LINE
5
109
100
AcDbEntity
8
0
100
AcDbLine
10
-37.315473382204971
20
-3.8870150757912936
30
0
11
-37.529030754945595
21
-3.9817804307231466
31
0
0
LINE
5
110
100
AcDbEntity
8
0
100
AcDbLine
10
-37.529030754945595
20
-3.9817804307231466
30
0
11
-38.00577489580909
21
-6.5270282791209908
31
0
0
LINE
5
111
100
AcDbEntity
8
0
100
AcDbLine
10
-38.00577489580909
20
-6.5270282791209908
30
0
11
-40.954018888433353
21
-5.9747999174687543
31
0
0
LINE
5
112
100
AcDbEntity
8
0
100
AcDbLine
10
-40.954018888433353
20
-5.9747999174687543
30
0
11
-40.675760792579716
21
-4.489380049247
31
0
0
LINE
5
113
100
AcDbEntity
8
0
100
AcDbLine
10
-40.675760792579716
20
-4.489380049247
30
0
11
-41.158648226945651
21
-4.3989225691517815
31
0
0
ARC
5
114
100
AcDbEntity
8
0
100
AcDbCircle
10
-41.232297638621311
20
-4.7920838136302626
30
0
40
0.40000000000004843
210
0
220
-0
230
1
100
AcDbArc
50
79.389963462487344
51
102.28449159379699
0
LINE
5
115
100
AcDbEntity
8
0
100
AcDbLine
10
-41.317404006166129
20
-4.4012425335645995
30
0
11
-41.928810622719759
21
-4.5343773862060832
31
0
0
ARC
5
116
100
AcDbEntity
8
0
100
AcDbCircle
10
-41.843704255174963
20
-4.9252186662716664
30
0
40
0.39999999999996683
210
0
220
0
230
1
100
AcDbArc
50
102.28449159379643
51
147.37153519261116
0
LINE
5
117
100
AcDbEntity
8
0
100
AcDbLine
10
-42.180578106872382
20
-4.7095429651773761
30
0
11
-43.677490632551127
21
-7.047639865388744
31
0
0
ARC
5
118
100
AcDbEntity
8
0
100
AcDbCircle
10
-43.256398317929339
20
-7.3172344917566603
30
0
40
0.49999999999999412
210
0
220
0
230
1
100
AcDbArc
50
147.3715351926069
51
180.3899634142293
0
LINE
5
119
100
AcDbEntity
8
0
100
AcDbLine
10
-43.756386737069747
20
-7.3206375382532594
30
0
11
-43.718511588993763
21
-12.885397064775326
31
0
0
ARC
5
120
100
AcDbEntity
8
0
100
AcDbCircle
10
-43.218523169853285
20
-12.881994018278711
30
0
40
0.50000000000005684
210
0
220
0
230
1
100
AcDbArc
50
180.38996341423115
51
209.30631292539715
0
LINE
5
121
100
AcDbEntity
8
0
100
AcDbLine
10
-43.654530843017142
20
-13.126733285545516
30
0
11
-42.076237698041297
21
-15.938492630077226
31
0
0
LINE
5
122
100
AcDbEntity
8
0
100
AcDbLine
10
-42.076237698041297
20
-15.938492630077226
30
0
11
-41.156107176713832
21
-16.11084933515
31
0
0
LINE
5
123
100
AcDbEntity
8
0
100
AcDbLine
10
-41.156107176713832
20
-16.11084933515
30
0
11
-39.845585440924872
21
-16.356329369242225
31
0
0
LINE
5
124
100
AcDbEntity
8
0
100
AcDbLine
10
-39.845585440924872
20
-16.356329369242225
30
0
11
-41.441754756093886
21
-24.877652047332251
31
0
0
LINE
5
125
100
AcDbEntity
8
0
100
AcDbLine
10
-41.441754756093886
20
-24.877652047332251
30
0
11
-41.443382804502285
21
-24.879280095740654
31
0
0
LINE
5
126
100
AcDbEntity
8
0
100
AcDbLine
10
-41.443382804502285
20
-24.879280095740654
30
0
11
-42.144180990662861
21
-28.620452353177797
31
0
0
LINE
5
127
100
AcDbEntity
8
0
100
AcDbLine
10
-42.144180990662861
20
-28.620452353177797
30
0
11
-45.092888705112777
21
-28.068073103361755
31
0
0
LINE
5
128
100
AcDbEntity
8
0
100
AcDbLine
10
-45.092888705112777
20
-28.068073103361755
30
0
11
-44.842328251459676
21
-26.730470015155298
31
0
0
ARC
5
129
100
AcDbEntity
8
0
100
AcDbCircle
10
-44.940618664752769
20
-26.712058207675483
30
0
40
0.099999999999998729
210
0
220
0
230
1
100
AcDbArc
50
-10.609718588146857
51
39.089748886386083
0
LINE
5
130
100
AcDbEntity
8
0
100
AcDbLine
10
-44.863002741508886
20
-26.649004512629119
30
0
11
-44.983408226272211
21
-26.500791424456239
31
0
0
ARC
5
131
100
AcDbEntity
8
0
100
AcDbCircle
10
-45.061024149516093
20
-26.563845119502595
30
0
40
0.099999999999994274
210
0
220
-0
230
1
100
AcDbArc
50
39.089748886382921
51
101.83298523497982
0
LINE
5
132
100
AcDbEntity
8
0
100
AcDbLine
10
-45.08153010479738
20
-26.465970169704406
30
0
11
-45.915115225554182
21
-26.640616074960231
31
0
0
ARC
5
133
100
AcDbEntity
8
0
100
AcDbCircle
10
-45.812585449147811
20
-27.12999082395126
30
0
40
0.49999999999997596
210
0
220
0
230
1
100
AcDbArc
50
101.83298523497072
51
135.00000000000117
0
LINE
5
134
100
AcDbEntity
8
0
100
AcDbLine
10
-46.166138839741073
20
-26.776437433358012
30
0
11
-53.517445327109961
21
-34.127743920726971
31
0
0
ARC
5
135
100
AcDbEntity
8
0
100
AcDbCircle
10
-53.163891936517388
20
-34.481297311319686
30
0
40
0.49999999999911032
210
0
220
0
230
1
100
AcDbArc
50
134.99999999998852
51
143.51312233431742
0
LINE
5
136
100
AcDbEntity
8
0
100
AcDbLine
10
-53.565888471801919
20
-34.183977978584096
30
0
11
-62.546220402393558
21
-46.326014921108936
31
0
0
ARC
5
137
100
AcDbEntity
8
0
100
AcDbCircle
10
-62.14422386710838
20
-46.623334253845073
30
0
40
0.4999999999999506
210
0
220
0
230
1
100
AcDbArc
50
143.51312233431105
51
180
0
LINE
5
138
100
AcDbEntity
8
0
100
AcDbLine
10
-62.644223867108323
20
-46.623334253845094
30
0
11
-62.644223867108323
21
-48.21556304929986
31
0
0
LINE
5
139
100
AcDbEntity
8
0
100
AcDbLine
10
-62.644223867108323
20
-48.21556304929986
30
0
11
-47.644223867108337
21
-48.21556304929986
31
0
0
LINE
5
140
100
AcDbEntity
8
0
100
AcDbLine
10
-47.644223867108337
20
-48.21556304929986
30
0
11
-47.644223867108337
21
-51.215563049299874
31
0
0
LINE
5
141
100
AcDbEntity
8
0
100
AcDbLine
10
-47.644223867108337
20
-51.215563049299874
30
0
11
-49.244223867108317
21
-51.215563049299845
31
0
0
LINE
5
142
100
AcDbEntity
8
0
100
AcDbLine
10
-49.244223867108317
20
-51.215563049299845
30
0
11
-49.244223867108317
21
-51.397195314253558
31
0
0
LINE
5
143
100
AcDbEntity
8
0
100
AcDbLine
10
-49.244223867108317
20
-51.397195314253558
30
0
11
-48.840890172165423
21
-52.012676405037361
31
0
0
ARC
5
144
100
AcDbEntity
8
0
100
AcDbCircle
10
-48.757249508090119
20
-51.957865463492404
30
0
40
0.10000000000001098
210
0
220
0
230
1
100
AcDbArc
50
213.23740740627485
51
262.92531877014096
0
LINE
5
145
100
AcDbEntity
8
0
100
AcDbLine
10
-48.769565803817173
20
-52.057104109490659
30
0
11
-47.112965852832801
21
-52.262701179991666
31
0
0
ARC
5
146
100
AcDbEntity
8
0
100
AcDbCircle
10
-46.989802895562434
20
-51.270314720009083
30
0
40
1.0000000000001714
210
0
220
0
230
1
100
AcDbArc
50
262.92531877015085
51
276.00000000000034
0
LINE
5
147
100
AcDbEntity
8
0
100
AcDbLine
10
-46.885274432294757
20
-52.264836615377526
30
0
11
-42.333885377648983
21
-51.78646634939242
31
0
0
ARC
5
148
100
AcDbEntity
8
0
100
AcDbCircle
10
-42.438413840916105
20
-50.791944454026982
30
0
40
0.99999999999712819
210
-0
220
0
230
1
100
AcDbArc
50
275.99999999998676
51
283.34441670756405
0
LINE
5
149
100
AcDbEntity
8
0
100
AcDbLine
10
-42.207609747354951
20
-51.764944695748262
30
0
11
-39.919230030654511
21
-51.222121185959494
31
0
0
ARC
5
150
100
AcDbEntity
8
0
100
AcDbCircle
10
-40.150034124222969
20
-50.249120944207924
30
0
40
1.000000000028284
210
-0
220
0
230
1
100
AcDbArc
50
283.34441670757064
51
284.88528066546905
0
LINE
5
151
100
AcDbEntity
8
0
100
AcDbLine
10
-39.893149602380831
20
-51.215563049299845
30
0
11
-1.8375605779005255
21
-51.215563049299845
31
0
0
LINE
5
152
100
AcDbEntity
8
0
100
AcDbLine
10
-1.8375605779005255
20
-51.215563049299845
30
0
11
-1.8375605779005166
21
-48.21556304929986
31
0
0
LINE
5
153
100
AcDbEntity
8
0
100
AcDbLine
10
-1.8375605779005166
20
-48.21556304929986
30
0
11
11.162439183680961
21
-48.21556304929986
31
0
0
LINE
5
154
100
AcDbEntity
8
0
100
AcDbLine
10
11.162439183680961
20
-48.21556304929986
30
0
11
11.162439183680961
21
-51.215563049299845
31
0
0
LINE
5
155
100
AcDbEntity
8
0
100
AcDbLine
10
11.162439183680961
20
-51.215563049299845
30
0
11
9.5627761328916847
21
-51.215563049299845
31
0
0
LINE
5
156
100
AcDbEntity
8
0
100
AcDbLine
10
9.5627761328916847
20
-51.215563049299845
30
0
11
9.5627761328916847
21
-51.397195314253558
31
0
0
LINE
5
157
100
AcDbEntity
8
0
100
AcDbLine
10
9.5627761328916847
20
-51.397195314253558
30
0
11
9.9661098278345861
21
-52.012676405037361
31
0
0
ARC
5
158
100
AcDbEntity
8
0
100
AcDbCircle
10
10.049750491909894
20
-51.957865463492396
30
0
40
0.10000000000001955
210
0
220
0
230
1
100
AcDbArc
50
213.23740740627716
51
262.92531877013846
0
LINE
5
159
100
AcDbEntity
8
0
100
AcDbLine
10
10.037434196182833
20
-52.057104109490673
30
0
11
11.694034147167196
21
-52.262701179991666
31
0
0
ARC
5
160
100
AcDbEntity
8
0
100
AcDbCircle
10
11.817197104437568
20
-51.270314720009075
30
0
40
1.0000000000001807
210
0
220
0
230
1
100
AcDbArc
50
262.92531877015062
51
276.00000000000057
0
LINE
5
161
100
AcDbEntity
8
0
100
AcDbLine
10
11.92172556770525
20
-52.264836615377533
30
0
11
16.473114622351023
21
-51.78646634939242
31
0
0
ARC
5
162
100
AcDbEntity
8
0
100
AcDbCircle
10
16.368586159083719
20
-50.79194445402635
30
0
40
0.999999999997774
210
0
220
0
230
1
100
AcDbArc
50
275.99999999999329
51
283.34441670756547
0
LINE
5
163
100
AcDbEntity
8
0
100
AcDbLine
10
16.599390252645048
20
-51.764944695748255
30
0
11
18.887769969345491
21
-51.222121185959494
31
0
0
ARC
5
164
100
AcDbEntity
8
0
100
AcDbCircle
10
18.656965875781594
20
-50.249120944226213
30
0
40
1.0000000000094367
210
0
220
0
230
1
100
AcDbArc
50
283.34441670755825
51
284.88528066548542
0
LINE
5
165
100
AcDbEntity
8
0
100
AcDbLine
10
18.913850397619168
20
-51.215563049299845
30
0
11
23.42246546659851
21
-51.215563049299817
31
0
0
SPLINE
5
166
100
AcDbEntity
8
0
100
AcDbSpline
70
0
71
3
72
16
73
12
74
0
42
0.000000001
43
0.0000000001
44
0.0000000001
40
0
40
0
40
0
40
0
40
0.47656426169955707
40
0.47656426169955707
40
0.95941285367225249
40
0.95941285367225249
40
1.6096829791635918
40
1.6096829791635918
40
2.4231139759255895
40
2.4231139759255895
40
3.2633877006971503
40
3.2633877006971503
40
3.2633877006971503
40
3.2633877006971503
10
23.422465466598517
20
-51.215563049299817
30
0
10
23.578166410929082
20
-49.634664412576754
30
0
10
23.430155597195238
20
-48.715435810048078
30
0
10
23.231091082217603
20
-47.932552341393077
30
0
10
23.094385313780993
20
-47.710795656080258
30
0
10
22.792272736396132
20
-46.70301285790076
30
0
10
22.781557274615668
20
-46.242429663055454
30
0
10
22.875883735073014
20
-45.355480382201556
30
0
10
23.026161684670438
20
-44.81936101235118
30
0
10
23.441389453156624
20
-43.788688307106078
30
0
10
23.711818088996669
20
-43.291726191523587
30
0
10
24.025037978882523
20
-42.821859077187312
30
0
0
SPLINE
5
167
100
AcDbEntity
8
0
100
AcDbSpline
70
0
71
3
72
14
73
10
74
0
42
0.000000001
43
0.0000000001
44
0.0000000001
40
0
40
0
40
0
40
0
40
0.01171933420160854
40
0.01171933420160854
40
0.023438668403215901
40
0.023438668403215901
40
0.030898845334686054
40
0.030898845334686054
40
0.038359022266155549
40
0.038359022266155549
40
0.038359022266155549
40
0.038359022266155549
10
24.007252348027144
20
-42.465057851401596
30
0
10
24.032045290689425
20
-42.49524627699855
30
0
10
24.050704728496804
20
-42.529988697807838
30
0
10
24.073656026796755
20
-42.604670436471693
30
0
10
24.077728460368153
20
-42.643895756199946
30
0
10
24.071902259469926
20
-42.707561430867813
30
0
10
24.066565796334871
20
-42.731947639286304
30
0
10
24.04999816627803
20
-42.77884151314376
30
0
10
24.038831093209993
20
-42.801167764036272
30
0
10
24.025037978882523
20
-42.821859077187305
30
0
0
LINE
5
168
100
AcDbEntity
8
0
100
AcDbLine
10
24.007252348027144
20
-42.465057851401596
30
0
11
21.818978563398556
21
-39.800568152342251
31
0
0
ARC
5
169
100
AcDbEntity
8
0
100
AcDbCircle
10
21.432585978150762
20
-40.117901998733608
30
0
40
0.50000000000000899
210
0
220
-0
230
1
100
AcDbArc
50
39.395342217724348
51
134.99999999999943
0
LINE
5
170
100
AcDbEntity
8
0
100
AcDbLine
10
21.079032587557485
20
-39.764348608140324
30
0
11
15.812125253520417
21
-45.03125594217736
31
0
0
ARC
5
171
100
AcDbEntity
8
0
100
AcDbCircle
10
15.458571862927144
20
-44.67770255158409
30
0
40
0.49999999999999745
210
0
220
0
230
1
100
AcDbArc
50
225.00000000044633
51
315.00000000000028
0
LINE
5
172
100
AcDbEntity
8
0
100
AcDbLine
10
15.105018472336626
20
-45.031255942180117
30
0
11
-0.96132915881559811
21
-28.964908311277838
31
0
0
ARC
5
173
100
AcDbEntity
8
0
100
AcDbCircle
10
0.45288440358509052
20
-27.550694748877362
30
0
40
2.0000000000388738
210
0
220
0
230
1
100
AcDbArc
50
203.31963951829039
51
224.99999999999568
0
LINE
5
174
100
AcDbEntity
8
0
100
AcDbLine
10
-1.3837370855979443
20
-28.342415347085208
30
0
11
-2.0095260725026964
21
-26.890719467167319
31
0
0
ARC
5
175
100
AcDbEntity
8
0
100
AcDbCircle
10
-2.9278368099268564
20
-27.286579763181379
30
0
40
0.99999999221442226
210
0
220
-0
230
1
100
AcDbArc
50
23.319639518279992
51
34.000000161234667
0
LINE
5
176
100
AcDbEntity
8
0
100
AcDbLine
10
-2.0987992393989061
20
-26.727386857683534
30
0
11
-2.8403972066168937
21
-25.627922650483885
31
0
0
SPLINE
5
177
100
AcDbEntity
8
0
100
AcDbSpline
70
4
71
5
72
21
73
15
74
0
42
0.000000001
43
0.0000000001
44
0.0000000001
40
-1
40
-1
40
-1
40
-1
40
-1
40
-1
40
-0.89999999999999991
40
-0.79999999999999993
40
-0.69999999999999996
40
-0.59999999999999998
40
-0.5
40
-0.40000000000000002
40
-0.30000000000000004
40
-0.20000000000000001
40
-0.10000000000000001
40
0
40
0
40
0
40
0
40
0
40
0
41
1
41
1
41
1
41
1
41
1
41
1
41
1
41
1
41
1
41
1
41
1
41
1
41
1
41
1
41
1
10
-2.8403972066168932
20
-25.627922650483885
30
0
10
-2.8457078308363313
20
-25.620927994893844
30
0
10
-2.8562409853299249
20
-25.607146502996969
30
0
10
-2.8717764459762836
20
-25.587097697660589
30
0
10
-2.8919530629050421
20
-25.5616335546584
30
0
10
-2.9162170155540408
20
-25.532060572318901
30
0
10
-2.9394367622616038
20
-25.504950938959535
30
0
10
-2.9615241108315127
20
-25.480512705643541
30
0
10
-2.9824255931654626
20
-25.458872007053547
30
0
10
-3.0021812180964864
20
-25.439934459778577
30
0
10
-3.0208746152676191
20
-25.42350277611099
30
0
10
-3.0350478210868648
20
-25.412201066056742
30
0
10
-3.0452658528231207
20
-25.404696417537078
30
0
10
-3.0518977973456831
20
-25.400118130888071
30
0
10
-3.0551687495644049
20
-25.397935192739595
30
0
0
LINE
5
178
100
AcDbEntity
8
0
100
AcDbLine
10
-3.0551687495644049
20
-25.397935192739595
30
0
11
-4.3368728396476453
21
-24.399245851220162
31
0
0
ARC
5
179
100
AcDbEntity
8
0
100
AcDbCircle
10
-4.3983362224599221
20
-24.478127106047026
30
0
40
0.099999998948945373
210
0
220
-0
230
1
100
AcDbArc
50
52.074681124638424
51
101.76259219909416
0
LINE
5
180
100
AcDbEntity
8
0
100
AcDbLine
10
-4.4187219138722922
20
-24.380227037735359
30
0
11
-5.0660825525361464
21
-24.515026690724753
31
0
0
ARC
5
181
100
AcDbEntity
8
0
100
AcDbCircle
10
-5.0151183242352548
20
-24.759776860399214
30
0
40
0.24999999624396388
210
0
220
0
230
1
100
AcDbArc
50
101.76259219909385
51
134.99999999999918
0
LINE
5
182
100
AcDbEntity
8
0
100
AcDbLine
10
-5.1918950168759679
20
-24.583000167758495
30
0
11
-5.2109976170840078
21
-24.602102767966532
31
0
0
ARC
5
183
100
AcDbEntity
8
0
100
AcDbCircle
10
-5.1563956016516999
20
-24.658678874732324
30
0
40
0.078627195969616218
210
0
220
0
230
1
100
AcDbArc
50
133.9827565441081
51
226.38856945337702
0
LINE
5
184
100
AcDbEntity
8
0
100
AcDbLine
10
-5.2106298110714988
20
-24.715607658968892
30
0
11
-4.1361953266783669
21
-25.790042143362051
31
0
0
LINE
5
185
100
AcDbEntity
8
0
100
AcDbLine
10
-4.1361953266783669
20
-25.790042143362051
30
0
11
-6.2575156702379697
21
-27.911362486921682
31
0
0
LINE
5
186
100
AcDbEntity
8
0
100
AcDbLine
10
-6.2575156702379697
20
-27.911362486921682
30
0
11
-13.265350872264836
21
-20.903527284894814
31
0
0
LINE
5
187
100
AcDbEntity
8
0
100
AcDbLine
10
-13.265350872264836
20
-20.903527284894814
30
0
11
-12.801185091674885
21
-17.125052378386798
31
0
0
LINE
5
188
100
AcDbEntity
8
0
100
AcDbLine
10
-12.801185091674885
20
-17.125052378386798
30
0
11
-14.840932326596302
21
-15.085305143497107
31
0
0
ARC
5
189
100
AcDbEntity
8
0
100
AcDbCircle
10
-13.426718764195723
20
-13.671091581096697
30
0
40
2.0000000000387512
210
0
220
0
230
1
100
AcDbArc
50
203.31963951828968
51
224.99999999999656
0
LINE
5
190
100
AcDbEntity
8
0
100
AcDbLine
10
-15.263340253378654
20
-14.462812179304469
30
0
11
-15.88912924097372
21
-13.011116299684165
31
0
0
ARC
5
191
100
AcDbEntity
8
0
100
AcDbCircle
10
-16.807439977707563
20
-13.406976595400641
30
0
40
0.99999999146269491
210
0
220
-0
230
1
100
AcDbArc
50
23.319639518279658
51
34.000000161234667
0
LINE
5
192
100
AcDbEntity
8
0
100
AcDbLine
10
-15.978402419181721
20
-12.84778369799832
30
0
11
-16.720000374397603
21
-11.748319482703149
31
0
0
SPLINE
5
193
100
AcDbEntity
8
0
100
AcDbSpline
70
4
71
5
72
21
73
15
74
0
42
0.000000001
43
0.0000000001
44
0.0000000001
40
-1
40
-1
40
-1
40
-1
40
-1
40
-1
40
-0.89999999999999991
40
-0.79999999999999993
40
-0.69999999999999996
40
-0.59999999999999998
40
-0.5
40
-0.40000000000000002
40
-0.30000000000000004
40
-0.20000000000000001
40
-0.10000000000000001
40
0
40
0
40
0
40
0
40
0
40
0
41
1
41
1
41
1
41
1
41
1
41
1
41
1
41
1
41
1
41
1
41
1
41
1
41
1
41
1
41
1
10
-16.7200003743976
20
-11.748319482703149
30
0
10
-16.725310996258266
20
-11.741324829463867
30
0
10
-16.735844146163721
20
-11.72754334213985
30
0
10
-16.751379600316028
20
-11.707494543276812
30
0
10
-16.771556209375401
20
-11.682030408121131
30
0
10
-16.795820153594544
20
-11.652457434192911
30
0
10
-16.819039893410363
20
-11.625347807718494
30
0
10
-16.841127236760343
20
-11.600909579628063
30
0
10
-16.862028715632022
20
-11.57926888451405
30
0
10
-16.881784338806462
20
-11.560331339011473
30
0
10
-16.900477735806049
20
-11.543899655532474
30
0
10
-16.914650942656621
20
-11.532597944461539
30
0
10
-16.924868975782957
20
-11.525093294563906
30
0
10
-16.931500921501932
20
-11.520515006727248
30
0
10
-16.934771874386282
20
-11.51833206791769
30
0
0
LINE
5
194
100
AcDbEntity
8
0
100
AcDbLine
10
-16.934771874386282
20
-11.518332067917687
30
0
11
-18.216475964469517
21
-10.519642726398255
31
0
0
ARC
5
195
100
AcDbEntity
8
0
100
AcDbCircle
10
-18.277939347281798
20
-10.598523981225121
30
0
40
0.099999998948948482
210
0
220
-0
230
1
100
AcDbArc
50
52.074681124637046
51
101.76259219909316
0
LINE
5
196
100
AcDbEntity
8
0
100
AcDbLine
10
-18.298325038694166
20
-10.500623912913454
30
0
11
-18.945685677358021
21
-10.635423565902848
31
0
0
ARC
5
197
100
AcDbEntity
8
0
100
AcDbCircle
10
-18.89472144905713
20
-10.880173735577308
30
0
40
0.24999999624396341
210
0
220
0
230
1
100
AcDbArc
50
101.76259219909385
51
134.99999999999886
0
LINE
5
198
100
AcDbEntity
8
0
100
AcDbLine
10
-19.071498141697845
20
-10.703397042936587
30
0
11
-19.090600742755779
21
-10.722499642294734
31
0
0
ARC
5
199
100
AcDbEntity
8
0
100
AcDbCircle
10
-19.032772585551779
20
-10.779065295128675
30
0
40
0.080893564924166966
210
0
220
0
230
1
100
AcDbArc
50
135.63231773880386
51
224.73896588478854
0
LINE
5
200
100
AcDbEntity
8
0
100
AcDbLine
10
-19.090232978852207
20
-10.836004491188156
30
0
11
-18.015798451500238
21
-11.910439018540146
31
0
0
LINE
5
201
100
AcDbEntity
8
0
100
AcDbLine
10
-18.015798451500238
20
-11.910439018540146
30
0
11
-20.137118795059866
21
-14.03175936209978
31
0
0
LINE
5
202
100
AcDbEntity
8
0
100
AcDbLine
10
-20.137118795059866
20
-14.03175936209978
30
0
11
-25.017677287794115
21
-9.1512008693655282
31
0
0
LINE
5
203
100
AcDbEntity
8
0
100
AcDbLine
10
-25.017677287794115
20
-9.1512008693655282
30
0
11
-34.130109964241875
21
-6.3395470273640893
31
0
0
ARC
5
204
100
AcDbEntity
8
0
100
AcDbCircle
10
-34.012175698866024
20
-5.9573278375655363
30
0
40
0.40000000000000013
210
0
220
0
230
1
100
AcDbArc
50
224.99999999921707
51
252.85231670310003
0
LINE
5
205
100
AcDbEntity
8
0
100
AcDbLine
10
-34.295018411344508
20
-6.2401705500362903
30
0
11
-36.423699383078173
21
-4.1114895782444565
31
0
0
ARC
5
206
100
AcDbEntity
8
0
100
AcDbCircle
10
-36.706542095556642
20
-4.3943322907151865
30
0
40
0.39999999999997032
210
0
220
-0
230
1
100
AcDbArc
50
44.999999999216087
51
72.400015428973632
0
LINE
5
207
100
AcDbEntity
8
0
100
AcDbLine
10
-36.585594241928987
20
-4.0130559910284109
30
0
11
-37.032283233755741
21
-3.8713580285667151
31
0
0
CIRCLE
5
208
100
AcDbEntity
8
0
100
AcDbCircle
10
-36.862754605935507
20
-35.215563049299867
30
0
40
1.5500000000000025
210
0
220
0
230
1
0
CIRCLE
5
209
100
AcDbEntity
8
0
100
AcDbCircle
10
-36.862754605935507
20
-43.21556304929986
30
0
40
1.5500000000000025
210
0
220
0
230
1
0
CIRCLE
5
210
100
AcDbEntity
8
0
100
AcDbCircle
10
-28.862754605935507
20
-35.215563049299867
30
0
40
1.549999999999998
210
0
220
0
230
1
0
CIRCLE
5
211
100
AcDbEntity
8
0
100
AcDbCircle
10
-36.862754605935507
20
-27.215563049299863
30
0
40
1.5500000000000025
210
0
220
0
230
1
0
CIRCLE
5
212
100
AcDbEntity
8
0
100
AcDbCircle
10
-28.862754605935507
20
-43.21556304929986
30
0
40
1.549999999999998
210
0
220
0
230
1
0
CIRCLE
5
213
100
AcDbEntity
8
0
100
AcDbCircle
10
-20.862754605935507
20
-43.21556304929986
30
0
40
1.5500000000000025
210
0
220
0
230
1
0
CIRCLE
5
214
100
AcDbEntity
8
0
100
AcDbCircle
10
3.137245394064494
20
-43.21556304929986
30
0
40
1.5500000000000003
210
0
220
0
230
1
0
ARC
5
215
100
AcDbEntity
8
0
100
AcDbCircle
10
-37.153231087383411
20
-4.2526343282535164
30
0
40
0.40000000000000002
210
0
220
-0
230
1
100
AcDbArc
50
72.400015428972807
51
113.92909130978822
0
LINE
5
216
100
AcDbEntity
8
0
100
AcDbLine
10
-36.585594241928987
20
-4.01305599102841
30
0
11
-37.032283233755741
21
-3.8713580285667151
31
0
0
ARC
5
217
100
AcDbEntity
8
0
100
AcDbCircle
10
-36.706542095556657
20
-4.3943322907152114
30
0
40
0.40000000000000013
210
0
220
-0
230
1
100
AcDbArc
50
44.999999999217081
51
72.400015428972807
0
LINE
5
218
100
AcDbEntity
8
0
100
AcDbLine
10
-34.295018411344508
20
-6.2401705500362912
30
0
11
-36.423699383078173
21
-4.1114895782444574
31
0
0
ARC
5
219
100
AcDbEntity
8
0
100
AcDbCircle
10
-34.012175698866017
20
-5.9573278375655283
30
0
40
0.40000000000000957
210
0
220
0
230
1
100
AcDbArc
50
224.99999999921727
51
252.85231670309921
0
LINE
5
220
100
AcDbEntity
8
0
100
AcDbLine
10
-25.017677287794115
20
-9.1512008693655318
30
0
11
-34.130109964241875
21
-6.3395470273640839
31
0
0
LINE
5
221
100
AcDbEntity
8
0
100
AcDbLine
10
-25.017677287794115
20
-9.1512008693655318
30
0
11
-20.137118795059866
21
-14.03175936209978
31
0
0
LINE
5
222
100
AcDbEntity
8
0
100
AcDbLine
10
-20.137118795059866
20
-14.03175936209978
30
0
11
-18.015798451500242
21
-11.910439018540146
31
0
0
LINE
5
223
100
AcDbEntity
8
0
100
AcDbLine
10
-18.015798451500242
20
-11.910439018540146
30
0
11
-19.090232978852207
21
-10.836004491188156
31
0
0
ARC
5
224
100
AcDbEntity
8
0
100
AcDbCircle
10
-19.032772585551772
20
-10.779065295128671
30
0
40
0.080893564924168576
210
0
220
0
230
1
100
AcDbArc
50
135.63231773880742
51
224.73896588478675
0
LINE
5
225
100
AcDbEntity
8
0
100
AcDbLine
10
-19.090600742755775
20
-10.722499642294734
30
0
11
-19.071498141697845
21
-10.703397042936587
31
0
0
ARC
5
226
100
AcDbEntity
8
0
100
AcDbCircle
10
-18.89472144905714
20
-10.880173735577291
30
0
40
0.2499999962439442
210
0
220
0
230
1
100
AcDbArc
50
101.76259219909227
51
135
0
LINE
5
227
100
AcDbEntity
8
0
100
AcDbLine
10
-18.945685677358021
20
-10.635423565902848
30
0
11
-18.298325038694166
21
-10.500623912913454
31
0
0
ARC
5
228
100
AcDbEntity
8
0
100
AcDbCircle
10
-18.277939347281798
20
-10.598523981225123
30
0
40
0.099999998948948871
210
0
220
-0
230
1
100
AcDbArc
50
52.074681124639262
51
101.76259219909294
0
LINE
5
229
100
AcDbEntity
8
0
100
AcDbLine
10
-18.21647596446952
20
-10.519642726398255
30
0
11
-16.934771874386282
21
-11.51833206791769
31
0
0
SPLINE
5
230
100
AcDbEntity
8
0
100
AcDbSpline
70
4
71
5
72
21
73
15
74
0
42
0.000000001
43
0.0000000001
44
0.0000000001
40
0
40
0
40
0
40
0
40
0
40
0
40
0.10000000000000001
40
0.20000000000000001
40
0.30000000000000004
40
0.40000000000000002
40
0.5
40
0.59999999999999998
40
0.69999999999999996
40
0.79999999999999993
40
0.89999999999999991
40
1
40
1
40
1
40
1
40
1
40
1
41
1
41
1
41
1
41
1
41
1
41
1
41
1
41
1
41
1
41
1
41
1
41
1
41
1
41
1
41
1
10
-16.934771874386282
20
-11.51833206791769
30
0
10
-16.931500921501932
20
-11.520515006727248
30
0
10
-16.924868975782957
20
-11.525093294563906
30
0
10
-16.914650942656621
20
-11.532597944461539
30
0
10
-16.900477735806049
20
-11.543899655532474
30
0
10
-16.881784338806462
20
-11.560331339011473
30
0
10
-16.862028715632022
20
-11.57926888451405
30
0
10
-16.841127236760343
20
-11.600909579628063
30
0
10
-16.819039893410363
20
-11.625347807718494
30
0
10
-16.795820153594544
20
-11.652457434192911
30
0
10
-16.771556209375401
20
-11.682030408121131
30
0
10
-16.751379600316028
20
-11.707494543276812
30
0
10
-16.735844146163721
20
-11.72754334213985
30
0
10
-16.725310996258266
20
-11.741324829463867
30
0
10
-16.7200003743976
20
-11.748319482703149
30
0
0
LINE
5
231
100
AcDbEntity
8
0
100
AcDbLine
10
-16.7200003743976
20
-11.748319482703149
30
0
11
-15.978402419181721
21
-12.84778369799832
31
0
0
ARC
5
232
100
AcDbEntity
8
0
100
AcDbCircle
10
-16.807439977707734
20
-13.406976595400744
30
0
40
0.99999998497604459
210
0
220
-0
230
1
100
AcDbArc
50
23.319639518281214
51
34.000000161234098
0
LINE
5
233
100
AcDbEntity
8
0
100
AcDbLine
10
-15.889129246930661
20
-13.01111630225205
30
0
11
-15.263340253344202
21
-14.462812179289617
31
0
0
ARC
5
234
100
AcDbEntity
8
0
100
AcDbCircle
10
-13.426718764195787
20
-13.671091581096748
30
0
40
2.0000000000011542
210
0
220
0
230
1
100
AcDbArc
50
203.31963951828902
51
224.99999999999682
0
LINE
5
235
100
AcDbEntity
8
0
100
AcDbLine
10
-14.840932326596302
20
-15.085305143497107
30
0
11
-12.801185091674885
21
-17.125052378386798
31
0
0
LINE
5
236
100
AcDbEntity
8
0
100
AcDbLine
10
-12.801185091674885
20
-17.125052378386798
30
0
11
-13.265350872264834
21
-20.903527284894814
31
0
0
LINE
5
237
100
AcDbEntity
8
0
100
AcDbLine
10
-13.265350872264834
20
-20.903527284894814
30
0
11
-6.2575156702379706
21
-27.911362486921682
31
0
0
LINE
5
238
100
AcDbEntity
8
0
100
AcDbLine
10
-6.2575156702379706
20
-27.911362486921682
30
0
11
-4.136195326678366
21
-25.790042143362051
31
0
0
LINE
5
239
100
AcDbEntity
8
0
100
AcDbLine
10
-4.136195326678366
20
-25.790042143362051
30
0
11
-5.2106298110714988
21
-24.715607658968892
31
0
0
ARC
5
240
100
AcDbEntity
8
0
100
AcDbCircle
10
-5.156395601651699
20
-24.658678874732324
30
0
40
0.078627195969616218
210
0
220
0
230
1
100
AcDbArc
50
133.9827565441081
51
226.38856945337653
0
LINE
5
241
100
AcDbEntity
8
0
100
AcDbLine
10
-5.2109976170840069
20
-24.602102767966532
30
0
11
-5.1918950168759679
21
-24.583000167758495
31
0
0
ARC
5
242
100
AcDbEntity
8
0
100
AcDbCircle
10
-5.0151183242352371
20
-24.759776860399249
30
0
40
0.24999999624399749
210
0
220
0
230
1
100
AcDbArc
50
101.76259219909595
51
134.99999999999628
0
LINE
5
243
100
AcDbEntity
8
0
100
AcDbLine
10
-5.0660825525361446
20
-24.515026690724756
30
0
11
-4.4187219138722922
21
-24.380227037735359
31
0
0
ARC
5
244
100
AcDbEntity
8
0
100
AcDbCircle
10
-4.398336222459923
20
-24.478127106047026
30
0
40
0.099999998948945373
210
0
220
-0
230
1
100
AcDbArc
50
52.074681124638424
51
101.76259219909365
0
LINE
5
245
100
AcDbEntity
8
0
100
AcDbLine
10
-4.3368728396476461
20
-24.399245851220162
30
0
11
-3.0551687495644053
21
-25.397935192739595
31
0
0
SPLINE
5
246
100
AcDbEntity
8
0
100
AcDbSpline
70
4
71
5
72
21
73
15
74
0
42
0.000000001
43
0.0000000001
44
0.0000000001
40
0
40
0
40
0
40
0
40
0
40
0
40
0.10000000000000001
40
0.20000000000000001
40
0.30000000000000004
40
0.40000000000000002
40
0.5
40
0.59999999999999998
40
0.69999999999999996
40
0.79999999999999993
40
0.89999999999999991
40
1
40
1
40
1
40
1
40
1
40
1
41
1
41
1
41
1
41
1
41
1
41
1
41
1
41
1
41
1
41
1
41
1
41
1
41
1
41
1
41
1
10
-3.0551687495644049
20
-25.397935192739595
30
0
10
-3.0518977973456831
20
-25.400118130888071
30
0
10
-3.0452658528231207
20
-25.404696417537078
30
0
10
-3.0350478210868648
20
-25.412201066056742
30
0
10
-3.0208746152676191
20
-25.42350277611099
30
0
10
-3.0021812180964864
20
-25.439934459778577
30
0
10
-2.9824255931654626
20
-25.458872007053547
30
0
10
-2.9615241108315127
20
-25.480512705643541
30
0
10
-2.9394367622616038
20
-25.504950938959535
30
0
10
-2.9162170155540408
20
-25.532060572318901
30
0
10
-2.8919530629050421
20
-25.5616335546584
30
0
10
-2.8717764459762836
20
-25.587097697660589
30
0
10
-2.8562409853299249
20
-25.607146502996969
30
0
10
-2.8457078308363313
20
-25.620927994893844
30
0
10
-2.8403972066168932
20
-25.627922650483885
30
0
0
LINE
5
247
100
AcDbEntity
8
0
100
AcDbLine
10
-2.8403972066168932
20
-25.627922650483885
30
0
11
-2.0987992393989066
21
-26.727386857683534
31
0
0
ARC
5
248
100
AcDbEntity
8
0
100
AcDbCircle
10
-2.9278368099268679
20
-27.28657976318139
30
0
40
0.99999999945301843
210
0
220
-0
230
1
100
AcDbArc
50
23.319639518280251
51
34.000000161234809
0
LINE
5
249
100
AcDbEntity
8
0
100
AcDbLine
10
-2.0095260658554293
20
-26.890719464301853
30
0
11
-1.3837370817975869
21
-28.342415345446966
31
0
0
ARC
5
250
100
AcDbEntity
8
0
100
AcDbCircle
10
0.45288440358509069
20
-27.550694748877365
30
0
40
1.9999999959004495
210
0
220
0
230
1
100
AcDbArc
50
203.31963951829022
51
224.99999999999565
0
LINE
5
251
100
AcDbEntity
8
0
100
AcDbLine
10
-0.96132915881559711
20
-28.964908311277838
30
0
11
15.105018472336621
21
-45.031255942180117
31
0
0
ARC
5
252
100
AcDbEntity
8
0
100
AcDbCircle
10
15.45857186292714
20
-44.67770255158409
30
0
40
0.499999999999999
210
0
220
0
230
1
100
AcDbArc
50
225.00000000044619
51
315.00000000000045
0
LINE
5
253
100
AcDbEntity
8
0
100
AcDbLine
10
21.079032587557485
20
-39.764348608140324
30
0
11
15.812125253520415
21
-45.03125594217736
31
0
0
ARC
5
254
100
AcDbEntity
8
0
100
AcDbCircle
10
21.432585978150762
20
-40.117901998733601
30
0
40
0.49999999999999994
210
0
220
-0
230
1
100
AcDbArc
50
39.395342217723972
51
135
0
LINE
5
255
100
AcDbEntity
8
0
100
AcDbLine
10
24.007252348027144
20
-42.465057851401596
30
0
11
21.818978563398552
21
-39.800568152342251
31
0
0
SPLINE
5
256
100
AcDbEntity
8
0
100
AcDbSpline
70
0
71
3
72
14
73
10
74
0
42
0.000000001
43
0.0000000001
44
0.0000000001
40
0
40
0
40
0
40
0
40
0.011719334201608173
40
0.011719334201608173
40
0.023438668403216293
40
0.023438668403216293
40
0.03089884533468603
40
0.03089884533468603
40
0.038359022266154646
40
0.038359022266154646
40
0.038359022266154646
40
0.038359022266154646
10
24.025037978882523
20
-42.821859077187305
30
0
10
24.046705845203867
20
-42.789354698790575
30
0
10
24.0618177270225
20
-42.752928863853306
30
0
10
24.07722831662733
20
-42.676334882943962
30
0
10
24.077379690777491
20
-42.636899017176319
30
0
10
24.065250960795559
20
-42.574128350007278
30
0
10
24.05751579706866
20
-42.550393728840291
30
0
10
24.036366804117826
20
-42.505379932419373
30
0
10
24.023034792296638
20
-42.484274898407989
30
0
10
24.007252348027151
20
-42.46505785140161
30
0
0
SPLINE
5
257
100
AcDbEntity
8
0
100
AcDbSpline
70
4
71
5
72
20
73
14
74
0
42
0.000000001
43
0.0000000001
44
0.0000000001
40
0.19216237284157517
40
0.19216237284157517
40
0.19216237284157517
40
0.19216237284157517
40
0.19216237284157517
40
0.19216237284157517
40
0.20000000000000001
40
0.30000000000000004
40
0.40000000000000002
40
0.5
40
0.59999999999999998
40
0.69999999999999996
40
0.79999999999999993
40
0.89999999999999991
40
0.95065759678656159
40
0.95065759678656159
40
0.95065759678656159
40
0.95065759678656159
40
0.95065759678656159
40
0.95065759678656159
41
1
41
1
41
1
41
1
41
1
41
1
41
1
41
1
41
1
41
1
41
1
41
1
41
1
41
1
10
24.025037978882523
20
-42.821859077187305
30
0
10
24.015509252192331
20
-42.836153301333965
30
0
10
23.884944676072095
20
-43.032983893456333
30
0
10
23.647673750236422
20
-43.41650751036137
30
0
10
23.338340119155497
20
-43.996773472923074
30
0
10
23.015913504612673
20
-44.790887535025433
30
0
10
22.770490241410517
20
-45.807926274237943
30
0
10
22.758471967757849
20
-46.764275501324676
30
0
10
23.136981996319403
20
-47.873701447108559
30
0
10
23.384242022251023
20
-48.182095182078164
30
0
10
23.508315642276834
20
-49.335410622008951
30
0
10
23.503395202886793
20
-50.290876968145056
30
0
10
23.445815113023315
20
-50.978484049171513
30
0
10
23.422465466598517
20
-51.215563049299817
30
0
0
LINE
5
258
100
AcDbEntity
8
0
100
AcDbLine
10
18.913850397619179
20
-51.215563049299831
30
0
11
23.422465466598517
21
-51.215563049299831
31
0
0
ARC
5
259
100
AcDbEntity
8
0
100
AcDbCircle
10
18.656965875783811
20
-50.249120944235386
30
0
40
0.99999999999999756
210
-0
220
0
230
1
100
AcDbArc
50
283.34441670755609
51
284.88528066549844
0
LINE
5
260
100
AcDbEntity
8
0
100
AcDbLine
10
16.599390252645048
20
-51.764944695748241
30
0
11
18.887769969345495
21
-51.222121185959494
31
0
0
ARC
5
261
100
AcDbEntity
8
0
100
AcDbCircle
10
16.368586159083371
20
-50.791944454024147
30
0
40
1.0000000000000011
210
-0
220
0
230
1
100
AcDbArc
50
275.99999999999994
51
283.34441670755592
0
LINE
5
262
100
AcDbEntity
8
0
100
AcDbLine
10
11.92172556770525
20
-52.264836615377533
30
0
11
16.473114622351023
21
-51.78646634939242
31
0
0
ARC
5
263
100
AcDbEntity
8
0
100
AcDbCircle
10
11.817197104437597
20
-51.27031472000926
30
0
40
0.99999999999999911
210
0
220
0
230
1
100
AcDbArc
50
262.92531877014761
51
276.00000000000006
0
LINE
5
264
100
AcDbEntity
8
0
100
AcDbLine
10
10.037434196182833
20
-52.057104109490666
30
0
11
11.694034147167194
21
-52.262701179991666
31
0
0
ARC
5
265
100
AcDbEntity
8
0
100
AcDbCircle
10
10.049750491909872
20
-51.957865463492425
30
0
40
0.10000000000000052
210
0
220
0
230
1
100
AcDbArc
50
213.23740740627025
51
262.92531877014801
0
LINE
5
266
100
AcDbEntity
8
0
100
AcDbLine
10
9.5627761328916829
20
-51.397195314253551
30
0
11
9.9661098278345754
21
-52.012676405037368
31
0
0
LINE
5
267
100
AcDbEntity
8
0
100
AcDbLine
10
9.5627761328916669
20
-51.215563049299845
30
0
11
9.5627761328916829
21
-51.397195314253551
31
0
0
LINE
5
268
100
AcDbEntity
8
0
100
AcDbLine
10
9.5627761328916669
20
-51.215563049299845
30
0
11
11.162439183680963
21
-51.21556304929986
31
0
0
LINE
5
269
100
AcDbEntity
8
0
100
AcDbLine
10
11.162439183680966
20
-48.21556304929986
30
0
11
11.162439183680963
21
-51.21556304929986
31
0
0
LINE
5
270
100
AcDbEntity
8
0
100
AcDbLine
10
-1.8375605779005202
20
-48.21556304929986
30
0
11
11.162439183680966
21
-48.21556304929986
31
0
0
LINE
5
271
100
AcDbEntity
8
0
100
AcDbLine
10
-1.837560577900522
20
-51.215563049299845
30
0
11
-1.8375605779005202
21
-48.21556304929986
31
0
0
LINE
5
272
100
AcDbEntity
8
0
100
AcDbLine
10
-39.893149602380824
20
-51.21556304929986
30
0
11
-1.837560577900522
21
-51.215563049299845
31
0
0
ARC
5
273
100
AcDbEntity
8
0
100
AcDbCircle
10
-40.150034124212198
20
-50.249120944250912
30
0
40
0.99999999998397038
210
0
220
0
230
1
100
AcDbArc
50
283.34441670753858
51
284.88528066550543
0
LINE
5
274
100
AcDbEntity
8
0
100
AcDbLine
10
-39.919230030654511
20
-51.222121185959494
30
0
11
-42.207609747354951
21
-51.764944695748255
31
0
0
ARC
5
275
100
AcDbEntity
8
0
100
AcDbCircle
10
-42.438413840916184
20
-50.791944454026527
30
0
40
0.99999999999758704
210
0
220
0
230
1
100
AcDbArc
50
275.99999999998852
51
283.34441670756246
0
LINE
5
276
100
AcDbEntity
8
0
100
AcDbLine
10
-42.333885377648983
20
-51.78646634939242
30
0
11
-46.88527443229475
21
-52.264836615377533
31
0
0
ARC
5
277
100
AcDbEntity
8
0
100
AcDbCircle
10
-46.989802895562434
20
-51.270314720008997
30
0
40
1.0000000000002605
210
0
220
0
230
1
100
AcDbArc
50
262.92531877015062
51
276.00000000000017
0
LINE
5
278
100
AcDbEntity
8
0
100
AcDbLine
10
-47.112965852832815
20
-52.262701179991666
30
0
11
-48.769565803817173
21
-52.057104109490666
31
0
0
ARC
5
279
100
AcDbEntity
8
0
100
AcDbCircle
10
-48.757249508090098
20
-51.957865463492368
30
0
40
0.1000000000000453
210
0
220
0
230
1
100
AcDbArc
50
213.23740740628514
51
262.92531877013181
0
LINE
5
280
100
AcDbEntity
8
0
100
AcDbLine
10
-48.840890172165423
20
-52.012676405037361
30
0
11
-49.244223867108317
21
-51.397195314253558
31
0
0
LINE
5
281
100
AcDbEntity
8
0
100
AcDbLine
10
-49.244223867108317
20
-51.397195314253558
30
0
11
-49.244223867108317
21
-51.215563049299845
31
0
0
LINE
5
282
100
AcDbEntity
8
0
100
AcDbLine
10
-49.244223867108317
20
-51.215563049299845
30
0
11
-47.644223867108337
21
-51.215563049299845
31
0
0
LINE
5
283
100
AcDbEntity
8
0
100
AcDbLine
10
-47.644223867108337
20
-48.21556304929986
30
0
11
-47.644223867108337
21
-51.215563049299845
31
0
0
LINE
5
284
100
AcDbEntity
8
0
100
AcDbLine
10
-62.644223867108323
20
-48.21556304929986
30
0
11
-47.644223867108337
21
-48.21556304929986
31
0
0
LINE
5
285
100
AcDbEntity
8
0
100
AcDbLine
10
-62.644223867108323
20
-46.623334253845094
30
0
11
-62.644223867108323
21
-48.21556304929986
31
0
0
ARC
5
286
100
AcDbEntity
8
0
100
AcDbCircle
10
-62.144223867108323
20
-46.623334253845094
30
0
40
0.49999999999999878
210
0
220
0
230
1
100
AcDbArc
50
143.51312233431315
51
180
0
LINE
5
287
100
AcDbEntity
8
0
100
AcDbLine
10
-53.565888471801919
20
-34.183977978584096
30
0
11
-62.546220402393551
21
-46.326014921108943
31
0
0
ARC
5
288
100
AcDbEntity
8
0
100
AcDbCircle
10
-53.163891936516691
20
-34.481297311320247
30
0
40
0.50000000000000211
210
0
220
0
230
1
100
AcDbArc
50
134.99999999999943
51
143.51312233431315
0
LINE
5
289
100
AcDbEntity
8
0
100
AcDbLine
10
-46.166138839741073
20
-26.776437433358012
30
0
11
-53.517445327109961
21
-34.127743920726971
31
0
0
ARC
5
290
100
AcDbEntity
8
0
100
AcDbCircle
10
-45.812585449147804
20
-27.129990823951285
30
0
40
0.49999999999999956
210
0
220
0
230
1
100
AcDbArc
50
101.83298523497093
51
134.99999999999972
0
LINE
5
291
100
AcDbEntity
8
0
100
AcDbLine
10
-45.08153010479738
20
-26.465970169704406
30
0
11
-45.915115225554182
21
-26.640616074960231
31
0
0
ARC
5
292
100
AcDbEntity
8
0
100
AcDbCircle
10
-45.061024149516101
20
-26.563845119502613
30
0
40
0.099999999999999881
210
0
220
-0
230
1
100
AcDbArc
50
39.089748886386083
51
101.83298523497373
0
LINE
5
293
100
AcDbEntity
8
0
100
AcDbLine
10
-44.863002741508886
20
-26.649004512629119
30
0
11
-44.983408226272218
21
-26.500791424456249
31
0
0
ARC
5
294
100
AcDbEntity
8
0
100
AcDbCircle
10
-44.940618664752769
20
-26.712058207675483
30
0
40
0.099999999999998729
210
-0
220
0
230
1
100
AcDbArc
50
-10.609718588146857
51
39.089748886386083
0
LINE
5
295
100
AcDbEntity
8
0
100
AcDbLine
10
-45.092888705112777
20
-28.068073103361755
30
0
11
-44.842328251459676
21
-26.730470015155298
31
0
0
LINE
5
296
100
AcDbEntity
8
0
100
AcDbLine
10
-45.092888705112777
20
-28.068073103361755
30
0
11
-42.144180990662861
21
-28.620452353177797
31
0
0
LINE
5
297
100
AcDbEntity
8
0
100
AcDbLine
10
-41.443382804502285
20
-24.879280095740654
30
0
11
-42.144180990662861
21
-28.620452353177797
31
0
0
LINE
5
298
100
AcDbEntity
8
0
100
AcDbLine
10
-41.441754756093886
20
-24.877652047332251
30
0
11
-41.443382804502285
21
-24.879280095740654
31
0
0
LINE
5
299
100
AcDbEntity
8
0
100
AcDbLine
10
-39.845585440924872
20
-16.356329369242225
30
0
11
-41.441754756093886
21
-24.877652047332251
31
0
0
LINE
5
300
100
AcDbEntity
8
0
100
AcDbLine
10
-41.156107176713832
20
-16.11084933515
30
0
11
-39.845585440924872
21
-16.356329369242225
31
0
0
LINE
5
301
100
AcDbEntity
8
0
100
AcDbLine
10
-42.076237698041297
20
-15.938492630077226
30
0
11
-41.156107176713832
21
-16.11084933515
31
0
0
LINE
5
302
100
AcDbEntity
8
0
100
AcDbLine
10
-43.654530843017142
20
-13.126733285545519
30
0
11
-42.076237698041297
21
-15.938492630077226
31
0
0
ARC
5
303
100
AcDbEntity
8
0
100
AcDbCircle
10
-43.218523169853349
20
-12.881994018278712
30
0
40
0.49999999999999467
210
0
220
0
230
1
100
AcDbArc
50
180.38996341423115
51
209.30631292540093
0
LINE
5
304
100
AcDbEntity
8
0
100
AcDbLine
10
-43.756386737069747
20
-7.3206375382532594
30
0
11
-43.718511588993763
21
-12.885397064775326
31
0
0
ARC
5
305
100
AcDbEntity
8
0
100
AcDbCircle
10
-43.256398317929325
20
-7.3172344917566479
30
0
40
0.50000000000000067
210
0
220
0
230
1
100
AcDbArc
50
147.37153519260931
51
180.38996341423115
0
LINE
5
306
100
AcDbEntity
8
0
100
AcDbLine
10
-42.180578106872389
20
-4.7095429651773735
30
0
11
-43.677490632551127
21
-7.0476398653887475
31
0
0
ARC
5
307
100
AcDbEntity
8
0
100
AcDbCircle
10
-41.843704255174941
20
-4.9252186662716975
30
0
40
0.40000000000000041
210
0
220
0
230
1
100
AcDbArc
50
102.28449159379849
51
147.37153519260931
0
LINE
5
308
100
AcDbEntity
8
0
100
AcDbLine
10
-41.317404006166129
20
-4.4012425335646013
30
0
11
-41.928810622719759
21
-4.5343773862060841
31
0
0
ARC
5
309
100
AcDbEntity
8
0
100
AcDbCircle
10
-41.232297638621311
20
-4.7920838136302137
30
0
40
0.40000000000000152
210
0
220
-0
230
1
100
AcDbArc
50
79.389963462486094
51
102.28449159379853
0
LINE
5
310
100
AcDbEntity
8
0
100
AcDbLine
10
-40.675760792579716
20
-4.489380049247
30
0
11
-41.158648226945651
21
-4.3989225691517806
31
0
0
LINE
5
311
100
AcDbEntity
8
0
100
AcDbLine
10
-40.675760792579716
20
-4.489380049247
30
0
11
-40.954018888433353
21
-5.9747999174687543
31
0
0
LINE
5
312
100
AcDbEntity
8
0
100
AcDbLine
10
-38.00577489580909
20
-6.5270282791209908
30
0
11
-40.954018888433353
21
-5.9747999174687543
31
0
0
LINE
5
313
100
AcDbEntity
8
0
100
AcDbLine
10
-38.00577489580909
20
-6.5270282791209908
30
0
11
-37.529030754945595
21
-3.9817804307231457
31
0
0
LINE
5
314
100
AcDbEntity
8
0
100
AcDbLine
10
-37.315473382204971
20
-3.8870150757912931
30
0
11
-37.529030754945595
21
-3.9817804307231457
31
0
0
LWPOLYLINE
5
315
100
AcDbEntity
8
0
100
AcDbPolyline
90
19
70
1
43
0.0
10
-7.6567627785850325
20
-43.215298194939571
10
-3.8391088827002773
20
-42.715443061191827
42
0.23664452716631168
10
-3.4679237319149401
20
-42.464253946957967
10
-0.93734816662400522
20
-37.952110017074965
42
0.24897303438266849
10
-0.92651739138541855
20
-37.483353866719334
10
-2.2722257795554537
20
-34.800493486176762
42
0.088068864463873381
10
-2.3766899231674485
20
-34.660364887436266
10
-10.019827482713925
20
-27.475459592979181
42
0.042420438131022913
10
-10.086223140513384
20
-27.422888162991626
10
-23.566379360925509
20
-18.495923217471461
42
0.13867646504365305
10
-23.825583728171495
20
-18.413084489029824
10
-26.682572354048212
20
-18.316669192604049
42
0.27114374657613682
10
-27.12689096227593
20
-18.556995922129346
10
-30.906993521422649
20
-24.786340959108841
42
0.14031127771947902
10
-30.979501786068443
20
-25.051821818923692
10
-30.958076233821352
20
-26.810171751460597
42
0.23174917993405333
10
-30.759788540697429
20
-27.202817794629894
10
-13.933283144278617
20
-39.933327256272172
10
-7.9592595554589511
20
-43.159476948597174
42
0.15762330249959969
0
ENDSEC
0
SECTION
2
OBJECTS
0
DICTIONARY
5
C
100
AcDbDictionary
3
ACAD_GROUP
350
D
3
ACAD_MLINESTYLE
350
17
0
DICTIONARY
5
D
100
AcDbDictionary
0
DICTIONARY
5
1A
330
C
100
AcDbDictionary
0
DICTIONARY
5
17
100
AcDbDictionary
0
ENDSEC
0
EOF
