0
SECTION
2
HEADER
9
$INSUNITS
70
4
9
$ACADVER
1
AC1014
9
$HANDSEED
5
FFFF
0
ENDSEC
0
SECTION
2
TABLES
0
TABLE
2
VPORT
5
8
100
AcDbSymbolTable
0
ENDTAB
0
TABLE
2
LTYPE
5
5
100
AcDbSymbolTable
0
LTYPE
5
14
100
AcDbSymbolTableRecord
100
AcDbLinetypeTableRecord
2
BYBLOCK
70
0
0
LTYPE
5
15
100
AcDbSymbolTableRecord
100
AcDbLinetypeTableRecord
2
BYLAYER
70
0
0
LTYPE
5
16
100
AcDbSymbolTableRecord
100
AcDbLinetypeTableRecord
2
DASHED
70
0
3
Dashed __ __ __ __ __ __ __ __ __ __ __ __ __ _
72
65
73
2
40
0.75
49
0.5
74
0
49
-0.25
74
0
0
ENDTAB
0
TABLE
2
LAYER
5
2
100
AcDbSymbolTable
70
2
0
LAYER
5
50
100
AcDbSymbolTableRecord
100
AcDbLayerTableRecord
2
0
70
0
62
7
6
CONTINUOUS
0
ENDTAB
0
TABLE
2
STYLE
5
3
100
AcDbSymbolTable
70
1
0
STYLE
5
11
100
AcDbSymbolTableRecord
100
AcDbTextStyleTableRecord
2
STANDARD
70
0
0
ENDTAB
0
TABLE
2
VIEW
5
6
100
AcDbSymbolTable
70
0
0
ENDTAB
0
TABLE
2
UCS
5
7
100
AcDbSymbolTable
70
0
0
ENDTAB
0
TABLE
2
APPID
5
9
100
AcDbSymbolTable
70
2
0
APPID
5
12
100
AcDbSymbolTableRecord
100
AcDbRegAppTableRecord
2
ACAD
70
0
0
ENDTAB
0
TABLE
2
DIMSTYLE
5
A
100
AcDbSymbolTable
70
1
0
ENDTAB
0
TABLE
2
BLOCK_RECORD
5
1
100
AcDbSymbolTable
70
1
0
BLOCK_RECORD
5
1F
100
AcDbSymbolTableRecord
100
AcDbBlockTableRecord
2
*MODEL_SPACE
0
BLOCK_RECORD
5
1B
100
AcDbSymbolTableRecord
100
AcDbBlockTableRecord
2
*PAPER_SPACE
0
ENDTAB
0
ENDSEC
0
SECTION
2
BLOCKS
0
BLOCK
5
20
100
AcDbEntity
100
AcDbBlockBegin
2
*MODEL_SPACE
0
ENDBLK
5
21
100
AcDbEntity
100
AcDbBlockEnd
0
BLOCK
5
1C
100
AcDbEntity
100
AcDbBlockBegin
2
*PAPER_SPACE
0
ENDBLK
5
1D
100
AcDbEntity
100
AcDbBlockEnd
0
ENDSEC
0
SECTION
2
ENTITIES
0
LWPOLYLINE
5
100
100
AcDbEntity
8
0
100
AcDbPolyline
90
38
70
1
43
0.0
10
-15.212821545394309
20
-64.473818300587183
10
27.916021545394297
20
-64.473818300587183
42
0.10948638289862216
10
27.958272112580755
20
-64.464454328591628
10
50.676352269619116
20
-53.874275200541668
42
0.25865071816515034
10
50.733356317596801
20
-53.795826106877712
10
52.280854615164131
20
-41.192463874788494
42
0.030552763298702268
10
52.28159999999999
20
-41.180276940447982
10
52.28159999999999
20
-7.266466964906888
42
0.03087892907311816
10
52.280838645998237
20
-7.2541506691798476
10
51.978965809860959
20
-4.8218080082170376
42
0.22026642168344052
10
51.93453810540764
20
-4.7504836398687837
10
51.176526703216787
20
-4.2537477624673281
10
50.726599999999991
20
-4.2537477624673281
10
50.726599999999991
20
-5.8516310343088751
10
47.726599999999991
20
-5.8516310343088751
10
47.726599999999991
20
14.81775580920444
10
23.204520231767184
20
22.998739419382012
10
23.204520231767184
20
11.162439324601866
10
20.204520231767184
20
11.162439324601866
10
20.204520231767184
20
22.998439324601772
10
-7.5013202317671901
20
22.998439324601772
10
-7.5013202317671901
20
11.162439324601866
10
-10.501320231767188
20
11.162439324601866
10
-10.501320231767188
20
22.998739419382012
10
-35.023399999999995
20
14.81775580920444
10
-35.023399999999995
20
-5.8516310343088751
10
-38.023399999999995
20
-5.8516310343088751
10
-38.023399999999995
20
-4.2537477624673281
10
-38.473326703216792
20
-4.2537477624673281
10
-39.231338105407659
20
-4.750483639868774
42
0.22026642168351102
10
-39.27576580986095
20
-4.8218080082170385
10
-39.577638645998249
20
-7.2541506691798467
42
0.030878929074407303
10
-39.578399999999995
20
-7.2664669649068871
10
-39.578399999999995
20
-41.180276940447982
42
0.030552763298583273
10
-39.577654615164128
20
-41.192463874788494
10
-38.030156317596806
20
-53.795826106877712
42
0.2586507181651147
10
-37.973152269619113
20
-53.874275200541646
10
-15.255072112580761
20
-64.464454328591657
42
0.10948638289861093
0
LWPOLYLINE
5
101
100
AcDbEntity
8
0
100
AcDbPolyline
90
4
70
1
43
0.0
10
-38.023399999999995
20
-17.644223867108323
10
-35.023399999999995
20
-17.644223867108323
10
-35.023399999999995
20
-38.644223867108323
10
-38.023399999999995
20
-38.644223867108323
0
LWPOLYLINE
5
102
100
AcDbEntity
8
0
100
AcDbPolyline
90
4
70
1
43
0.0
10
47.726599999999991
20
-17.644223867108323
10
50.726599999999991
20
-17.644223867108323
10
50.726599999999991
20
-38.644223867108323
10
47.726599999999991
20
-38.644223867108323
0
LWPOLYLINE
5
103
100
AcDbEntity
8
0
100
AcDbPolyline
90
18
70
1
43
0.0
10
23.204520231767187
20
-47.644223867108337
10
-10.501320231767192
20
-47.644223867108337
10
-22.711940322309758
20
-40.673009235914932
42
-0.26924665224891992
10
-22.762360115883595
20
-40.586165680421516
10
-22.762360115883592
20
-3.1585684782195411
42
-0.29792556835800688
10
-22.702458090064937
20
-3.0669597861289324
10
-17.021838662505143
20
-0.58049997601592451
42
-0.076427090621650914
10
-16.992467098771119
20
-0.57268561183227085
10
-10.501320231767188
20
0.1276218236706736
10
-10.501320231767185
20
0.16243932460184213
10
23.204520231767177
20
0.16243932460184213
10
23.204520231767184
20
0.1276218236706736
10
29.695667098771111
20
-0.57268561183227096
42
-0.076427090621637175
10
29.725038662505135
20
-0.5804999760159244
10
35.405658090064932
20
-3.0669597861289342
42
-0.29792556835798878
10
35.465560115883584
20
-3.1585684782195411
10
35.465560115883584
20
-40.586165680421516
42
-0.26924665224888755
10
35.415140322309753
20
-40.673009235914932
0
LWPOLYLINE
5
104
100
AcDbEntity
8
0
100
AcDbPolyline
90
38
70
1
43
0.0
10
-15.255072112580752
20
-64.464454328591643
42
0.10948638289874363
10
-15.212821545394309
20
-64.473818300587183
10
27.916021545394297
20
-64.473818300587183
42
0.10948638289860123
10
27.958272112580744
20
-64.464454328591643
10
50.676352269619109
20
-53.874275200541661
42
0.25865071816512181
10
50.733356317596794
20
-53.795826106877712
10
52.280854615164131
20
-41.192463874788494
42
0.030552763298581902
10
52.28159999999999
20
-41.180276940447982
10
52.28159999999999
20
-7.266466964906888
42
0.030878929074415421
10
52.28083864599823
20
-7.2541506691798467
10
51.978965809860959
20
-4.8218080082170376
42
0.22026642168351138
10
51.934538105407654
20
-4.7504836398687758
10
51.176526703216815
20
-4.2537477624673459
10
50.726599999999998
20
-4.2537477624673459
10
50.726599999999991
20
-5.8512238671083159
10
47.726599999999991
20
-5.851223867108315
10
47.726599999999991
20
14.817755809204435
10
23.204520231767184
20
22.998739419382012
10
23.204520231767184
20
11.162439324601866
10
20.204520231767184
20
11.162439324601866
10
20.204520231767184
20
22.998439324601769
10
-7.5013202317671901
20
22.998439324601772
10
-7.5013202317671901
20
11.162439324601866
10
-10.501320231767188
20
11.162439324601866
10
-10.501320231767188
20
22.998739419382012
10
-35.023399999999995
20
14.81775580920444
10
-35.023399999999995
20
-5.851223867108315
10
-38.023400000000002
20
-5.8512238671083159
10
-38.023400000000002
20
-4.2537477624673459
10
-38.473326703216827
20
-4.253747762467345
10
-39.231338105407652
20
-4.7504836398687775
42
0.22026642168357607
10
-39.275765809860957
20
-4.8218080082170376
10
-39.577638645998235
20
-7.2541506691798476
42
0.030878929074557759
10
-39.578400000000002
20
-7.266466964906888
10
-39.578400000000002
20
-41.180276940447982
42
0.030552763298772937
10
-39.577654615164128
20
-41.192463874788494
10
-38.030156317596798
20
-53.795826106877712
42
0.25865071816502833
10
-37.973152269619121
20
-53.874275200541661
0
LWPOLYLINE
5
105
100
AcDbEntity
8
0
100
AcDbPolyline
90
18
70
1
43
0.0
10
-16.992467098771119
20
-0.57268561183227096
42
0.076427090621637023
10
-17.021838662505143
20
-0.5804999760159244
10
-22.702458090064933
20
-3.0669597861289324
42
0.29792556835799427
10
-22.762360115883595
20
-3.1585684782195411
10
-22.762360115883592
20
-40.586165680421516
42
0.26924665224889932
10
-22.711940322309758
20
-40.673009235914947
10
-10.501320231767188
20
-47.644223867108337
10
23.204520231767184
20
-47.644223867108337
10
35.415140322309753
20
-40.673009235914947
42
0.26924665224883565
10
35.465560115883591
20
-40.586165680421516
10
35.465560115883584
20
-3.1585684782195411
42
0.29792556835797862
10
35.405658090064932
20
-3.0669597861289306
10
29.725038662505135
20
-0.58049997601592573
42
0.076427090621656452
10
29.695667098771111
20
-0.5726856118322704
10
23.204520231767187
20
0.12762182367067387
10
23.204520231767184
20
0.16243932460184185
10
-10.501320231767188
20
0.16243932460184185
10
-10.50132023176719
20
0.12762182367067387
0
LWPOLYLINE
5
106
100
AcDbEntity
8
0
100
AcDbPolyline
90
4
70
1
43
0.0
10
-35.023399999999995
20
-17.644223867108323
10
-38.023399999999995
20
-17.644223867108323
10
-38.023399999999995
20
-38.644223867108323
10
-35.023399999999995
20
-38.644223867108323
0
LWPOLYLINE
5
107
100
AcDbEntity
8
0
100
AcDbPolyline
90
4
70
1
43
0.0
10
47.726599999999991
20
-17.644223867108323
10
47.726599999999991
20
-38.644223867108323
10
50.726599999999991
20
-38.644223867108323
10
50.726599999999991
20
-17.644223867108323
0
ENDSEC
0
SECTION
2
OBJECTS
0
DICTIONARY
5
C
100
AcDbDictionary
3
ACAD_GROUP
350
D
3
ACAD_MLINESTYLE
350
17
0
DICTIONARY
5
D
100
AcDbDictionary
0
DICTIONARY
5
1A
330
C
100
AcDbDictionary
0
DICTIONARY
5
17
100
AcDbDictionary
0
ENDSEC
0
EOF
