M48
; DRILL file {KiCad 8.0.6} date 2024-12-30T15:48:23-0800
; FORMAT={-:-/ absolute / metric / decimal}
; #@! TF.CreationDate,2024-12-30T15:48:23-08:00
; #@! TF.GenerationSoftware,Kicad,Pcbnew,8.0.6
; #@! TF.FileFunction,Plated,1,4,PTH
FMAT,2
METRIC
; #@! TA.AperFunction,Plated,PTH,ViaDrill
T1C0.150
; #@! TA.AperFunction,Plated,PTH,ViaDrill
T2C0.200
; #@! TA.AperFunction,Plated,PTH,ComponentDrill
T3C0.600
; #@! TA.AperFunction,Plated,PTH,ComponentDrill
T4C0.650
; #@! TA.AperFunction,Plated,PTH,ComponentDrill
T5C0.762
; #@! TA.AperFunction,Plated,PTH,ComponentDrill
T6C0.900
; #@! TA.AperFunction,Plated,PTH,ComponentDrill
T7C1.000
%
G90
G05
T1
X28.957Y-129.186
X28.971Y-111.584
X29.302Y-77.32
X29.331Y-127.988
X29.355Y-93.258
X29.365Y-99.108
X29.403Y-84.358
X29.403Y-85.628
X29.403Y-81.818
X29.403Y-88.165
X29.403Y-91.978
X29.403Y-89.438
X29.403Y-86.898
X29.403Y-83.088
X29.403Y-90.708
X29.555Y-97.108
X29.556Y-77.828
X29.776Y-123.226
X29.81Y-78.209
X29.86Y-94.889
X29.951Y-84.475
X30.173Y-77.624
X30.191Y-77.193
X30.325Y-97.774
X30.368Y-143.19
X30.461Y-128.077
X30.463Y-138.345
X30.489Y-130.928
X30.495Y-146.222
X30.514Y-116.552
X30.54Y-139.107
X30.572Y-82.4
X30.572Y-141.117
X30.599Y-95.836
X30.714Y-111.092
X30.749Y-107.894
X30.768Y-122.318
X30.77Y-120.572
X30.794Y-113.326
X30.808Y-137.507
X30.9Y-77.521
X31.022Y-117.695
X31.022Y-118.482
X31.08Y-82.654
X31.098Y-117.136
X31.124Y-119.168
X31.181Y-115.209
X31.283Y-94.483
X31.332Y-134.44
X31.378Y-121.378
X31.383Y-79.03
X31.454Y-132.249
X31.461Y-115.971
X31.486Y-114.523
X31.554Y-107.427
X31.588Y-81.765
X31.588Y-82.273
X31.609Y-146.228
X31.737Y-142.349
X31.74Y-109.469
X31.751Y-96.552
X31.954Y-77.284
X31.969Y-81.384
X32.059Y-94.544
X32.087Y-134.478
X32.096Y-80.876
X32.096Y-99.004
X32.096Y-99.893
X32.194Y-94.993
X32.197Y-96.362
X32.289Y-114.183
X32.314Y-117.028
X32.341Y-134.942
X32.435Y-81.257
X32.443Y-149.871
X32.477Y-78.15
X32.482Y-144.82
X32.502Y-91.308
X32.546Y-77.411
X32.562Y-108.494
X32.578Y-76.245
X32.578Y-149.093
X32.747Y-148.169
X32.831Y-117.068
X32.832Y-91.536
X32.84Y-99.627
X32.959Y-107.056
X33.019Y-132.071
X33.079Y-137.317
X33.168Y-106.579
X33.213Y-77.363
X33.346Y-84.632
X33.386Y-99.861
X33.391Y-145.41
X33.583Y-146.89
X33.62Y-84.305
X33.637Y-115.035
X33.661Y-101.337
X33.744Y-84.802
X33.747Y-72.875
X33.874Y-85.321
X33.887Y-133.773
X33.922Y-74.351
X33.926Y-75.279
X33.95Y-102.484
X33.959Y-138.246
X34.153Y-80.716
X34.191Y-73.573
X34.229Y-83.916
X34.255Y-84.94
X34.321Y-73.129
X34.321Y-74.018
X34.321Y-74.526
X34.449Y-81.005
X34.5Y-124.369
X34.737Y-72.334
X34.763Y-77.947
X34.797Y-131.946
X34.854Y-114.259
X34.983Y-104.151
X35.008Y-102.687
X35.008Y-149.421
X35.009Y-80.193
X35.017Y-107.335
X35.059Y-151.572
X35.084Y-146.873
X35.093Y-96.819
X35.16Y-105.141
X35.339Y-80.824
X35.498Y-121.645
X35.538Y-117.167
X35.551Y-114.323
X35.619Y-134.461
X35.728Y-107.513
X35.855Y-74.544
X35.88Y-79.776
X36.134Y-73.197
X36.202Y-152.817
X36.27Y-140.43
X36.278Y-144.74
X36.305Y-135.399
X36.316Y-80.405
X36.318Y-80.864
X36.329Y-136.485
X36.345Y-121.937
X36.354Y-134.148
X36.357Y-131.941
X36.374Y-133.545
X36.507Y-99.68
X36.566Y-101.01
X36.617Y-149.626
X37.176Y-75.796
X37.259Y-117.104
X37.372Y-100.474
X37.531Y-73.578
X37.531Y-147.289
X37.741Y-76.201
X37.811Y-75.669
X37.954Y-108.443
X38.039Y-73.172
X38.109Y-122.243
X38.131Y-117.13
X38.192Y-75.288
X38.573Y-74.907
X38.613Y-100.107
X38.666Y-147.458
X38.7Y-74.36
X38.795Y-107.814
X38.839Y-113.961
X38.85Y-136.896
X39.021Y-106.97
X39.047Y-104.252
X39.055Y-101.01
X39.085Y-115.338
X39.102Y-111.226
X39.115Y-132.124
X39.155Y-115.758
X39.208Y-74.78
X39.235Y-129.279
X39.284Y-89.542
X39.284Y-149.721
X39.301Y-147.381
X39.749Y-134.8
X39.749Y-137.306
X39.893Y-108.443
X39.97Y-73.172
X40.173Y-148.204
X40.376Y-108.708
X40.605Y-77.193
X40.681Y-78.43
X40.792Y-100.878
X40.827Y-104.03
X40.935Y-142.133
X40.993Y-77.01
X41.177Y-77.386
X41.189Y-123.429
X41.258Y-144.514
X41.309Y-146.703
X41.367Y-77.955
X41.443Y-129.331
X41.477Y-135.883
X41.587Y-82.789
X41.614Y-106.589
X41.627Y-101.571
X41.748Y-77.574
X41.866Y-118.984
X41.973Y-73.302
X42.078Y-111.577
X42.1Y-139.945
X42.289Y-134.613
X42.298Y-121.702
X42.357Y-137.365
X42.398Y-83.873
X42.408Y-131.752
X42.532Y-119.67
X42.56Y-108.58
X42.762Y-86.623
X42.84Y-99.867
X42.865Y-94.483
X43.069Y-78.019
X43.094Y-77.515
X43.104Y-76.985
X43.123Y-76.47
X43.255Y-134.334
X43.353Y-124.729
X43.45Y-77.276
X43.464Y-76.746
X43.468Y-109.491
X43.475Y-76.235
X43.475Y-96.21
X43.577Y-77.78
X43.627Y-101.569
X43.737Y-112.541
X43.754Y-142.463
X43.754Y-73.147
X43.754Y-85.371
X43.754Y-152.656
X43.881Y-89.631
X44.201Y-118.247
X44.262Y-87.556
X44.29Y-152.403
X44.47Y-112.592
X44.516Y-88.996
X44.802Y-117.246
X44.829Y-132.445
X44.829Y-137.382
X44.889Y-119.358
X44.939Y-106.335
X44.992Y-104.012
X45.024Y-90.906
X45.065Y-122.038
X45.438Y-90.832
X45.604Y-139.776
X45.685Y-73.121
X45.729Y-114.098
X45.729Y-116.622
X45.729Y-117.094
X45.729Y-119.663
X45.729Y-121.728
X45.764Y-137.33
X45.837Y-90.952
X46.113Y-80.263
X46.235Y-108.265
X46.32Y-76.144
X46.413Y-120.254
X46.437Y-115.428
X46.454Y-115.024
X46.487Y-117.122
X46.506Y-131.462
X46.582Y-139.516
X46.72Y-132.674
X46.887Y-136.29
X46.904Y-144.241
X46.971Y-81.503
X47.209Y-78.303
X47.386Y-93.213
X47.59Y-145.359
X47.996Y-146.705
X48.071Y-91.686
X48.199Y-108.199
X48.199Y-92.146
X48.269Y-119.009
X48.269Y-121.937
X48.301Y-75.864
X48.305Y-99.732
X48.319Y-134.613
X48.368Y-124.42
X48.394Y-142.225
X48.509Y-85.462
X48.58Y-92.293
X48.682Y-73.814
X48.751Y-75.836
X48.877Y-152.207
X48.98Y-76.174
X48.987Y-99.791
X49.005Y-139.742
X49.028Y-121.672
X49.082Y-133.164
X49.164Y-74.195
X49.359Y-101.636
X49.364Y-139.001
X49.368Y-75.319
X49.461Y-96.043
X49.514Y-96.623
X49.74Y-101.259
X49.743Y-99.298
X49.746Y-94.076
X49.805Y-146.128
X49.865Y-78.014
X49.94Y-91.766
X49.942Y-116.596
X50.028Y-92.476
X50.028Y-150.312
X50.062Y-131.716
X50.096Y-81.418
X50.307Y-79.624
X50.442Y-101.643
X50.465Y-99.656
X50.635Y-80.545
X50.765Y-81.381
X50.859Y-134.679
X50.955Y-108.908
X51.12Y-85.262
X51.146Y-146.128
X51.275Y-80.668
X51.369Y-97.652
X51.4Y-72.667
X51.4Y-74.606
X51.4Y-96.325
X51.4Y-94.388
X51.569Y-86.675
X51.636Y-131.868
X51.637Y-120.745
X51.645Y-89.444
X51.647Y-80.433
X51.647Y-134.002
X51.747Y-138.11
X51.749Y-114.037
X51.75Y-116.875
X51.75Y-117.771
X51.774Y-115.815
X51.789Y-134.791
X51.8Y-120.051
X51.815Y-136.696
X51.874Y-106.894
X51.984Y-88.717
X52.009Y-99.31
X52.379Y-101.708
X52.382Y-132.294
X52.449Y-136.999
X52.507Y-121.676
X52.517Y-101.163
X52.595Y-99.842
X52.595Y-105.065
X52.685Y-114.488
X52.746Y-79.37
X52.855Y-119.197
X53.298Y-104.106
X53.31Y-100.383
X53.399Y-134.903
X53.581Y-80.984
X53.787Y-82.906
X53.847Y-137.992
X53.863Y-75.788
X53.923Y-135.706
X53.933Y-152.403
X53.94Y-94.388
X53.94Y-96.327
X53.965Y-72.667
X53.965Y-74.606
X53.99Y-97.316
X53.997Y-112.357
X54.071Y-136.798
X54.143Y-81.249
X54.238Y-144.17
X54.252Y-106.748
X54.263Y-145.487
X54.27Y-107.222
X54.397Y-129.331
X54.498Y-111.602
X54.517Y-108.627
X54.549Y-81.351
X54.553Y-115.73
X54.575Y-98.167
X55.032Y-88.945
X55.125Y-104.201
X55.127Y-108.246
X55.133Y-81.325
X55.642Y-81.351
X55.667Y-79.954
X55.667Y-83.688
X55.845Y-100.815
X55.87Y-81.833
X55.939Y-137.013
X56.099Y-82.849
X56.149Y-79.962
X56.276Y-81.071
X56.291Y-82.291
X56.355Y-152.688
X56.48Y-72.653
X56.48Y-74.592
X56.48Y-94.388
X56.48Y-96.327
X56.48Y-97.15
X56.503Y-108.729
X56.647Y-113.412
X56.666Y-142.691
X56.708Y-124.683
X56.745Y-131.166
X56.869Y-138.296
X56.89Y-115.75
X56.903Y-118.908
X56.94Y-139.102
X56.981Y-121.302
X56.988Y-116.465
X57.654Y-137.076
X57.673Y-76.576
X57.75Y-104.058
X57.775Y-97.327
X57.826Y-145.283
X57.904Y-121.568
X58.094Y-114.292
X58.094Y-119.117
X58.106Y-80.201
X58.453Y-104.26
X58.461Y-83.434
X58.461Y-89.123
X58.479Y-132.518
X58.702Y-122.252
X58.746Y-146.077
X58.775Y-81.767
X58.937Y-101.459
X59.013Y-133.064
X59.02Y-72.621
X59.02Y-74.592
X59.02Y-94.388
X59.02Y-96.327
X59.089Y-108.399
X59.181Y-134.258
X59.195Y-137.763
X59.299Y-75.761
X59.338Y-121.132
X59.383Y-108.114
X59.416Y-118.12
X59.435Y-132.48
X59.441Y-115.123
X59.486Y-112.566
X59.511Y-130.981
X59.925Y-142.056
X60.163Y-76.423
X60.178Y-122.159
X60.233Y-107.662
X60.256Y-147.813
X60.315Y-140.076
X60.359Y-99.737
X60.433Y-150.292
X61.229Y-80.157
X61.553Y-98.167
X61.56Y-72.621
X61.56Y-94.388
X61.56Y-96.327
X61.563Y-74.592
X61.761Y-117.053
X61.761Y-118.217
X61.761Y-119.081
X61.772Y-136.163
X61.797Y-131.473
X61.956Y-115.453
X61.956Y-122.126
X61.958Y-135.104
X61.981Y-113.599
X61.985Y-144.811
X62.017Y-76.499
X62.626Y-132.088
X62.762Y-140.125
X62.779Y-77.475
X63.084Y-121.937
X63.236Y-80.081
X63.439Y-97.073
X63.71Y-99.274
X63.71Y-103.973
X63.957Y-97.337
X64.015Y-98.207
X64.066Y-81.138
X64.1Y-72.621
X64.1Y-74.592
X64.1Y-94.388
X64.1Y-96.327
X64.141Y-117.841
X64.184Y-122.035
X64.22Y-145.822
X64.245Y-141.521
X64.261Y-136.722
X64.262Y-113.98
X64.296Y-123.791
X64.307Y-131.883
X64.464Y-140.033
X64.472Y-152.055
X64.557Y-76.311
X64.76Y-90.571
X64.86Y-108.418
X65.137Y-117.174
X65.155Y-134.498
X65.185Y-104.152
X65.192Y-77.363
X65.192Y-83.797
X65.213Y-139.69
X65.243Y-76.398
X65.283Y-121.803
X65.473Y-104.961
X65.564Y-105.573
X65.569Y-99.06
X65.624Y-90.571
X66.049Y-116.505
X66.049Y-116.958
X66.049Y-119.763
X66.049Y-122.16
X66.099Y-134.574
X66.099Y-139.829
X66.227Y-99.458
X66.538Y-81.097
X66.64Y-72.621
X66.64Y-94.388
X66.64Y-96.327
X66.641Y-74.592
X66.658Y-144.811
X66.668Y-107.673
X66.792Y-109.037
X66.801Y-135.096
X66.811Y-146.128
X66.833Y-118.899
X66.841Y-133.242
X66.866Y-131.208
X66.866Y-139.822
X66.906Y-135.984
X67.029Y-137.763
X67.046Y-151.933
X67.079Y-115.296
X67.125Y-106.957
X67.148Y-109.316
X67.243Y-145.119
X67.547Y-99.229
X67.573Y-108.037
X67.91Y-77.439
X68.079Y-105.04
X68.145Y-98.518
X68.157Y-108.983
X68.36Y-122.153
X68.875Y-111.424
X68.971Y-108.322
X69.046Y-99.325
X69.154Y-129.255
X69.179Y-74.592
X69.18Y-72.621
X69.18Y-80.995
X69.18Y-94.388
X69.18Y-96.327
X69.255Y-82.486
X69.278Y-117.733
X69.351Y-101.237
X69.351Y-144.532
X69.358Y-130.932
X69.392Y-136.696
X69.399Y-100.363
X69.414Y-113.072
X69.416Y-118.188
X69.449Y-134.267
X69.544Y-139.158
X69.569Y-138.246
X69.764Y-124.759
X69.781Y-142.565
X69.984Y-104.278
X70.011Y-108.703
X70.087Y-98.167
X70.166Y-83.147
X70.246Y-77.261
X70.255Y-100.849
X70.653Y-148.204
X70.672Y-98.578
X70.721Y-104.024
X71.065Y-101.678
X71.129Y-108.5
X71.339Y-97.265
X71.366Y-116.857
X71.457Y-108.088
X71.618Y-130.195
X71.64Y-135.027
X71.713Y-147.449
X71.72Y-72.621
X71.72Y-94.388
X71.72Y-96.327
X71.723Y-74.592
X71.821Y-81.071
X72.025Y-106.569
X72.084Y-132.686
X72.116Y-120.609
X72.12Y-136.704
X72.12Y-137.763
X72.135Y-117.621
X72.141Y-118.908
X72.218Y-121.143
X72.27Y-107.224
X72.397Y-104.293
X72.48Y-108.628
X72.525Y-101.688
X72.755Y-114.151
X72.77Y-134.916
X72.775Y-131.742
X72.787Y-84.094
X72.795Y-134.309
X72.795Y-137.001
X72.819Y-114.681
X72.819Y-117.188
X72.819Y-119.754
X73.26Y-108.011
X73.294Y-100.396
X73.691Y-117.173
X73.72Y-114.331
X73.866Y-80.068
X73.883Y-98.286
X74.141Y-135.027
X74.169Y-114.939
X74.169Y-132.847
X74.202Y-107.103
X74.26Y-72.621
X74.26Y-74.592
X74.26Y-94.388
X74.26Y-96.327
X74.406Y-136.011
X74.412Y-97.835
X74.467Y-101.532
X74.488Y-89.631
X74.632Y-142.056
X74.659Y-98.49
X74.71Y-136.694
X74.843Y-104.182
X74.921Y-100.017
X75.164Y-117.111
X75.164Y-124.801
X75.167Y-121.609
X75.309Y-131.692
X75.371Y-106.519
X75.403Y-100.815
X75.648Y-103.439
X75.826Y-99.629
X75.877Y-150.125
X75.955Y-98.006
X76.096Y-122.246
X76.123Y-114.293
X76.148Y-116.833
X76.259Y-131.748
X76.259Y-137.026
X76.647Y-89.047
X76.698Y-89.631
X76.738Y-144.913
X76.793Y-108.856
X76.8Y-72.653
X76.8Y-94.388
X76.8Y-96.327
X76.803Y-74.592
X76.977Y-90.012
X77.034Y-80.126
X77.123Y-140.363
X77.236Y-121.76
X77.24Y-122.526
X77.469Y-113.43
X77.504Y-145.468
X77.562Y-89.199
X77.626Y-101.151
X77.739Y-79.381
X77.849Y-131.938
X77.849Y-134.572
X77.858Y-139.38
X78.451Y-87.675
X78.451Y-89.59
X78.451Y-83.434
X78.465Y-81.557
X78.603Y-107.945
X78.719Y-85.575
X78.785Y-106.708
X78.79Y-117.138
X78.798Y-147.78
X79.247Y-120.237
X79.34Y-72.621
X79.34Y-74.592
X79.34Y-81.414
X79.34Y-94.388
X79.34Y-96.327
X79.384Y-139.395
X79.49Y-138.167
X79.545Y-116.643
X79.67Y-83.611
X79.75Y-133.545
X79.758Y-122.526
X79.78Y-118.891
X79.825Y-86.138
X80.025Y-87.701
X80.07Y-88.107
X80.153Y-145.867
X80.164Y-101.289
X80.233Y-88.536
X80.233Y-89.18
X80.26Y-86.393
X80.279Y-141.955
X80.389Y-134.504
X80.39Y-117.164
X80.439Y-121.837
X80.457Y-86.038
X80.754Y-151.979
X80.838Y-149.855
X80.863Y-86.04
X80.864Y-98.236
X80.951Y-83.51
X81.265Y-88.615
X81.289Y-116.529
X81.357Y-81.831
X81.524Y-97.175
X81.744Y-106.716
X81.797Y-145.468
X81.88Y-74.592
X81.88Y-72.621
X81.88Y-94.388
X81.88Y-96.327
X82.0Y-140.363
X82.041Y-115.767
X82.203Y-146.98
X82.233Y-131.173
X82.239Y-111.225
X82.32Y-124.911
X82.32Y-129.382
X82.61Y-81.602
X82.769Y-78.785
X83.023Y-76.068
X83.108Y-119.052
X83.277Y-89.707
X83.293Y-107.986
X83.316Y-105.086
X83.404Y-103.282
X83.556Y-87.421
X83.649Y-134.326
X83.785Y-81.884
X83.829Y-84.227
X83.835Y-82.468
X83.904Y-142.617
X83.937Y-83.129
X83.942Y-100.378
X83.956Y-84.7
X84.413Y-89.704
X84.42Y-72.653
X84.42Y-74.592
X84.42Y-88.459
X84.42Y-94.388
X84.42Y-96.327
X84.438Y-122.777
X84.445Y-144.557
X84.547Y-112.796
X84.671Y-139.109
X84.674Y-100.815
X84.704Y-109.226
X84.718Y-131.259
X84.835Y-138.345
X84.911Y-121.202
X84.944Y-106.97
X85.08Y-130.398
X85.08Y-152.403
X85.097Y-142.056
X85.305Y-87.767
X85.376Y-80.732
X85.444Y-119.704
X85.47Y-122.142
X85.492Y-84.99
X85.673Y-139.395
X85.698Y-114.558
X85.725Y-79.218
X85.766Y-88.361
X85.944Y-101.028
X86.086Y-132.54
X86.096Y-109.189
X86.172Y-126.653
X86.232Y-119.45
X86.234Y-119.043
X86.318Y-152.603
X86.445Y-100.245
X86.597Y-101.132
X86.877Y-127.212
X86.96Y-72.621
X86.96Y-94.388
X86.96Y-96.327
X86.963Y-74.592
X86.977Y-106.386
X86.977Y-107.554
X86.978Y-81.17
X87.004Y-147.134
X87.057Y-76.107
X87.099Y-113.406
X87.105Y-89.653
X87.129Y-119.086
X87.129Y-120.381
X87.301Y-133.655
X87.307Y-134.681
X87.332Y-135.977
X87.349Y-133.216
X87.375Y-114.977
X87.375Y-132.714
X87.476Y-118.51
X87.595Y-80.538
X87.636Y-113.417
X87.64Y-109.364
X87.764Y-104.227
X87.973Y-100.972
X87.992Y-121.727
X88.136Y-122.262
X88.215Y-80.048
X88.397Y-76.556
X88.484Y-89.403
X88.509Y-99.918
X88.687Y-77.82
X88.725Y-79.688
X88.782Y-81.83
X89.11Y-142.056
X89.175Y-85.598
X89.242Y-89.404
X89.271Y-90.266
X89.348Y-77.507
X89.389Y-124.826
X89.417Y-73.575
X89.466Y-97.597
X89.516Y-95.946
X89.585Y-114.102
X89.661Y-113.43
X89.745Y-106.64
X89.751Y-132.581
X89.763Y-131.808
X89.847Y-91.806
X89.872Y-85.685
X89.881Y-79.301
X89.994Y-92.236
X90.008Y-79.86
X90.101Y-94.829
X90.109Y-77.744
X90.14Y-100.268
X90.151Y-147.077
X90.229Y-134.605
X90.532Y-136.967
X90.532Y-149.693
X90.546Y-119.513
X90.55Y-114.52
X90.643Y-77.363
X90.705Y-79.628
X90.712Y-100.082
X90.736Y-152.157
X90.855Y-90.459
X90.897Y-97.132
X90.998Y-103.474
X91.014Y-91.295
X91.024Y-92.908
X91.135Y-80.878
X91.243Y-117.286
X91.472Y-116.432
X91.506Y-139.872
X91.515Y-136.976
X91.557Y-144.775
X91.576Y-93.463
X91.837Y-77.363
X91.96Y-93.159
X92.099Y-122.65
X92.201Y-136.228
X92.226Y-138.474
X92.249Y-139.555
X92.294Y-73.897
X92.297Y-138.926
X92.443Y-133.225
X92.49Y-93.819
X92.624Y-82.519
X92.675Y-83.289
X92.929Y-89.106
X92.996Y-85.736
X93.089Y-134.495
X93.139Y-116.857
X93.157Y-75.661
X93.365Y-139.888
X93.403Y-82.256
X93.412Y-137.539
X93.428Y-109.002
X93.564Y-73.897
X93.574Y-81.084
X93.818Y-86.693
X93.928Y-122.165
X93.963Y-137.177
X94.004Y-119.196
X94.032Y-76.682
X94.129Y-116.774
X94.167Y-82.694
X94.3Y-104.719
X94.431Y-89.744
X94.511Y-78.914
X94.58Y-85.702
X94.58Y-86.968
X94.681Y-100.762
X94.766Y-136.823
X94.827Y-78.274
X94.834Y-73.897
X94.834Y-81.097
X94.842Y-111.017
X94.941Y-85.167
X94.952Y-83.678
X95.149Y-145.542
X95.46Y-78.37
X95.498Y-86.693
X95.519Y-119.678
X95.596Y-81.452
X95.714Y-92.111
X95.79Y-103.211
X95.943Y-85.507
X96.021Y-89.933
X96.078Y-78.328
X96.146Y-73.899
X96.217Y-82.021
X96.231Y-102.255
X96.459Y-98.609
X96.485Y-92.339
X96.58Y-78.808
X96.589Y-129.396
X96.882Y-95.642
X96.933Y-107.148
X96.946Y-79.223
X97.268Y-122.817
X97.374Y-124.709
X97.374Y-142.512
X97.45Y-129.204
X97.616Y-87.81
X97.634Y-99.262
X97.646Y-93.133
X97.697Y-91.812
X97.773Y-90.695
X97.773Y-91.177
X98.228Y-91.032
X98.237Y-85.415
X98.237Y-124.099
X98.33Y-103.211
X98.635Y-105.446
X98.861Y-83.828
X98.945Y-85.18
X98.974Y-79.625
X99.043Y-122.115
X99.119Y-134.893
X99.119Y-136.95
X99.355Y-99.287
X99.406Y-80.876
X99.406Y-82.4
X99.602Y-138.017
X99.609Y-144.343
X99.618Y-120.313
X99.74Y-85.586
X99.755Y-133.037
X99.791Y-132.505
X99.795Y-135.807
X99.806Y-121.835
X99.821Y-116.825
X99.846Y-114.573
X99.897Y-113.43
X99.988Y-77.886
X100.041Y-83.035
X100.059Y-90.825
X100.105Y-134.537
X100.176Y-133.623
X100.202Y-121.075
X100.278Y-115.995
X100.389Y-119.492
X100.549Y-91.104
X100.599Y-144.978
X100.676Y-83.797
X100.701Y-147.264
X100.709Y-134.436
X100.853Y-102.39
X100.913Y-121.812
X100.98Y-90.368
X101.082Y-146.984
X101.184Y-82.019
X101.355Y-89.526
X101.361Y-102.357
X101.404Y-101.687
X101.454Y-103.211
X101.768Y-100.325
X101.971Y-147.34
X102.015Y-127.474
X102.041Y-89.425
X102.041Y-101.795
X102.354Y-131.261
X102.361Y-132.683
X102.369Y-142.056
X102.371Y-114.952
X102.396Y-116.084
X102.422Y-101.337
X102.422Y-115.612
X102.426Y-134.232
X102.447Y-113.504
X102.581Y-82.577
X102.904Y-89.095
X102.904Y-100.88
X103.387Y-74.972
X103.402Y-134.461
X103.69Y-103.211
X103.867Y-150.302
X103.995Y-102.931
X104.096Y-100.244
X104.139Y-121.913
X104.299Y-108.85
X104.477Y-147.61
X104.486Y-75.796
X104.486Y-98.394
X104.584Y-82.503
X104.808Y-135.426
X104.885Y-145.792
X104.885Y-139.361
X104.934Y-108.392
X104.994Y-145.232
X105.206Y-113.608
X105.222Y-95.016
X105.493Y-117.105
X105.552Y-96.286
X105.623Y-119.551
X105.679Y-144.978
X105.756Y-139.695
X105.789Y-132.124
X105.789Y-134.311
X105.899Y-105.344
X105.95Y-103.211
X105.95Y-106.614
X105.984Y-116.664
X106.026Y-151.953
X106.077Y-150.15
X106.391Y-77.34
X106.73Y-116.656
X106.769Y-144.848
X106.776Y-139.506
X106.848Y-145.638
X106.848Y-119.391
X106.947Y-134.624
X107.243Y-144.749
X107.273Y-132.962
X107.407Y-107.894
X107.425Y-97.756
X107.474Y-138.11
X107.492Y-136.442
X107.542Y-116.986
X107.542Y-119.653
X107.567Y-132.275
X107.642Y-146.335
X107.644Y-113.709
X107.661Y-89.911
X107.665Y-79.335
X107.679Y-134.307
X107.679Y-139.996
X107.756Y-114.215
X107.806Y-133.545
X107.855Y-111.339
X108.05Y-114.852
X108.086Y-78.122
X108.097Y-131.899
X108.259Y-90.784
X108.467Y-98.34
X108.518Y-77.995
X108.568Y-146.727
X108.6Y-78.709
X108.617Y-149.921
X108.623Y-90.293
X108.662Y-132.767
X108.908Y-90.009
X108.942Y-131.284
X109.083Y-143.479
X109.134Y-92.374
X109.261Y-110.485
X109.36Y-115.697
X109.413Y-88.168
X109.413Y-86.898
X109.413Y-84.358
X109.413Y-85.628
X109.413Y-90.708
X109.413Y-89.438
X109.413Y-83.088
X109.786Y-107.351
X109.867Y-124.564
X109.867Y-128.662
X109.867Y-142.344
X109.954Y-143.301
T2
X35.668Y-85.464
X36.16Y-85.956
X36.176Y-84.956
X36.668Y-85.448
X37.176Y-82.908
X37.176Y-83.416
X37.455Y-83.815
X37.684Y-83.416
X37.709Y-82.849
X39.335Y-81.433
X39.843Y-81.433
X40.351Y-81.433
X40.351Y-81.892
X41.391Y-80.121
X42.076Y-80.442
X42.396Y-80.122
X58.461Y-86.228
X60.184Y-82.037
X60.816Y-86.573
X61.011Y-85.371
X61.423Y-87.651
X62.982Y-89.331
X65.09Y-86.456
X68.341Y-87.142
X70.246Y-87.64
X71.629Y-83.66
X74.234Y-82.011
X75.504Y-82.138
X76.584Y-87.409
X83.937Y-75.966
X96.289Y-86.941
X97.282Y-97.132
X97.399Y-97.962
X97.769Y-97.422
X98.489Y-98.021
X98.564Y-97.089
X98.669Y-94.61
X98.735Y-93.043
X98.771Y-95.092
X98.923Y-95.549
X99.025Y-92.433
X99.025Y-97.386
X99.323Y-90.669
X99.406Y-92.052
X99.406Y-97.005
X99.649Y-93.957
X100.8Y-98.021
X101.311Y-87.03
X105.07Y-92.328
X105.425Y-91.968
X105.756Y-94.338
X105.781Y-91.663
X105.806Y-95.016
X107.661Y-92.306
X107.661Y-93.449
X107.892Y-91.866
X108.016Y-94.102
X108.042Y-92.56
X108.042Y-95.016
X109.159Y-93.797
T6
X30.064Y-109.247
X30.064Y-144.807
X108.804Y-109.247
X108.804Y-144.807
T7
X51.4Y-77.888
X51.4Y-93.128
X52.67Y-75.973
X53.94Y-77.888
X53.94Y-93.128
X56.48Y-77.888
X56.48Y-93.128
X59.02Y-77.888
X59.02Y-93.128
X61.56Y-77.888
X61.56Y-93.128
X64.1Y-77.888
X64.1Y-93.128
X66.64Y-77.888
X66.64Y-93.128
X69.18Y-77.888
X69.18Y-93.128
X71.72Y-77.888
X71.72Y-93.128
X74.26Y-77.888
X74.26Y-93.128
X76.8Y-77.888
X76.8Y-93.128
X79.34Y-77.888
X79.34Y-93.128
X81.88Y-77.888
X81.88Y-93.128
X82.515Y-83.02
X82.515Y-88.1
X82.769Y-85.56
X84.42Y-77.888
X84.42Y-93.128
X86.96Y-77.888
X86.96Y-93.128
X89.5Y-75.542
T3
G00X34.694Y-110.459
M15
G01X35.594Y-110.459
M16
G05
G00X99.489Y-76.892
M15
G01X100.267Y-76.115
M16
G05
G00X102.622Y-73.76
M15
G01X103.046Y-73.336
M16
G05
G00X105.599Y-83.002
M15
G01X106.376Y-82.224
M16
G05
G00X108.731Y-79.869
M15
G01X109.155Y-79.445
M16
G05
T4
G00X32.204Y-110.459
M15
G01X33.004Y-110.459
M16
G05
G00X32.204Y-125.699
M15
G01X33.004Y-125.699
M16
G05
G00X32.204Y-128.239
M15
G01X33.004Y-128.239
M16
G05
G00X32.204Y-143.479
M15
G01X33.004Y-143.479
M16
G05
G00X34.744Y-125.699
M15
G01X35.544Y-125.699
M16
G05
G00X34.744Y-128.239
M15
G01X35.544Y-128.239
M16
G05
G00X34.744Y-143.479
M15
G01X35.544Y-143.479
M16
G05
G00X37.284Y-110.459
M15
G01X38.084Y-110.459
M16
G05
G00X37.284Y-125.699
M15
G01X38.084Y-125.699
M16
G05
G00X37.284Y-128.239
M15
G01X38.084Y-128.239
M16
G05
G00X37.284Y-143.479
M15
G01X38.084Y-143.479
M16
G05
G00X39.824Y-110.459
M15
G01X40.624Y-110.459
M16
G05
G00X39.824Y-125.699
M15
G01X40.624Y-125.699
M16
G05
G00X39.824Y-128.239
M15
G01X40.624Y-128.239
M16
G05
G00X39.824Y-143.479
M15
G01X40.624Y-143.479
M16
G05
G00X42.364Y-110.459
M15
G01X43.164Y-110.459
M16
G05
G00X42.364Y-125.699
M15
G01X43.164Y-125.699
M16
G05
G00X42.364Y-128.239
M15
G01X43.164Y-128.239
M16
G05
G00X42.364Y-143.479
M15
G01X43.164Y-143.479
M16
G05
G00X44.904Y-110.459
M15
G01X45.704Y-110.459
M16
G05
G00X44.904Y-125.699
M15
G01X45.704Y-125.699
M16
G05
G00X44.904Y-128.239
M15
G01X45.704Y-128.239
M16
G05
G00X44.904Y-143.479
M15
G01X45.704Y-143.479
M16
G05
G00X47.444Y-110.459
M15
G01X48.244Y-110.459
M16
G05
G00X47.444Y-125.699
M15
G01X48.244Y-125.699
M16
G05
G00X47.444Y-128.239
M15
G01X48.244Y-128.239
M16
G05
G00X47.444Y-143.479
M15
G01X48.244Y-143.479
M16
G05
G00X49.984Y-110.459
M15
G01X50.784Y-110.459
M16
G05
G00X49.984Y-125.699
M15
G01X50.784Y-125.699
M16
G05
G00X49.984Y-128.239
M15
G01X50.784Y-128.239
M16
G05
G00X49.984Y-143.479
M15
G01X50.784Y-143.479
M16
G05
G00X52.524Y-110.459
M15
G01X53.324Y-110.459
M16
G05
G00X52.524Y-125.699
M15
G01X53.324Y-125.699
M16
G05
G00X52.524Y-128.239
M15
G01X53.324Y-128.239
M16
G05
G00X52.524Y-143.479
M15
G01X53.324Y-143.479
M16
G05
G00X55.064Y-110.459
M15
G01X55.864Y-110.459
M16
G05
G00X55.064Y-125.699
M15
G01X55.864Y-125.699
M16
G05
G00X55.064Y-128.239
M15
G01X55.864Y-128.239
M16
G05
G00X55.064Y-143.479
M15
G01X55.864Y-143.479
M16
G05
G00X57.604Y-110.459
M15
G01X58.404Y-110.459
M16
G05
G00X57.604Y-125.699
M15
G01X58.404Y-125.699
M16
G05
G00X57.604Y-128.239
M15
G01X58.404Y-128.239
M16
G05
G00X57.604Y-143.479
M15
G01X58.404Y-143.479
M16
G05
G00X60.144Y-110.459
M15
G01X60.944Y-110.459
M16
G05
G00X60.144Y-125.699
M15
G01X60.944Y-125.699
M16
G05
G00X60.144Y-128.239
M15
G01X60.944Y-128.239
M16
G05
G00X60.144Y-143.479
M15
G01X60.944Y-143.479
M16
G05
G00X62.684Y-110.459
M15
G01X63.484Y-110.459
M16
G05
G00X62.684Y-125.699
M15
G01X63.484Y-125.699
M16
G05
G00X62.684Y-128.239
M15
G01X63.484Y-128.239
M16
G05
G00X62.684Y-143.479
M15
G01X63.484Y-143.479
M16
G05
G00X65.224Y-110.459
M15
G01X66.024Y-110.459
M16
G05
G00X65.224Y-125.699
M15
G01X66.024Y-125.699
M16
G05
G00X65.224Y-128.239
M15
G01X66.024Y-128.239
M16
G05
G00X65.224Y-143.479
M15
G01X66.024Y-143.479
M16
G05
G00X67.764Y-110.459
M15
G01X68.564Y-110.459
M16
G05
G00X67.764Y-125.699
M15
G01X68.564Y-125.699
M16
G05
G00X67.764Y-128.239
M15
G01X68.564Y-128.239
M16
G05
G00X67.764Y-143.479
M15
G01X68.564Y-143.479
M16
G05
G00X70.304Y-110.459
M15
G01X71.104Y-110.459
M16
G05
G00X70.304Y-125.699
M15
G01X71.104Y-125.699
M16
G05
G00X70.304Y-128.239
M15
G01X71.104Y-128.239
M16
G05
G00X70.304Y-143.479
M15
G01X71.104Y-143.479
M16
G05
G00X72.844Y-110.459
M15
G01X73.644Y-110.459
M16
G05
G00X72.844Y-125.699
M15
G01X73.644Y-125.699
M16
G05
G00X72.844Y-128.239
M15
G01X73.644Y-128.239
M16
G05
G00X72.844Y-143.479
M15
G01X73.644Y-143.479
M16
G05
G00X75.384Y-110.459
M15
G01X76.184Y-110.459
M16
G05
G00X75.384Y-125.699
M15
G01X76.184Y-125.699
M16
G05
G00X75.384Y-128.239
M15
G01X76.184Y-128.239
M16
G05
G00X75.384Y-143.479
M15
G01X76.184Y-143.479
M16
G05
G00X77.924Y-110.459
M15
G01X78.724Y-110.459
M16
G05
G00X77.924Y-125.699
M15
G01X78.724Y-125.699
M16
G05
G00X77.924Y-128.239
M15
G01X78.724Y-128.239
M16
G05
G00X77.924Y-143.479
M15
G01X78.724Y-143.479
M16
G05
G00X80.464Y-110.459
M15
G01X81.264Y-110.459
M16
G05
G00X80.464Y-125.699
M15
G01X81.264Y-125.699
M16
G05
G00X80.464Y-128.239
M15
G01X81.264Y-128.239
M16
G05
G00X80.464Y-143.479
M15
G01X81.264Y-143.479
M16
G05
G00X83.004Y-110.459
M15
G01X83.804Y-110.459
M16
G05
G00X83.004Y-125.699
M15
G01X83.804Y-125.699
M16
G05
G00X83.004Y-128.239
M15
G01X83.804Y-128.239
M16
G05
G00X83.004Y-143.479
M15
G01X83.804Y-143.479
M16
G05
G00X85.544Y-110.459
M15
G01X86.344Y-110.459
M16
G05
G00X85.544Y-125.699
M15
G01X86.344Y-125.699
M16
G05
G00X85.544Y-128.239
M15
G01X86.344Y-128.239
M16
G05
G00X85.544Y-143.479
M15
G01X86.344Y-143.479
M16
G05
G00X88.084Y-110.459
M15
G01X88.884Y-110.459
M16
G05
G00X88.084Y-125.699
M15
G01X88.884Y-125.699
M16
G05
G00X88.084Y-128.239
M15
G01X88.884Y-128.239
M16
G05
G00X88.084Y-143.479
M15
G01X88.884Y-143.479
M16
G05
G00X90.624Y-110.459
M15
G01X91.424Y-110.459
M16
G05
G00X90.624Y-125.699
M15
G01X91.424Y-125.699
M16
G05
G00X90.624Y-128.239
M15
G01X91.424Y-128.239
M16
G05
G00X90.624Y-143.479
M15
G01X91.424Y-143.479
M16
G05
G00X93.164Y-110.459
M15
G01X93.964Y-110.459
M16
G05
G00X93.164Y-125.699
M15
G01X93.964Y-125.699
M16
G05
G00X93.164Y-128.239
M15
G01X93.964Y-128.239
M16
G05
G00X93.164Y-143.479
M15
G01X93.964Y-143.479
M16
G05
G00X95.704Y-110.459
M15
G01X96.504Y-110.459
M16
G05
G00X95.704Y-125.699
M15
G01X96.504Y-125.699
M16
G05
G00X95.704Y-128.239
M15
G01X96.504Y-128.239
M16
G05
G00X95.704Y-143.479
M15
G01X96.504Y-143.479
M16
G05
G00X98.244Y-110.459
M15
G01X99.044Y-110.459
M16
G05
G00X98.244Y-125.699
M15
G01X99.044Y-125.699
M16
G05
G00X98.244Y-128.239
M15
G01X99.044Y-128.239
M16
G05
G00X98.244Y-143.479
M15
G01X99.044Y-143.479
M16
G05
G00X100.784Y-110.459
M15
G01X101.584Y-110.459
M16
G05
G00X100.784Y-125.699
M15
G01X101.584Y-125.699
M16
G05
G00X100.784Y-128.239
M15
G01X101.584Y-128.239
M16
G05
G00X100.784Y-143.479
M15
G01X101.584Y-143.479
M16
G05
G00X103.324Y-110.459
M15
G01X104.124Y-110.459
M16
G05
G00X103.324Y-125.699
M15
G01X104.124Y-125.699
M16
G05
G00X103.324Y-128.239
M15
G01X104.124Y-128.239
M16
G05
G00X103.324Y-143.479
M15
G01X104.124Y-143.479
M16
G05
G00X105.864Y-110.459
M15
G01X106.664Y-110.459
M16
G05
G00X105.864Y-125.699
M15
G01X106.664Y-125.699
M16
G05
G00X105.864Y-128.239
M15
G01X106.664Y-128.239
M16
G05
G00X105.864Y-143.479
M15
G01X106.664Y-143.479
M16
G05
T5
G00X65.351Y-81.755
M15
G01X65.389Y-81.755
M16
G05
G00X65.351Y-89.375
M15
G01X65.389Y-89.375
M16
G05
G00X67.891Y-81.755
M15
G01X67.929Y-81.755
M16
G05
G00X67.891Y-89.375
M15
G01X67.929Y-89.375
M16
G05
G00X70.431Y-81.755
M15
G01X70.469Y-81.755
M16
G05
G00X70.431Y-89.375
M15
G01X70.469Y-89.375
M16
G05
G00X72.971Y-81.755
M15
G01X73.009Y-81.755
M16
G05
G00X72.971Y-89.375
M15
G01X73.009Y-89.375
M16
G05
T6
G00X31.334Y-102.489
M15
G01X31.334Y-103.189
M16
G05
G00X31.334Y-105.029
M15
G01X31.334Y-105.729
M16
G05
G00X31.334Y-148.209
M15
G01X31.334Y-148.909
M16
G05
G00X31.334Y-150.749
M15
G01X31.334Y-151.449
M16
G05
G00X46.574Y-102.489
M15
G01X46.574Y-103.189
M16
G05
G00X46.574Y-105.029
M15
G01X46.574Y-105.729
M16
G05
G00X46.574Y-148.209
M15
G01X46.574Y-148.909
M16
G05
G00X46.574Y-150.749
M15
G01X46.574Y-151.449
M16
G05
G00X61.814Y-102.489
M15
G01X61.814Y-103.189
M16
G05
G00X61.814Y-105.029
M15
G01X61.814Y-105.729
M16
G05
G00X61.814Y-148.222
M15
G01X61.814Y-148.922
M16
G05
G00X61.814Y-150.749
M15
G01X61.814Y-151.449
M16
G05
G00X77.054Y-102.489
M15
G01X77.054Y-103.189
M16
G05
G00X77.054Y-105.029
M15
G01X77.054Y-105.729
M16
G05
G00X77.054Y-148.209
M15
G01X77.054Y-148.909
M16
G05
G00X77.054Y-150.749
M15
G01X77.054Y-151.449
M16
G05
G00X92.294Y-102.489
M15
G01X92.294Y-103.189
M16
G05
G00X92.294Y-105.029
M15
G01X92.294Y-105.729
M16
G05
G00X92.294Y-148.209
M15
G01X92.294Y-148.909
M16
G05
G00X92.294Y-150.749
M15
G01X92.294Y-151.449
M16
G05
G00X107.534Y-102.489
M15
G01X107.534Y-103.189
M16
G05
G00X107.534Y-105.029
M15
G01X107.534Y-105.729
M16
G05
G00X107.534Y-148.209
M15
G01X107.534Y-148.909
M16
G05
G00X107.534Y-150.749
M15
G01X107.534Y-151.449
M16
G05
M30
