<?xml version="1.0" encoding="UTF-8"?>
<svg xmlns="http://www.w3.org/2000/svg" xmlns:xlink="http://www.w3.org/1999/xlink" viewBox="0 0 1080 180">
  <defs>
    <style>
      .uuid-4f2cb4cd-f040-4541-84f1-e28d338a2f3b {
        fill: #65a5c3;
      }

      .uuid-48b03020-1a0a-4784-9714-fd4dabd91680 {
        filter: url(#uuid-e070ed52-0f97-477d-969b-1228a57b9807);
      }

      .uuid-028d4dce-f1fb-4736-b611-b15cd0083e2b {
        fill: #58bf9b;
      }

      .uuid-d5ee5091-1ced-4c3b-981f-41a5e3831248 {
        fill: #e14c99;
      }

      .uuid-f64905e8-8a9a-4a6f-88ad-7da7d68bf0c0 {
        fill: #9a5fa7;
      }

      .uuid-a11400c0-9f76-4839-bdef-eccc472b0444 {
        fill: #e1e031;
      }

      .uuid-27abe803-0db6-48d6-aefa-3808e27de450 {
        fill: #b6d435;
      }

      .uuid-9a184d79-3d7d-44bc-9404-5f17c38e09f4 {
        filter: url(#uuid-a5569b17-293a-4376-a9e2-2cdb7cc3c847);
      }

      .uuid-660e7964-3671-4294-b612-850d23febab2 {
        fill: #1a1414;
      }

      .uuid-54b5d7a7-e9df-4134-bf6c-92179abb620c {
        fill: #e3255c;
      }

      .uuid-ee75e31a-5db7-4e2b-9806-9024f77de451 {
        fill: #f7bc1a;
      }

      .uuid-9c51ce0c-8ca3-4e78-ac77-aacea07a1e97 {
        fill: #5c69b1;
      }

      .uuid-b1af7889-7e62-4fe4-b6ed-6a12359e8bd3 {
        fill: #ea7249;
      }
    </style>
    <filter id="uuid-a5569b17-293a-4376-a9e2-2cdb7cc3c847" data-name="drop-shadow-1" filterUnits="userSpaceOnUse">
      <feOffset dx="-1" dy="1"/>
      <feGaussianBlur result="uuid-cf4bd575-c584-487a-a6e4-1b48753f91ad" stdDeviation="0"/>
      <feFlood flood-color="#fff" flood-opacity="1"/>
      <feComposite in2="uuid-cf4bd575-c584-487a-a6e4-1b48753f91ad" operator="in"/>
      <feComposite in="SourceGraphic"/>
    </filter>
    <filter id="uuid-e070ed52-0f97-477d-969b-1228a57b9807" data-name="drop-shadow-2" filterUnits="userSpaceOnUse">
      <feOffset dx="-.75" dy=".75"/>
      <feGaussianBlur result="uuid-839d3a4b-dbd4-49f0-aad8-651dca295f5c" stdDeviation="0"/>
      <feFlood flood-color="#fff" flood-opacity="1"/>
      <feComposite in2="uuid-839d3a4b-dbd4-49f0-aad8-651dca295f5c" operator="in"/>
      <feComposite in="SourceGraphic"/>
    </filter>
  </defs>
  <g id="uuid-bc62aa1c-3fce-46de-9438-52344a33b987" data-name="_V5_copy_2_xA0_Image">
    <g class="uuid-9a184d79-3d7d-44bc-9404-5f17c38e09f4">
      <path d="M853.05652,44.86021c-.01982.20985-.0512.39547-.05292.58136-.06252,6.73182-.19641,13.46291-.26081,20.28442.17386-.09311.2808-.13117.3647-.1981,2.54286-2.02831,5.45431-3.24173,8.60323-3.97044,1.7769-.4112,3.56619-.73507,5.37377-.94595,1.35631-.15822,2.72232-.23633,4.08509-.33537,4.11972-.29942,8.24683-.30355,12.37352-.26909,2.01472.01683,4.03043.07217,6.04277.16993,1.5557.07558,3.10698.24311,4.66005.3719,2.10337.17443,4.18861.48241,6.2574.8937,3.22386.64093,6.39118,1.47319,9.38728,2.86453,2.49788,1.15997,4.7888,2.63586,6.79809,4.52284,2.9212,2.74336,4.88262,6.07262,5.94739,9.93053.65167,2.36119,1.10254,4.75963,1.33726,7.20053.39099,4.06657.47664,8.13955.30676,12.21914-.05288,1.2699-.10176,2.54102-.20153,3.80772-.30974,3.93252-.95596,7.80228-2.29192,11.53065-1.09229,3.04835-2.75636,5.74801-5.08016,8.01091-1.99668,1.94437-4.32476,3.40718-6.87766,4.51543-2.0268.87987-4.13367,1.5111-6.27829,2.0298-1.88674.45633-3.7905.82624-5.70946,1.10772-1.35061.19812-2.70998.34188-4.06855.47904-1.45483.14686-2.91225.27227-4.37058.37914-1.12414.08238-2.25109.1296-3.37741.17863-4.53219.19726-9.06731.18929-13.60187.15336-2.4227-.0192-4.84562-.08715-7.267-.1737-1.58139-.05653-3.16243-.15868-4.73963-.28908-2.41216-.19941-4.82178-.4417-7.20898-.84879-2.90556-.4955-5.77886-1.12919-8.56316-2.12287-2.94597-1.05139-5.63506-2.54905-7.95586-4.65249-2.30036-2.08491-4.15485-4.51073-5.36633-7.39364-.58805-1.39934-.9378-2.86834-1.23301-4.34974-.34259-1.71922-.53669-3.45852-.59791-5.21042-.05611-1.60583-.09636-3.21229-.12948-4.81876-.00584-.28349.0357-.573.09365-.85176.14289-.68741.59907-1.07851,1.26857-1.20506.32677-.06177.66812-.06301,1.00289-.06336,3.88708-.00398,7.77416-.00256,11.66124-.00255,1.79957,0,3.59916-.00238,5.39871.00256.2869.00079.57921.00545.85944.05868.70285.13349,1.16415.5447,1.29798,1.26458.06108.32864.10774.66425.11554.99776.03595,1.5358.14572,3.06532.31689,4.59199.17007,1.51678.57146,2.95629,1.28066,4.31509.49313.94482,1.2022,1.66496,2.09799,2.21638,1.09165.67202,2.28595,1.09771,3.518,1.41817,1.11387.28972,2.24925.47335,3.39408.591,1.2875.13233,2.57395.28418,3.86458.37413,1.3636.09506,2.73132.16932,4.09773.17862,3.55091.02414,7.10236.03321,10.65306-.00358,1.72568-.01788,3.45058-.14413,5.17505-.23621,1.00554-.05369,2.01191-.11293,3.01355-.21317,1.09637-.10973,2.19102-.24798,3.28052-.4127,1.58805-.24011,3.15544-.57622,4.66628-1.14008.80944-.30209,1.59603-.65144,2.34501-1.08332.92059-.53082,1.60609-1.27035,2.0616-2.23711.52815-1.12094.79378-2.30786.95046-3.52485.28205-2.1908.41727-4.39216.45207-6.60018.02796-1.77499.08176-3.55.0784-5.32491-.00311-1.65473-.03482-3.31084-.11283-4.96357-.06893-1.46044-.2247-2.91626-.54001-4.34925-.22788-1.0356-.58704-2.02401-1.07041-2.96686-.69828-1.36204-1.72732-2.40924-3.055-3.16163-1.40895-.79844-2.92492-1.31755-4.50633-1.63488-1.99949-.40123-4.02325-.61353-6.05801-.75602-2.80207-.19622-5.60617-.27611-8.41381-.27065-2.44739.00476-4.89532-.01655-7.34201.02821-1.846.03377-3.69078.14675-5.53539.23841-.86188.04283-1.72496.0922-2.58254.18475-2.02378.21842-4.05485.41713-5.98423,1.13041-.55999.20702-1.11152.44524-1.646.7112-1.24559.61983-2.1639,1.57642-2.75825,2.83107-.23533.49677-.44386,1.01006-.61685,1.53166-.27894.84098-.87502,1.2189-1.72014,1.27556-.16727.01122-.33581.0043-.50376.0043-5.30274.00015-10.60549.00021-15.90823-.00009-.35931-.00002-.71274-.00297-1.06594-.11823-.55204-.18014-.89517-.5434-1.04364-1.08724-.06876-.25185-.08657-.51904-.11189-.78079-.0161-.1664-.00388-.33557-.00388-.5035-.00004-16.28925-.00071-32.57851.00382-48.86776.00011-.40518.02639-.81577.09555-1.21428.11406-.65735.54764-1.04674,1.17697-1.21556.20606-.05528.42623-.06455.64102-.0789.19113-.01277.38373-.00388.57568-.00388,27.4975-.00006,54.99498-.0002,82.49249.00159.33523.00002.67422-.00228,1.00495.04351.82197.11379,1.28418.56042,1.44436,1.37563.04121.20979.04823.42891.04838.64376.00276,3.69447.00506,7.38895-.00374,11.08339-.00072.30686-.05334.62098-.13151.91869-.14654.55814-.53827.89748-1.08681,1.03756-.25301.06461-.5211.07822-.78364.09505-.23897.01531-.47968.00387-.71961.00387-20.80308.00003-41.60616-.00016-62.40924.00178-.32948.00003-.66586-.04192-1.01823.0697Z"/>
      <path d="M772.10296,111.08579c.24422-.23894.2813-.53103.37919-.78854,1.37921-3.62819,2.73691-7.26464,4.13173-10.8868,1.8433-4.7868,3.91692-9.47831,5.92887-14.19516,7.68156-18.00876,15.36423-36.01705,23.04627-54.0256.06582-.15428.12663-.31072.19339-.46458.30684-.70714.84877-1.07891,1.61578-1.12459.16748-.00997.33555-.01423.50335-.01425,6.23856-.0007,12.47712-.00211,18.71568.00361.33293.0003.67622.02073.9967.10235.82652.21051,1.31449.96786,1.15764,1.80904-.06938.37208-.21311.73569-.3617,1.0868-1.74665,4.12703-3.50001,8.25123-5.25278,12.37567-8.82938,20.7764-17.65933,41.55257-26.48863,62.32902-2.93372,6.90341-5.86608,13.80739-8.79907,20.71111-.05623.13235-.11193.26492-.16901.39691-.30779.71158-.86486,1.06179-1.62416,1.11383-.14336.00982-.2878.00517-.43175.00517-9.02192.00019-18.04384.00025-27.06576-.00032-.19184,0-.38533.00721-.57521-.01413-.69558-.0782-1.21186-.41633-1.50071-1.06921-.07757-.17532-.15649-.3501-.23175-.52641-12.21057-28.6094-24.4208-57.21893-36.63125-85.82837-1.35462-3.17391-2.71147-6.34687-4.06393-9.52169-.1123-.26362-.21839-.53285-.29389-.80864-.29895-1.09203.28188-1.96796,1.40781-2.12695.2363-.03337.47827-.03683.71763-.0369,6.16658-.00188,12.33316-.00207,18.49973.00056.26306.00011.52843.01333.78869.04947.53313.07404.93506.35964,1.19907.82564.11775.20783.2106.43047.30585.65024,9.016,20.80065,18.04205,41.59696,27.03378,62.4081,1.25388,2.90207,2.35082,5.87245,3.49791,8.81997,1.03411,2.65722,2.03674,5.32669,3.05525,7.98998.09331.24398.20112.48241.3153.75468Z"/>
    </g>
  </g>
  <g id="uuid-85091f4c-c228-4d70-aa1b-5ec912b6d59d" data-name="JUMPERLESS__copy_2_xA0_Image">
    <g class="uuid-48b03020-1a0a-4784-9714-fd4dabd91680">
      <path class="uuid-660e7964-3671-4294-b612-850d23febab2" d="M267.99523,66.21855c.9927-1.84333,1.97835-3.67553,2.96578-5.50676,5.21721-9.67562,10.43487-19.351,15.65232-29.02649.11365-.21078.2333-.41864.3389-.63339.26072-.53017.71212-.75373,1.27334-.79713.19092-.01476.38376-.00596.57572-.00597,4.60751-.00022,9.215-.00017,13.82252-.00015.14399,0,.28818-.00466.43192.00124.96869.03972,1.45215.49236,1.539,1.44929.01728.19036.00471.38348.00471.57533.00011,16.09267.00012,32.18535.00012,48.27802,0,.09593.00118.19188-.00023.28779-.01749,1.20076-.51149,1.71233-1.71234,1.7163-2.90364.00961-5.80736.00419-8.71104.00282-1.49184-.0007-1.93993-.44459-1.92518-1.92367.07934-7.9616.16478-15.92314.24177-23.88476.03361-3.47732.05284-6.95478.07472-10.43219.00098-.15779.05597-.32816-.08859-.51923-.20808.17339-.28506.41974-.40095.63283-6.32706,11.63522-12.66013,23.26719-18.96119,34.91646-.47588.87977-1.06927,1.242-2.04855,1.22371-2.183-.04076-4.36783-.04137-6.55081.00024-.98256.01873-1.57237-.34849-2.04604-1.22973-6.23608-11.60223-12.50446-23.18716-18.76513-34.7762-.14656-.27128-.29774-.54007-.47927-.86891-.16752.25901-.09475.49892-.09355.71648.06197,11.27158.12882,22.54314.19379,33.8147.00207.35933.01878.72209-.02203,1.07743-.08321.7244-.47518,1.11311-1.19939,1.22194-.21203.03186-.43031.02994-.64575.03008-2.83169.00183-5.66339.0013-8.49508.00112-.14396-.00001-.28854.00592-.4318-.00473-.92242-.06854-1.3923-.53021-1.46985-1.44996-.01607-.19057-.00444-.38352-.00445-.57538-.00009-16.09267-.00008-32.18535-.00008-48.27802,0-.09593-.00112-.19188.00026-.2878.01732-1.20892.50664-1.71173,1.7092-1.71298,4.84748-.00506,9.69497.00462,14.54242-.00848.84277-.00228,1.35464.35659,1.75538,1.10005,6.12487,11.36283,12.27043,22.71451,18.41503,34.06671.14635.27038.24791.57335.51439.80937ZM293.03005,40.85529l.14026.05777c0,.13959.00107.27918-.00016.41876-.03992,4.48449-.07827,8.969-.12053,13.45347-.08182,8.68116-.16642,17.3623-.24799,26.04345-.00677.72018-.00021.72554.68048.72609,2.75965.00223,5.51932.00219,8.27897,0,.70083-.00056.70542-.0056.70547-.70506.00086-16.09241.00086-32.18482,0-48.27723-.00004-.69495-.00457-.69865-.70837-.69883-4.58343-.00116-9.1669.00687-13.75024-.01185-.47073-.00192-.72917.13086-.9509.55438-1.04499,1.99596-2.12454,3.97386-3.19374,5.95714-5.43704,10.08537-10.87416,20.1707-16.31598,30.25348-.10801.20012-.15067.46264-.43806.56869-.11845-.20663-.24021-.40887-.35244-.61628-3.3648-6.21919-6.72831-12.43908-10.09279-18.65844-3.14777-5.81876-6.29832-11.63602-9.44006-17.45802-.19187-.35556-.35723-.60497-.8476-.6027-4.72731.02186-9.45477.01186-14.18219.01478-.57373.00036-.57406.01079-.58401.60602-.002.11988-.00039.23982-.00039.35974,0,15.92453,0,31.84906,0,47.77359,0,.11991-.00208.23987.00047.35973.01211.5696.01252.57646.61351.58002.98384.00583,1.96774.00179,2.95162.0018,1.77578.00003,3.55156.00147,5.32734-.00072.73208-.0009.73603-.00451.73002-.75932-.00649-.81533-.02675-1.63055-.0318-2.44588-.07592-12.25484-.15035-24.50968-.22492-36.76453-.00138-.22797-.00018-.45596-.00018-.68395.04822-.01062.09644-.02123.14466-.03185.31687.57627.63751,1.1505.95007,1.7291,6.90363,12.78015,13.80903,25.55935,20.69871,38.347.25133.46652.53378.6297,1.05652.62223,2.06332-.02946,4.12803-.04239,6.19066.00526.67155.01552,1.00657-.21381,1.32148-.79538,7.01923-12.96308,14.06014-25.91442,21.09793-38.86747.19264-.35459.39587-.70347.59416-1.05501Z"/>
      <path class="uuid-660e7964-3671-4294-b612-850d23febab2" d="M674.11377,61.93342c-5.11781-.02748-8.76593.06271-12.40962-.15165-2.22796-.13107-4.43673-.36637-6.59822-.9848-3.69828-1.05813-6.02609-3.47289-7.21004-7.07566-.91548-2.78562-.97743-5.6518-.80366-8.53575.13446-2.23111.54707-4.41138,1.21686-6.55106,1.06876-3.41403,3.30146-5.64046,6.67296-6.78331,2.51229-.85159,5.10093-1.3125,7.73018-1.5696,6.24552-.61073,12.50851-.5395,18.76921-.40166,2.7557.06067,5.51561.21879,8.21784.83535,1.89776.433,3.73179,1.03801,5.3937,2.10161,1.83301,1.17297,3.04892,2.8079,3.78554,4.82867.89214,2.44735,1.07501,4.9988,1.10229,7.57124.00457.42794.03326.85517-.06918,1.28634-.14701.61843-.52253.95088-1.12732,1.0476-.21163.03384-.42965.03828-.64473.03846-2.85529.0024-5.71061.00165-8.5659.00166-.09597,0-.19208.00295-.28788-.00093-1.02692-.04149-1.4893-.454-1.59536-1.47288-.0644-.61869-.07105-1.24065-.16916-1.8597-.18751-1.18263-.80362-1.95685-1.95794-2.32601-1.14813-.36716-2.32734-.56799-3.51622-.71052-3.87346-.46436-7.75841-.35458-11.64379-.20162-2.23046.08781-4.45311.25485-6.65594.62673-.70762.11946-1.41056.25847-2.08763.51736-1.21802.46573-1.87821,1.36722-2.07511,2.62115-.14575.92855-.13394,1.86691-.00018,2.79646.18945,1.3165.99409,2.09468,2.25412,2.40091,1.26295.30694,2.55732.3908,3.85254.44154,4.72507.18513,9.45245.07785,14.17868.10903,2.8078.01852,5.61362.06903,8.41133.32903,1.84197.17118,3.66004.47801,5.42165,1.05646,3.45221,1.13359,5.62178,3.52538,6.74087,6.92721.56486,1.71698.85228,3.48768.9474,5.28918.18161,3.44188.04218,6.84926-1.06531,10.15938-1.16705,3.48819-3.43308,5.84849-6.97848,6.96322-2.04502.64297-4.13131,1.05426-6.25909,1.252-7.54176.70089-15.09666.56866-22.6523.31911-2.49485-.0824-4.98303-.26595-7.43394-.7609-1.74055-.35149-3.44774-.81581-4.97635-1.78133-2.02382-1.27835-3.25109-3.14279-3.98978-5.36637-1.00878-3.03648-1.07712-6.16719-.8695-9.3165.06184-.93764.58728-1.35747,1.60299-1.36384,1.89544-.0119,3.79102-.00354,5.68657-.00359,1.10373-.00002,2.20747-.00539,3.31117.00146,1.21658.00756,1.68589.48164,1.71489,1.70244.0245,1.03025.04173,2.06033.22049,3.08088.18519,1.05722.72368,1.79284,1.77669,2.13677.94188.30765,1.912.4513,2.88823.55184,2.34123.24112,4.69128.29003,7.04373.2887,3.14485-.00178,6.28468-.10984,9.41291-.43951,1.64395-.17326,3.28238-.39036,4.91205-.68379,1.75152-.31539,2.64651-1.43752,3.02287-3.05947.21774-.93829.22077-1.89544.08117-2.85873-.14005-.96671-.66051-1.62204-1.50126-2.05254-1.11017-.56848-2.31065-.7716-3.54122-.82969-3.7166-.17544-7.43647-.11898-9.6838-.14038ZM671.79065,60.91978c3.7186.03472,7.4384-.02476,11.15528.14719,1.35498.06268,2.66236.33819,3.90917.86956,1.32672.56541,2.18384,1.54349,2.45566,2.9749.36142,1.90357.10912,3.71985-.84985,5.42172-.43995.78076-1.07241,1.34106-1.89959,1.68629-.44365.18515-.89784.33427-1.36778.43562-2.42019.52193-4.87915.77876-7.34074.94612-4.55162.30948-9.11012.34582-13.6642.01949-1.29051-.09247-2.56748-.29945-3.81387-.68375-1.50027-.46258-2.36528-1.4575-2.69998-2.97404-.23972-1.0861-.28911-2.18227-.29624-3.28655-.00366-.5646-.01578-.58186-.5503-.58303-2.85532-.0062-5.71068-.00591-8.56601-.00063-.57495.00106-.61274.02976-.62145.61429-.01677,1.12667-.04936,2.25593.00538,3.3802.08869,1.82194.2999,3.62876.95577,5.35523.98878,2.60291,2.75738,4.39126,5.42861,5.2583.9828.31901,1.98551.54726,3.00269.72034,2.6077.44369,5.24387.61639,7.87931.67041,7.1474.14649,14.29856.31608,21.43094-.38813,1.98238-.19573,3.94099-.52961,5.84367-1.15037,2.57276-.83939,4.49463-2.41405,5.6287-4.89898.24896-.54552.46642-1.10254.63868-1.67746.96582-3.22363.97215-6.52514.78021-9.8385-.06518-1.1241-.2356-2.23905-.50699-3.33562-.98755-3.99029-3.37824-6.57386-7.46224-7.49436-1.4782-.33318-2.97154-.54611-4.47741-.65886-3.1355-.23479-6.27765-.29741-9.42152-.29312-3.09529.00423-6.19054-.00844-9.28582-.00343-1.56053.00253-3.11958-.04144-4.67381-.17164-1.14599-.09601-2.28843-.23344-3.37553-.65788-1.19921-.46821-1.97985-1.30993-2.35649-2.53698-.36669-1.19467-.37703-2.41704-.20994-3.63323.30327-2.2078,1.54091-3.60806,3.7366-4.12221.13984-.03274.27673-.07806.41654-.11087,1.80288-.42308,3.63532-.62773,5.47986-.75013,4.67223-.31005,9.34432-.47213,14.0136.0359,1.38374.15055,2.74371.41799,4.07753.83618,1.52151.47703,2.41801,1.48098,2.75528,3.02068.14909.68083.2678,1.36552.26626,2.06295-.00074.33394.1152.4661.45953.46511,2.90331-.00842,5.80665-.00947,8.70996.00121.38107.0014.48414-.14428.48604-.5076.01005-1.94602-.08817-3.88275-.45489-5.79758-.67236-3.51121-2.63698-5.93168-6.02971-7.17408-1.49454-.54731-3.02378-.91233-4.59721-1.12501-2.38141-.32189-4.77667-.43007-7.17524-.48368-6.50285-.14532-13.00263-.16259-19.47328.64383-1.92933.24045-3.82589.63968-5.66607,1.2923-2.89009,1.025-4.79808,2.97066-5.72678,5.90419-.57512,1.81685-.92817,3.67083-1.06313,5.56316-.18442,2.58729-.24801,5.17743.36518,7.72693.95531,3.97185,3.3259,6.54726,7.39193,7.4549,1.8805.41977,3.78621.59271,5.70288.70136,3.54849.20116,7.10036.10375,10.65082.12934Z"/>
      <path class="uuid-660e7964-3671-4294-b612-850d23febab2" d="M614.71405,61.93368c-5.21944-.02729-8.86816.06273-12.5123-.15212-2.17994-.12853-4.34066-.36077-6.46077-.94645-3.9141-1.08127-6.30721-3.63838-7.44972-7.46338-.49726-1.6647-.72256-3.36628-.75332-5.10205-.05814-3.28024.27635-6.49696,1.27479-9.64462,1.08306-3.41445,3.31215-5.63789,6.68224-6.77645,2.12088-.71652,4.29766-1.17019,6.51673-1.42868,6.74179-.78536,13.50956-.67835,20.27465-.5283,2.63558.05846,5.27407.22817,7.86053.81234,1.85333.4186,3.64436,1.00219,5.28064,2.00647,1.94329,1.19273,3.23485,2.88929,3.9817,5.02104.60655,1.73124.91921,3.52032.99711,5.34903.04183.98202.0656,1.96615.05315,2.94876-.01325,1.04792-.50914,1.51971-1.56035,1.56005-.16772.00643-.33593.00149-.5039.0015-2.71172.00005-5.42347.00004-8.13519.00004-.11998,0-.24.00189-.35994-.00035-1.17717-.02205-1.66856-.48493-1.71299-1.64703-.02021-.5285-.0804-1.05032-.14803-1.5738-.15978-1.23684-.77937-2.06901-2.00329-2.44877-1.17425-.36432-2.37586-.5757-3.59054-.7087-4.69367-.5139-9.39083-.35258-14.08777-.03816-1.82025.12185-3.62854.32498-5.40892.74011-1.64353.38321-2.74093,1.31867-2.91294,3.26221-.07699.87012-.06883,1.72885.08472,2.57834.22615,1.2509,1.0555,1.94989,2.25264,2.23486,1.19429.28429,2.41572.37629,3.63824.42678,2.35002.09705,4.70148.11362,7.05347.11563,3.55152.00303,7.10356-.00537,10.65441.05139,2.6863.04294,5.37007.19215,8.01918.69774.98987.18892,1.96473.44165,2.90774.79376,3.27035,1.221,5.29098,3.60537,6.3308,6.8774.92814,2.92061,1.07245,5.9283.95018,8.96161-.08627,2.14001-.4022,4.2387-1.06675,6.2847-1.19303,3.67323-3.6078,6.06416-7.32612,7.16538-2.42796.71907-4.90896,1.0946-7.42255,1.28846-6.51751.50266-13.04506.40287-19.57027.25172-2.99587-.06941-5.99237-.23984-8.94715-.81601-1.01276-.19749-2.00758-.46091-2.98107-.7991-3.19287-1.10927-5.14133-3.39466-6.1434-6.55269-.92142-2.90382-.99753-5.89466-.83052-8.89878.06598-1.18666.57115-1.59938,1.76365-1.60089,2.95172-.00374,5.9034-.00504,8.85511.00073,1.21883.00238,1.69984.48326,1.7144,1.69786.01262,1.05597.06662,2.10692.24907,3.15005.18157,1.03829.73982,1.73305,1.75461,2.07062.94037.31282,1.91203.45369,2.88844.55239,3.44493.3482,6.90065.33364,10.35588.24322,3.45621-.09045,6.89524-.39112,10.30941-.94887.21258-.03472.42252-.08513.63386-.12747,1.78119-.35682,2.60759-1.07054,3.12334-3.20072.23297-.96206.20548-1.95512.02155-2.93164-.15739-.83568-.66519-1.42195-1.40409-1.80802-1.15024-.60099-2.39744-.80682-3.67797-.86509-3.69336-.16808-7.38961-.11563-9.51239-.13605ZM612.28441,60.91969c3.74318.03434,7.48755-.02647,11.22883.15074,1.35512.06419,2.66303.34736,3.90404.89319,1.29286.56864,2.13414,1.53222,2.38479,2.94476.32324,1.82131.14389,3.57551-.73149,5.23788-.51895.98558-1.29409,1.65062-2.34193,2.00393-.34005.11467-.6842.22434-1.03427.30081-2.44268.53364-4.92668.78849-7.41274.95532-4.5044.30227-9.01556.33805-13.52256.01889-1.31515-.09314-2.61645-.29722-3.88569-.69069-1.46758-.45497-2.33283-1.41708-2.68222-2.90591-.26025-1.109-.27135-2.23292-.32637-3.35709-.02739-.5602-.03203-.57701-.56524-.57814-2.85575-.00609-5.71149-.00596-8.56724-.00044-.5509.00106-.5767.0194-.5805.56266-.00907,1.29481-.04626,2.59255.02278,3.88403.09882,1.84792.37348,3.67226,1.12462,5.39016.98143,2.24456,2.5845,3.83022,4.91588,4.65562.8385.29686,1.69302.52392,2.56435.69571,2.90623.57297,5.8551.74741,8.80263.81566,6.59716.15276,13.19711.2592,19.7864-.25081,2.32095-.17964,4.62161-.49489,6.86852-1.1451,3.08681-.89328,5.26676-2.76972,6.40076-5.80193.18431-.49281.34831-.99597.48056-1.50503.75662-2.91137.81821-5.87681.64694-8.85582-.08128-1.41363-.2691-2.81473-.65369-4.18243-1.04306-3.70953-3.37726-6.09637-7.16663-7.0073-1.54407-.37119-3.11104-.58319-4.68939-.70158-3.13603-.23523-6.27856-.2952-9.42285-.29089-3.1677.00434-6.33544-.01003-9.50315-.0044-1.48902.00264-2.97552-.05542-4.45839-.17367-1.0271-.0819-2.04885-.2185-3.03742-.54162-1.49982-.49022-2.41326-1.50208-2.7621-3.0341-.25374-1.11444-.26362-2.24266-.09006-3.36063.32215-2.07531,1.48642-3.43409,3.55148-3.96746.41746-.10782.83537-.21755,1.25803-.30127,2.40683-.47672,4.84505-.65176,7.29153-.75173,3.86179-.15779,7.7228-.26612,11.57358.18815,1.47756.1743,2.93843.43093,4.34487.94816,1.22087.44897,1.9777,1.29692,2.34443,2.53238.22713.76511.33614,1.54871.36652,2.33716.0168.43604.14188.5712.58194.56848,2.83159-.01749,5.66344-.00623,8.49517-.011.56162-.00095.57452-.01407.57713-.55161.00903-1.87275-.08616-3.73867-.42051-5.58565-.65176-3.60053-2.63051-6.08441-6.11088-7.35689-1.79504-.65628-3.64292-1.0256-5.53034-1.22528-3.08119-.32597-6.17581-.40158-9.2713-.42585-4.53587-.03556-9.06952.01455-13.5935.40063-2.22462.18985-4.43406.47299-6.60036,1.02861-.55642.14272-1.10472.31981-1.65115.49826-3.11019,1.01565-5.09496,3.10627-6.03484,6.23689-.85755,2.85625-1.11966,5.78037-1.09038,8.74018.01469,1.48728.14244,2.96851.50995,4.41895.99033,3.908,3.35564,6.42694,7.35551,7.32442,1.85674.41659,3.73896.59127,5.63183.70007,3.57278.20536,7.14919.10846,10.72415.13262Z"/>
      <path class="uuid-660e7964-3671-4294-b612-850d23febab2" d="M394.66412,82.55979c-7.39029.00014-14.78061.00014-22.1709.00011-.19196,0-.38401.00387-.57584-.00116-1.12149-.02945-1.61584-.52329-1.63091-1.6437-.00933-.69525-.00178-1.39074-.00178-2.08612-.00002-15.51518.00903-31.03037-.01229-46.54552-.00246-1.78385.73212-2.04633,2.03822-2.04491,14.75658.01605,29.51318.0101,44.26979.01025,1.63393.00002,2.01996.39098,2.02038,2.04653.0006,2.422.00025,4.844.00011,7.266,0,.16785.00851.33644-.0039.50342-.07214.97099-.53666,1.43123-1.50147,1.48589-.21528.0122-.43176.0035-.64771.0035-10.96549.00009-21.93096-.00078-32.89644.00152-1.01676.00021-.86699-.10409-.86968.88532-.00684,2.5179-.0049,5.03584-.00118,7.55375.00118.79197-.11552.73183.72476.73191,10.4856.00106,20.97118.00038,31.45678.00223.30936.00005.61376,0,.92536.0782.61829.1552.94157.53916,1.02678,1.14598.02981.21226.03213.42959.03234.64462.00221,2.23016.00288,4.46031.00091,6.69047-.0013,1.44403-.44741,1.89228-1.88904,1.89244-10.4136.00112-20.82722.00065-31.24083.00069-.14397,0-.28793.00009-.4319,0-.65773-.0004-.60709-.0287-.60678.63947.00132,2.9016-.00032,5.80321.00063,8.70481.00026.79725-.06927.73146.73673.7315,11.15743.00053,22.31489.01127,33.47225-.01187,1.60113-.00332,2.13125.44858,2.09691,2.12612-.05048,2.46893-.01072,4.93966-.01396,7.40961-.00169,1.30762-.46449,1.77654-1.77651,1.77714-7.51026.00342-15.02055.00166-22.53083.0018ZM370.8329,56.71016c0,8.03414-.00032,16.06828.00054,24.10242.00009.73864.0036.74258.74147.74261,14.85403.00077,29.70803.00086,44.56206-.00029.71229-.00005.71813-.00588.71894-.70417.00278-2.35029.0019-4.70057.00074-7.05086-.00053-1.04718.05653-.91498-.93742-.91518-11.44647-.00239-22.89295-.00152-34.33942-.00155-.19198,0-.38513-.01419-.57565.00235-.35595.03091-.47295-.14187-.44902-.47016.01218-.16697.00149-.3356.00149-.50347-.00004-3.54941-.00376-7.09883.00207-10.64823.00206-1.25286-.14113-1.07897,1.05513-1.07945,10.77457-.00431,21.54911-.00237,32.32368-.00284.8109-.00004.8122-.00214.81252-.82348.00081-2.01453.00383-4.02907-.00123-6.04359-.00253-1.00726.11963-.90997-.93415-.91014-10.75055-.00175-21.50113-.00105-32.2517-.0012-.21595,0-.43192-.00449-.64786-.00244-.23845.00227-.35119-.11719-.35333-.3504-.00176-.19182-.00492-.38365-.00494-.57547-.0003-3.30959-.00229-6.61917.00098-9.92875.00109-1.11065-.10854-.99572,1.00804-.9959,11.3505-.00184,22.70097-.00108,34.05147-.00121.96343-.00001.86876.04627.86968-.83846.00232-2.30232.0038-4.60465-.00056-6.90696-.00193-1.03876.1037-.92879-.919-.92892-14.61403-.00194-29.22808-.00132-43.8421-.0013-.14397,0-.28904.01169-.43173-.00175-.33616-.03166-.492.10102-.46282.44882.016.1905.00213.38348.00213.57533-.00004,7.93821-.00004,15.87642-.00002,23.81463Z"/>
      <path class="uuid-660e7964-3671-4294-b612-850d23febab2" d="M546.63449,50.72729c.23142,0,.51402,0,.79663,0,10.39061,0,20.78119-.00002,31.1718.00014.21595,0,.43352-.01468.64757.00595.90919.08764,1.4062.58167,1.41291,1.49535.01832,2.49404.0186,4.98839-.00067,7.48241-.00671.8728-.43352,1.31761-1.29441,1.44802-.23508.03561-.47848.02124-.71809.02126-10.34259.00087-20.68522.00077-31.02781.00079-.14399,0-.28795-.00126-.43194.00022-.77409.00797-.66856-.07478-.66962.70908-.0039,2.87789-.00274,5.75579-.00141,8.63368.00039.82479-.06648.73215.73036.73225,11.1105.00133,22.221.0009,33.33149.00093.21599,0,.43208-.00498.64789.00134,1.07241.03143,1.56306.52661,1.57898,1.61676.01223.83921.00257,1.67874.00257,2.51812,0,1.7747.00186,3.54941-.00067,5.3241-.00197,1.35663-.46751,1.84032-1.79782,1.84052-15.04597.00231-30.0919.00252-45.13787-.00025-1.27578-.00024-1.75384-.47355-1.75398-1.72726-.00214-16.28409-.00229-32.56818.00028-48.85227.00021-1.26589.46966-1.72814,1.74839-1.72833,14.92599-.00217,29.85194-.00213,44.77792-.00009,1.30766.00018,1.75665.46094,1.75855,1.79043.00359,2.54214.00207,5.08428.0007,7.62642-.00077,1.45862-.42544,1.88615-1.88247,1.8863-11.01453.00111-22.02902.00062-33.04355.00068q-.96045,0-.9609.93642c-.00032,2.5901-.00127,5.18021.00229,7.77031.00018.13667-.0508.28805.11284.46669ZM557.61963,81.55578c7.4389,0,14.87776.00038,22.31665-.0006.73574-.0001.73866-.00396.73915-.74384.00148-2.32626.00468-4.65253-.00112-6.97878-.00274-1.09528.12037-.94687-.96185-.9472-11.51829-.00354-23.03654-.00221-34.55482-.00217-.85091,0-.77336.03548-.77357-.78357-.00098-3.64528-.00408-7.29057.00169-10.93583.00176-1.10802-.14737-.98008,1.00604-.98038,10.77439-.0029,21.54874-.00135,32.32313-.00245.84423-.00009.83716.10025.83635-.80225-.00176-2.0145.00299-4.029-.00204-6.04348-.0026-1.04128.10437-.93039-.91468-.93062-10.75038-.00245-21.50076-.0015-32.25114-.00164-.21595,0-.43194-.0051-.64786-.00202-.23715.00338-.35534-.10428-.35021-.3457.00355-.16777-.00162-.33571-.00162-.50357-.00018-3.30953-.00615-6.61908.00313-9.92858.00327-1.16527-.20572-1.07298,1.06703-1.07318,11.35028-.0018,22.7006-.00081,34.05089-.00162.78703-.00006.79041-.00371.79097-.78117.00176-2.32626.00077-4.65253.00056-6.97879-.00007-1.0422.04581-.91373-.94273-.91386-14.56583-.00196-29.13163-.00225-43.69746.00046-1.09463.0002-1.0065-.14613-1.0066.99212-.00123,15.90012-.00077,31.80024-.0007,47.70036,0,.16787.01346.33687-.00127.50339-.03403.38436.15415.51305.5116.48661.19092-.01412.38378-.00163.57575-.00163,7.2949.00005,14.58981.00004,21.88471.00001Z"/>
      <path class="uuid-660e7964-3671-4294-b612-850d23febab2" d="M224.13366,49.95182c-.00014,4.43674.0002,8.87348-.00028,13.31021-.00028,2.64018-.08928,5.27577-.5821,7.87756-.34433,1.8179-.83703,3.5924-1.83015,5.18444-1.76584,2.83078-4.40849,4.46453-7.51017,5.45425-1.95413.62354-3.97844.88328-6.0144,1.00362-7.26429.42935-14.53418.41805-21.80206.13015-3.11601-.12344-6.21725-.43587-9.21511-1.4006-3.94386-1.26916-6.50756-3.90166-7.80355-7.8082-.75466-2.27479-.98426-4.63305-1.10405-7.00593-.13062-2.58738-.13548-5.17747-.13346-7.76783.00689-8.84949.00264-17.69898.00265-26.54848,0-.16788-.00445-.3359.00093-.50361.03584-1.1173.53179-1.62185,1.65253-1.62535,3.02355-.00943,6.04715-.00537,9.07073-.00241,1.36046.00133,1.80459.44793,1.80487,1.81669.0017,8.13002-.00619,16.26005.00496,24.39006.00362,2.63736-.06788,5.27624.09884,7.91181.0667,1.05452.22314,2.09824.45586,3.12606.27625,1.22003.99634,2.10027,2.15461,2.61336,1.00005.443,2.0629.62138,3.13451.74667,3.51098.41048,7.03925.42129,10.56602.38832,3.07068-.0287,6.14199-.09743,9.20166-.39726.69085-.0677,1.3913-.11233,2.05377-.33667,1.50825-.51077,2.4165-1.59033,2.83366-3.09786.28322-1.02351.34875-2.07917.36459-3.13462.03278-2.18204.0629-4.36435.06482-6.54657.00729-8.32187.00295-16.64376.00295-24.96564,0-.16788.00747-.33614-.00114-.50357-.08991-1.74765.7265-2.03596,1.97848-2.02189,2.85524.03209,5.71109.01012,8.56669.01015.14398,0,.2881-.00372.43192.00114,1.03757.03507,1.51831.52209,1.55053,1.57135.00515.16772.00099.33573.00099.50361.00002,5.87568.00002,11.75136-.00011,17.62704ZM168.69073,50.1961c0,3.52569.00399,7.05137-.00142,10.57705-.00357,2.32666.00053,4.65318.1564,6.97575.11561,1.72284.27531,3.44325.7284,5.11652,1.03269,3.81369,3.34452,6.46101,7.13956,7.72858,1.07067.35762,2.17212.59546,3.28674.77069,2.469.38815,4.95651.55538,7.45264.61359,7.15018.16676,14.29996.26196,21.43735-.33573,1.65057-.13822,3.2877-.40708,4.84747-.99509,3.97634-1.49901,6.65929-4.15071,7.5461-8.43184.40535-1.95687.65357-3.93108.67231-5.92025.10621-11.27221.02655-22.54491.04637-33.81741.00105-.59749-.01055-.60327-.66316-.60381-2.83183-.00233-5.66366-.00213-8.49549-.00021-.6848.00046-.68855.00507-.68891.72086-.00153,3.046.00861,6.09203-.0025,9.13799-.02789,7.65064.08079,15.30178-.08898,22.95201-.02245,1.01117-.1073,2.01016-.33112,2.99502-.60462,2.66051-2.23633,4.20145-4.94256,4.6396-1.85035.29957-3.72061.37782-5.59125.44211-4.96611.17066-9.93156.258-14.88888-.18976-1.33871-.12092-2.65914-.35588-3.92767-.83344-1.67582-.63089-2.74204-1.80198-3.17666-3.53623-.31528-1.25803-.52236-2.53764-.56871-3.83274-.05488-1.53357-.0695-3.06921-.07066-4.60397-.00679-8.99409-.00456-17.98818-.00539-26.98227-.00009-1.00729.04699-.90845-.87631-.90921-2.71183-.00221-5.42368-.00339-8.13551.00063-.94544.0014-.85664-.10613-.85701.83706-.00232,5.82817-.00117,11.65634-.00117,17.48452Z"/>
      <path class="uuid-660e7964-3671-4294-b612-850d23febab2" d="M475.14653,60.79706c2.32211,1.18225,3.00835,3.2267,3.4025,5.4298.21971,1.22816.2921,2.47527.29329,3.72381.00345,3.62102.00548,7.24204.00221,10.86306-.00112,1.25195-.48899,1.74155-1.74607,1.74414-3.02333.00624-6.04665.00573-9.06998.00065-1.29452-.00218-1.77331-.48665-1.7853-1.78724-.02577-2.80531.05087-5.61121-.05273-8.41611-.03104-.84039-.13021-1.6722-.29572-2.49567-.30711-1.52841-1.21025-2.36221-2.76294-2.60619-1.02432-.16095-2.05437-.18175-3.08562-.18198-7.46227-.00165-14.92458.00224-22.38685.00437-.21226.00006-.42456,0-.62297,0-.16368.28367-.09017.55236-.09052.80743-.00566,4.1246-.00415,8.24922-.00429,12.37383,0,.14388.00028.28776-.00007.43164-.00337,1.40688-.45233,1.86802-1.83712,1.8705-2.01553.00361-4.03109.00105-6.04662.00108-.95978.00002-1.91966.00682-2.87937-.00175-1.21011-.0108-1.69569-.49823-1.71731-1.7079-.00555-.31165-.00088-.62347-.00088-.93522,0-15.87495-.00025-31.7499.00162-47.62486.00004-.30944-.01578-.61658.07242-.9265.20537-.72148.56675-1.04663,1.31343-1.10874.19075-.01587.38367-.00637.57561-.00637,12.02131-.00018,24.04258.00036,36.06388-.00055,2.45-.00018,4.89472.07886,7.29758.61287,1.47753.32838,2.91122.78271,4.21104,1.59697,2.29444,1.43737,3.62158,3.56392,4.41842,6.08626.72804,2.30464,1.0227,4.67779,1.11098,7.07795.0997,2.71053.058,5.42119-.39432,8.10394-.31238,1.85273-.81494,3.64455-1.98705,5.17822-.53983.70633-1.15386,1.33134-1.99725,1.89254ZM470.57491,61.43285c-.00464-.0441-.00925-.08821-.01385-.13231.29385-.08366.58848-.16463.88138-.25141,2.59329-.76813,4.2733-2.46628,5.10522-5.02131.29006-.8909.46126-1.80849.58514-2.73613.34722-2.60017.34767-5.2134.24928-7.82544-.06588-1.74846-.26802-3.48807-.69823-5.19134-.41422-1.63974-1.01226-3.19731-2.08576-4.53517-1.53813-1.9169-3.62439-2.85017-5.9698-3.30902-2.38865-.46732-4.80909-.55409-7.23314-.55517-11.82764-.00527-23.65525-.00336-35.48289-.00078-1.02661.00022-.90845-.1234-.90859.92898-.00236,15.94461-.00162,31.88922-.00158,47.83382,0,.14386.01484.28946-.00225.43124-.04651.38632.13619.49242.49771.49132,2.95091-.009,5.90182-.00878,8.85272-.00043.33523.00095.49476-.10236.46031-.45286-.01635-.16621-.00211-.3354-.00211-.50323.00004-4.5556-.00151-9.11121.00134-13.66681.00056-.90956-.11625-.86351.83804-.86357,7.53321-.00049,15.06646-.00145,22.59968.00123.91151.00032,1.82309.01563,2.73446.03486.6493.0137,1.28548.13104,1.92047.26294,1.86644.38766,2.97903,1.53073,3.4245,3.36321.35945,1.47855.44252,2.98297.44393,4.4958.00207,2.22985-.00102,4.4597.00295,6.68954.00112.62367.00903.63263.63875.63339,2.87895.0035,5.75789.00307,8.63684.00039.65591-.00061.66199-.00732.66206-.67508.00035-3.6205-.00267-7.24099-.00429-10.86149-.00056-1.22488-.09597-2.4422-.30401-3.64939-.49627-2.87946-1.82861-4.21804-4.71575-4.74359-.37024-.06739-.74168-.12828-1.11252-.19218Z"/>
      <path class="uuid-660e7964-3671-4294-b612-850d23febab2" d="M145.64936,48.90988c.00002-5.56398-.00007-11.12797.00036-16.69195.00002-.21577-.01367-.43371.01114-.64691.09387-.80657.54933-1.24283,1.36172-1.31463.1668-.01474.33569-.00742.50361-.00744,3.57555-.00034,7.1511-.00029,10.72665-.00022.14398,0,.2883-.00535.43187.00257.89956.0496,1.36445.47179,1.47708,1.35758.02704.21265.01015.43112.01016.64692.00033,9.42519.01057,18.85041-.00587,28.27557-.00506,2.90151-.10942,5.80105-.54014,8.67844-.24184,1.61563-.61344,3.20213-1.20879,4.72187-1.50767,3.84857-4.30459,6.31697-8.22725,7.54371-2.55309.79843-5.16526,1.23598-7.84192,1.34064-5.42115.21197-10.84319.26053-16.26547.11091-3.04533-.08404-6.08753-.26056-9.06474-.99152-1.70536-.4187-3.3491-.99135-4.86265-1.90712-2.49833-1.51161-4.08325-3.70406-4.95282-6.4666-.80311-2.55138-.95914-5.17243-.93461-7.81748.01245-1.34283.04768-2.68547.07422-4.02816.02442-1.23548.5175-1.72991,1.77234-1.73245,3.47955-.00704,6.95913-.0075,10.43868.00022,1.28259.00284,1.75444.50329,1.76368,1.80735.01121,1.58197-.05741,3.16648.13414,4.74307.05199.42789.08958.86169.19192,1.27852.30087,1.22548.99981,2.10283,2.2558,2.46884,1.34144.39091,2.72028.57117,4.10354.70427,3.6388.35014,7.2851.32639,10.93046.13265,1.41197-.07504,2.82124-.21469,4.20326-.54492,1.9877-.47495,2.98238-1.5922,3.24193-3.61701.23537-1.83616.27082-3.68087.27132-5.52774.00113-4.17299.00036-8.34598.00037-12.51897ZM158.0387,49.35316h.0029c0-5.51614.00002-11.03228-.00009-16.54842,0-.19186-.00577-.38382-.001-.57555.00575-.23103-.08147-.36314-.33227-.35445-.16774.00581-.3359-.0015-.50387-.00151-3.35965-.00017-6.71931-.00315-10.07895.00171-1.01346.00147-.93007-.13552-.93025.91399-.00163,9.40142-.00002,18.80284-.00172,28.20427-.00036,2.03847-.03101,4.07564-.25182,6.10569-.31023,2.85212-1.60794,4.35214-4.39413,5.07306-1.14256.29564-2.30857.45334-3.47982.52815-4.12352.26337-8.24761.31242-12.36471-.12258-1.4558-.15382-2.89878-.38116-4.29277-.85508-1.24131-.42203-2.06469-1.26793-2.54551-2.46813-.35139-.87714-.48782-1.79961-.56851-2.73377-.12402-1.43578-.10941-2.87478-.11187-4.3137-.00094-.554-.01215-.55537-.54731-.56838-.19187-.00467-.38394-.00088-.57592-.00088-3.16767,0-6.33535-.00108-9.50302.00092-.65579.00041-.65623.00568-.67605.6654-.02016.67119-.04143,1.34235-.05859,2.01362-.06381,2.49501-.07831,4.98731.38359,7.45566.5807,3.1032,1.97157,5.69151,4.72455,7.40682,1.33449.83148,2.7869,1.38401,4.31093,1.75613,3.00214.73301,6.06816.91018,9.1379.99026,5.4706.1427,10.94129.10486,16.4101-.12344,2.26276-.09446,4.48349-.43999,6.66197-1.05431,3.31814-.9357,5.92359-2.78259,7.50563-5.91574.80773-1.59967,1.23547-3.31728,1.51138-5.0768.42827-2.73114.55672-5.48436.5658-8.24347.01333-4.05312.00344-8.10631.00344-12.15948Z"/>
      <path class="uuid-660e7964-3671-4294-b612-850d23febab2" d="M311.82424,56.35919c0-7.98538-.00002-15.97075,0-23.95613,0-.19184-.00457-.38382.00105-.5755.0309-1.05195.50826-1.53853,1.54518-1.57794.07187-.00273.14396-.00081.21593-.00079,11.82922.00389,23.65845.00573,35.48767.01383,1.92045.00132,3.83934.07004,5.7297.44674,1.29534.25814,2.54479.66811,3.73924,1.24072,2.82224,1.35297,4.48823,3.64373,5.39431,6.57236.79389,2.56613,1.0542,5.20788,1.13467,7.8711.08187,2.70944.04619,5.41867-.26622,8.11695-.21006,1.81426-.5801,3.59436-1.2312,5.30335-1.4152,3.7145-4.08001,5.98377-7.95967,6.86583-2.47524.56276-4.98726.67761-7.50637.68322-7.65418.01703-15.30841.00617-22.96263.00626q-.84736.00001-.84829.82293c-.00053,4.07662-.00056,8.15324-.00077,12.22986-.00002.14388.0025.28782-.00044.43163-.02468,1.20787-.50661,1.69979-1.72206,1.70345-2.97527.00897-5.95059.00532-8.9259.00194-1.35004-.00154-1.82325-.47271-1.8235-1.81203-.00142-8.12926-.0007-16.25852-.00072-24.38777ZM312.37243,56.69768c0,8.0344-.00032,16.0688.00047,24.1032.00007.7498.00329.75376.72987.7542,2.78371.00173,5.56743.0007,8.35114.00068.072,0,.14496-.00793.21583.00089.42663.05316.54948-.16552.51213-.54923-.01619-.1663-.00248-.3355-.00248-.50338.00002-4.38894-.00316-8.77788.00229-13.16681.00135-1.08853-.14311-.96524.94366-.96572,8.01519-.00353,16.03042.00635,24.0456-.00719,2.32729-.00393,4.64998-.09984,6.94883-.53391,3.90223-.73681,6.42772-3.01636,7.67745-6.75418.56602-1.69289.8453-3.44344.9878-5.21346.2641-3.2802.27121-6.56428.00346-9.84479-.14452-1.77061-.42976-3.5199-1.00959-5.2088-.76856-2.23878-2.0883-4.03456-4.20827-5.1714-1.56119-.8372-3.23137-1.32571-4.99412-1.50337-2.0556-.20717-4.11753-.26066-6.18166-.26079-11.06288-.00071-22.12576-.00102-33.18865.00057-.90754.00013-.83292-.09944-.83308.8642-.00127,7.98643-.0007,15.97286-.00069,23.95929Z"/>
      <path class="uuid-660e7964-3671-4294-b612-850d23febab2" d="M498.54118,70.65519h.9441c9.40549,0,18.81094,0,28.21643,0,.11998,0,.23993-.00033.35991.00007,1.43366.00484,1.87379.45042,1.87456,1.90662.00148,2.70966.0007,5.41932-.00004,8.12897-.00007.2626-.01389.5195-.07396.78205-.14948.65383-.57034.97361-1.20101,1.06-.21258.02913-.43057.02595-.64606.02596-13.38842.00112-26.7768.00118-40.16521-.00025-.21528-.00002-.43373.0002-.64525-.03361-.6957-.11121-1.05965-.47439-1.16789-1.17145-.03649-.23508-.03329-.47768-.03333-.71683-.00141-16.13805-.00127-32.2761-.00127-48.41415,0-.1199-.00278-.23988.00077-.35968.03347-1.12521.51606-1.60894,1.65376-1.61167,3.07117-.00735,6.14234-.00734,9.21351.0001,1.12535.00272,1.62409.49662,1.66958,1.61125.00784.19152.00141.38362.00141.57546v38.21715ZM486.51393,56.70728c0,8.03224-.00032,16.06448.00049,24.09672.00007.74274.00337.75054.66976.75061,13.31508.00153,26.63017.00147,39.94525.00014.66983-.00007.6757-.00671.67633-.66316.00257-2.5895.00383-5.179-.00028-7.76849-.00148-.92438.1049-.82771-.86194-.82792-9.83637-.00217-19.67271-.00133-29.50908-.00134-.16793,0-.33783-.01644-.50344.00305-.41707.04906-.56117-.14037-.52088-.536.01933-.18984.00309-.38329.00309-.5751,0-12.70772-.00004-25.41544-.00004-38.12317,0-.16784.00102-.33568-.00032-.50351q-.00527-.67803-.65155-.68539c-.35984-.00327-.71975-.00062-1.07962-.00062-2.51907.00004-5.03811-.00226-7.55719.00185-.59558.00097-.59653.01087-.60992.59175-.00387.16775-.00067.33566-.00067.5035v23.73707Z"/>
      <path class="uuid-f64905e8-8a9a-4a6f-88ad-7da7d68bf0c0" d="M293.03005,40.85529c-.19829.35154-.40151.70041-.59416,1.05501-7.03779,12.95305-14.0787,25.90439-21.09793,38.86747-.31491.58157-.64993.8109-1.32148.79538-2.06263-.04765-4.12734-.03472-6.19066-.00526-.52274.00747-.80519-.15571-1.05652-.62223-6.88968-12.78765-13.79508-25.56686-20.69871-38.347-.31256-.5786-.6332-1.15283-.95007-1.7291-.04822.01062-.09644.02123-.14466.03185,0,.22798-.0012.45597.00018.68395.07457,12.25485.149,24.50969.22492,36.76453.00504.81533.02531,1.63055.0318,2.44588.00601.75481.00206.75842-.73002.75932-1.77578.00219-3.55156.00075-5.32734.00072-.98388-.00002-1.96778.00403-2.95162-.0018-.60099-.00356-.6014-.01042-.61351-.58002-.00255-.11986-.00047-.23982-.00047-.35973,0-15.92453,0-31.84906,0-47.77359,0-.11991-.00162-.23986.00039-.35974.00995-.59523.01027-.60566.58401-.60602,4.72741-.00293,9.45488.00708,14.18219-.01478.49037-.00227.65573.24715.8476.6027,3.14174,5.82201,6.29229,11.63927,9.44006,17.45802,3.36448,6.21936,6.72799,12.43925,10.09279,18.65844.11223.20741.23399.40966.35244.61628.28739-.10605.33004-.36856.43806-.56869,5.44182-10.08279,10.87894-20.16812,16.31598-30.25348,1.0692-1.98328,2.14874-3.96119,3.19374-5.95714.22173-.42353.48017-.55631.9509-.55438,4.58334.01873,9.16681.01069,13.75024.01185.7038.00018.70834.00388.70837.69883.00086,16.09241.00086,32.18482,0,48.27723-.00005.69945-.00464.7045-.70547.70506-2.75965.00218-5.51932.00222-8.27897,0-.68069-.00055-.68725-.00591-.68048-.72609.08158-8.68116.16617-17.36229.24799-26.04345.04226-4.48447.08061-8.96898.12053-13.45347.00123-.13958.00016-.27917.00016-.41876l-.14026-.05777Z"/>
      <path class="uuid-27abe803-0db6-48d6-aefa-3808e27de450" d="M486.51393,56.70728v-23.73707c0-.16784-.0032-.33575.00067-.5035.01339-.58087.01434-.59077.60992-.59175,2.51907-.00412,5.03811-.00182,7.55719-.00185.35987,0,.71978-.00266,1.07962.00062q.64603.00588.65155.68539c.00134.16783.00032.33567.00032.50351,0,12.70772.00004,25.41545.00004,38.12317,0,.19181.01624.38526-.00309.5751-.04029.39563.10381.58506.52088.536.16561-.01949.33551-.00305.50344-.00305,9.83637.00001,19.67271-.00083,29.50908.00134.96684.00021.86047-.09646.86194.82792.00411,2.58949.00285,5.17899.00028,7.76849-.00063.65645-.0065.66309-.67633.66316-13.31508.00133-26.63017.00139-39.94525-.00014-.66638-.00007-.66969-.00787-.66976-.75061-.00081-8.03224-.00049-16.06448-.00049-24.09672Z"/>
      <path class="uuid-b1af7889-7e62-4fe4-b6ed-6a12359e8bd3" d="M671.79065,60.91978c-3.55046-.02559-7.10233.07182-10.65082-.12934-1.91667-.10865-3.82238-.28159-5.70288-.70136-4.06603-.90764-6.43662-3.48306-7.39193-7.4549-.61319-2.5495-.5496-5.13964-.36518-7.72693.13496-1.89233.48801-3.74632,1.06313-5.56316.9287-2.93353,2.83669-4.8792,5.72678-5.90419,1.84018-.65262,3.73674-1.05185,5.66607-1.2923,6.47064-.80642,12.97043-.78916,19.47328-.64383,2.39857.0536,4.79383.16178,7.17524.48368,1.57343.21268,3.10267.5777,4.59721,1.12501,3.39273,1.2424,5.35735,3.66287,6.02971,7.17408.36673,1.91483.46495,3.85156.45489,5.79758-.0019.36332-.10497.509-.48604.5076-2.90331-.01068-5.80665-.00962-8.70996-.00121-.34433.001-.46027-.13117-.45953-.46511.00155-.69743-.11717-1.38212-.26626-2.06295-.33727-1.5397-1.23377-2.54365-2.75528-3.02068-1.33382-.41819-2.69379-.68563-4.07753-.83618-4.66928-.50803-9.34137-.34595-14.0136-.0359-1.84454.1224-3.67698.32705-5.47986.75013-.13981.03281-.2767.07813-.41654.11087-2.19569.51415-3.43333,1.91441-3.7366,4.12221-.16709,1.2162-.15675,2.43857.20994,3.63323.37664,1.22705,1.15727,2.06876,2.35649,2.53698,1.08711.42444,2.22955.56188,3.37553.65788,1.55423.1302,3.11328.17417,4.67381.17164,3.09529-.00501,6.19054.00766,9.28582.00343,3.14387-.0043,6.28602.05833,9.42152.29312,1.50586.11276,2.99921.32568,4.47741.65886,4.084.9205,6.47469,3.50407,7.46224,7.49436.27139,1.09657.44182,2.21152.50699,3.33562.19194,3.31336.18561,6.61487-.78021,9.8385-.17226.57492-.38972,1.13194-.63868,1.67746-1.13407,2.48493-3.05595,4.05959-5.6287,4.89898-1.90268.62076-3.86129.95464-5.84367,1.15037-7.13239.70421-14.28354.53461-21.43094.38813-2.63543-.05402-5.27161-.22672-7.87931-.67041-1.01718-.17307-2.01989-.40133-3.00269-.72034-2.67122-.86703-4.43983-2.65538-5.42861-5.2583-.65587-1.72647-.86708-3.53329-.95577-5.35523-.05473-1.12427-.02215-2.25353-.00538-3.3802.00872-.58453.04651-.61323.62145-.61429,2.85532-.00528,5.71068-.00557,8.56601.00063.53452.00116.54665.01843.5503.58303.00714,1.10428.05653,2.20045.29624,3.28655.3347,1.51655,1.19971,2.51146,2.69998,2.97404,1.24639.3843,2.52336.59127,3.81387.68375,4.55408.32633,9.11258.28998,13.6642-.01949,2.4616-.16737,4.92056-.42419,7.34074-.94612.46994-.10135.92413-.25047,1.36778-.43562.82718-.34523,1.45963-.90552,1.89959-1.68629.95897-1.70186,1.21127-3.51815.84985-5.42172-.27181-1.43141-1.12894-2.40949-2.45566-2.9749-1.24681-.53137-2.55419-.80688-3.90917-.86956-3.71688-.17195-7.43668-.11247-11.15528-.14719Z"/>
      <path class="uuid-ee75e31a-5db7-4e2b-9806-9024f77de451" d="M612.28441,60.91969c-3.57496-.02416-7.15137.07273-10.72415-.13262-1.89287-.1088-3.7751-.28347-5.63183-.70007-3.99987-.89748-6.36518-3.41642-7.35551-7.32442-.3675-1.45043-.49525-2.93167-.50995-4.41895-.02928-2.9598.23283-5.88392,1.09038-8.74018.93988-3.13063,2.92465-5.22124,6.03484-6.23689.54644-.17845,1.09473-.35554,1.65115-.49826,2.1663-.55563,4.37574-.83876,6.60036-1.02861,4.52399-.38607,9.05764-.43619,13.5935-.40063,3.0955.02427,6.19012.09988,9.2713.42585,1.88743.19968,3.7353.569,5.53034,1.22528,3.48036,1.27248,5.45912,3.75636,6.11088,7.35689.33435,1.84698.42955,3.71291.42051,5.58565-.0026.53755-.0155.55067-.57713.55161-2.83174.00477-5.66358-.00649-8.49517.011-.44006.00272-.56514-.13244-.58194-.56848-.03037-.78845-.13939-1.57205-.36652-2.33716-.36673-1.23546-1.12356-2.08341-2.34443-2.53238-1.40645-.51722-2.86731-.77386-4.34487-.94816-3.85078-.45426-7.7118-.34594-11.57358-.18815-2.44648.09996-4.8847.27501-7.29153.75173-.42266.08372-.84057.19345-1.25803.30127-2.06506.53337-3.22933,1.89215-3.55148,3.96746-.17356,1.11797-.16368,2.24619.09006,3.36063.34883,1.53202,1.26228,2.54388,2.7621,3.0341.98857.32312,2.01032.45972,3.03742.54162,1.48287.11825,2.96936.17632,4.45839.17367,3.1677-.00563,6.33544.00875,9.50315.0044,3.14429-.00431,6.28682.05565,9.42285.29089,1.57835.11839,3.14531.33039,4.68939.70158,3.78937.91093,6.12357,3.29778,7.16663,7.0073.38459,1.3677.57241,2.7688.65369,4.18243.17127,2.97901.10968,5.94444-.64694,8.85582-.13225.50905-.29624,1.01221-.48056,1.50503-1.134,3.03221-3.31394,4.90865-6.40076,5.80193-2.24691.65021-4.54757.96546-6.86852,1.1451-6.58929.51002-13.18923.40357-19.7864.25081-2.94753-.06825-5.8964-.24269-8.80263-.81566-.87133-.17178-1.72586-.39885-2.56435-.69571-2.33139-.8254-3.93445-2.41106-4.91588-4.65562-.75114-1.7179-1.0258-3.54224-1.12462-5.39016-.06904-1.29149-.03185-2.58922-.02278-3.88403.0038-.54326.0296-.5616.5805-.56266,2.85575-.00552,5.71149-.00565,8.56724.00044.53322.00114.53786.01794.56524.57814.05502,1.12416.06612,2.24808.32637,3.35709.3494,1.48883,1.21465,2.45094,2.68222,2.90591,1.26924.39347,2.57054.59755,3.88569.69069,4.50701.31916,9.01816.28338,13.52256-.01889,2.48606-.16683,4.97006-.42168,7.41274-.95532.35006-.07647.69422-.18614,1.03427-.30081,1.04784-.3533,1.82299-1.01834,2.34193-2.00393.87537-1.66237,1.05473-3.41657.73149-5.23788-.25065-1.41254-1.09192-2.37613-2.38479-2.94476-1.24101-.54583-2.54892-.829-3.90404-.89319-3.74128-.17721-7.48565-.1164-11.22883-.15074Z"/>
      <path class="uuid-4f2cb4cd-f040-4541-84f1-e28d338a2f3b" d="M370.8329,56.71016c-.00002-7.93821-.00002-15.87642.00002-23.81463,0-.19186-.00051-.38417-.00213-.57533-.00317-.3733.14474-.45335.46282-.44882.14331.00204.28775.00175.43173.00175,14.61403-.00002,29.22808-.00064,43.8421.0013,1.0227.00014.91707-.10984.919.92892.00436,2.30231.00288,4.60464.00056,6.90696-.00091.88473.09376.83845-.86968.83846-11.3505.00013-22.70097-.00063-34.05147.00121-1.11658.00018-1.00695-.11475-1.00804.9959-.00327,3.30958-.00128,6.61917-.00098,9.92875.00002.19182.00318.38365.00494.57547.00214.23321.11488.35267.35333.3504.21593-.00206.4319.00243.64786.00244,10.75057.00015,21.50114-.00054,32.2517.0012,1.05378.00017.93162-.09712.93415.91014.00506,2.01452.00204,4.02906.00123,6.04359-.00032.82134-.00162.82344-.81252.82348-10.77457.00048-21.54911-.00147-32.32368.00284-1.19626.00048-1.05308-.17342-1.05513,1.07945-.00584,3.5494-.00211,7.09882-.00207,10.64823,0,.16788.01069.3365-.00149.50347-.02392.32829.09307.50107.44902.47016.19052-.01654.38367-.00235.57565-.00235,11.44647.00003,22.89295-.00084,34.33942.00155.99395.00021.93689-.132.93742.91518.00116,2.35029.00204,4.70057-.00074,7.05086-.00081.69829-.00664.70412-.71894.70417-14.85403.00115-29.70803.00106-44.56206.00029-.73787-.00004-.74138-.00397-.74147-.74261-.00086-8.03414-.00054-16.06828-.00054-24.10242Z"/>
      <path class="uuid-a11400c0-9f76-4839-bdef-eccc472b0444" d="M557.61963,81.55579c-7.2949.00001-14.58981.00002-21.88471-.00003-.19198,0-.38483-.01249-.57575.00163-.35745.02645-.54563-.10225-.5116-.48661.01473-.16653.00127-.33552.00127-.50339-.00007-15.90012-.00053-31.80024.0007-47.70036.00011-1.13825-.08803-.99192,1.0066-.99212,14.56583-.00271,29.13163-.00242,43.69746-.00046.98853.00013.94266-.12834.94273.91386.00021,2.32626.0012,4.65253-.00056,6.97879-.00056.77745-.00394.78111-.79097.78117-11.35028.00081-22.7006-.00017-34.05089.00162-1.27276.0002-1.06376-.09208-1.06703,1.07318-.00928,3.3095-.0033,6.61905-.00313,9.92858,0,.16786.00517.3358.00162.50357-.00513.24142.11306.34908.35021.3457.21592-.00308.4319.00201.64786.00202,10.75038.00014,21.50076-.00081,32.25114.00164,1.01905.00023.91207-.11066.91468.93062.00503,2.01448.00028,4.02899.00204,6.04348.00081.9025.00787.80216-.83635.80225-10.77439.0011-21.54875-.00891-32.32313.00245-.9639.00102-1.01006.05357-1.00604.98038.01579,3.64524-.00267,7.29055-.00169,10.93583.00021.81905-.07734.78357.77357.78357,11.51829-.00004,23.03654-.00136,34.55482.00217,1.08222.00033.95911-.14808.96185.9472.0058,2.32625.0026,4.65252.00112,6.97878-.00049.73987-.00341.74373-.73915.74384-7.4389.00098-14.87776.0006-22.31665.00061Z"/>
      <path class="uuid-d5ee5091-1ced-4c3b-981f-41a5e3831248" d="M168.69073,50.1961c0-5.82817-.00116-11.65634.00117-17.48452.00037-.94318-.08843-.83566.85701-.83706,2.71183-.00401,5.42367-.00284,8.13551-.00063.9233.00075.87622-.09809.87631.90921.00083,8.99409-.00141,17.98819.00539,26.98227.00116,1.53476.01578,3.0704.07066,4.60397.04635,1.2951.25343,2.57471.56871,3.83274.43462,1.73425,1.50084,2.90534,3.17666,3.53623,1.26854.47756,2.58896.71253,3.92767.83344,4.95732.44775,9.92277.36042,14.88888.18976,1.87064-.06428,3.7409-.14254,5.59125-.44211,2.70623-.43815,4.33793-1.97909,4.94256-4.6396.22382-.98487.30867-1.98385.33112-2.99502.16978-7.65023.0611-15.30137.08898-22.95201.01111-3.04596.00097-6.09199.0025-9.13799.00036-.71579.0041-.7204.68891-.72086,2.83183-.00191,5.66366-.00212,8.49549.00021.65261.00054.66421.00632.66316.60381-.01982,11.2725.05984,22.5452-.04637,33.81741-.01875,1.98917-.26696,3.96338-.67231,5.92025-.88681,4.28113-3.56976,6.93284-7.5461,8.43184-1.55977.58801-3.1969.85687-4.84747.99509-7.13739.59769-14.28717.50249-21.43735.33573-2.49613-.05822-4.98364-.22544-7.45264-.61359-1.11462-.17523-2.21607-.41307-3.28674-.77069-3.79505-1.26758-6.10687-3.91489-7.13956-7.72858-.45309-1.67326-.61279-3.39367-.7284-5.11652-.15587-2.32257-.15997-4.64908-.1564-6.97575.00541-3.52568.00142-7.05137.00142-10.57705Z"/>
      <path class="uuid-028d4dce-f1fb-4736-b611-b15cd0083e2b" d="M470.57491,61.43285c.37084.0639.74228.12479,1.11252.19218,2.88714.52555,4.21948,1.86413,4.71575,4.74359.20804,1.2072.30345,2.42451.30401,3.64939.00162,3.6205.00464,7.24099.00429,10.86149-.00007.66776-.00615.67446-.66206.67508-2.87895.00268-5.75789.00311-8.63684-.00039-.62972-.00076-.63763-.00972-.63875-.63339-.00397-2.22984-.00088-4.45969-.00295-6.68954-.00141-1.51283-.08448-3.01725-.44393-4.4958-.44547-1.83248-1.55807-2.97554-3.4245-3.36321-.63499-.1319-1.27117-.24925-1.92047-.26294-.91137-.01923-1.82295-.03454-2.73446-.03486-7.53321-.00268-15.06646-.00172-22.59968-.00123-.95429.00006-.83748-.04599-.83804.86357-.00285,4.5556-.0013,9.11121-.00134,13.66681,0,.16784-.01424.33703.00211.50323.03445.3505-.12508.45381-.46031.45286-2.95091-.00836-5.90182-.00857-8.85272.00043-.36153.0011-.54422-.105-.49771-.49132.01708-.14178.00225-.28738.00225-.43124-.00004-15.94461-.00077-31.88922.00158-47.83382.00014-1.05237-.11801-.92875.90859-.92898,11.82764-.00258,23.65525-.00449,35.48289.00078,2.42405.00108,4.84449.08786,7.23314.55517,2.34541.45885,4.43167,1.39212,5.9698,3.30902,1.0735,1.33786,1.67154,2.89543,2.08576,4.53517.43022,1.70327.63235,3.44288.69823,5.19134.0984,2.61204.09794,5.22527-.24928,7.82544-.12388.92764-.29508,1.84524-.58514,2.73613-.83192,2.55503-2.51194,4.25317-5.10522,5.02131-.2929.08677-.58753.16774-.88138.25141.00461.0441.00921.0882.01385.13231ZM448.13272,56.9224v-.02737c4.05433,0,8.10865.01085,12.16291-.00667,1.20104-.00519,2.38791-.17727,3.5473-.51456,1.86057-.54128,2.97903-1.76467,3.35205-3.65564.45054-2.28363.42294-4.58664.04711-6.86623-.45953-2.78776-1.58461-3.85884-4.36583-4.40777-1.34985-.26642-2.71819-.27054-4.08495-.27129-7.72491-.00424-15.44985-.00234-23.17476-.00221-.1679,0-.33579.00331-.50369.00596-.20667.00325-.3018.11218-.30102.31525.0007.19179-.0032.38359-.0032.57539-.00021,3.90812-.00018,7.81623-.00011,11.72435,0,.88712.00953,1.77438-.00429,2.66128-.00513.32747.09151.50106.44582.47111.1667-.01409.33565-.00162.50358-.00161,4.12636.00005,8.25271.00004,12.37907.00004Z"/>
      <path class="uuid-54b5d7a7-e9df-4134-bf6c-92179abb620c" d="M158.0387,49.35316c0,4.05316.0099,8.10636-.00344,12.15948-.00907,2.75911-.13753,5.51233-.5658,8.24347-.27591,1.75952-.70365,3.47713-1.51138,5.0768-1.58204,3.13315-4.18749,4.98004-7.50563,5.91574-2.17848.61432-4.39921.95984-6.66197,1.05431-5.4688.2283-10.9395.26614-16.4101.12344-3.06974-.08008-6.13576-.25725-9.1379-.99026-1.52403-.37212-2.97644-.92464-4.31093-1.75613-2.75298-1.71531-4.14386-4.30363-4.72455-7.40682-.4619-2.46835-.4474-4.96065-.38359-7.45566.01717-.67127.03843-1.34243.05859-2.01362.01982-.65972.02025-.66499.67605-.6654,3.16767-.002,6.33534-.00092,9.50302-.00092.19198,0,.38406-.00379.57592.00088.53516.01301.54636.01438.54731.56838.00245,1.43892-.01215,2.87792.11187,4.3137.08069.93416.21712,1.85663.56851,2.73377.48082,1.2002,1.3042,2.0461,2.54551,2.46813,1.39399.47393,2.83697.70127,4.29277.85508,4.1171.435,8.24118.38594,12.36471.12258,1.17125-.07481,2.33726-.23251,3.47982-.52815,2.78619-.72092,4.0839-2.22094,4.39413-5.07306.22081-2.03005.25145-4.06722.25182-6.10569.0017-9.40142.00009-18.80284.00172-28.20427.00018-1.04951-.08321-.91252.93025-.91399,3.35965-.00486,6.7193-.00188,10.07895-.00171.16797,0,.33614.00732.50387.00151.25081-.00868.33802.12342.33227.35445-.00477.19172.001.38369.001.57555.00011,5.51614.00009,11.03228.00009,16.54842h-.0029Z"/>
      <path class="uuid-9c51ce0c-8ca3-4e78-ac77-aacea07a1e97" d="M312.37243,56.69768c-.00002-7.98643-.00058-15.97286.00069-23.95929.00016-.96364-.07446-.86407.83308-.8642,11.06288-.00159,22.12576-.00128,33.18865-.00057,2.06413.00013,4.12606.05362,6.18166.26079,1.76275.17766,3.43292.66616,4.99412,1.50337,2.11997,1.13684,3.43971,2.93263,4.20827,5.1714.57983,1.6889.86507,3.43819,1.00959,5.2088.26775,3.28052.26063,6.56459-.00346,9.84479-.1425,1.77003-.42178,3.52057-.9878,5.21346-1.24973,3.73781-3.77522,6.01737-7.67745,6.75418-2.29885.43407-4.62154.52998-6.94883.53391-8.01518.01354-16.03041.00366-24.0456.00719-1.08677.00048-.94231-.12281-.94366.96572-.00545,4.38893-.00227,8.77788-.00229,13.16681,0,.16788-.01371.33709.00248.50338.03735.38371-.08549.60239-.51213.54923-.07087-.00882-.14383-.00089-.21583-.00089-2.78371.00002-5.56743.00105-8.35114-.00068-.72658-.00045-.7298-.0044-.72987-.7542-.00079-8.0344-.00047-16.0688-.00047-24.1032ZM334.52913,41.07866v-.00202c-3.86068,0-7.72136-.00046-11.58204.00039-.76277.00017-.76685.00248-.76703.71555-.00125,4.88887-.00127,9.77774.00005,14.66662.00019.70349.00455.70794.70319.70798,7.33769.00044,14.67537.00065,22.01306-.00269,1.12843-.00051,2.25087-.09764,3.36432-.27986,2.65176-.43397,4.03729-1.66699,4.50634-4.22991.45208-2.47012.40524-4.96541-.11054-7.4282-.42985-2.05256-1.69953-3.3196-3.76926-3.77399-1.22442-.26881-2.4623-.372-3.71126-.37294-3.54895-.00267-7.09788-.00094-10.64683-.00094Z"/>
      <path class="uuid-660e7964-3671-4294-b612-850d23febab2" d="M448.13272,56.9224c-4.12636,0-8.25271,0-12.37907-.00004-.16793,0-.33688-.01248-.50358.00161-.35432.02995-.45096-.14364-.44582-.47111.01382-.8869.00429-1.77416.00429-2.66128-.00007-3.90812-.00011-7.81623.00011-11.72435,0-.1918.0039-.3836.0032-.57539-.00077-.20307.09435-.312.30102-.31525.1679-.00264.33579-.00595.50369-.00596,7.72491-.00013,15.44985-.00203,23.17476.00221,1.36676.00075,2.7351.00487,4.08495.27129,2.78122.54893,3.90629,1.62001,4.36583,4.40777.37583,2.2796.40343,4.5826-.04711,6.86623-.37302,1.89098-1.49148,3.11436-3.35205,3.65564-1.15938.33729-2.34626.50937-3.5473.51456-4.05426.01752-8.10858.00667-12.16291.00667v.02737ZM436.97273,42.16525c-.01438.16583-.02921.2578-.02925.34977-.00148,4.07725-.00281,8.15451-.00046,12.23176.00032.53965.00946.5482.54978.54817,7.55944-.00037,15.11888.00457,22.67828-.01304,1.2942-.00301,2.59075-.09184,3.85715-.3983,1.46435-.35436,2.45327-1.23497,2.68919-2.74665.36444-2.33561.34634-4.68246-.08303-7.01341-.26925-1.46161-1.20023-2.29656-2.62158-2.61412-1.27191-.28416-2.56762-.3315-3.86393-.33278-7.48741-.00741-14.97482-.0083-22.46222-.01138-.21557-.00009-.43113-.00001-.71391-.00001Z"/>
      <path class="uuid-660e7964-3671-4294-b612-850d23febab2" d="M334.52913,41.07866c3.54895,0,7.09788-.00173,10.64683.00094,1.24896.00094,2.48684.10413,3.71126.37294,2.06973.45439,3.33941,1.72143,3.76926,3.77399.51578,2.46278.56262,4.95808.11054,7.4282-.46904,2.56292-1.85457,3.79595-4.50634,4.22991-1.11345.18222-2.23589.27934-3.36432.27986-7.33769.00334-14.67537.00313-22.01306.00269-.69864-.00004-.70299-.00449-.70319-.70798-.00132-4.88887-.0013-9.77774-.00005-14.66662.00018-.71307.00425-.71539.76703-.71555,3.86068-.00085,7.72136-.00039,11.58204-.00039v.00202ZM336.11219,55.49508c3.09562,0,6.19126.00028,9.28688-.00013,1.34498-.00018,2.68609-.04904,4.00796-.32997,1.62106-.34452,2.60061-1.38087,2.88028-3.00424.13086-.75976.18189-1.52467.19866-2.2905.0347-1.5826.02067-3.16391-.31387-4.72402-.34122-1.59106-1.34025-2.49017-2.91379-2.78369-1.18299-.22067-2.3793-.28438-3.58136-.28388-6.86318.00286-13.72633.00135-20.58951.00133-.11998,0-.24207.01449-.35957-.00258-.37038-.0538-.44099.13573-.43519.45845.01508.83912.00425,1.6787.00424,2.5181-.00012,3.28564-.00121,6.57129.00105,9.85693.0004.57625.00701.57652.58359.58403.11996.00156.23996.00025.35994.00025,3.62356,0,7.24713,0,10.87069-.00006Z"/>
    </g>
  </g>
</svg>