G04 #@! TF.GenerationSoftware,KiCad,Pcbnew,8.0.6*
G04 #@! TF.CreationDate,2024-11-19T14:30:18-08:00*
G04 #@! TF.ProjectId,V5ProbeTop,56355072-6f62-4655-946f-702e6b696361,rev?*
G04 #@! TF.SameCoordinates,Original*
G04 #@! TF.FileFunction,Other,User*
%FSLAX46Y46*%
G04 Gerber Fmt 4.6, Leading zero omitted, Abs format (unit mm)*
G04 Created by KiCad (PCBNEW 8.0.6) date 2024-11-19 14:30:18*
%MOMM*%
%LPD*%
G01*
G04 APERTURE LIST*
%ADD10C,0.150000*%
%ADD11C,0.050000*%
G04 APERTURE END LIST*
D10*
X119549231Y-73823378D02*
X120168278Y-73823378D01*
X120168278Y-73823378D02*
X119834945Y-74204330D01*
X119834945Y-74204330D02*
X119977802Y-74204330D01*
X119977802Y-74204330D02*
X120073040Y-74251949D01*
X120073040Y-74251949D02*
X120120659Y-74299568D01*
X120120659Y-74299568D02*
X120168278Y-74394806D01*
X120168278Y-74394806D02*
X120168278Y-74632901D01*
X120168278Y-74632901D02*
X120120659Y-74728139D01*
X120120659Y-74728139D02*
X120073040Y-74775759D01*
X120073040Y-74775759D02*
X119977802Y-74823378D01*
X119977802Y-74823378D02*
X119692088Y-74823378D01*
X119692088Y-74823378D02*
X119596850Y-74775759D01*
X119596850Y-74775759D02*
X119549231Y-74728139D01*
X120501612Y-73823378D02*
X121120659Y-73823378D01*
X121120659Y-73823378D02*
X120787326Y-74204330D01*
X120787326Y-74204330D02*
X120930183Y-74204330D01*
X120930183Y-74204330D02*
X121025421Y-74251949D01*
X121025421Y-74251949D02*
X121073040Y-74299568D01*
X121073040Y-74299568D02*
X121120659Y-74394806D01*
X121120659Y-74394806D02*
X121120659Y-74632901D01*
X121120659Y-74632901D02*
X121073040Y-74728139D01*
X121073040Y-74728139D02*
X121025421Y-74775759D01*
X121025421Y-74775759D02*
X120930183Y-74823378D01*
X120930183Y-74823378D02*
X120644469Y-74823378D01*
X120644469Y-74823378D02*
X120549231Y-74775759D01*
X120549231Y-74775759D02*
X120501612Y-74728139D01*
X121549231Y-74728139D02*
X121596850Y-74775759D01*
X121596850Y-74775759D02*
X121549231Y-74823378D01*
X121549231Y-74823378D02*
X121501612Y-74775759D01*
X121501612Y-74775759D02*
X121549231Y-74728139D01*
X121549231Y-74728139D02*
X121549231Y-74823378D01*
X121977802Y-73918616D02*
X122025421Y-73870997D01*
X122025421Y-73870997D02*
X122120659Y-73823378D01*
X122120659Y-73823378D02*
X122358754Y-73823378D01*
X122358754Y-73823378D02*
X122453992Y-73870997D01*
X122453992Y-73870997D02*
X122501611Y-73918616D01*
X122501611Y-73918616D02*
X122549230Y-74013854D01*
X122549230Y-74013854D02*
X122549230Y-74109092D01*
X122549230Y-74109092D02*
X122501611Y-74251949D01*
X122501611Y-74251949D02*
X121930183Y-74823378D01*
X121930183Y-74823378D02*
X122549230Y-74823378D01*
X123453992Y-73823378D02*
X122977802Y-73823378D01*
X122977802Y-73823378D02*
X122930183Y-74299568D01*
X122930183Y-74299568D02*
X122977802Y-74251949D01*
X122977802Y-74251949D02*
X123073040Y-74204330D01*
X123073040Y-74204330D02*
X123311135Y-74204330D01*
X123311135Y-74204330D02*
X123406373Y-74251949D01*
X123406373Y-74251949D02*
X123453992Y-74299568D01*
X123453992Y-74299568D02*
X123501611Y-74394806D01*
X123501611Y-74394806D02*
X123501611Y-74632901D01*
X123501611Y-74632901D02*
X123453992Y-74728139D01*
X123453992Y-74728139D02*
X123406373Y-74775759D01*
X123406373Y-74775759D02*
X123311135Y-74823378D01*
X123311135Y-74823378D02*
X123073040Y-74823378D01*
X123073040Y-74823378D02*
X122977802Y-74775759D01*
X122977802Y-74775759D02*
X122930183Y-74728139D01*
X124358754Y-74156711D02*
X124358754Y-74823378D01*
X124120659Y-73775759D02*
X123882564Y-74490044D01*
X123882564Y-74490044D02*
X124501611Y-74490044D01*
X124834945Y-73918616D02*
X124882564Y-73870997D01*
X124882564Y-73870997D02*
X124977802Y-73823378D01*
X124977802Y-73823378D02*
X125215897Y-73823378D01*
X125215897Y-73823378D02*
X125311135Y-73870997D01*
X125311135Y-73870997D02*
X125358754Y-73918616D01*
X125358754Y-73918616D02*
X125406373Y-74013854D01*
X125406373Y-74013854D02*
X125406373Y-74109092D01*
X125406373Y-74109092D02*
X125358754Y-74251949D01*
X125358754Y-74251949D02*
X124787326Y-74823378D01*
X124787326Y-74823378D02*
X125406373Y-74823378D01*
X126596850Y-74823378D02*
X126596850Y-74156711D01*
X126596850Y-74251949D02*
X126644469Y-74204330D01*
X126644469Y-74204330D02*
X126739707Y-74156711D01*
X126739707Y-74156711D02*
X126882564Y-74156711D01*
X126882564Y-74156711D02*
X126977802Y-74204330D01*
X126977802Y-74204330D02*
X127025421Y-74299568D01*
X127025421Y-74299568D02*
X127025421Y-74823378D01*
X127025421Y-74299568D02*
X127073040Y-74204330D01*
X127073040Y-74204330D02*
X127168278Y-74156711D01*
X127168278Y-74156711D02*
X127311135Y-74156711D01*
X127311135Y-74156711D02*
X127406374Y-74204330D01*
X127406374Y-74204330D02*
X127453993Y-74299568D01*
X127453993Y-74299568D02*
X127453993Y-74823378D01*
X127930183Y-74823378D02*
X127930183Y-74156711D01*
X127930183Y-74251949D02*
X127977802Y-74204330D01*
X127977802Y-74204330D02*
X128073040Y-74156711D01*
X128073040Y-74156711D02*
X128215897Y-74156711D01*
X128215897Y-74156711D02*
X128311135Y-74204330D01*
X128311135Y-74204330D02*
X128358754Y-74299568D01*
X128358754Y-74299568D02*
X128358754Y-74823378D01*
X128358754Y-74299568D02*
X128406373Y-74204330D01*
X128406373Y-74204330D02*
X128501611Y-74156711D01*
X128501611Y-74156711D02*
X128644468Y-74156711D01*
X128644468Y-74156711D02*
X128739707Y-74204330D01*
X128739707Y-74204330D02*
X128787326Y-74299568D01*
X128787326Y-74299568D02*
X128787326Y-74823378D01*
D11*
X107588794Y-85686559D02*
X107588794Y-74932139D01*
X140843000Y-85686559D02*
X140843000Y-74932139D01*
X107588794Y-75518559D02*
X140843000Y-75518559D01*
X107588794Y-75518559D02*
X140843000Y-75518559D01*
X107588794Y-75518559D02*
X108715298Y-74932138D01*
X107588794Y-75518559D02*
X108715298Y-76104980D01*
X140843000Y-75518559D02*
X139716496Y-76104980D01*
X140843000Y-75518559D02*
X139716496Y-74932138D01*
D10*
X136710040Y-97699378D02*
X136519564Y-97699378D01*
X136519564Y-97699378D02*
X136424326Y-97746997D01*
X136424326Y-97746997D02*
X136376707Y-97794616D01*
X136376707Y-97794616D02*
X136281469Y-97937473D01*
X136281469Y-97937473D02*
X136233850Y-98127949D01*
X136233850Y-98127949D02*
X136233850Y-98508901D01*
X136233850Y-98508901D02*
X136281469Y-98604139D01*
X136281469Y-98604139D02*
X136329088Y-98651759D01*
X136329088Y-98651759D02*
X136424326Y-98699378D01*
X136424326Y-98699378D02*
X136614802Y-98699378D01*
X136614802Y-98699378D02*
X136710040Y-98651759D01*
X136710040Y-98651759D02*
X136757659Y-98604139D01*
X136757659Y-98604139D02*
X136805278Y-98508901D01*
X136805278Y-98508901D02*
X136805278Y-98270806D01*
X136805278Y-98270806D02*
X136757659Y-98175568D01*
X136757659Y-98175568D02*
X136710040Y-98127949D01*
X136710040Y-98127949D02*
X136614802Y-98080330D01*
X136614802Y-98080330D02*
X136424326Y-98080330D01*
X136424326Y-98080330D02*
X136329088Y-98127949D01*
X136329088Y-98127949D02*
X136281469Y-98175568D01*
X136281469Y-98175568D02*
X136233850Y-98270806D01*
X137662421Y-97699378D02*
X137471945Y-97699378D01*
X137471945Y-97699378D02*
X137376707Y-97746997D01*
X137376707Y-97746997D02*
X137329088Y-97794616D01*
X137329088Y-97794616D02*
X137233850Y-97937473D01*
X137233850Y-97937473D02*
X137186231Y-98127949D01*
X137186231Y-98127949D02*
X137186231Y-98508901D01*
X137186231Y-98508901D02*
X137233850Y-98604139D01*
X137233850Y-98604139D02*
X137281469Y-98651759D01*
X137281469Y-98651759D02*
X137376707Y-98699378D01*
X137376707Y-98699378D02*
X137567183Y-98699378D01*
X137567183Y-98699378D02*
X137662421Y-98651759D01*
X137662421Y-98651759D02*
X137710040Y-98604139D01*
X137710040Y-98604139D02*
X137757659Y-98508901D01*
X137757659Y-98508901D02*
X137757659Y-98270806D01*
X137757659Y-98270806D02*
X137710040Y-98175568D01*
X137710040Y-98175568D02*
X137662421Y-98127949D01*
X137662421Y-98127949D02*
X137567183Y-98080330D01*
X137567183Y-98080330D02*
X137376707Y-98080330D01*
X137376707Y-98080330D02*
X137281469Y-98127949D01*
X137281469Y-98127949D02*
X137233850Y-98175568D01*
X137233850Y-98175568D02*
X137186231Y-98270806D01*
X138186231Y-98604139D02*
X138233850Y-98651759D01*
X138233850Y-98651759D02*
X138186231Y-98699378D01*
X138186231Y-98699378D02*
X138138612Y-98651759D01*
X138138612Y-98651759D02*
X138186231Y-98604139D01*
X138186231Y-98604139D02*
X138186231Y-98699378D01*
X139138611Y-97699378D02*
X138662421Y-97699378D01*
X138662421Y-97699378D02*
X138614802Y-98175568D01*
X138614802Y-98175568D02*
X138662421Y-98127949D01*
X138662421Y-98127949D02*
X138757659Y-98080330D01*
X138757659Y-98080330D02*
X138995754Y-98080330D01*
X138995754Y-98080330D02*
X139090992Y-98127949D01*
X139090992Y-98127949D02*
X139138611Y-98175568D01*
X139138611Y-98175568D02*
X139186230Y-98270806D01*
X139186230Y-98270806D02*
X139186230Y-98508901D01*
X139186230Y-98508901D02*
X139138611Y-98604139D01*
X139138611Y-98604139D02*
X139090992Y-98651759D01*
X139090992Y-98651759D02*
X138995754Y-98699378D01*
X138995754Y-98699378D02*
X138757659Y-98699378D01*
X138757659Y-98699378D02*
X138662421Y-98651759D01*
X138662421Y-98651759D02*
X138614802Y-98604139D01*
X139567183Y-97794616D02*
X139614802Y-97746997D01*
X139614802Y-97746997D02*
X139710040Y-97699378D01*
X139710040Y-97699378D02*
X139948135Y-97699378D01*
X139948135Y-97699378D02*
X140043373Y-97746997D01*
X140043373Y-97746997D02*
X140090992Y-97794616D01*
X140090992Y-97794616D02*
X140138611Y-97889854D01*
X140138611Y-97889854D02*
X140138611Y-97985092D01*
X140138611Y-97985092D02*
X140090992Y-98127949D01*
X140090992Y-98127949D02*
X139519564Y-98699378D01*
X139519564Y-98699378D02*
X140138611Y-98699378D01*
X140710040Y-98127949D02*
X140614802Y-98080330D01*
X140614802Y-98080330D02*
X140567183Y-98032711D01*
X140567183Y-98032711D02*
X140519564Y-97937473D01*
X140519564Y-97937473D02*
X140519564Y-97889854D01*
X140519564Y-97889854D02*
X140567183Y-97794616D01*
X140567183Y-97794616D02*
X140614802Y-97746997D01*
X140614802Y-97746997D02*
X140710040Y-97699378D01*
X140710040Y-97699378D02*
X140900516Y-97699378D01*
X140900516Y-97699378D02*
X140995754Y-97746997D01*
X140995754Y-97746997D02*
X141043373Y-97794616D01*
X141043373Y-97794616D02*
X141090992Y-97889854D01*
X141090992Y-97889854D02*
X141090992Y-97937473D01*
X141090992Y-97937473D02*
X141043373Y-98032711D01*
X141043373Y-98032711D02*
X140995754Y-98080330D01*
X140995754Y-98080330D02*
X140900516Y-98127949D01*
X140900516Y-98127949D02*
X140710040Y-98127949D01*
X140710040Y-98127949D02*
X140614802Y-98175568D01*
X140614802Y-98175568D02*
X140567183Y-98223187D01*
X140567183Y-98223187D02*
X140519564Y-98318425D01*
X140519564Y-98318425D02*
X140519564Y-98508901D01*
X140519564Y-98508901D02*
X140567183Y-98604139D01*
X140567183Y-98604139D02*
X140614802Y-98651759D01*
X140614802Y-98651759D02*
X140710040Y-98699378D01*
X140710040Y-98699378D02*
X140900516Y-98699378D01*
X140900516Y-98699378D02*
X140995754Y-98651759D01*
X140995754Y-98651759D02*
X141043373Y-98604139D01*
X141043373Y-98604139D02*
X141090992Y-98508901D01*
X141090992Y-98508901D02*
X141090992Y-98318425D01*
X141090992Y-98318425D02*
X141043373Y-98223187D01*
X141043373Y-98223187D02*
X140995754Y-98175568D01*
X140995754Y-98175568D02*
X140900516Y-98127949D01*
X141471945Y-97794616D02*
X141519564Y-97746997D01*
X141519564Y-97746997D02*
X141614802Y-97699378D01*
X141614802Y-97699378D02*
X141852897Y-97699378D01*
X141852897Y-97699378D02*
X141948135Y-97746997D01*
X141948135Y-97746997D02*
X141995754Y-97794616D01*
X141995754Y-97794616D02*
X142043373Y-97889854D01*
X142043373Y-97889854D02*
X142043373Y-97985092D01*
X142043373Y-97985092D02*
X141995754Y-98127949D01*
X141995754Y-98127949D02*
X141424326Y-98699378D01*
X141424326Y-98699378D02*
X142043373Y-98699378D01*
X143233850Y-98699378D02*
X143233850Y-98032711D01*
X143233850Y-98127949D02*
X143281469Y-98080330D01*
X143281469Y-98080330D02*
X143376707Y-98032711D01*
X143376707Y-98032711D02*
X143519564Y-98032711D01*
X143519564Y-98032711D02*
X143614802Y-98080330D01*
X143614802Y-98080330D02*
X143662421Y-98175568D01*
X143662421Y-98175568D02*
X143662421Y-98699378D01*
X143662421Y-98175568D02*
X143710040Y-98080330D01*
X143710040Y-98080330D02*
X143805278Y-98032711D01*
X143805278Y-98032711D02*
X143948135Y-98032711D01*
X143948135Y-98032711D02*
X144043374Y-98080330D01*
X144043374Y-98080330D02*
X144090993Y-98175568D01*
X144090993Y-98175568D02*
X144090993Y-98699378D01*
X144567183Y-98699378D02*
X144567183Y-98032711D01*
X144567183Y-98127949D02*
X144614802Y-98080330D01*
X144614802Y-98080330D02*
X144710040Y-98032711D01*
X144710040Y-98032711D02*
X144852897Y-98032711D01*
X144852897Y-98032711D02*
X144948135Y-98080330D01*
X144948135Y-98080330D02*
X144995754Y-98175568D01*
X144995754Y-98175568D02*
X144995754Y-98699378D01*
X144995754Y-98175568D02*
X145043373Y-98080330D01*
X145043373Y-98080330D02*
X145138611Y-98032711D01*
X145138611Y-98032711D02*
X145281468Y-98032711D01*
X145281468Y-98032711D02*
X145376707Y-98080330D01*
X145376707Y-98080330D02*
X145424326Y-98175568D01*
X145424326Y-98175568D02*
X145424326Y-98699378D01*
D11*
X174117000Y-86686559D02*
X174117000Y-99980979D01*
X107588794Y-86686559D02*
X107588794Y-99980979D01*
X174117000Y-99394559D02*
X107588794Y-99394559D01*
X174117000Y-99394559D02*
X107588794Y-99394559D01*
X174117000Y-99394559D02*
X172990496Y-99980980D01*
X174117000Y-99394559D02*
X172990496Y-98808138D01*
X107588794Y-99394559D02*
X108715298Y-98808138D01*
X107588794Y-99394559D02*
X108715298Y-99980980D01*
M02*
