G04 #@! TF.GenerationSoftware,KiCad,Pcbnew,9.0.4*
G04 #@! TF.CreationDate,2025-10-21T16:07:13-07:00*
G04 #@! TF.ProjectId,JumperlessV5r7,4a756d70-6572-46c6-9573-73563572372e,rev?*
G04 #@! TF.SameCoordinates,Original*
G04 #@! TF.FileFunction,Profile,NP*
%FSLAX46Y46*%
G04 Gerber Fmt 4.6, Leading zero omitted, Abs format (unit mm)*
G04 Created by KiCad (PCBNEW 9.0.4) date 2025-10-21 16:07:13*
%MOMM*%
%LPD*%
G01*
G04 APERTURE LIST*
G04 #@! TA.AperFunction,Profile*
%ADD10C,0.100000*%
G04 #@! TD*
%ADD11C,0.100000*%
G04 APERTURE END LIST*
D10*
X110708700Y-148490400D02*
X110708700Y-105564400D01*
X28158700Y-99595400D02*
X28158700Y-77751400D01*
X107470200Y-152935400D02*
X104866700Y-152935400D01*
X107406700Y-100992400D02*
X107406700Y-101055900D01*
X28158700Y-148490400D02*
X29555700Y-148490400D01*
X31333700Y-99595400D02*
X28158700Y-99595400D01*
X110708700Y-148490400D02*
X109311700Y-148490400D01*
X104866700Y-154332400D02*
X34000700Y-154332400D01*
X31460700Y-101055900D02*
X29555700Y-102960900D01*
X29555700Y-148490400D02*
X29555700Y-151093900D01*
X34127700Y-71782400D02*
X28158700Y-77751400D01*
X104866700Y-152935400D02*
X104866700Y-154332400D01*
X107406700Y-101055900D02*
X109311700Y-102960900D01*
X31460700Y-99595400D02*
X31460700Y-101055900D01*
X107533700Y-99595400D02*
X107406700Y-99595400D01*
X31333700Y-99595400D02*
X31460700Y-99595400D01*
X31397200Y-152935400D02*
X34000700Y-152935400D01*
X109311700Y-148490400D02*
X109311700Y-151093900D01*
X110708700Y-78767400D02*
X103723700Y-71782400D01*
X29555700Y-102960900D02*
X29555700Y-105564400D01*
X28158700Y-105564400D02*
X28158700Y-148490400D01*
X34000700Y-152935400D02*
X34000700Y-154332400D01*
X109311700Y-105564400D02*
X110708700Y-105564400D01*
X103723700Y-71782400D02*
X34127700Y-71782400D01*
X29555700Y-105564400D02*
X28158700Y-105564400D01*
X109311700Y-151093900D02*
X107470200Y-152935400D01*
X107533700Y-99595400D02*
X110708700Y-99595400D01*
X109311700Y-102960900D02*
X109311700Y-105564400D01*
X107406700Y-99595400D02*
X107406700Y-100992400D01*
X110708700Y-99595400D02*
X110708700Y-78767400D01*
X29555700Y-151093900D02*
X31397200Y-152935400D01*
X110708700Y-148490400D02*
X110708700Y-105564400D01*
X28158700Y-99595400D02*
X28158700Y-77751400D01*
X107470200Y-152935400D02*
X104866700Y-152935400D01*
X107406700Y-100992400D02*
X107406700Y-101055900D01*
X28158700Y-148490400D02*
X29555700Y-148490400D01*
X31333700Y-99595400D02*
X28158700Y-99595400D01*
X110708700Y-148490400D02*
X109311700Y-148490400D01*
X104866700Y-154332400D02*
X34000700Y-154332400D01*
X31460700Y-101055900D02*
X29555700Y-102960900D01*
X29555700Y-148490400D02*
X29555700Y-151093900D01*
X34127700Y-71782400D02*
X28158700Y-77751400D01*
X104866700Y-152935400D02*
X104866700Y-154332400D01*
X107406700Y-101055900D02*
X109311700Y-102960900D01*
X31460700Y-99595400D02*
X31460700Y-101055900D01*
X107533700Y-99595400D02*
X107406700Y-99595400D01*
X31333700Y-99595400D02*
X31460700Y-99595400D01*
X31397200Y-152935400D02*
X34000700Y-152935400D01*
X109311700Y-148490400D02*
X109311700Y-151093900D01*
X110708700Y-78767400D02*
X103723700Y-71782400D01*
X29555700Y-102960900D02*
X29555700Y-105564400D01*
X28158700Y-105564400D02*
X28158700Y-148490400D01*
X34000700Y-152935400D02*
X34000700Y-154332400D01*
X109311700Y-105564400D02*
X110708700Y-105564400D01*
X103723700Y-71782400D02*
X34127700Y-71782400D01*
X29555700Y-105564400D02*
X28158700Y-105564400D01*
X109311700Y-151093900D02*
X107470200Y-152935400D01*
X107533700Y-99595400D02*
X110708700Y-99595400D01*
X109311700Y-102960900D02*
X109311700Y-105564400D01*
X107406700Y-99595400D02*
X107406700Y-100992400D01*
X110708700Y-99595400D02*
X110708700Y-78767400D01*
X29555700Y-151093900D02*
X31397200Y-152935400D01*
D11*
X104866700Y-154332400D02*
X34000700Y-154332400D01*
X103723700Y-71782400D02*
X34127700Y-71782400D01*
M02*
