%TF.GenerationSoftware,KiCad,Pcbnew,8.0.1*%
%TF.CreationDate,2024-03-29T07:39:29-07:00*%
%TF.ProjectId,V5LEDboard,56354c45-4462-46f6-9172-642e6b696361,rev?*%
%TF.SameCoordinates,Original*%
%TF.FileFunction,Paste,Top*%
%TF.FilePolarity,Positive*%
%FSLAX46Y46*%
G04 Gerber Fmt 4.6, Leading zero omitted, Abs format (unit mm)*
G04 Created by KiCad (PCBNEW 8.0.1) date 2024-03-29 07:39:29*
%MOMM*%
%LPD*%
G01*
G04 APERTURE LIST*
G04 Aperture macros list*
%AMRotRect*
0 Rectangle, with rotation*
0 The origin of the aperture is its center*
0 $1 length*
0 $2 width*
0 $3 Rotation angle, in degrees counterclockwise*
0 Add horizontal line*
21,1,$1,$2,0,0,$3*%
G04 Aperture macros list end*
%ADD10R,0.450000X0.450000*%
%ADD11RotRect,0.450000X0.450000X118.000000*%
%ADD12RotRect,0.450000X0.450000X95.000000*%
%ADD13RotRect,0.450000X0.450000X220.500000*%
%ADD14RotRect,0.450000X0.450000X141.000000*%
G04 APERTURE END LIST*
D10*
%TO.C,D16*%
X122765000Y-105791000D03*
X123615000Y-105791000D03*
X122765000Y-106641000D03*
X123615000Y-106641000D03*
%TD*%
%TO.C,D17*%
X125305000Y-105791000D03*
X126155000Y-105791000D03*
X125305000Y-106641000D03*
X126155000Y-106641000D03*
%TD*%
%TO.C,D12*%
X130385000Y-84074000D03*
X131235000Y-84074000D03*
X130385000Y-84924000D03*
X131235000Y-84924000D03*
%TD*%
%TO.C,D24*%
X143085000Y-105791000D03*
X143935000Y-105791000D03*
X143085000Y-106641000D03*
X143935000Y-106641000D03*
%TD*%
%TO.C,D18*%
X127845000Y-105791000D03*
X128695000Y-105791000D03*
X127845000Y-106641000D03*
X128695000Y-106641000D03*
%TD*%
D11*
%TO.C,D34*%
X118543873Y-95875578D03*
X118144822Y-95125073D03*
X119294378Y-95476527D03*
X118895327Y-94726022D03*
%TD*%
D10*
%TO.C,D11*%
X132925000Y-84074000D03*
X133775000Y-84074000D03*
X132925000Y-84924000D03*
X133775000Y-84924000D03*
%TD*%
%TO.C,D20*%
X132925000Y-105791000D03*
X133775000Y-105791000D03*
X132925000Y-106641000D03*
X133775000Y-106641000D03*
%TD*%
D12*
%TO.C,D36*%
X119069859Y-98631424D03*
X118995776Y-97784659D03*
X119916624Y-98557341D03*
X119842541Y-97710576D03*
%TD*%
D13*
%TO.C,D43*%
X113451379Y-99005561D03*
X112805039Y-99557579D03*
X112899361Y-98359221D03*
X112253021Y-98911239D03*
%TD*%
D10*
%TO.C,D9*%
X138005000Y-84074000D03*
X138855000Y-84074000D03*
X138005000Y-84924000D03*
X138855000Y-84924000D03*
%TD*%
D13*
%TO.C,D41*%
X114441979Y-100173961D03*
X113795639Y-100725979D03*
X113889961Y-99527621D03*
X113243621Y-100079639D03*
%TD*%
D10*
%TO.C,D28*%
X153245000Y-105791000D03*
X154095000Y-105791000D03*
X153245000Y-106641000D03*
X154095000Y-106641000D03*
%TD*%
D13*
%TO.C,D42*%
X115127779Y-98751561D03*
X114481439Y-99303579D03*
X114575761Y-98105221D03*
X113929421Y-98657239D03*
%TD*%
D10*
%TO.C,D26*%
X148165000Y-105791000D03*
X149015000Y-105791000D03*
X148165000Y-106641000D03*
X149015000Y-106641000D03*
%TD*%
%TO.C,D21*%
X135465000Y-105791000D03*
X136315000Y-105791000D03*
X135465000Y-106641000D03*
X136315000Y-106641000D03*
%TD*%
%TO.C,D4*%
X150705000Y-84074000D03*
X151555000Y-84074000D03*
X150705000Y-84924000D03*
X151555000Y-84924000D03*
%TD*%
D13*
%TO.C,D40*%
X112943388Y-100681956D03*
X112297044Y-101233988D03*
X112391356Y-100035612D03*
X111745012Y-100587644D03*
%TD*%
D10*
%TO.C,D5*%
X148165000Y-84074000D03*
X149015000Y-84074000D03*
X148165000Y-84924000D03*
X149015000Y-84924000D03*
%TD*%
%TO.C,D3*%
X153245000Y-84074000D03*
X154095000Y-84074000D03*
X153245000Y-84924000D03*
X154095000Y-84924000D03*
%TD*%
D13*
%TO.C,D37*%
X113984779Y-97405361D03*
X113338439Y-97957379D03*
X113432761Y-96759021D03*
X112786421Y-97311039D03*
%TD*%
D10*
%TO.C,D15*%
X122765000Y-84074000D03*
X123615000Y-84074000D03*
X122765000Y-84924000D03*
X123615000Y-84924000D03*
%TD*%
%TO.C,D19*%
X130385000Y-105791000D03*
X131235000Y-105791000D03*
X130385000Y-106641000D03*
X131235000Y-106641000D03*
%TD*%
%TO.C,D27*%
X150705000Y-105791000D03*
X151555000Y-105791000D03*
X150705000Y-106641000D03*
X151555000Y-106641000D03*
%TD*%
D13*
%TO.C,D39*%
X111800379Y-99234161D03*
X111154039Y-99786179D03*
X111248361Y-98587821D03*
X110602021Y-99139839D03*
%TD*%
D14*
%TO.C,D32*%
X116864052Y-93676896D03*
X116203478Y-93141974D03*
X117398974Y-93016322D03*
X116738400Y-92481400D03*
%TD*%
D10*
%TO.C,D8*%
X140545000Y-84074000D03*
X141395000Y-84074000D03*
X140545000Y-84924000D03*
X141395000Y-84924000D03*
%TD*%
D14*
%TO.C,D31*%
X115797252Y-95023096D03*
X115136678Y-94488174D03*
X116332174Y-94362522D03*
X115671600Y-93827600D03*
%TD*%
D11*
%TO.C,D33*%
X116969073Y-96713778D03*
X116570022Y-95963273D03*
X117719578Y-96314727D03*
X117320527Y-95564222D03*
%TD*%
D10*
%TO.C,D29*%
X155785000Y-105791000D03*
X156635000Y-105791000D03*
X155785000Y-106641000D03*
X156635000Y-106641000D03*
%TD*%
%TO.C,D2*%
X155785000Y-84074000D03*
X156635000Y-84074000D03*
X155785000Y-84924000D03*
X156635000Y-84924000D03*
%TD*%
%TO.C,D6*%
X145625000Y-84074000D03*
X146475000Y-84074000D03*
X145625000Y-84924000D03*
X146475000Y-84924000D03*
%TD*%
%TO.C,D23*%
X140545000Y-105791000D03*
X141395000Y-105791000D03*
X140545000Y-106641000D03*
X141395000Y-106641000D03*
%TD*%
%TO.C,D30*%
X158325000Y-105791000D03*
X159175000Y-105791000D03*
X158325000Y-106641000D03*
X159175000Y-106641000D03*
%TD*%
%TO.C,D7*%
X143085000Y-84074000D03*
X143935000Y-84074000D03*
X143085000Y-84924000D03*
X143935000Y-84924000D03*
%TD*%
%TO.C,D25*%
X145625000Y-105791000D03*
X146475000Y-105791000D03*
X145625000Y-106641000D03*
X146475000Y-106641000D03*
%TD*%
%TO.C,D22*%
X138005000Y-105791000D03*
X138855000Y-105791000D03*
X138005000Y-106641000D03*
X138855000Y-106641000D03*
%TD*%
%TO.C,D13*%
X127845000Y-84074000D03*
X128695000Y-84074000D03*
X127845000Y-84924000D03*
X128695000Y-84924000D03*
%TD*%
D12*
%TO.C,D35*%
X117114059Y-98809224D03*
X117039976Y-97962459D03*
X117960824Y-98735141D03*
X117886741Y-97888376D03*
%TD*%
D10*
%TO.C,D14*%
X125305000Y-84074000D03*
X126155000Y-84074000D03*
X125305000Y-84924000D03*
X126155000Y-84924000D03*
%TD*%
%TO.C,D1*%
X158325000Y-84074000D03*
X159175000Y-84074000D03*
X158325000Y-84924000D03*
X159175000Y-84924000D03*
%TD*%
%TO.C,D10*%
X135465000Y-84074000D03*
X136315000Y-84074000D03*
X135465000Y-84924000D03*
X136315000Y-84924000D03*
%TD*%
D13*
%TO.C,D38*%
X112435379Y-97786361D03*
X111789039Y-98338379D03*
X111883361Y-97140021D03*
X111237021Y-97692039D03*
%TD*%
M02*
