M48
INCH
T1C0.0079
T2C0.0300
T3C0.0394
%
G90
G05
T1
X4.355Y-3.865
X4.3768Y-3.9455
X4.3798Y-3.9736
X4.4173Y-3.802
X4.4301Y-3.8733
X4.4524Y-3.9182
X4.465Y-3.84
X4.472Y-3.9913
X4.4871Y-3.7769
X4.5032Y-3.7942
X4.52Y-3.745
X4.533Y-3.923
X4.537Y-3.862
X4.585Y-3.75
X4.6129Y-3.9622
X4.63Y-3.93
X4.64Y-3.825
X4.645Y-3.685
X4.65Y-3.915
X4.651Y-3.72
X4.683Y-3.638
X4.685Y-3.815
X4.72Y-3.52
X4.723Y-3.707
X4.78Y-4.12
X4.825Y-3.38
X4.855Y-3.284
X6.1235Y-4.2073
T2
X4.9Y-3.422
X6.35Y-3.322
T3
X5.95Y-3.5
X6.15Y-4.1
M30
