%TF.GenerationSoftware,KiCad,Pcbnew,8.0.1*%
%TF.CreationDate,2024-03-29T07:39:29-07:00*%
%TF.ProjectId,V5LEDboard,56354c45-4462-46f6-9172-642e6b696361,rev?*%
%TF.SameCoordinates,Original*%
%TF.FileFunction,Legend,Bot*%
%TF.FilePolarity,Positive*%
%FSLAX46Y46*%
G04 Gerber Fmt 4.6, Leading zero omitted, Abs format (unit mm)*
G04 Created by KiCad (PCBNEW 8.0.1) date 2024-03-29 07:39:29*
%MOMM*%
%LPD*%
G01*
G04 APERTURE LIST*
G04 Aperture macros list*
%AMRoundRect*
0 Rectangle with rounded corners*
0 $1 Rounding radius*
0 $2 $3 $4 $5 $6 $7 $8 $9 X,Y pos of 4 corners*
0 Add a 4 corners polygon primitive as box body*
4,1,4,$2,$3,$4,$5,$6,$7,$8,$9,$2,$3,0*
0 Add four circle primitives for the rounded corners*
1,1,$1+$1,$2,$3*
1,1,$1+$1,$4,$5*
1,1,$1+$1,$6,$7*
1,1,$1+$1,$8,$9*
0 Add four rect primitives between the rounded corners*
20,1,$1+$1,$2,$3,$4,$5,0*
20,1,$1+$1,$4,$5,$6,$7,0*
20,1,$1+$1,$6,$7,$8,$9,0*
20,1,$1+$1,$8,$9,$2,$3,0*%
G04 Aperture macros list end*
%ADD10C,0.000000*%
%ADD11C,0.187500*%
%ADD12RoundRect,0.525000X-0.225000X-0.225000X0.225000X-0.225000X0.225000X0.225000X-0.225000X0.225000X0*%
%ADD13RoundRect,0.455000X-0.195000X-0.195000X0.195000X-0.195000X0.195000X0.195000X-0.195000X0.195000X0*%
G04 APERTURE END LIST*
D10*
G36*
X112900449Y-98366172D02*
G01*
X112901385Y-98366216D01*
X112902282Y-98366294D01*
X112903142Y-98366410D01*
X112903967Y-98366564D01*
X112904759Y-98366758D01*
X112905518Y-98366994D01*
X112906248Y-98367274D01*
X112906948Y-98367599D01*
X112907622Y-98367971D01*
X112908270Y-98368391D01*
X112908894Y-98368862D01*
X112909496Y-98369386D01*
X112910077Y-98369963D01*
X112910640Y-98370595D01*
X112911184Y-98371285D01*
X112911713Y-98372033D01*
X112912228Y-98372842D01*
X112912730Y-98373714D01*
X112913221Y-98374649D01*
X112913703Y-98375650D01*
X112914177Y-98376719D01*
X112915107Y-98379065D01*
X112916026Y-98381701D01*
X112916946Y-98384641D01*
X112917879Y-98387898D01*
X112919215Y-98392955D01*
X112919754Y-98395241D01*
X112920210Y-98397427D01*
X112920586Y-98399557D01*
X112920883Y-98401679D01*
X112921105Y-98403837D01*
X112921252Y-98406078D01*
X112921328Y-98408447D01*
X112921334Y-98410991D01*
X112921273Y-98413754D01*
X112921147Y-98416783D01*
X112920958Y-98420124D01*
X112920709Y-98423823D01*
X112920037Y-98432475D01*
X112919303Y-98444237D01*
X112918893Y-98457219D01*
X112918794Y-98470963D01*
X112918996Y-98485011D01*
X112919487Y-98498905D01*
X112920255Y-98512187D01*
X112921290Y-98524399D01*
X112922580Y-98535083D01*
X112923015Y-98538389D01*
X112923422Y-98542069D01*
X112923793Y-98546002D01*
X112924118Y-98550063D01*
X112924389Y-98554130D01*
X112924597Y-98558079D01*
X112924731Y-98561787D01*
X112924785Y-98565131D01*
X112924857Y-98569073D01*
X112925046Y-98573176D01*
X112925351Y-98577436D01*
X112925771Y-98581848D01*
X112926952Y-98591109D01*
X112928584Y-98600919D01*
X112930659Y-98611239D01*
X112933170Y-98622031D01*
X112936111Y-98633254D01*
X112939474Y-98644870D01*
X112943632Y-98658750D01*
X112946816Y-98670042D01*
X112948093Y-98675045D01*
X112949188Y-98679793D01*
X112950119Y-98684417D01*
X112950909Y-98689048D01*
X112951576Y-98693816D01*
X112952142Y-98698853D01*
X112952626Y-98704288D01*
X112953049Y-98710253D01*
X112953792Y-98724295D01*
X112954533Y-98742025D01*
X112955097Y-98757162D01*
X112955450Y-98769684D01*
X112955573Y-98780226D01*
X112955446Y-98789423D01*
X112955052Y-98797910D01*
X112954371Y-98806322D01*
X112953385Y-98815295D01*
X112952076Y-98825464D01*
X112950790Y-98835905D01*
X112949747Y-98846772D01*
X112948914Y-98859012D01*
X112948255Y-98873576D01*
X112947737Y-98891413D01*
X112947324Y-98913472D01*
X112946982Y-98940702D01*
X112946677Y-98974054D01*
X112945889Y-99041904D01*
X112945305Y-99065767D01*
X112944497Y-99084651D01*
X112943392Y-99099855D01*
X112941919Y-99112676D01*
X112940003Y-99124412D01*
X112937572Y-99136360D01*
X112935677Y-99145447D01*
X112933995Y-99154322D01*
X112932504Y-99163140D01*
X112931184Y-99172055D01*
X112930012Y-99181224D01*
X112928967Y-99190801D01*
X112928028Y-99200940D01*
X112927174Y-99211798D01*
X112926172Y-99223885D01*
X112924981Y-99235672D01*
X112923749Y-99245809D01*
X112923165Y-99249837D01*
X112922626Y-99252945D01*
X112920805Y-99262784D01*
X112918879Y-99274170D01*
X112915138Y-99298594D01*
X112912263Y-99320233D01*
X112911419Y-99328138D01*
X112911114Y-99333104D01*
X112911060Y-99334817D01*
X112910896Y-99336964D01*
X112910222Y-99342638D01*
X112909068Y-99350278D01*
X112907404Y-99360034D01*
X112905206Y-99372059D01*
X112902445Y-99386502D01*
X112899095Y-99403517D01*
X112895130Y-99423253D01*
X112889473Y-99452300D01*
X112884700Y-99479360D01*
X112880585Y-99505798D01*
X112876901Y-99532981D01*
X112874971Y-99547423D01*
X112872888Y-99561485D01*
X112870669Y-99575083D01*
X112868328Y-99588132D01*
X112865882Y-99600548D01*
X112863346Y-99612249D01*
X112860736Y-99623148D01*
X112858068Y-99633163D01*
X112856364Y-99639489D01*
X112854679Y-99646328D01*
X112852994Y-99653780D01*
X112851288Y-99661942D01*
X112849541Y-99670914D01*
X112847735Y-99680793D01*
X112845848Y-99691679D01*
X112843862Y-99703670D01*
X112842339Y-99712595D01*
X112840575Y-99722251D01*
X112838788Y-99731474D01*
X112837195Y-99739103D01*
X112833979Y-99753828D01*
X112831086Y-99767296D01*
X112827568Y-99783226D01*
X112822845Y-99803872D01*
X112817804Y-99826386D01*
X112813227Y-99848488D01*
X112809178Y-99869786D01*
X112805722Y-99889886D01*
X112802920Y-99908396D01*
X112800838Y-99924925D01*
X112799538Y-99939080D01*
X112799084Y-99950469D01*
X112798988Y-99954548D01*
X112798718Y-99959693D01*
X112798294Y-99965696D01*
X112797734Y-99972349D01*
X112797057Y-99979443D01*
X112796282Y-99986770D01*
X112795427Y-99994121D01*
X112794512Y-100001288D01*
X112793129Y-100012410D01*
X112792056Y-100023632D01*
X112791624Y-100029744D01*
X112791255Y-100036438D01*
X112790687Y-100052312D01*
X112790315Y-100072739D01*
X112790099Y-100099201D01*
X112789983Y-100176167D01*
X112790133Y-100252756D01*
X112790745Y-100300093D01*
X112791318Y-100316425D01*
X112792119Y-100329804D01*
X112793186Y-100341684D01*
X112794555Y-100353517D01*
X112797141Y-100380078D01*
X112798768Y-100409615D01*
X112799465Y-100440829D01*
X112799258Y-100472418D01*
X112798174Y-100503084D01*
X112796240Y-100531526D01*
X112793483Y-100556445D01*
X112791805Y-100567177D01*
X112789930Y-100576540D01*
X112785942Y-100593742D01*
X112782443Y-100608146D01*
X112779224Y-100620437D01*
X112776074Y-100631300D01*
X112772783Y-100641418D01*
X112769141Y-100651476D01*
X112764938Y-100662158D01*
X112759964Y-100674150D01*
X112757951Y-100679087D01*
X112756180Y-100683773D01*
X112754660Y-100688180D01*
X112753398Y-100692280D01*
X112752402Y-100696044D01*
X112751681Y-100699445D01*
X112751426Y-100701001D01*
X112751243Y-100702455D01*
X112751132Y-100703804D01*
X112751095Y-100705045D01*
X112751172Y-100707525D01*
X112751406Y-100709988D01*
X112751795Y-100712434D01*
X112752339Y-100714862D01*
X112753039Y-100717272D01*
X112753893Y-100719664D01*
X112754902Y-100722038D01*
X112756066Y-100724394D01*
X112757385Y-100726732D01*
X112758857Y-100729051D01*
X112760484Y-100731352D01*
X112762265Y-100733633D01*
X112764200Y-100735896D01*
X112766288Y-100738140D01*
X112768530Y-100740364D01*
X112770925Y-100742569D01*
X112773473Y-100744754D01*
X112776174Y-100746920D01*
X112779028Y-100749066D01*
X112782035Y-100751192D01*
X112788506Y-100755383D01*
X112795585Y-100759492D01*
X112803271Y-100763519D01*
X112811564Y-100767461D01*
X112820461Y-100771319D01*
X112829962Y-100775090D01*
X112840466Y-100778989D01*
X112845058Y-100780587D01*
X112849318Y-100781967D01*
X112853326Y-100783139D01*
X112857163Y-100784116D01*
X112860910Y-100784908D01*
X112864647Y-100785528D01*
X112868456Y-100785987D01*
X112872417Y-100786296D01*
X112876612Y-100786468D01*
X112881120Y-100786513D01*
X112886023Y-100786443D01*
X112891401Y-100786269D01*
X112903908Y-100785659D01*
X112926655Y-100784518D01*
X112936120Y-100784187D01*
X112944467Y-100784048D01*
X112951812Y-100784128D01*
X112958271Y-100784452D01*
X112963960Y-100785045D01*
X112968995Y-100785934D01*
X112973491Y-100787143D01*
X112977566Y-100788699D01*
X112981334Y-100790626D01*
X112984912Y-100792951D01*
X112988416Y-100795698D01*
X112991961Y-100798894D01*
X112995665Y-100802564D01*
X112999641Y-100806733D01*
X113003320Y-100810803D01*
X113006667Y-100814815D01*
X113009683Y-100818779D01*
X113012371Y-100822703D01*
X113014735Y-100826593D01*
X113016776Y-100830458D01*
X113018498Y-100834307D01*
X113019902Y-100838146D01*
X113020992Y-100841984D01*
X113021770Y-100845830D01*
X113022238Y-100849690D01*
X113022400Y-100853573D01*
X113022257Y-100857486D01*
X113021813Y-100861439D01*
X113021070Y-100865438D01*
X113020030Y-100869492D01*
X113018594Y-100873761D01*
X113016802Y-100877923D01*
X113014657Y-100881978D01*
X113012164Y-100885922D01*
X113009327Y-100889756D01*
X113006150Y-100893476D01*
X113002637Y-100897083D01*
X112998792Y-100900574D01*
X112994618Y-100903947D01*
X112990121Y-100907202D01*
X112985303Y-100910337D01*
X112980170Y-100913350D01*
X112974725Y-100916239D01*
X112968972Y-100919004D01*
X112962915Y-100921642D01*
X112956558Y-100924152D01*
X112949906Y-100926533D01*
X112942962Y-100928783D01*
X112935731Y-100930901D01*
X112928216Y-100932885D01*
X112920421Y-100934733D01*
X112912351Y-100936444D01*
X112904010Y-100938017D01*
X112895401Y-100939450D01*
X112877397Y-100941889D01*
X112858372Y-100943749D01*
X112838358Y-100945020D01*
X112817389Y-100945687D01*
X112799449Y-100945900D01*
X112783556Y-100945924D01*
X112771435Y-100945766D01*
X112767328Y-100945623D01*
X112764811Y-100945437D01*
X112764809Y-100945439D01*
X112764809Y-100945440D01*
X112764808Y-100945441D01*
X112764807Y-100945442D01*
X112764806Y-100945443D01*
X112764806Y-100945444D01*
X112764805Y-100945444D01*
X112764805Y-100945445D01*
X112762731Y-100945148D01*
X112759894Y-100944689D01*
X112752439Y-100943372D01*
X112743451Y-100941681D01*
X112733944Y-100939799D01*
X112728393Y-100938790D01*
X112721795Y-100937792D01*
X112714344Y-100936825D01*
X112706233Y-100935910D01*
X112697658Y-100935066D01*
X112688811Y-100934316D01*
X112679886Y-100933678D01*
X112671079Y-100933174D01*
X112653471Y-100932104D01*
X112635103Y-100930656D01*
X112618149Y-100929020D01*
X112610882Y-100928191D01*
X112604785Y-100927387D01*
X112596537Y-100926233D01*
X112589674Y-100925405D01*
X112586605Y-100925114D01*
X112583696Y-100924903D01*
X112580883Y-100924774D01*
X112578105Y-100924725D01*
X112575300Y-100924757D01*
X112572405Y-100924869D01*
X112569358Y-100925062D01*
X112566097Y-100925334D01*
X112558682Y-100926118D01*
X112549664Y-100927220D01*
X112537768Y-100928635D01*
X112526691Y-100929790D01*
X112517671Y-100930566D01*
X112514319Y-100930775D01*
X112511945Y-100930845D01*
X112510011Y-100930783D01*
X112508050Y-100930608D01*
X112506068Y-100930324D01*
X112504066Y-100929932D01*
X112502051Y-100929437D01*
X112500026Y-100928842D01*
X112495961Y-100927363D01*
X112491904Y-100925521D01*
X112487888Y-100923340D01*
X112483946Y-100920845D01*
X112480109Y-100918063D01*
X112476411Y-100915017D01*
X112472883Y-100911733D01*
X112469558Y-100908237D01*
X112466470Y-100904553D01*
X112463649Y-100900706D01*
X112461130Y-100896722D01*
X112458943Y-100892626D01*
X112457985Y-100890544D01*
X112457123Y-100888443D01*
X112456423Y-100886540D01*
X112455802Y-100884614D01*
X112455255Y-100882580D01*
X112454778Y-100880352D01*
X112454366Y-100877844D01*
X112454014Y-100874972D01*
X112453719Y-100871651D01*
X112453475Y-100867794D01*
X112453278Y-100863316D01*
X112453123Y-100858133D01*
X112453007Y-100852158D01*
X112452923Y-100845306D01*
X112452840Y-100828631D01*
X112452836Y-100807424D01*
X112452987Y-100767197D01*
X112453243Y-100753913D01*
X112453711Y-100743804D01*
X112454463Y-100735834D01*
X112455568Y-100728971D01*
X112457098Y-100722180D01*
X112459122Y-100714426D01*
X112460303Y-100709772D01*
X112461361Y-100705122D01*
X112462294Y-100700483D01*
X112463103Y-100695865D01*
X112463787Y-100691275D01*
X112464345Y-100686723D01*
X112464777Y-100682217D01*
X112465082Y-100677765D01*
X112465261Y-100673376D01*
X112465312Y-100669057D01*
X112465236Y-100664819D01*
X112465031Y-100660669D01*
X112464697Y-100656615D01*
X112464234Y-100652666D01*
X112463641Y-100648831D01*
X112462918Y-100645118D01*
X112460294Y-100632526D01*
X112458198Y-100621382D01*
X112456596Y-100611333D01*
X112455450Y-100602025D01*
X112454724Y-100593102D01*
X112454382Y-100584211D01*
X112454387Y-100574998D01*
X112454704Y-100565108D01*
X112455034Y-100559088D01*
X112455486Y-100552930D01*
X112456040Y-100546809D01*
X112456677Y-100540898D01*
X112457375Y-100535369D01*
X112458114Y-100530397D01*
X112458875Y-100526156D01*
X112459637Y-100522817D01*
X112462151Y-100512837D01*
X112464500Y-100502427D01*
X112466630Y-100491896D01*
X112468491Y-100481553D01*
X112470029Y-100471708D01*
X112471193Y-100462671D01*
X112471931Y-100454750D01*
X112472190Y-100448256D01*
X112472079Y-100444617D01*
X112471758Y-100440059D01*
X112471250Y-100434767D01*
X112470578Y-100428922D01*
X112469763Y-100422709D01*
X112468829Y-100416308D01*
X112467798Y-100409904D01*
X112466692Y-100403679D01*
X112464249Y-100389808D01*
X112461665Y-100373813D01*
X112459249Y-100357673D01*
X112457309Y-100343366D01*
X112455729Y-100331261D01*
X112454295Y-100321116D01*
X112453165Y-100313995D01*
X112452763Y-100311900D01*
X112452496Y-100310959D01*
X112452382Y-100310685D01*
X112452232Y-100310190D01*
X112451839Y-100308587D01*
X112451335Y-100306248D01*
X112450740Y-100303271D01*
X112450072Y-100299755D01*
X112449352Y-100295798D01*
X112448598Y-100291499D01*
X112447829Y-100286956D01*
X112446841Y-100279848D01*
X112445959Y-100270876D01*
X112445169Y-100259668D01*
X112444451Y-100245853D01*
X112443791Y-100229057D01*
X112443170Y-100208907D01*
X112442573Y-100185031D01*
X112441982Y-100157057D01*
X112440538Y-100078865D01*
X112439988Y-100026104D01*
X112440285Y-99980975D01*
X112441384Y-99925679D01*
X112441912Y-99895867D01*
X112441892Y-99871272D01*
X112441616Y-99860432D01*
X112441131Y-99850297D01*
X112440412Y-99840669D01*
X112439436Y-99831348D01*
X112438178Y-99822134D01*
X112436615Y-99812829D01*
X112434722Y-99803232D01*
X112432476Y-99793144D01*
X112426825Y-99770699D01*
X112419470Y-99743897D01*
X112416072Y-99731877D01*
X112413336Y-99722591D01*
X112411081Y-99715627D01*
X112410076Y-99712887D01*
X112409124Y-99710574D01*
X112408200Y-99708636D01*
X112407284Y-99707022D01*
X112406351Y-99705679D01*
X112405379Y-99704557D01*
X112404346Y-99703604D01*
X112403229Y-99702770D01*
X112402005Y-99702001D01*
X112400651Y-99701248D01*
X112399581Y-99700707D01*
X112398543Y-99700255D01*
X112397533Y-99699898D01*
X112396546Y-99699644D01*
X112395578Y-99699498D01*
X112394623Y-99699468D01*
X112393678Y-99699561D01*
X112392737Y-99699784D01*
X112391796Y-99700142D01*
X112390850Y-99700644D01*
X112389894Y-99701296D01*
X112388924Y-99702105D01*
X112387935Y-99703078D01*
X112386923Y-99704222D01*
X112385882Y-99705543D01*
X112384808Y-99707048D01*
X112383697Y-99708744D01*
X112382543Y-99710639D01*
X112381343Y-99712738D01*
X112380090Y-99715049D01*
X112378782Y-99717579D01*
X112377412Y-99720334D01*
X112375977Y-99723322D01*
X112374471Y-99726548D01*
X112371230Y-99733746D01*
X112367651Y-99741983D01*
X112363698Y-99751314D01*
X112359332Y-99761792D01*
X112349347Y-99786380D01*
X112339063Y-99812578D01*
X112318753Y-99866644D01*
X112300709Y-99917666D01*
X112293258Y-99940058D01*
X112287240Y-99959318D01*
X112284775Y-99967162D01*
X112281346Y-99977535D01*
X112277406Y-99989086D01*
X112273408Y-100000466D01*
X112268381Y-100014887D01*
X112263689Y-100029075D01*
X112259334Y-100043026D01*
X112255317Y-100056734D01*
X112251639Y-100070196D01*
X112248301Y-100083405D01*
X112245305Y-100096359D01*
X112242652Y-100109051D01*
X112237788Y-100133397D01*
X112234335Y-100150199D01*
X112233340Y-100155069D01*
X112232235Y-100160927D01*
X112229604Y-100176157D01*
X112226261Y-100196981D01*
X112222024Y-100224494D01*
X112218047Y-100248981D01*
X112213012Y-100277827D01*
X112208077Y-100304581D01*
X112204398Y-100322792D01*
X112203890Y-100325255D01*
X112203337Y-100328319D01*
X112202757Y-100331863D01*
X112202166Y-100335765D01*
X112201585Y-100339902D01*
X112201029Y-100344153D01*
X112200517Y-100348396D01*
X112200066Y-100352510D01*
X112199122Y-100360850D01*
X112197950Y-100369789D01*
X112196558Y-100379283D01*
X112194953Y-100389293D01*
X112193141Y-100399778D01*
X112191129Y-100410695D01*
X112188925Y-100422004D01*
X112186534Y-100433663D01*
X112176947Y-100479383D01*
X112175711Y-100485701D01*
X112174638Y-100492066D01*
X112173728Y-100498441D01*
X112172980Y-100504789D01*
X112172395Y-100511071D01*
X112171973Y-100517250D01*
X112171714Y-100523289D01*
X112171618Y-100529150D01*
X112171685Y-100534795D01*
X112171915Y-100540186D01*
X112172309Y-100545287D01*
X112172866Y-100550059D01*
X112173587Y-100554464D01*
X112174472Y-100558466D01*
X112175520Y-100562027D01*
X112176732Y-100565108D01*
X112177225Y-100566251D01*
X112177731Y-100567548D01*
X112178768Y-100570545D01*
X112179813Y-100573984D01*
X112180835Y-100577745D01*
X112181806Y-100581713D01*
X112182693Y-100585770D01*
X112183468Y-100589799D01*
X112184099Y-100593683D01*
X112184688Y-100597508D01*
X112185339Y-100601370D01*
X112186031Y-100605163D01*
X112186743Y-100608781D01*
X112187453Y-100612120D01*
X112188140Y-100615073D01*
X112188781Y-100617535D01*
X112189356Y-100619401D01*
X112189708Y-100620458D01*
X112190010Y-100621472D01*
X112190262Y-100622450D01*
X112190464Y-100623399D01*
X112190614Y-100624328D01*
X112190714Y-100625244D01*
X112190762Y-100626155D01*
X112190758Y-100627069D01*
X112190703Y-100627993D01*
X112190596Y-100628935D01*
X112190437Y-100629903D01*
X112190225Y-100630905D01*
X112189961Y-100631948D01*
X112189643Y-100633040D01*
X112189272Y-100634189D01*
X112188848Y-100635403D01*
X112188062Y-100637453D01*
X112187158Y-100639582D01*
X112186151Y-100641771D01*
X112185053Y-100643996D01*
X112183877Y-100646239D01*
X112182637Y-100648477D01*
X112181345Y-100650690D01*
X112180016Y-100652856D01*
X112178662Y-100654955D01*
X112177297Y-100656966D01*
X112175933Y-100658868D01*
X112174584Y-100660639D01*
X112173263Y-100662259D01*
X112171983Y-100663707D01*
X112170758Y-100664962D01*
X112169600Y-100666003D01*
X112168847Y-100666612D01*
X112168146Y-100667140D01*
X112167809Y-100667372D01*
X112167478Y-100667584D01*
X112167152Y-100667776D01*
X112166826Y-100667947D01*
X112166500Y-100668097D01*
X112166171Y-100668226D01*
X112165837Y-100668334D01*
X112165495Y-100668422D01*
X112165142Y-100668488D01*
X112164778Y-100668534D01*
X112164399Y-100668559D01*
X112164003Y-100668562D01*
X112163587Y-100668545D01*
X112163151Y-100668506D01*
X112162690Y-100668447D01*
X112162203Y-100668366D01*
X112161688Y-100668264D01*
X112161141Y-100668140D01*
X112160562Y-100667996D01*
X112159948Y-100667830D01*
X112158603Y-100667434D01*
X112157089Y-100666952D01*
X112155387Y-100666383D01*
X112153479Y-100665729D01*
X112150915Y-100664778D01*
X112148073Y-100663611D01*
X112145045Y-100662274D01*
X112141928Y-100660812D01*
X112138815Y-100659270D01*
X112135801Y-100657695D01*
X112132980Y-100656132D01*
X112130447Y-100654626D01*
X112127871Y-100653056D01*
X112124927Y-100651307D01*
X112118346Y-100647510D01*
X112111529Y-100643704D01*
X112105301Y-100640357D01*
X112102476Y-100638858D01*
X112099705Y-100637351D01*
X112097059Y-100635877D01*
X112094607Y-100634477D01*
X112092421Y-100633191D01*
X112090570Y-100632059D01*
X112089125Y-100631124D01*
X112088156Y-100630425D01*
X112087009Y-100629652D01*
X112085186Y-100628619D01*
X112079740Y-100625870D01*
X112072276Y-100622381D01*
X112063253Y-100618350D01*
X112053128Y-100613980D01*
X112042359Y-100609472D01*
X112031403Y-100605025D01*
X112020719Y-100600841D01*
X112012350Y-100597551D01*
X112004554Y-100594315D01*
X111997308Y-100591115D01*
X111990584Y-100587933D01*
X111984359Y-100584749D01*
X111978606Y-100581548D01*
X111973300Y-100578309D01*
X111968416Y-100575016D01*
X111963928Y-100571650D01*
X111959811Y-100568194D01*
X111956039Y-100564628D01*
X111952587Y-100560936D01*
X111949429Y-100557098D01*
X111946541Y-100553098D01*
X111943896Y-100548916D01*
X111941470Y-100544535D01*
X111936137Y-100534248D01*
X111935502Y-100382490D01*
X111935268Y-100298176D01*
X111935658Y-100248282D01*
X111936179Y-100231876D01*
X111936969Y-100218833D01*
X111938064Y-100207408D01*
X111939502Y-100195854D01*
X111940433Y-100188271D01*
X111941302Y-100180083D01*
X111942089Y-100171547D01*
X111942776Y-100162924D01*
X111943344Y-100154471D01*
X111943773Y-100146448D01*
X111944045Y-100139115D01*
X111944140Y-100132728D01*
X111944234Y-100126331D01*
X111944501Y-100118964D01*
X111944924Y-100110890D01*
X111945483Y-100102370D01*
X111946160Y-100093664D01*
X111946936Y-100085034D01*
X111947792Y-100076741D01*
X111948709Y-100069047D01*
X111949920Y-100058994D01*
X111950912Y-100049176D01*
X111951703Y-100039236D01*
X111952309Y-100028821D01*
X111952748Y-100017577D01*
X111953036Y-100005148D01*
X111953192Y-99991181D01*
X111953231Y-99975321D01*
X111953344Y-99953822D01*
X111953781Y-99934314D01*
X111954634Y-99915728D01*
X111955993Y-99896998D01*
X111957950Y-99877057D01*
X111960597Y-99854836D01*
X111964026Y-99829268D01*
X111968327Y-99799287D01*
X111969865Y-99788319D01*
X111971102Y-99778287D01*
X111972068Y-99768717D01*
X111972792Y-99759138D01*
X111973305Y-99749077D01*
X111973635Y-99738062D01*
X111973813Y-99725619D01*
X111973869Y-99711277D01*
X111973936Y-99698762D01*
X111974132Y-99686796D01*
X111974459Y-99675341D01*
X111974917Y-99664359D01*
X111975510Y-99653814D01*
X111976239Y-99643667D01*
X111977106Y-99633881D01*
X111978113Y-99624420D01*
X111979121Y-99615120D01*
X111979950Y-99606195D01*
X111980602Y-99597581D01*
X111981080Y-99589216D01*
X111981387Y-99581036D01*
X111981526Y-99572980D01*
X111981500Y-99564983D01*
X111981313Y-99556983D01*
X111981104Y-99548545D01*
X111981068Y-99540539D01*
X111981215Y-99532761D01*
X111981558Y-99525006D01*
X111982106Y-99517069D01*
X111982872Y-99508746D01*
X111983867Y-99499834D01*
X111985102Y-99490126D01*
X111986064Y-99482487D01*
X111986950Y-99474570D01*
X111987741Y-99466606D01*
X111988419Y-99458825D01*
X111988965Y-99451456D01*
X111989361Y-99444729D01*
X111989588Y-99438873D01*
X111989628Y-99434119D01*
X111989621Y-99429718D01*
X111989719Y-99424878D01*
X111989913Y-99419756D01*
X111990191Y-99414510D01*
X111990545Y-99409300D01*
X111990965Y-99404284D01*
X111991440Y-99399620D01*
X111991962Y-99395468D01*
X111992406Y-99391914D01*
X111992747Y-99388303D01*
X111992988Y-99384651D01*
X111993130Y-99380975D01*
X111993172Y-99377290D01*
X111993118Y-99373613D01*
X111992969Y-99369960D01*
X111992725Y-99366348D01*
X111992388Y-99362792D01*
X111991959Y-99359310D01*
X111991440Y-99355917D01*
X111990832Y-99352630D01*
X111990136Y-99349465D01*
X111989354Y-99346438D01*
X111988487Y-99343566D01*
X111987536Y-99340865D01*
X111987020Y-99339149D01*
X111986572Y-99336954D01*
X111986194Y-99334359D01*
X111985886Y-99331442D01*
X111985647Y-99328281D01*
X111985476Y-99324955D01*
X111985343Y-99318119D01*
X111985486Y-99311560D01*
X111985660Y-99308580D01*
X111985903Y-99305904D01*
X111986215Y-99303611D01*
X111986595Y-99301778D01*
X111987043Y-99300484D01*
X111987293Y-99300064D01*
X111987560Y-99299808D01*
X111987824Y-99299501D01*
X111988070Y-99298928D01*
X111988512Y-99297037D01*
X111988886Y-99294244D01*
X111989190Y-99290658D01*
X111989595Y-99281551D01*
X111989727Y-99270596D01*
X111989587Y-99258672D01*
X111989175Y-99246660D01*
X111988491Y-99235439D01*
X111988047Y-99230400D01*
X111987536Y-99225890D01*
X111986999Y-99220888D01*
X111986630Y-99215535D01*
X111986420Y-99209906D01*
X111986364Y-99204080D01*
X111986680Y-99192145D01*
X111987520Y-99180351D01*
X111988119Y-99174702D01*
X111988826Y-99169320D01*
X111989635Y-99164284D01*
X111990539Y-99159671D01*
X111991529Y-99155560D01*
X111992600Y-99152026D01*
X111993743Y-99149149D01*
X111994952Y-99147006D01*
X111997506Y-99143504D01*
X112000219Y-99139979D01*
X112003003Y-99136532D01*
X112005770Y-99133265D01*
X112008431Y-99130279D01*
X112010900Y-99127675D01*
X112013088Y-99125553D01*
X112014050Y-99124705D01*
X112014908Y-99124016D01*
X112015338Y-99123669D01*
X112015931Y-99123155D01*
X112017564Y-99121667D01*
X112019725Y-99119631D01*
X112022329Y-99117130D01*
X112025291Y-99114245D01*
X112028526Y-99111059D01*
X112031952Y-99107652D01*
X112035482Y-99104107D01*
X112039206Y-99100403D01*
X112043186Y-99096543D01*
X112047298Y-99092640D01*
X112051420Y-99088807D01*
X112055427Y-99085157D01*
X112059197Y-99081805D01*
X112062607Y-99078863D01*
X112065533Y-99076446D01*
X112073044Y-99070285D01*
X112082483Y-99062330D01*
X112104654Y-99043203D01*
X112127076Y-99023404D01*
X112136828Y-99014608D01*
X112144777Y-99007272D01*
X112148088Y-99004203D01*
X112151936Y-99000705D01*
X112160688Y-98992914D01*
X112169927Y-98984871D01*
X112178543Y-98977554D01*
X112241587Y-98924504D01*
X112298978Y-98875489D01*
X112346940Y-98833764D01*
X112381694Y-98802583D01*
X112388954Y-98795949D01*
X112396676Y-98789034D01*
X112405069Y-98781660D01*
X112414336Y-98773652D01*
X112436319Y-98755024D01*
X112464275Y-98731737D01*
X112476305Y-98721577D01*
X112491722Y-98708277D01*
X112508540Y-98693562D01*
X112524775Y-98679159D01*
X112540359Y-98665307D01*
X112555403Y-98652094D01*
X112568194Y-98641015D01*
X112577018Y-98633568D01*
X112620714Y-98597411D01*
X112662126Y-98562370D01*
X112701073Y-98528600D01*
X112737377Y-98496253D01*
X112747190Y-98487510D01*
X112757857Y-98478226D01*
X112768089Y-98469509D01*
X112776600Y-98462467D01*
X112780272Y-98459442D01*
X112784000Y-98456264D01*
X112787679Y-98453028D01*
X112791208Y-98449829D01*
X112794481Y-98446762D01*
X112797398Y-98443922D01*
X112799854Y-98441405D01*
X112801746Y-98439305D01*
X112802666Y-98438264D01*
X112803840Y-98437013D01*
X112806877Y-98433949D01*
X112810711Y-98430244D01*
X112815199Y-98426033D01*
X112820198Y-98421449D01*
X112825563Y-98416626D01*
X112831151Y-98411695D01*
X112836817Y-98406792D01*
X112847649Y-98397459D01*
X112856863Y-98389417D01*
X112863483Y-98383522D01*
X112865516Y-98381648D01*
X112866536Y-98380633D01*
X112867544Y-98379604D01*
X112868844Y-98378514D01*
X112870399Y-98377380D01*
X112872172Y-98376218D01*
X112874128Y-98375044D01*
X112876232Y-98373877D01*
X112878445Y-98372733D01*
X112880734Y-98371628D01*
X112883060Y-98370580D01*
X112885390Y-98369604D01*
X112887685Y-98368719D01*
X112889911Y-98367941D01*
X112892031Y-98367287D01*
X112894010Y-98366773D01*
X112895810Y-98366417D01*
X112897397Y-98366235D01*
X112899474Y-98366162D01*
X112900449Y-98366172D01*
G37*
G36*
X112461919Y-96716962D02*
G01*
X112464998Y-96717135D01*
X112468329Y-96717397D01*
X112471976Y-96717748D01*
X112480490Y-96718724D01*
X112491071Y-96720070D01*
X112503535Y-96721763D01*
X112514106Y-96723384D01*
X112523179Y-96725032D01*
X112531149Y-96726803D01*
X112534843Y-96727766D01*
X112538408Y-96728796D01*
X112541895Y-96729905D01*
X112545352Y-96731106D01*
X112552374Y-96733832D01*
X112559869Y-96737071D01*
X112564809Y-96739473D01*
X112569973Y-96742334D01*
X112575317Y-96745615D01*
X112580796Y-96749275D01*
X112586366Y-96753277D01*
X112591983Y-96757582D01*
X112597602Y-96762149D01*
X112603179Y-96766940D01*
X112608671Y-96771917D01*
X112614031Y-96777039D01*
X112619217Y-96782268D01*
X112624184Y-96787565D01*
X112628888Y-96792891D01*
X112633285Y-96798206D01*
X112637329Y-96803472D01*
X112640978Y-96808650D01*
X112642167Y-96810395D01*
X112643342Y-96812068D01*
X112644472Y-96813629D01*
X112645528Y-96815039D01*
X112646478Y-96816257D01*
X112647292Y-96817244D01*
X112647940Y-96817960D01*
X112648192Y-96818203D01*
X112648391Y-96818364D01*
X112648926Y-96818974D01*
X112649720Y-96820211D01*
X112651946Y-96824269D01*
X112654792Y-96829945D01*
X112657980Y-96836644D01*
X112661234Y-96843773D01*
X112664278Y-96850738D01*
X112666834Y-96856944D01*
X112667843Y-96859577D01*
X112668627Y-96861798D01*
X112668909Y-96862779D01*
X112669209Y-96864059D01*
X112669849Y-96867430D01*
X112670525Y-96871749D01*
X112671216Y-96876850D01*
X112671903Y-96882570D01*
X112672563Y-96888745D01*
X112673176Y-96895211D01*
X112673721Y-96901803D01*
X112674497Y-96915355D01*
X112674770Y-96928900D01*
X112674552Y-96942281D01*
X112673854Y-96955342D01*
X112672688Y-96967926D01*
X112671064Y-96979875D01*
X112670084Y-96985563D01*
X112668994Y-96991034D01*
X112667796Y-96996267D01*
X112666490Y-97001244D01*
X112664690Y-97007825D01*
X112662869Y-97014760D01*
X112661242Y-97021223D01*
X112660020Y-97026390D01*
X112659410Y-97028877D01*
X112658558Y-97032008D01*
X112657503Y-97035658D01*
X112656282Y-97039699D01*
X112654936Y-97044006D01*
X112653503Y-97048451D01*
X112652021Y-97052908D01*
X112650531Y-97057251D01*
X112647041Y-97067702D01*
X112643441Y-97079398D01*
X112639728Y-97092346D01*
X112635900Y-97106553D01*
X112631955Y-97122027D01*
X112627892Y-97138776D01*
X112623708Y-97156805D01*
X112619401Y-97176123D01*
X112618268Y-97180722D01*
X112616837Y-97185552D01*
X112615123Y-97190583D01*
X112613143Y-97195785D01*
X112610913Y-97201128D01*
X112608448Y-97206583D01*
X112605764Y-97212120D01*
X112602876Y-97217709D01*
X112599802Y-97223321D01*
X112596556Y-97228926D01*
X112593154Y-97234494D01*
X112589612Y-97239996D01*
X112585946Y-97245401D01*
X112582172Y-97250681D01*
X112578305Y-97255805D01*
X112574361Y-97260743D01*
X112573747Y-97261522D01*
X112573076Y-97262430D01*
X112571595Y-97264587D01*
X112569970Y-97267125D01*
X112568254Y-97269955D01*
X112566499Y-97272988D01*
X112564759Y-97276136D01*
X112563086Y-97279309D01*
X112561532Y-97282419D01*
X112559518Y-97286692D01*
X112558677Y-97288585D01*
X112557942Y-97290341D01*
X112557308Y-97291979D01*
X112556770Y-97293517D01*
X112556325Y-97294974D01*
X112555968Y-97296368D01*
X112555695Y-97297719D01*
X112555502Y-97299046D01*
X112555383Y-97300366D01*
X112555336Y-97301698D01*
X112555356Y-97303062D01*
X112555438Y-97304475D01*
X112555578Y-97305957D01*
X112555771Y-97307527D01*
X112556462Y-97311732D01*
X112557402Y-97315861D01*
X112558622Y-97319956D01*
X112560151Y-97324062D01*
X112562020Y-97328222D01*
X112564259Y-97332478D01*
X112566900Y-97336874D01*
X112569972Y-97341453D01*
X112573506Y-97346258D01*
X112577532Y-97351333D01*
X112582080Y-97356721D01*
X112587182Y-97362465D01*
X112592868Y-97368608D01*
X112599167Y-97375193D01*
X112606111Y-97382264D01*
X112613730Y-97389864D01*
X112621213Y-97397385D01*
X112627854Y-97404349D01*
X112630931Y-97407712D01*
X112633884Y-97411043D01*
X112636744Y-97414377D01*
X112639538Y-97417751D01*
X112642295Y-97421200D01*
X112645046Y-97424760D01*
X112647818Y-97428466D01*
X112650641Y-97432354D01*
X112656556Y-97440820D01*
X112663022Y-97450443D01*
X112667984Y-97457846D01*
X112672712Y-97464703D01*
X112677252Y-97471060D01*
X112681650Y-97476966D01*
X112685954Y-97482468D01*
X112690209Y-97487616D01*
X112694463Y-97492456D01*
X112698762Y-97497037D01*
X112703152Y-97501407D01*
X112707680Y-97505614D01*
X112712393Y-97509705D01*
X112717337Y-97513729D01*
X112722558Y-97517733D01*
X112728104Y-97521766D01*
X112734021Y-97525876D01*
X112740356Y-97530111D01*
X112747130Y-97534688D01*
X112753480Y-97539242D01*
X112759435Y-97543809D01*
X112765024Y-97548424D01*
X112770275Y-97553122D01*
X112775217Y-97557937D01*
X112779878Y-97562906D01*
X112784287Y-97568063D01*
X112788473Y-97573443D01*
X112792464Y-97579081D01*
X112796289Y-97585012D01*
X112799976Y-97591272D01*
X112803554Y-97597895D01*
X112807052Y-97604917D01*
X112810499Y-97612372D01*
X112813922Y-97620296D01*
X112817930Y-97630085D01*
X112821398Y-97639074D01*
X112824416Y-97647559D01*
X112827072Y-97655834D01*
X112829457Y-97664197D01*
X112831660Y-97672941D01*
X112833770Y-97682364D01*
X112835878Y-97692759D01*
X112836999Y-97698253D01*
X112838312Y-97704234D01*
X112839769Y-97710510D01*
X112841322Y-97716888D01*
X112842924Y-97723177D01*
X112844527Y-97729185D01*
X112846082Y-97734719D01*
X112847543Y-97739588D01*
X112848930Y-97744258D01*
X112850275Y-97749222D01*
X112851544Y-97754329D01*
X112852706Y-97759426D01*
X112853726Y-97764361D01*
X112854571Y-97768982D01*
X112855210Y-97773137D01*
X112855607Y-97776673D01*
X112856008Y-97781732D01*
X112856134Y-97783830D01*
X112856196Y-97785691D01*
X112856183Y-97787350D01*
X112856086Y-97788846D01*
X112855894Y-97790215D01*
X112855758Y-97790864D01*
X112855595Y-97791496D01*
X112855403Y-97792114D01*
X112855180Y-97792724D01*
X112854637Y-97793938D01*
X112853956Y-97795175D01*
X112853128Y-97796471D01*
X112852140Y-97797864D01*
X112850982Y-97799391D01*
X112848116Y-97802996D01*
X112845787Y-97805845D01*
X112843444Y-97808612D01*
X112841085Y-97811301D01*
X112838710Y-97813912D01*
X112836316Y-97816447D01*
X112833901Y-97818909D01*
X112831464Y-97821297D01*
X112829003Y-97823615D01*
X112826516Y-97825864D01*
X112824001Y-97828044D01*
X112821458Y-97830159D01*
X112818883Y-97832209D01*
X112816276Y-97834196D01*
X112813634Y-97836122D01*
X112810956Y-97837988D01*
X112808240Y-97839796D01*
X112805449Y-97841663D01*
X112802335Y-97843838D01*
X112799001Y-97846242D01*
X112795552Y-97848797D01*
X112792093Y-97851423D01*
X112788728Y-97854043D01*
X112785563Y-97856578D01*
X112782703Y-97858950D01*
X112780069Y-97861154D01*
X112777555Y-97863211D01*
X112775220Y-97865075D01*
X112773122Y-97866700D01*
X112771322Y-97868043D01*
X112769877Y-97869058D01*
X112768848Y-97869700D01*
X112768508Y-97869867D01*
X112768293Y-97869924D01*
X112767634Y-97870191D01*
X112766386Y-97870956D01*
X112762403Y-97873761D01*
X112756898Y-97877901D01*
X112750425Y-97882939D01*
X112743539Y-97888438D01*
X112736794Y-97893961D01*
X112730744Y-97899071D01*
X112725944Y-97903329D01*
X112723987Y-97905065D01*
X112721484Y-97907167D01*
X112718540Y-97909557D01*
X112715257Y-97912152D01*
X112711738Y-97914873D01*
X112708086Y-97917639D01*
X112704405Y-97920369D01*
X112700798Y-97922983D01*
X112693013Y-97928688D01*
X112684027Y-97935519D01*
X112673966Y-97943376D01*
X112662953Y-97952159D01*
X112651112Y-97961769D01*
X112638568Y-97972106D01*
X112625443Y-97983069D01*
X112611863Y-97994559D01*
X112600534Y-98004139D01*
X112587595Y-98014976D01*
X112574639Y-98025742D01*
X112563261Y-98035104D01*
X112553484Y-98043158D01*
X112544884Y-98050360D01*
X112538393Y-98055922D01*
X112536228Y-98057843D01*
X112534938Y-98059059D01*
X112533851Y-98060102D01*
X112532268Y-98061527D01*
X112530264Y-98063268D01*
X112527915Y-98065264D01*
X112525296Y-98067451D01*
X112522481Y-98069765D01*
X112519547Y-98072143D01*
X112516569Y-98074521D01*
X112508329Y-98081214D01*
X112496558Y-98090987D01*
X112482826Y-98102529D01*
X112468704Y-98114526D01*
X112454427Y-98126662D01*
X112440272Y-98138581D01*
X112427875Y-98148913D01*
X112418870Y-98156288D01*
X112411332Y-98162450D01*
X112402926Y-98169477D01*
X112394679Y-98176503D01*
X112387616Y-98182665D01*
X112380945Y-98188496D01*
X112373764Y-98194623D01*
X112366938Y-98200318D01*
X112361327Y-98204853D01*
X112358704Y-98206965D01*
X112355626Y-98209524D01*
X112352205Y-98212433D01*
X112348554Y-98215592D01*
X112344785Y-98218905D01*
X112341010Y-98222271D01*
X112337343Y-98225595D01*
X112333895Y-98228777D01*
X112330214Y-98232156D01*
X112325878Y-98236044D01*
X112315879Y-98244799D01*
X112305172Y-98253940D01*
X112295033Y-98262364D01*
X112273516Y-98280032D01*
X112253885Y-98296301D01*
X112212737Y-98330661D01*
X112184505Y-98353994D01*
X112148729Y-98383292D01*
X112108366Y-98416472D01*
X112069106Y-98449135D01*
X112037118Y-98475871D01*
X112014242Y-98494804D01*
X112006796Y-98500938D01*
X111998638Y-98507753D01*
X111990756Y-98514420D01*
X111984137Y-98520107D01*
X111981172Y-98522645D01*
X111978000Y-98525290D01*
X111974719Y-98527963D01*
X111971429Y-98530587D01*
X111968226Y-98533084D01*
X111965211Y-98535376D01*
X111962481Y-98537385D01*
X111960134Y-98539035D01*
X111957904Y-98540612D01*
X111955509Y-98542411D01*
X111953022Y-98544370D01*
X111950519Y-98546427D01*
X111948075Y-98548518D01*
X111945765Y-98550580D01*
X111943663Y-98552551D01*
X111941846Y-98554368D01*
X111939990Y-98556235D01*
X111937778Y-98558353D01*
X111935293Y-98560647D01*
X111932617Y-98563044D01*
X111929833Y-98565471D01*
X111927024Y-98567856D01*
X111924273Y-98570124D01*
X111921662Y-98572203D01*
X111918893Y-98574433D01*
X111915688Y-98577136D01*
X111912162Y-98580207D01*
X111908429Y-98583543D01*
X111904604Y-98587040D01*
X111900801Y-98590595D01*
X111897135Y-98594104D01*
X111893721Y-98597464D01*
X111890511Y-98600601D01*
X111887430Y-98603475D01*
X111884551Y-98606026D01*
X111881949Y-98608195D01*
X111880774Y-98609117D01*
X111879696Y-98609922D01*
X111878724Y-98610602D01*
X111877867Y-98611149D01*
X111877134Y-98611557D01*
X111876535Y-98611817D01*
X111876078Y-98611923D01*
X111875906Y-98611916D01*
X111875773Y-98611867D01*
X111875659Y-98611801D01*
X111875542Y-98611741D01*
X111875424Y-98611688D01*
X111875304Y-98611642D01*
X111875182Y-98611603D01*
X111875058Y-98611570D01*
X111874934Y-98611544D01*
X111874809Y-98611524D01*
X111874683Y-98611511D01*
X111874557Y-98611504D01*
X111874430Y-98611504D01*
X111874304Y-98611509D01*
X111874178Y-98611521D01*
X111874052Y-98611539D01*
X111873928Y-98611563D01*
X111873804Y-98611593D01*
X111873681Y-98611629D01*
X111873560Y-98611671D01*
X111873441Y-98611718D01*
X111873323Y-98611771D01*
X111873208Y-98611830D01*
X111873095Y-98611895D01*
X111872984Y-98611965D01*
X111872877Y-98612041D01*
X111872772Y-98612122D01*
X111872671Y-98612208D01*
X111872573Y-98612300D01*
X111872479Y-98612397D01*
X111872390Y-98612499D01*
X111872304Y-98612607D01*
X111872223Y-98612719D01*
X111872146Y-98612836D01*
X111871917Y-98613194D01*
X111871689Y-98613519D01*
X111871464Y-98613812D01*
X111871239Y-98614071D01*
X111871016Y-98614297D01*
X111870793Y-98614490D01*
X111870570Y-98614648D01*
X111870347Y-98614771D01*
X111870123Y-98614860D01*
X111869897Y-98614914D01*
X111869670Y-98614932D01*
X111869441Y-98614914D01*
X111869208Y-98614861D01*
X111868973Y-98614771D01*
X111868734Y-98614644D01*
X111868491Y-98614480D01*
X111868244Y-98614278D01*
X111867992Y-98614039D01*
X111867734Y-98613761D01*
X111867471Y-98613445D01*
X111867201Y-98613090D01*
X111866924Y-98612696D01*
X111866641Y-98612263D01*
X111866349Y-98611789D01*
X111866050Y-98611276D01*
X111865742Y-98610722D01*
X111865425Y-98610127D01*
X111865099Y-98609491D01*
X111864763Y-98608813D01*
X111864416Y-98608094D01*
X111863690Y-98606528D01*
X111863689Y-98606528D01*
X111862880Y-98604678D01*
X111862062Y-98602681D01*
X111861257Y-98600601D01*
X111860487Y-98598501D01*
X111859776Y-98596443D01*
X111859144Y-98594491D01*
X111858616Y-98592708D01*
X111858212Y-98591157D01*
X111857805Y-98589616D01*
X111857266Y-98587862D01*
X111856618Y-98585958D01*
X111855883Y-98583963D01*
X111855086Y-98581938D01*
X111854250Y-98579946D01*
X111853397Y-98578045D01*
X111852551Y-98576298D01*
X111851657Y-98574390D01*
X111850794Y-98572266D01*
X111849964Y-98569929D01*
X111849165Y-98567382D01*
X111848400Y-98564627D01*
X111847668Y-98561668D01*
X111846970Y-98558507D01*
X111846307Y-98555147D01*
X111845679Y-98551591D01*
X111845086Y-98547841D01*
X111844529Y-98543901D01*
X111844009Y-98539772D01*
X111843081Y-98530962D01*
X111842306Y-98521434D01*
X111841049Y-98507116D01*
X111839161Y-98489880D01*
X111834256Y-98452100D01*
X111831625Y-98434278D01*
X111829133Y-98418982D01*
X111826970Y-98407576D01*
X111826073Y-98403756D01*
X111825331Y-98401419D01*
X111824497Y-98399179D01*
X111823716Y-98396488D01*
X111822988Y-98393349D01*
X111822313Y-98389763D01*
X111821691Y-98385733D01*
X111821123Y-98381260D01*
X111820608Y-98376346D01*
X111820146Y-98370993D01*
X111819384Y-98358978D01*
X111818839Y-98345230D01*
X111818511Y-98329765D01*
X111818401Y-98312597D01*
X111818505Y-98294459D01*
X111818850Y-98278986D01*
X111819487Y-98265717D01*
X111820464Y-98254189D01*
X111821832Y-98243941D01*
X111823640Y-98234511D01*
X111825939Y-98225435D01*
X111828777Y-98216253D01*
X111829614Y-98212989D01*
X111830438Y-98208341D01*
X111832019Y-98195390D01*
X111833464Y-98178397D01*
X111834722Y-98158357D01*
X111835737Y-98136267D01*
X111836457Y-98113124D01*
X111836827Y-98089924D01*
X111836793Y-98067663D01*
X111836719Y-98057179D01*
X111836782Y-98048182D01*
X111837008Y-98040324D01*
X111837426Y-98033257D01*
X111838061Y-98026633D01*
X111838939Y-98020105D01*
X111840088Y-98013323D01*
X111841535Y-98005941D01*
X111842931Y-97998729D01*
X111844121Y-97991645D01*
X111845106Y-97984668D01*
X111845885Y-97977780D01*
X111846457Y-97970962D01*
X111846822Y-97964194D01*
X111846981Y-97957457D01*
X111846931Y-97950733D01*
X111846673Y-97944001D01*
X111846206Y-97937243D01*
X111845531Y-97930440D01*
X111844645Y-97923572D01*
X111843550Y-97916620D01*
X111842244Y-97909565D01*
X111840728Y-97902388D01*
X111839000Y-97895070D01*
X111837173Y-97887525D01*
X111835598Y-97880573D01*
X111834277Y-97874119D01*
X111833212Y-97868069D01*
X111832403Y-97862328D01*
X111831855Y-97856801D01*
X111831567Y-97851394D01*
X111831543Y-97846013D01*
X111831784Y-97840562D01*
X111832292Y-97834947D01*
X111833068Y-97829074D01*
X111834116Y-97822848D01*
X111835436Y-97816174D01*
X111837030Y-97808959D01*
X111841050Y-97792523D01*
X111843083Y-97784168D01*
X111845210Y-97774743D01*
X111847367Y-97764572D01*
X111849491Y-97753976D01*
X111851519Y-97743280D01*
X111853389Y-97732805D01*
X111855037Y-97722875D01*
X111856400Y-97713812D01*
X111857963Y-97703139D01*
X111859499Y-97693564D01*
X111861036Y-97684954D01*
X111862601Y-97677177D01*
X111864225Y-97670102D01*
X111865934Y-97663596D01*
X111867757Y-97657529D01*
X111869723Y-97651767D01*
X111873868Y-97641180D01*
X111879236Y-97628766D01*
X111885475Y-97615233D01*
X111892233Y-97601290D01*
X111899159Y-97587647D01*
X111905901Y-97575011D01*
X111912107Y-97564093D01*
X111917426Y-97555600D01*
X111920234Y-97551609D01*
X111923263Y-97547616D01*
X111926503Y-97543631D01*
X111929943Y-97539663D01*
X111933572Y-97535721D01*
X111937381Y-97531816D01*
X111941358Y-97527957D01*
X111945493Y-97524152D01*
X111949776Y-97520413D01*
X111954195Y-97516747D01*
X111958740Y-97513164D01*
X111963402Y-97509675D01*
X111968168Y-97506288D01*
X111973029Y-97503012D01*
X111977974Y-97499858D01*
X111982993Y-97496835D01*
X111993178Y-97490782D01*
X112002219Y-97485182D01*
X112010386Y-97479840D01*
X112017950Y-97474559D01*
X112025183Y-97469144D01*
X112032354Y-97463399D01*
X112039735Y-97457128D01*
X112047596Y-97450136D01*
X112054852Y-97443680D01*
X112061461Y-97438067D01*
X112064588Y-97435531D01*
X112067631Y-97433151D01*
X112070617Y-97430909D01*
X112073571Y-97428785D01*
X112076521Y-97426763D01*
X112079491Y-97424823D01*
X112082508Y-97422948D01*
X112085598Y-97421118D01*
X112088787Y-97419317D01*
X112092101Y-97417524D01*
X112099209Y-97413894D01*
X112104492Y-97411186D01*
X112109604Y-97408364D01*
X112114554Y-97405421D01*
X112119353Y-97402347D01*
X112124009Y-97399135D01*
X112128534Y-97395774D01*
X112132935Y-97392258D01*
X112137224Y-97388576D01*
X112141410Y-97384720D01*
X112145503Y-97380683D01*
X112149512Y-97376454D01*
X112153447Y-97372026D01*
X112157317Y-97367390D01*
X112161134Y-97362537D01*
X112164905Y-97357458D01*
X112168642Y-97352145D01*
X112174027Y-97344431D01*
X112179225Y-97337295D01*
X112184271Y-97330708D01*
X112189198Y-97324641D01*
X112194040Y-97319067D01*
X112198830Y-97313956D01*
X112203603Y-97309279D01*
X112208391Y-97305009D01*
X112213229Y-97301117D01*
X112218151Y-97297573D01*
X112223190Y-97294349D01*
X112228379Y-97291418D01*
X112233754Y-97288749D01*
X112239347Y-97286315D01*
X112245192Y-97284086D01*
X112251323Y-97282035D01*
X112256309Y-97280385D01*
X112261042Y-97278641D01*
X112265528Y-97276801D01*
X112269774Y-97274863D01*
X112271808Y-97273855D01*
X112273784Y-97272822D01*
X112275704Y-97271762D01*
X112277567Y-97270676D01*
X112279374Y-97269563D01*
X112281127Y-97268423D01*
X112282825Y-97267255D01*
X112284470Y-97266059D01*
X112289449Y-97262274D01*
X112291529Y-97260622D01*
X112293366Y-97259091D01*
X112294982Y-97257650D01*
X112296400Y-97256270D01*
X112297642Y-97254921D01*
X112298730Y-97253574D01*
X112299686Y-97252199D01*
X112300534Y-97250766D01*
X112301295Y-97249245D01*
X112301991Y-97247606D01*
X112302646Y-97245821D01*
X112303281Y-97243858D01*
X112303918Y-97241689D01*
X112304581Y-97239283D01*
X112305078Y-97236964D01*
X112305484Y-97234097D01*
X112305802Y-97230765D01*
X112306034Y-97227051D01*
X112306249Y-97218811D01*
X112306149Y-97210042D01*
X112305751Y-97201410D01*
X112305077Y-97193578D01*
X112304641Y-97190171D01*
X112304144Y-97187214D01*
X112303586Y-97184789D01*
X112302971Y-97182981D01*
X112302757Y-97182432D01*
X112302526Y-97181736D01*
X112302023Y-97179943D01*
X112301481Y-97177687D01*
X112300917Y-97175051D01*
X112300348Y-97172121D01*
X112299791Y-97168981D01*
X112299263Y-97165715D01*
X112298782Y-97162407D01*
X112297619Y-97154651D01*
X112296257Y-97146862D01*
X112294713Y-97139114D01*
X112293003Y-97131478D01*
X112291145Y-97124029D01*
X112289157Y-97116839D01*
X112287055Y-97109982D01*
X112284858Y-97103530D01*
X112284333Y-97101920D01*
X112283738Y-97099826D01*
X112282367Y-97094318D01*
X112280797Y-97087276D01*
X112279083Y-97078964D01*
X112277277Y-97069652D01*
X112275434Y-97059605D01*
X112273606Y-97049092D01*
X112271846Y-97038379D01*
X112269311Y-97022191D01*
X112267346Y-97008773D01*
X112265877Y-96997226D01*
X112264829Y-96986651D01*
X112264127Y-96976149D01*
X112263697Y-96964821D01*
X112263464Y-96951769D01*
X112263354Y-96936093D01*
X112263140Y-96885801D01*
X112270449Y-96864049D01*
X112272807Y-96857630D01*
X112275615Y-96851040D01*
X112278850Y-96844313D01*
X112282486Y-96837479D01*
X112286501Y-96830571D01*
X112290871Y-96823622D01*
X112295570Y-96816664D01*
X112300576Y-96809728D01*
X112305865Y-96802847D01*
X112311411Y-96796054D01*
X112317192Y-96789380D01*
X112323184Y-96782858D01*
X112329361Y-96776519D01*
X112335702Y-96770397D01*
X112342180Y-96764522D01*
X112348773Y-96758928D01*
X112353743Y-96754806D01*
X112357996Y-96751188D01*
X112359713Y-96749689D01*
X112361081Y-96748463D01*
X112362043Y-96747558D01*
X112362544Y-96747023D01*
X112362792Y-96746800D01*
X112363277Y-96746467D01*
X112363986Y-96746033D01*
X112364905Y-96745502D01*
X112367325Y-96744180D01*
X112370433Y-96742555D01*
X112374127Y-96740680D01*
X112378303Y-96738608D01*
X112382859Y-96736392D01*
X112387690Y-96734085D01*
X112394417Y-96730977D01*
X112400472Y-96728361D01*
X112403314Y-96727217D01*
X112406066Y-96726170D01*
X112408756Y-96725212D01*
X112411410Y-96724335D01*
X112414055Y-96723531D01*
X112416716Y-96722791D01*
X112419421Y-96722106D01*
X112422195Y-96721469D01*
X112428058Y-96720304D01*
X112434516Y-96719228D01*
X112441799Y-96718148D01*
X112444985Y-96717728D01*
X112447956Y-96717391D01*
X112450779Y-96717136D01*
X112453521Y-96716964D01*
X112456247Y-96716877D01*
X112459024Y-96716876D01*
X112461919Y-96716962D01*
G37*
D11*
G36*
X158801062Y-106605600D02*
G01*
X158454970Y-106602082D01*
X158145710Y-106430526D01*
X156183463Y-106430526D01*
X155867217Y-106604818D01*
X155528745Y-106605600D01*
X156010311Y-106355495D01*
X156321900Y-106355495D01*
X158007273Y-106355495D01*
X157170301Y-105926214D01*
X156321900Y-106355495D01*
X156010311Y-106355495D01*
X156973442Y-105855285D01*
X157366526Y-105855285D01*
X158801062Y-106605600D01*
G37*
G36*
X155055012Y-106172215D02*
G01*
X154986175Y-106136134D01*
X154883658Y-106109740D01*
X154856882Y-106104999D01*
X154733383Y-106090982D01*
X154599297Y-106083842D01*
X154455145Y-106080764D01*
X154374258Y-106080380D01*
X154229013Y-106081262D01*
X154098094Y-106083910D01*
X153959900Y-106089417D01*
X153824746Y-106099054D01*
X153704666Y-106114304D01*
X153692234Y-106116528D01*
X153597994Y-106144572D01*
X153540117Y-106182631D01*
X153509465Y-106226071D01*
X153498041Y-106270836D01*
X153497280Y-106287302D01*
X153501090Y-106310945D01*
X153751927Y-106310945D01*
X153758198Y-106269094D01*
X153783674Y-106227118D01*
X153840112Y-106191911D01*
X153852262Y-106187651D01*
X153970894Y-106166777D01*
X154097104Y-106158560D01*
X154239570Y-106155537D01*
X154279639Y-106155411D01*
X154367273Y-106155411D01*
X154498888Y-106156496D01*
X154633590Y-106160506D01*
X154762680Y-106168707D01*
X154886760Y-106184384D01*
X154896889Y-106186283D01*
X154986914Y-106216051D01*
X155032776Y-106253114D01*
X155052541Y-106295661D01*
X155055012Y-106320324D01*
X155055012Y-106605600D01*
X155309659Y-106605600D01*
X155309659Y-106079207D01*
X155055012Y-106079207D01*
X155055012Y-106172215D01*
G37*
G36*
X151826512Y-106605600D02*
G01*
X152110371Y-106605600D01*
X152245772Y-106604836D01*
X152401572Y-106601736D01*
X152542426Y-106596250D01*
X152668334Y-106588378D01*
X152799697Y-106575785D01*
X152925752Y-106556751D01*
X153024975Y-106530088D01*
X153099827Y-106492840D01*
X153144589Y-106452490D01*
X153168214Y-106412924D01*
X153179404Y-106367959D01*
X153180399Y-106348461D01*
X153178673Y-106306385D01*
X153172183Y-106265589D01*
X153165793Y-106245292D01*
X153131661Y-106206751D01*
X153069757Y-106170382D01*
X153058473Y-106164985D01*
X152972327Y-106135667D01*
X152864177Y-106114440D01*
X152754928Y-106101091D01*
X152630252Y-106091079D01*
X152494124Y-106084344D01*
X152363506Y-106081108D01*
X152259604Y-106080380D01*
X152106561Y-106080380D01*
X151970057Y-106080613D01*
X151828126Y-106081476D01*
X151688767Y-106083241D01*
X151561116Y-106086219D01*
X151536938Y-106087023D01*
X151412648Y-106095238D01*
X151287328Y-106112522D01*
X151200371Y-106131182D01*
X151115408Y-106162704D01*
X151068773Y-106201539D01*
X151051722Y-106244778D01*
X151051139Y-106255453D01*
X151316582Y-106255453D01*
X151330225Y-106215565D01*
X151351509Y-106196248D01*
X151434063Y-106164924D01*
X151460734Y-106159710D01*
X151582134Y-106146032D01*
X151682360Y-106140170D01*
X151816212Y-106135742D01*
X151951574Y-106133759D01*
X152062744Y-106133332D01*
X152106561Y-106133332D01*
X152246647Y-106133641D01*
X152381163Y-106134858D01*
X152481865Y-106137239D01*
X152609237Y-106145875D01*
X152704126Y-106156388D01*
X152812627Y-106179558D01*
X152860343Y-106206214D01*
X152887650Y-106242166D01*
X152900350Y-106267567D01*
X152907336Y-106324232D01*
X152907336Y-106339668D01*
X152903142Y-106380434D01*
X152888080Y-106419879D01*
X152853848Y-106458469D01*
X152819701Y-106478398D01*
X152722791Y-106505640D01*
X152604645Y-106520066D01*
X152575849Y-106521775D01*
X152295800Y-106530568D01*
X152022737Y-106530568D01*
X151833498Y-106530568D01*
X151697442Y-106526514D01*
X151572777Y-106519022D01*
X151507726Y-106514350D01*
X151393532Y-106496753D01*
X151321632Y-106464235D01*
X151293084Y-106422210D01*
X151291181Y-106405516D01*
X151025738Y-106405516D01*
X151032971Y-106445555D01*
X151059694Y-106486051D01*
X151114347Y-106524134D01*
X151206573Y-106556527D01*
X151231488Y-106562222D01*
X151345833Y-106581200D01*
X151483119Y-106594755D01*
X151622062Y-106602168D01*
X151755136Y-106605218D01*
X151826512Y-106605600D01*
G37*
G36*
X150261795Y-106180422D02*
G01*
X150194124Y-106145720D01*
X150089890Y-106117378D01*
X149968043Y-106100548D01*
X149954440Y-106099333D01*
X149823708Y-106090171D01*
X149696116Y-106084544D01*
X149557809Y-106081287D01*
X149427999Y-106080380D01*
X149273219Y-106081200D01*
X149131556Y-106083662D01*
X149003008Y-106087764D01*
X148866065Y-106094853D01*
X148730169Y-106106111D01*
X148664056Y-106113987D01*
X148555704Y-106137154D01*
X148478309Y-106173045D01*
X148435984Y-106214889D01*
X148418570Y-106258509D01*
X148416394Y-106283004D01*
X148416394Y-106605600D01*
X148671041Y-106605600D01*
X148671041Y-106284567D01*
X148681995Y-106244657D01*
X148714858Y-106212466D01*
X148797099Y-106182533D01*
X148867901Y-106171824D01*
X148984112Y-106160296D01*
X149107943Y-106155411D01*
X149384816Y-106155411D01*
X149529172Y-106156229D01*
X149662186Y-106158681D01*
X149803036Y-106163608D01*
X149928448Y-106170761D01*
X150023658Y-106178663D01*
X150138773Y-106197105D01*
X150222493Y-106230177D01*
X150258074Y-106271265D01*
X150261795Y-106292969D01*
X150261795Y-106605600D01*
X150516442Y-106605600D01*
X150516442Y-105855285D01*
X150261795Y-105855285D01*
X150261795Y-106180422D01*
G37*
G36*
X147579422Y-106605600D02*
G01*
X147834070Y-106605600D01*
X147834070Y-106079207D01*
X147579422Y-106079207D01*
X147579422Y-106605600D01*
G37*
G36*
X147579422Y-105955327D02*
G01*
X147834070Y-105955327D01*
X147834070Y-105855285D01*
X147579422Y-105855285D01*
X147579422Y-105955327D01*
G37*
G36*
X145484454Y-106155411D02*
G01*
X146667517Y-106155411D01*
X146667517Y-106394183D01*
X146659731Y-106435826D01*
X146629068Y-106475348D01*
X146569087Y-106504190D01*
X146445298Y-106522222D01*
X146314162Y-106528919D01*
X146183623Y-106530568D01*
X146045357Y-106529100D01*
X145918475Y-106524024D01*
X145795619Y-106512006D01*
X145704174Y-106481817D01*
X145674765Y-106440168D01*
X145673693Y-106428377D01*
X145677503Y-106373666D01*
X145440636Y-106373666D01*
X145443396Y-106415363D01*
X145453993Y-106459254D01*
X145476402Y-106501986D01*
X145515258Y-106539648D01*
X145553672Y-106560073D01*
X145660635Y-106584081D01*
X145799072Y-106596885D01*
X145933738Y-106602754D01*
X146066152Y-106605199D01*
X146154412Y-106605600D01*
X146295619Y-106604521D01*
X146441682Y-106600537D01*
X146567629Y-106593616D01*
X146700001Y-106580405D01*
X146736736Y-106574923D01*
X146834520Y-106547995D01*
X146891562Y-106510708D01*
X146917638Y-106467184D01*
X146922165Y-106435020D01*
X146922165Y-106399459D01*
X146922165Y-106155411D01*
X147337475Y-106155411D01*
X147337475Y-106080380D01*
X146922165Y-106080380D01*
X146922165Y-105955327D01*
X146667517Y-105955327D01*
X146667517Y-106080380D01*
X145484454Y-106080380D01*
X145484454Y-106155411D01*
G37*
G36*
X144214229Y-106080433D02*
G01*
X144368909Y-106082303D01*
X144507559Y-106086844D01*
X144652778Y-106095820D01*
X144793023Y-106111154D01*
X144914830Y-106135090D01*
X144927254Y-106138607D01*
X145012448Y-106173778D01*
X145066285Y-106214811D01*
X145097050Y-106257602D01*
X145111840Y-106298635D01*
X145116770Y-106344553D01*
X145116210Y-106360122D01*
X145107801Y-106403452D01*
X145085236Y-106447596D01*
X145042629Y-106489596D01*
X144973253Y-106526074D01*
X144954944Y-106532748D01*
X144854691Y-106561172D01*
X144739926Y-106581352D01*
X144610650Y-106593290D01*
X144596738Y-106594047D01*
X144466775Y-106599240D01*
X144325839Y-106602522D01*
X144184817Y-106604397D01*
X144053042Y-106605299D01*
X143908306Y-106605600D01*
X143881591Y-106605572D01*
X143752668Y-106604603D01*
X143608194Y-106601615D01*
X143474882Y-106596635D01*
X143333460Y-106588307D01*
X143207231Y-106577267D01*
X143115079Y-106564296D01*
X143012601Y-106536312D01*
X142953020Y-106498096D01*
X142936073Y-106455537D01*
X143205326Y-106455537D01*
X143206029Y-106456946D01*
X143256128Y-106493052D01*
X143266815Y-106496670D01*
X143379960Y-106516695D01*
X143440215Y-106521913D01*
X143569834Y-106528028D01*
X143696175Y-106530010D01*
X143831467Y-106530568D01*
X143875284Y-106530568D01*
X144013721Y-106530568D01*
X144315361Y-106530568D01*
X144501425Y-106524706D01*
X144580405Y-106519012D01*
X144705010Y-106502470D01*
X144794174Y-106474490D01*
X144829672Y-106447971D01*
X144854914Y-106408037D01*
X144861488Y-106368000D01*
X142936073Y-106368000D01*
X142932262Y-106337909D01*
X142932746Y-106323191D01*
X142938079Y-106292969D01*
X143198341Y-106292969D01*
X144854502Y-106292969D01*
X144847517Y-106261706D01*
X144829101Y-106234546D01*
X144804060Y-106217876D01*
X144717971Y-106187651D01*
X144604179Y-106170382D01*
X144479834Y-106162250D01*
X144362625Y-106158356D01*
X144231909Y-106156079D01*
X144101355Y-106155411D01*
X143900685Y-106155411D01*
X143808360Y-106155927D01*
X143680964Y-106158537D01*
X143643406Y-106159744D01*
X143515221Y-106165767D01*
X143419341Y-106174697D01*
X143307566Y-106194099D01*
X143281047Y-106202176D01*
X143220567Y-106237281D01*
X143208846Y-106253634D01*
X143198341Y-106292969D01*
X142938079Y-106292969D01*
X142940002Y-106282075D01*
X142959471Y-106239873D01*
X142996234Y-106199243D01*
X143056094Y-106163227D01*
X143063915Y-106159836D01*
X143151132Y-106130374D01*
X143265981Y-106107311D01*
X143387580Y-106094839D01*
X143518971Y-106087803D01*
X143653658Y-106083701D01*
X143743155Y-106082096D01*
X143874204Y-106080772D01*
X144006100Y-106080380D01*
X144181369Y-106080380D01*
X144214229Y-106080433D01*
G37*
G36*
X140596617Y-106505558D02*
G01*
X140667264Y-106540306D01*
X140763545Y-106566428D01*
X140833484Y-106579026D01*
X140960217Y-106593039D01*
X141090359Y-106600513D01*
X141225200Y-106604328D01*
X141356354Y-106605574D01*
X141379611Y-106605600D01*
X141528545Y-106604790D01*
X141664184Y-106602363D01*
X141815035Y-106597054D01*
X141945111Y-106589216D01*
X142073779Y-106576474D01*
X142186082Y-106557006D01*
X142198801Y-106553820D01*
X142284649Y-106524841D01*
X142345970Y-106489682D01*
X142382762Y-106448344D01*
X142394834Y-106407104D01*
X142395026Y-106400826D01*
X142395026Y-106384218D01*
X142395026Y-106080380D01*
X142139743Y-106080380D01*
X142139743Y-106359207D01*
X142132268Y-106403471D01*
X142105418Y-106445014D01*
X142044395Y-106483375D01*
X141983525Y-106501259D01*
X141859732Y-106516715D01*
X141727030Y-106524958D01*
X141586367Y-106529166D01*
X141447563Y-106530539D01*
X141422793Y-106530568D01*
X141274634Y-106529538D01*
X141141166Y-106526446D01*
X141004020Y-106520235D01*
X140871765Y-106509703D01*
X140802367Y-106501259D01*
X140693866Y-106474793D01*
X140630574Y-106437041D01*
X140603850Y-106398553D01*
X140596617Y-106359207D01*
X140596617Y-106080380D01*
X140341969Y-106080380D01*
X140341969Y-106605600D01*
X140596617Y-106605600D01*
X140596617Y-106505558D01*
G37*
G36*
X138250176Y-106155411D02*
G01*
X139433239Y-106155411D01*
X139433239Y-106394183D01*
X139425453Y-106435826D01*
X139394790Y-106475348D01*
X139334809Y-106504190D01*
X139211021Y-106522222D01*
X139079884Y-106528919D01*
X138949345Y-106530568D01*
X138811079Y-106529100D01*
X138684197Y-106524024D01*
X138561341Y-106512006D01*
X138469897Y-106481817D01*
X138440487Y-106440168D01*
X138439415Y-106428377D01*
X138443225Y-106373666D01*
X138206359Y-106373666D01*
X138209118Y-106415363D01*
X138219715Y-106459254D01*
X138242124Y-106501986D01*
X138280980Y-106539648D01*
X138319394Y-106560073D01*
X138426357Y-106584081D01*
X138564794Y-106596885D01*
X138699461Y-106602754D01*
X138831875Y-106605199D01*
X138920134Y-106605600D01*
X139061342Y-106604521D01*
X139207404Y-106600537D01*
X139333351Y-106593616D01*
X139465723Y-106580405D01*
X139502458Y-106574923D01*
X139600243Y-106547995D01*
X139657284Y-106510708D01*
X139683360Y-106467184D01*
X139687887Y-106435020D01*
X139687887Y-106399459D01*
X139687887Y-106155411D01*
X140103197Y-106155411D01*
X140103197Y-106080380D01*
X139687887Y-106080380D01*
X139687887Y-105955327D01*
X139433239Y-105955327D01*
X139433239Y-106080380D01*
X138250176Y-106080380D01*
X138250176Y-106155411D01*
G37*
G36*
X137576408Y-106180422D02*
G01*
X137508737Y-106145720D01*
X137404503Y-106117378D01*
X137282656Y-106100548D01*
X137269052Y-106099333D01*
X137138321Y-106090171D01*
X137010729Y-106084544D01*
X136872421Y-106081287D01*
X136742611Y-106080380D01*
X136587832Y-106081200D01*
X136446168Y-106083662D01*
X136317621Y-106087764D01*
X136180677Y-106094853D01*
X136044781Y-106106111D01*
X135978669Y-106113987D01*
X135870316Y-106137154D01*
X135792922Y-106173045D01*
X135750597Y-106214889D01*
X135733183Y-106258509D01*
X135731006Y-106283004D01*
X135731006Y-106605600D01*
X135985654Y-106605600D01*
X135985654Y-106284567D01*
X135996608Y-106244657D01*
X136029471Y-106212466D01*
X136111712Y-106182533D01*
X136182514Y-106171824D01*
X136298724Y-106160296D01*
X136422555Y-106155411D01*
X136699429Y-106155411D01*
X136843785Y-106156229D01*
X136976799Y-106158681D01*
X137117648Y-106163608D01*
X137243061Y-106170761D01*
X137338271Y-106178663D01*
X137453386Y-106197105D01*
X137537106Y-106230177D01*
X137572687Y-106271265D01*
X137576408Y-106292969D01*
X137576408Y-106605600D01*
X137831055Y-106605600D01*
X137831055Y-105855285D01*
X137576408Y-105855285D01*
X137576408Y-106180422D01*
G37*
G36*
X134894035Y-106605600D02*
G01*
X135148682Y-106605600D01*
X135148682Y-106079207D01*
X134894035Y-106079207D01*
X134894035Y-106605600D01*
G37*
G36*
X134894035Y-105955327D02*
G01*
X135148682Y-105955327D01*
X135148682Y-105855285D01*
X134894035Y-105855285D01*
X134894035Y-105955327D01*
G37*
G36*
X132824468Y-106155411D02*
G01*
X133326777Y-106155411D01*
X133589045Y-106155411D01*
X133719475Y-106157701D01*
X133809401Y-106161273D01*
X133934870Y-106170464D01*
X134011341Y-106181203D01*
X134082782Y-106214103D01*
X134087545Y-106230442D01*
X134066038Y-106270086D01*
X134011341Y-106291601D01*
X133883592Y-106303184D01*
X133763679Y-106305474D01*
X133322967Y-106317979D01*
X132846059Y-106317979D01*
X132714117Y-106319354D01*
X132583122Y-106324290D01*
X132449071Y-106335510D01*
X132374865Y-106346702D01*
X132282766Y-106375956D01*
X132235683Y-106416580D01*
X132223728Y-106459640D01*
X132235000Y-106503579D01*
X132274627Y-106542209D01*
X132361807Y-106573891D01*
X132404077Y-106581175D01*
X132535498Y-106594055D01*
X132668141Y-106600925D01*
X132804258Y-106604431D01*
X132935829Y-106605576D01*
X132959094Y-106605600D01*
X133436003Y-106605600D01*
X133585235Y-106605600D01*
X133686840Y-106605600D01*
X133770664Y-106605600D01*
X133899258Y-106603059D01*
X134032094Y-106596669D01*
X134052618Y-106595439D01*
X134173450Y-106583153D01*
X134278491Y-106558958D01*
X134300281Y-106550694D01*
X134356280Y-106514875D01*
X134379320Y-106475601D01*
X134382200Y-106452997D01*
X134379024Y-106430526D01*
X134120567Y-106427595D01*
X134116756Y-106439905D01*
X134103508Y-106480665D01*
X134047538Y-106513178D01*
X133931692Y-106530448D01*
X133800791Y-106538152D01*
X133789080Y-106538579D01*
X133341383Y-106543073D01*
X133265179Y-106543073D01*
X133199136Y-106544050D01*
X133144523Y-106544050D01*
X133097531Y-106544050D01*
X133057524Y-106544050D01*
X132929414Y-106543192D01*
X132920992Y-106543073D01*
X132795256Y-106538384D01*
X132666327Y-106531262D01*
X132560930Y-106518258D01*
X132499860Y-106482166D01*
X132496791Y-106466674D01*
X132511569Y-106427707D01*
X132575488Y-106393779D01*
X132586331Y-106391057D01*
X132711080Y-106374896D01*
X132847351Y-106370426D01*
X132871460Y-106370345D01*
X133333763Y-106369368D01*
X133774475Y-106369368D01*
X133909657Y-106367670D01*
X134041053Y-106361703D01*
X134171905Y-106348574D01*
X134211376Y-106342208D01*
X134302315Y-106313668D01*
X134348804Y-106273410D01*
X134360609Y-106230442D01*
X134349256Y-106190432D01*
X134304547Y-106150178D01*
X134225921Y-106119437D01*
X134217091Y-106117114D01*
X134104030Y-106096200D01*
X133977024Y-106084720D01*
X133842993Y-106080523D01*
X133810671Y-106080380D01*
X133326777Y-106080380D01*
X133064509Y-106080380D01*
X132933534Y-106080380D01*
X132896861Y-106080380D01*
X132776840Y-106080380D01*
X132641169Y-106083394D01*
X132518231Y-106093812D01*
X132409343Y-106116137D01*
X132402172Y-106118482D01*
X132333291Y-106152883D01*
X132298077Y-106194653D01*
X132289136Y-106236109D01*
X132544419Y-106236109D01*
X132566320Y-106197503D01*
X132613637Y-106176709D01*
X132733479Y-106160430D01*
X132824468Y-106155411D01*
G37*
G36*
X128546261Y-106180422D02*
G01*
X128546261Y-106255453D01*
X130468501Y-106255453D01*
X130468501Y-106605600D01*
X130763156Y-106605600D01*
X130763156Y-105855285D01*
X128444656Y-105855285D01*
X128444656Y-105930317D01*
X130468501Y-105930317D01*
X130468501Y-106180422D01*
X128546261Y-106180422D01*
G37*
G36*
X127728341Y-106605600D02*
G01*
X127982988Y-106605600D01*
X127982988Y-105855285D01*
X127728341Y-105855285D01*
X127728341Y-106605600D01*
G37*
G36*
X125345703Y-106505558D02*
G01*
X125416349Y-106540306D01*
X125512631Y-106566428D01*
X125582569Y-106579026D01*
X125709303Y-106593039D01*
X125839445Y-106600513D01*
X125974286Y-106604328D01*
X126105440Y-106605574D01*
X126128696Y-106605600D01*
X126277631Y-106604790D01*
X126413270Y-106602363D01*
X126564121Y-106597054D01*
X126694197Y-106589216D01*
X126822865Y-106576474D01*
X126935168Y-106557006D01*
X126947887Y-106553820D01*
X127033735Y-106524841D01*
X127095055Y-106489682D01*
X127131848Y-106448344D01*
X127143920Y-106407104D01*
X127144112Y-106400826D01*
X127144112Y-106384218D01*
X127144112Y-106080380D01*
X126888829Y-106080380D01*
X126888829Y-106359207D01*
X126881354Y-106403471D01*
X126854504Y-106445014D01*
X126793481Y-106483375D01*
X126732611Y-106501259D01*
X126608817Y-106516715D01*
X126476116Y-106524958D01*
X126335453Y-106529166D01*
X126196649Y-106530539D01*
X126171879Y-106530568D01*
X126023720Y-106529538D01*
X125890252Y-106526446D01*
X125753106Y-106520235D01*
X125620851Y-106509703D01*
X125551453Y-106501259D01*
X125442952Y-106474793D01*
X125379660Y-106437041D01*
X125352936Y-106398553D01*
X125345703Y-106359207D01*
X125345703Y-106080380D01*
X125091055Y-106080380D01*
X125091055Y-106605600D01*
X125345703Y-106605600D01*
X125345703Y-106505558D01*
G37*
G36*
X122620783Y-106080380D02*
G01*
X123479980Y-106326772D01*
X122526163Y-106605600D01*
X122900832Y-106609898D01*
X123669220Y-106389103D01*
X124447768Y-106608530D01*
X124826247Y-106605600D01*
X123861634Y-106326772D01*
X124724642Y-106080380D01*
X124342353Y-106074713D01*
X123669220Y-106283004D01*
X122999262Y-106074322D01*
X122620783Y-106080380D01*
G37*
G36*
X156449676Y-84983049D02*
G01*
X156455644Y-85052011D01*
X156478560Y-85125863D01*
X156518663Y-85190004D01*
X156587172Y-85252560D01*
X156694114Y-85307867D01*
X156842602Y-85348569D01*
X157015625Y-85374643D01*
X157195945Y-85389906D01*
X157405816Y-85398628D01*
X157603284Y-85400900D01*
X158021818Y-85400900D01*
X158112384Y-85400900D01*
X158298049Y-85400900D01*
X158486079Y-85400900D01*
X158676473Y-85400900D01*
X158783270Y-85400900D01*
X158961005Y-85396676D01*
X159135898Y-85381504D01*
X159296656Y-85351248D01*
X159407555Y-85312630D01*
X159500213Y-85256574D01*
X159557119Y-85195993D01*
X159590064Y-85125291D01*
X159599236Y-85055125D01*
X159593961Y-84958600D01*
X159200925Y-84958600D01*
X159206201Y-84993527D01*
X159201615Y-85059888D01*
X159182241Y-85129582D01*
X159132823Y-85195159D01*
X159110360Y-85210073D01*
X158962882Y-85249046D01*
X158779643Y-85268476D01*
X158586312Y-85278973D01*
X157931253Y-85278973D01*
X157850360Y-85278973D01*
X157780018Y-85278973D01*
X157724624Y-85278973D01*
X157546622Y-85277578D01*
X157535580Y-85277386D01*
X157366759Y-85269766D01*
X157187377Y-85255579D01*
X157026480Y-85223408D01*
X156921860Y-85172258D01*
X156888434Y-85135139D01*
X156863550Y-85070619D01*
X156857659Y-85013213D01*
X156857659Y-84987812D01*
X156857659Y-84181639D01*
X156449676Y-84181639D01*
X156449676Y-84983049D01*
G37*
G36*
X153099641Y-85238331D02*
G01*
X153197459Y-85294797D01*
X153330773Y-85337245D01*
X153427610Y-85357717D01*
X153603087Y-85380489D01*
X153783284Y-85392634D01*
X153969987Y-85398833D01*
X154151585Y-85400857D01*
X154183786Y-85400900D01*
X154390004Y-85399585D01*
X154577811Y-85395641D01*
X154786682Y-85387013D01*
X154966787Y-85374277D01*
X155144943Y-85353570D01*
X155300439Y-85321935D01*
X155318050Y-85316758D01*
X155436917Y-85269666D01*
X155521822Y-85212533D01*
X155572765Y-85145359D01*
X155589480Y-85078344D01*
X155589746Y-85068143D01*
X155589746Y-85041154D01*
X155589746Y-84547417D01*
X155236278Y-84547417D01*
X155236278Y-85000512D01*
X155225927Y-85072441D01*
X155188750Y-85139948D01*
X155104258Y-85202285D01*
X155019976Y-85231346D01*
X154848569Y-85256462D01*
X154664828Y-85269857D01*
X154470065Y-85276694D01*
X154277875Y-85278927D01*
X154243577Y-85278973D01*
X154038435Y-85277299D01*
X153853632Y-85272276D01*
X153663738Y-85262183D01*
X153480615Y-85245067D01*
X153384526Y-85231346D01*
X153234294Y-85188339D01*
X153146658Y-85126992D01*
X153109657Y-85064448D01*
X153099641Y-85000512D01*
X153099641Y-84547417D01*
X152747052Y-84547417D01*
X152747052Y-85400900D01*
X153099641Y-85400900D01*
X153099641Y-85238331D01*
G37*
G36*
X151594324Y-84682044D02*
G01*
X151491493Y-84624502D01*
X151338743Y-84585510D01*
X151251407Y-84573771D01*
X151066684Y-84558767D01*
X150872969Y-84550531D01*
X150677629Y-84547520D01*
X150631518Y-84547417D01*
X150555901Y-84547417D01*
X150367419Y-84548518D01*
X150182291Y-84552164D01*
X150120660Y-84554085D01*
X149939529Y-84562817D01*
X149784777Y-84575676D01*
X149620308Y-84599850D01*
X149485206Y-84641015D01*
X149379470Y-84699172D01*
X149361846Y-84712843D01*
X149262928Y-84653563D01*
X149122381Y-84605904D01*
X148948587Y-84576629D01*
X148758221Y-84561224D01*
X148581075Y-84553009D01*
X148381837Y-84548444D01*
X148217910Y-84547417D01*
X148019799Y-84549037D01*
X147838174Y-84553898D01*
X147641986Y-84564007D01*
X147469538Y-84578783D01*
X147298354Y-84601919D01*
X147234882Y-84613778D01*
X147093703Y-84656087D01*
X146992862Y-84716971D01*
X146937714Y-84785481D01*
X146915024Y-84855523D01*
X146912188Y-84894462D01*
X146912188Y-85400900D01*
X147264777Y-85400900D01*
X147264777Y-84902082D01*
X147278516Y-84836118D01*
X147334329Y-84771301D01*
X147457977Y-84719387D01*
X147484596Y-84713478D01*
X147664624Y-84688351D01*
X147855814Y-84675550D01*
X148031831Y-84670421D01*
X148172188Y-84669343D01*
X148293528Y-84669343D01*
X148497186Y-84671420D01*
X148673581Y-84677648D01*
X148866361Y-84692413D01*
X149039177Y-84721250D01*
X149064652Y-84728401D01*
X149181458Y-84780509D01*
X149241171Y-84842002D01*
X149256333Y-84902082D01*
X149256333Y-85400900D01*
X149608922Y-85400900D01*
X149608922Y-84902082D01*
X149625409Y-84834958D01*
X149681627Y-84774300D01*
X149777743Y-84727449D01*
X149947107Y-84694367D01*
X150137236Y-84678933D01*
X150316835Y-84672124D01*
X150528149Y-84669400D01*
X150566452Y-84669343D01*
X150756805Y-84670917D01*
X150956043Y-84676960D01*
X151148246Y-84689738D01*
X151314841Y-84711894D01*
X151402642Y-84733799D01*
X151511773Y-84785735D01*
X151571674Y-84846560D01*
X151593575Y-84912383D01*
X151594324Y-84928436D01*
X151594324Y-85400900D01*
X151946913Y-85400900D01*
X151946913Y-84545512D01*
X151594324Y-84545512D01*
X151594324Y-84682044D01*
G37*
G36*
X146108532Y-85766678D02*
G01*
X145755943Y-85766678D01*
X145755943Y-85278973D01*
X145744268Y-85288026D01*
X145634157Y-85343509D01*
X145484247Y-85377086D01*
X145373172Y-85388597D01*
X145198025Y-85398086D01*
X145010318Y-85400900D01*
X144501218Y-85400900D01*
X144067736Y-85400900D01*
X143956868Y-85400012D01*
X143756414Y-85392913D01*
X143558416Y-85375657D01*
X143379429Y-85344104D01*
X143250890Y-85299930D01*
X143160490Y-85241526D01*
X143102577Y-85177694D01*
X143068677Y-85113523D01*
X143049305Y-85040624D01*
X143044641Y-84978286D01*
X143422349Y-84978286D01*
X143429891Y-85048752D01*
X143457757Y-85117362D01*
X143514745Y-85177839D01*
X143636892Y-85229759D01*
X143732533Y-85246484D01*
X143908333Y-85263402D01*
X144107418Y-85273158D01*
X144311685Y-85277772D01*
X144505615Y-85278973D01*
X144722402Y-85277935D01*
X144916091Y-85274818D01*
X145118029Y-85268337D01*
X145311584Y-85256994D01*
X145493919Y-85236426D01*
X145539803Y-85226846D01*
X145660153Y-85172620D01*
X145720328Y-85104548D01*
X145744399Y-85039090D01*
X145750667Y-84975111D01*
X145750588Y-84967456D01*
X145742767Y-84902640D01*
X145719068Y-84839224D01*
X145669774Y-84775076D01*
X145657979Y-84766364D01*
X145539303Y-84714942D01*
X145367303Y-84688077D01*
X145345111Y-84685947D01*
X145171225Y-84672836D01*
X145014714Y-84669343D01*
X144836222Y-84669343D01*
X144812646Y-84669343D01*
X144632230Y-84669343D01*
X144510890Y-84669343D01*
X144348197Y-84670088D01*
X144165773Y-84673111D01*
X143977581Y-84679808D01*
X143800375Y-84691855D01*
X143626340Y-84716971D01*
X143510201Y-84769194D01*
X143456015Y-84831918D01*
X143429520Y-84903894D01*
X143422349Y-84978286D01*
X143044641Y-84978286D01*
X143044261Y-84973206D01*
X143044576Y-84956332D01*
X143055605Y-84877728D01*
X143082392Y-84808736D01*
X143135333Y-84738635D01*
X143225776Y-84674344D01*
X143366954Y-84623939D01*
X143387604Y-84619231D01*
X143559131Y-84590461D01*
X143743727Y-84571629D01*
X143924051Y-84560046D01*
X144128461Y-84552200D01*
X144309330Y-84548613D01*
X144505615Y-84547417D01*
X144879306Y-84547417D01*
X145052050Y-84549527D01*
X145240702Y-84557836D01*
X145418301Y-84574089D01*
X145508389Y-84588371D01*
X145651584Y-84628761D01*
X145755943Y-84682044D01*
X145755943Y-84545512D01*
X146108532Y-84545512D01*
X146108532Y-85766678D01*
G37*
G36*
X141124581Y-84547504D02*
G01*
X141338754Y-84550543D01*
X141530730Y-84557923D01*
X141731802Y-84572508D01*
X141925989Y-84597426D01*
X142094645Y-84636322D01*
X142111847Y-84642037D01*
X142229807Y-84699190D01*
X142304351Y-84765868D01*
X142346948Y-84835404D01*
X142367427Y-84902082D01*
X142374254Y-84976699D01*
X142373478Y-85001999D01*
X142361834Y-85072410D01*
X142330591Y-85144143D01*
X142271597Y-85212394D01*
X142175538Y-85271671D01*
X142150187Y-85282516D01*
X142011375Y-85328704D01*
X141852470Y-85361498D01*
X141673472Y-85380896D01*
X141654209Y-85382127D01*
X141474260Y-85390566D01*
X141279118Y-85395899D01*
X141083857Y-85398946D01*
X140901399Y-85400411D01*
X140700995Y-85400900D01*
X140664005Y-85400855D01*
X140485497Y-85399281D01*
X140285455Y-85394425D01*
X140100870Y-85386332D01*
X139905054Y-85372799D01*
X139730276Y-85354860D01*
X139602682Y-85333781D01*
X139460788Y-85288307D01*
X139378292Y-85226206D01*
X139354826Y-85157047D01*
X139727638Y-85157047D01*
X139728612Y-85159337D01*
X139797980Y-85218010D01*
X139812777Y-85223889D01*
X139969439Y-85256430D01*
X140052869Y-85264909D01*
X140232342Y-85274846D01*
X140407276Y-85278067D01*
X140594603Y-85278973D01*
X140655273Y-85278973D01*
X140846954Y-85278973D01*
X141264610Y-85278973D01*
X141522237Y-85269448D01*
X141631593Y-85260194D01*
X141804123Y-85233314D01*
X141927582Y-85187846D01*
X141976733Y-85144752D01*
X142011684Y-85079860D01*
X142020786Y-85014800D01*
X139354826Y-85014800D01*
X139349550Y-84965903D01*
X139350220Y-84941985D01*
X139357605Y-84892874D01*
X139717966Y-84892874D01*
X142011114Y-84892874D01*
X142001441Y-84842072D01*
X141975943Y-84797937D01*
X141941270Y-84770849D01*
X141822070Y-84721733D01*
X141664511Y-84693670D01*
X141492342Y-84680456D01*
X141330052Y-84674129D01*
X141149061Y-84670429D01*
X140968294Y-84669343D01*
X140690444Y-84669343D01*
X140562609Y-84670182D01*
X140386215Y-84674424D01*
X140334210Y-84676384D01*
X140156724Y-84686172D01*
X140023967Y-84700683D01*
X139869201Y-84732211D01*
X139832482Y-84745337D01*
X139748741Y-84802382D01*
X139732512Y-84828956D01*
X139717966Y-84892874D01*
X139357605Y-84892874D01*
X139360267Y-84875173D01*
X139387224Y-84806593D01*
X139438126Y-84740570D01*
X139521009Y-84682044D01*
X139531838Y-84676533D01*
X139652601Y-84628658D01*
X139811623Y-84591180D01*
X139979990Y-84570913D01*
X140161916Y-84559480D01*
X140348406Y-84552815D01*
X140472324Y-84550206D01*
X140653778Y-84548055D01*
X140836403Y-84547417D01*
X141079083Y-84547417D01*
X141124581Y-84547504D01*
G37*
G36*
X138257492Y-84696650D02*
G01*
X138162180Y-84638018D01*
X138020232Y-84595128D01*
X137983158Y-84587424D01*
X137812160Y-84564647D01*
X137626503Y-84553043D01*
X137426907Y-84548042D01*
X137314910Y-84547417D01*
X137113802Y-84548851D01*
X136932528Y-84553154D01*
X136741183Y-84562102D01*
X136554047Y-84577763D01*
X136387782Y-84602544D01*
X136370569Y-84606158D01*
X136240082Y-84651729D01*
X136159944Y-84713575D01*
X136117503Y-84784165D01*
X136101686Y-84856908D01*
X136100632Y-84883666D01*
X136105908Y-84922086D01*
X136453221Y-84922086D01*
X136461904Y-84854078D01*
X136497178Y-84785868D01*
X136575323Y-84728656D01*
X136592146Y-84721733D01*
X136756405Y-84687813D01*
X136931158Y-84674460D01*
X137128418Y-84669548D01*
X137183898Y-84669343D01*
X137305238Y-84669343D01*
X137487474Y-84671107D01*
X137673985Y-84677623D01*
X137852725Y-84690949D01*
X138024527Y-84716424D01*
X138038552Y-84719511D01*
X138163202Y-84767883D01*
X138226703Y-84828111D01*
X138254071Y-84897250D01*
X138257492Y-84937327D01*
X138257492Y-85400900D01*
X138610081Y-85400900D01*
X138610081Y-84545512D01*
X138257492Y-84545512D01*
X138257492Y-84696650D01*
G37*
G36*
X135243340Y-85400900D02*
G01*
X135595929Y-85400900D01*
X135595929Y-84181639D01*
X135243340Y-84181639D01*
X135243340Y-85400900D01*
G37*
G36*
X133260352Y-84547504D02*
G01*
X133474525Y-84550543D01*
X133666501Y-84557923D01*
X133867573Y-84572508D01*
X134061760Y-84597426D01*
X134230416Y-84636322D01*
X134247618Y-84642037D01*
X134365578Y-84699190D01*
X134440123Y-84765868D01*
X134482719Y-84835404D01*
X134503198Y-84902082D01*
X134510025Y-84976699D01*
X134509249Y-85001999D01*
X134497605Y-85072410D01*
X134466362Y-85144143D01*
X134407368Y-85212394D01*
X134311309Y-85271671D01*
X134285958Y-85282516D01*
X134147146Y-85328704D01*
X133988241Y-85361498D01*
X133809243Y-85380896D01*
X133789980Y-85382127D01*
X133610031Y-85390566D01*
X133414889Y-85395899D01*
X133219628Y-85398946D01*
X133037170Y-85400411D01*
X132836766Y-85400900D01*
X132799776Y-85400855D01*
X132621268Y-85399281D01*
X132421226Y-85394425D01*
X132236641Y-85386332D01*
X132040825Y-85372799D01*
X131866047Y-85354860D01*
X131738453Y-85333781D01*
X131596559Y-85288307D01*
X131514063Y-85226206D01*
X131490597Y-85157047D01*
X131863409Y-85157047D01*
X131864383Y-85159337D01*
X131933751Y-85218010D01*
X131948548Y-85223889D01*
X132105210Y-85256430D01*
X132188640Y-85264909D01*
X132368113Y-85274846D01*
X132543047Y-85278067D01*
X132730374Y-85278973D01*
X132791044Y-85278973D01*
X132982726Y-85278973D01*
X133400381Y-85278973D01*
X133658008Y-85269448D01*
X133767364Y-85260194D01*
X133939895Y-85233314D01*
X134063354Y-85187846D01*
X134112504Y-85144752D01*
X134147455Y-85079860D01*
X134156557Y-85014800D01*
X131490597Y-85014800D01*
X131485321Y-84965903D01*
X131485991Y-84941985D01*
X131493376Y-84892874D01*
X131853737Y-84892874D01*
X134146885Y-84892874D01*
X134137213Y-84842072D01*
X134111714Y-84797937D01*
X134077041Y-84770849D01*
X133957841Y-84721733D01*
X133800282Y-84693670D01*
X133628113Y-84680456D01*
X133465823Y-84674129D01*
X133284832Y-84670429D01*
X133104065Y-84669343D01*
X132826215Y-84669343D01*
X132698380Y-84670182D01*
X132521986Y-84674424D01*
X132469982Y-84676384D01*
X132292495Y-84686172D01*
X132159739Y-84700683D01*
X132004973Y-84732211D01*
X131968253Y-84745337D01*
X131884512Y-84802382D01*
X131868283Y-84828956D01*
X131853737Y-84892874D01*
X131493376Y-84892874D01*
X131496038Y-84875173D01*
X131522995Y-84806593D01*
X131573897Y-84740570D01*
X131656780Y-84682044D01*
X131667609Y-84676533D01*
X131788372Y-84628658D01*
X131947394Y-84591180D01*
X132115761Y-84570913D01*
X132297688Y-84559480D01*
X132484177Y-84552815D01*
X132608095Y-84550206D01*
X132789549Y-84548055D01*
X132972174Y-84547417D01*
X133214854Y-84547417D01*
X133260352Y-84547504D01*
G37*
G36*
X128684833Y-84669343D02*
G01*
X129380339Y-84669343D01*
X129743479Y-84669343D01*
X129924074Y-84673064D01*
X130048587Y-84678869D01*
X130222313Y-84693804D01*
X130328197Y-84711255D01*
X130427115Y-84764717D01*
X130433709Y-84791269D01*
X130403931Y-84855689D01*
X130328197Y-84890652D01*
X130151313Y-84909475D01*
X129985280Y-84913195D01*
X129375063Y-84933516D01*
X128714728Y-84933516D01*
X128532040Y-84935750D01*
X128350662Y-84943772D01*
X128165053Y-84962004D01*
X128062307Y-84980191D01*
X127934785Y-85027729D01*
X127869593Y-85093742D01*
X127853040Y-85163715D01*
X127868647Y-85235117D01*
X127923515Y-85297890D01*
X128044227Y-85349373D01*
X128102753Y-85361210D01*
X128284722Y-85382140D01*
X128468380Y-85393303D01*
X128656851Y-85399000D01*
X128839025Y-85400861D01*
X128871239Y-85400900D01*
X129531574Y-85400900D01*
X129738204Y-85400900D01*
X129878887Y-85400900D01*
X129994952Y-85400900D01*
X130173005Y-85396772D01*
X130356931Y-85386388D01*
X130385349Y-85384389D01*
X130552655Y-85364423D01*
X130698096Y-85325108D01*
X130728266Y-85311678D01*
X130805804Y-85253473D01*
X130837705Y-85189652D01*
X130841693Y-85152920D01*
X130837296Y-85116405D01*
X130479432Y-85111643D01*
X130474156Y-85131646D01*
X130455812Y-85197882D01*
X130378315Y-85250715D01*
X130217913Y-85278778D01*
X130036665Y-85291298D01*
X130020451Y-85291992D01*
X129400562Y-85299294D01*
X129295049Y-85299294D01*
X129203605Y-85300882D01*
X129127987Y-85300882D01*
X129062921Y-85300882D01*
X129007527Y-85300882D01*
X128830143Y-85299487D01*
X128818483Y-85299294D01*
X128644386Y-85291674D01*
X128465870Y-85280101D01*
X128319934Y-85258970D01*
X128235377Y-85200319D01*
X128231127Y-85175146D01*
X128251589Y-85111823D01*
X128340092Y-85056691D01*
X128355105Y-85052267D01*
X128527835Y-85026006D01*
X128716518Y-85018742D01*
X128749899Y-85018611D01*
X129390011Y-85017023D01*
X130000227Y-85017023D01*
X130187403Y-85014265D01*
X130369335Y-85004567D01*
X130550516Y-84983232D01*
X130605168Y-84972888D01*
X130731083Y-84926511D01*
X130795453Y-84861092D01*
X130811797Y-84791269D01*
X130796079Y-84726252D01*
X130734174Y-84660840D01*
X130625307Y-84610885D01*
X130613081Y-84607110D01*
X130456535Y-84573125D01*
X130280680Y-84554471D01*
X130095100Y-84547650D01*
X130050346Y-84547417D01*
X129380339Y-84547417D01*
X129017199Y-84547417D01*
X128835848Y-84547417D01*
X128785070Y-84547417D01*
X128618887Y-84547417D01*
X128431035Y-84552315D01*
X128260813Y-84569245D01*
X128110045Y-84605524D01*
X128100116Y-84609333D01*
X128004742Y-84665235D01*
X127955985Y-84733111D01*
X127943605Y-84800477D01*
X128297073Y-84800477D01*
X128327398Y-84737743D01*
X128392914Y-84703953D01*
X128558849Y-84677498D01*
X128684833Y-84669343D01*
G37*
G36*
X125093877Y-84669343D02*
G01*
X125789383Y-84669343D01*
X126152523Y-84669343D01*
X126333118Y-84673064D01*
X126457631Y-84678869D01*
X126631357Y-84693804D01*
X126737241Y-84711255D01*
X126836159Y-84764717D01*
X126842753Y-84791269D01*
X126812975Y-84855689D01*
X126737241Y-84890652D01*
X126560357Y-84909475D01*
X126394324Y-84913195D01*
X125784107Y-84933516D01*
X125123772Y-84933516D01*
X124941084Y-84935750D01*
X124759706Y-84943772D01*
X124574097Y-84962004D01*
X124471351Y-84980191D01*
X124343829Y-85027729D01*
X124278637Y-85093742D01*
X124262084Y-85163715D01*
X124277691Y-85235117D01*
X124332559Y-85297890D01*
X124453271Y-85349373D01*
X124511797Y-85361210D01*
X124693766Y-85382140D01*
X124877424Y-85393303D01*
X125065895Y-85399000D01*
X125248069Y-85400861D01*
X125280283Y-85400900D01*
X125940618Y-85400900D01*
X126147247Y-85400900D01*
X126287931Y-85400900D01*
X126403996Y-85400900D01*
X126582049Y-85396772D01*
X126765975Y-85386388D01*
X126794393Y-85384389D01*
X126961699Y-85364423D01*
X127107140Y-85325108D01*
X127137310Y-85311678D01*
X127214848Y-85253473D01*
X127246749Y-85189652D01*
X127250737Y-85152920D01*
X127246340Y-85116405D01*
X126888476Y-85111643D01*
X126883200Y-85131646D01*
X126864855Y-85197882D01*
X126787359Y-85250715D01*
X126626957Y-85278778D01*
X126445709Y-85291298D01*
X126429495Y-85291992D01*
X125809606Y-85299294D01*
X125704093Y-85299294D01*
X125612649Y-85300882D01*
X125537031Y-85300882D01*
X125471965Y-85300882D01*
X125416571Y-85300882D01*
X125239187Y-85299487D01*
X125227527Y-85299294D01*
X125053430Y-85291674D01*
X124874914Y-85280101D01*
X124728978Y-85258970D01*
X124644421Y-85200319D01*
X124640171Y-85175146D01*
X124660633Y-85111823D01*
X124749136Y-85056691D01*
X124764149Y-85052267D01*
X124936879Y-85026006D01*
X125125562Y-85018742D01*
X125158943Y-85018611D01*
X125799055Y-85017023D01*
X126409271Y-85017023D01*
X126596447Y-85014265D01*
X126778379Y-85004567D01*
X126959560Y-84983232D01*
X127014212Y-84972888D01*
X127140127Y-84926511D01*
X127204497Y-84861092D01*
X127220841Y-84791269D01*
X127205123Y-84726252D01*
X127143218Y-84660840D01*
X127034351Y-84610885D01*
X127022125Y-84607110D01*
X126865578Y-84573125D01*
X126689724Y-84554471D01*
X126504144Y-84547650D01*
X126459390Y-84547417D01*
X125789383Y-84547417D01*
X125426243Y-84547417D01*
X125244892Y-84547417D01*
X125194114Y-84547417D01*
X125027931Y-84547417D01*
X124840079Y-84552315D01*
X124669857Y-84569245D01*
X124519089Y-84605524D01*
X124509160Y-84609333D01*
X124413786Y-84665235D01*
X124365029Y-84733111D01*
X124352649Y-84800477D01*
X124706117Y-84800477D01*
X124736442Y-84737743D01*
X124801958Y-84703953D01*
X124967893Y-84677498D01*
X125093877Y-84669343D01*
G37*
%LPC*%
D12*
%TO.C,TP4*%
X156210000Y-104140000D03*
%TD*%
%TO.C,TP3*%
X151130000Y-88900000D03*
%TD*%
D13*
%TO.C,TP2*%
X124460000Y-86918800D03*
%TD*%
%TO.C,TP1*%
X161290000Y-84378800D03*
%TD*%
%LPD*%
M02*
