<?xml version="1.0" encoding="UTF-8"?>
<svg xmlns="http://www.w3.org/2000/svg" version="1.1" viewBox="0 0 1080 115">
  <defs>
    <style>
      .cls-1 {
        fill: #65a5c3;
      }

      .cls-2 {
        fill: #b6d435;
      }

      .cls-3 {
        fill: #58bf9b;
      }

      .cls-4 {
        fill: #e1e031;
      }

      .cls-5 {
        fill: #1a1414;
      }

      .cls-6 {
        fill: #e3255c;
      }

      .cls-7 {
        fill: #fff;
      }

      .cls-8 {
        fill: #f7bc1a;
      }

      .cls-9 {
        fill: #e14c99;
      }

      .cls-10 {
        fill: #9a5fa7;
      }

      .cls-11 {
        fill: #ea7249;
      }

      .cls-12 {
        fill: #5c69b1;
      }
    </style>
  </defs>
  <!-- Generator: Adobe Illustrator 28.6.0, SVG Export Plug-In . SVG Version: 1.2.0 Build 709)  -->
  <g>
    <g id="Layer_1">
      <g id="uuid-bc62aa1c-3fce-46de-9438-52344a33b987">
        <g>
          <g id="uuid-bc62aa1c-3fce-46de-9438-52344a33b987-2" data-name="uuid-bc62aa1c-3fce-46de-9438-52344a33b987">
            <g>
              <path class="cls-7" d="M849.2,28.9c0,.2,0,.4,0,.6,0,6.7-.2,13.5-.3,20.3.2,0,.3-.1.4-.2,2.5-2,5.5-3.2,8.6-4,1.8-.4,3.6-.7,5.4-.9,1.4-.2,2.7-.2,4.1-.3,4.1-.3,8.2-.3,12.4-.3,2,0,4,0,6,.2,1.6,0,3.1.2,4.7.4,2.1.2,4.2.5,6.3.9,3.2.6,6.4,1.5,9.4,2.9,2.5,1.2,4.8,2.6,6.8,4.5,2.9,2.7,4.9,6.1,5.9,9.9.7,2.4,1.1,4.8,1.3,7.2.4,4.1.5,8.1.3,12.2,0,1.3-.1,2.5-.2,3.8-.3,3.9-1,7.8-2.3,11.5-1.1,3-2.8,5.7-5.1,8-2,1.9-4.3,3.4-6.9,4.5-2,.9-4.1,1.5-6.3,2-1.9.5-3.8.8-5.7,1.1-1.4.2-2.7.3-4.1.5-1.5.1-2.9.3-4.4.4-1.1,0-2.3.1-3.4.2-4.5.2-9.1.2-13.6.2-2.4,0-4.8,0-7.3-.2-1.6,0-3.2-.2-4.7-.3-2.4-.2-4.8-.4-7.2-.8-2.9-.5-5.8-1.1-8.6-2.1-2.9-1.1-5.6-2.5-8-4.7-2.3-2.1-4.2-4.5-5.4-7.4-.6-1.4-.9-2.9-1.2-4.3-.3-1.7-.5-3.5-.6-5.2,0-1.6,0-3.2-.1-4.8,0-.3,0-.6,0-.9.1-.7.6-1.1,1.3-1.2.3,0,.7,0,1,0,3.9,0,7.8,0,11.7,0,1.8,0,3.6,0,5.4,0,.3,0,.6,0,.9,0,.7.1,1.2.5,1.3,1.3,0,.3.1.7.1,1,0,1.5.1,3.1.3,4.6.2,1.5.6,3,1.3,4.3.5.9,1.2,1.7,2.1,2.2,1.1.7,2.3,1.1,3.5,1.4,1.1.3,2.2.5,3.4.6,1.3.1,2.6.3,3.9.4,1.4,0,2.7.2,4.1.2,3.6,0,7.1,0,10.7,0,1.7,0,3.5-.1,5.2-.2,1,0,2-.1,3-.2,1.1-.1,2.2-.2,3.3-.4,1.6-.2,3.2-.6,4.7-1.1.8-.3,1.6-.7,2.3-1.1.9-.5,1.6-1.3,2.1-2.2.5-1.1.8-2.3,1-3.5.3-2.2.4-4.4.5-6.6,0-1.8,0-3.6,0-5.3,0-1.7,0-3.3-.1-5,0-1.5-.2-2.9-.5-4.3-.2-1-.6-2-1.1-3-.7-1.4-1.7-2.4-3.1-3.2-1.4-.8-2.9-1.3-4.5-1.6-2-.4-4-.6-6.1-.8-2.8-.2-5.6-.3-8.4-.3-2.4,0-4.9,0-7.3,0-1.8,0-3.7.1-5.5.2-.9,0-1.7,0-2.6.2-2,.2-4.1.4-6,1.1-.6.2-1.1.4-1.6.7-1.2.6-2.2,1.6-2.8,2.8-.2.5-.4,1-.6,1.5-.3.8-.9,1.2-1.7,1.3-.2,0-.3,0-.5,0-5.3,0-10.6,0-15.9,0-.4,0-.7,0-1.1-.1-.6-.2-.9-.5-1-1.1,0-.3,0-.5-.1-.8,0-.2,0-.3,0-.5,0-16.3,0-32.6,0-48.9,0-.4,0-.8,0-1.2.1-.7.5-1,1.2-1.2.2,0,.4,0,.6,0,.2,0,.4,0,.6,0,27.5,0,55,0,82.5,0,.3,0,.7,0,1,0,.8.1,1.3.6,1.4,1.4,0,.2,0,.4,0,.6,0,3.7,0,7.4,0,11.1,0,.3,0,.6-.1.9-.1.6-.5.9-1.1,1-.3,0-.5,0-.8,0-.2,0-.5,0-.7,0-20.8,0-41.6,0-62.4,0-.3,0-.7,0-1,0h0Z"/>
              <path class="cls-7" d="M768.2,95.2c.2-.2.3-.5.4-.8,1.4-3.6,2.7-7.3,4.1-10.9,1.8-4.8,3.9-9.5,5.9-14.2,7.7-18,15.4-36,23-54,0-.2.1-.3.2-.5.3-.7.8-1.1,1.6-1.1.2,0,.3,0,.5,0,6.2,0,12.5,0,18.7,0,.3,0,.7,0,1,.1.8.2,1.3,1,1.2,1.8,0,.4-.2.7-.4,1.1-1.7,4.1-3.5,8.3-5.3,12.4-8.8,20.8-17.7,41.6-26.5,62.3-2.9,6.9-5.9,13.8-8.8,20.7,0,.1-.1.3-.2.4-.3.7-.9,1.1-1.6,1.1-.1,0-.3,0-.4,0-9,0-18,0-27.1,0-.2,0-.4,0-.6,0-.7,0-1.2-.4-1.5-1.1,0-.2-.2-.4-.2-.5-12.2-28.6-24.4-57.2-36.6-85.8-1.4-3.2-2.7-6.3-4.1-9.5-.1-.3-.2-.5-.3-.8-.3-1.1.3-2,1.4-2.1.2,0,.5,0,.7,0,6.2,0,12.3,0,18.5,0,.3,0,.5,0,.8,0,.5,0,.9.4,1.2.8.1.2.2.4.3.7,9,20.8,18,41.6,27,62.4,1.3,2.9,2.4,5.9,3.5,8.8,1,2.7,2,5.3,3.1,8,0,.2.2.5.3.8h0Z"/>
            </g>
          </g>
          <path d="M853.1,25.5c0,.2,0,.4,0,.6,0,6.7-.2,13.5-.3,20.3.2,0,.3-.1.4-.2,2.5-2,5.5-3.2,8.6-4,1.8-.4,3.6-.7,5.4-.9,1.4-.2,2.7-.2,4.1-.3,4.1-.3,8.2-.3,12.4-.3,2,0,4,0,6,.2,1.6,0,3.1.2,4.7.4,2.1.2,4.2.5,6.3.9,3.2.6,6.4,1.5,9.4,2.9,2.5,1.2,4.8,2.6,6.8,4.5,2.9,2.7,4.9,6.1,5.9,9.9.7,2.4,1.1,4.8,1.3,7.2.4,4.1.5,8.1.3,12.2,0,1.3-.1,2.5-.2,3.8-.3,3.9-1,7.8-2.3,11.5-1.1,3-2.8,5.7-5.1,8-2,1.9-4.3,3.4-6.9,4.5-2,.9-4.1,1.5-6.3,2-1.9.5-3.8.8-5.7,1.1-1.4.2-2.7.3-4.1.5-1.5.1-2.9.3-4.4.4-1.1,0-2.3.1-3.4.2-4.5.2-9.1.2-13.6.2-2.4,0-4.8,0-7.3-.2-1.6,0-3.2-.2-4.7-.3-2.4-.2-4.8-.4-7.2-.8-2.9-.5-5.8-1.1-8.6-2.1-2.9-1.1-5.6-2.5-8-4.7-2.3-2.1-4.2-4.5-5.4-7.4-.6-1.4-.9-2.9-1.2-4.3-.3-1.7-.5-3.5-.6-5.2,0-1.6,0-3.2-.1-4.8,0-.3,0-.6,0-.9.1-.7.6-1.1,1.3-1.2.3,0,.7,0,1,0,3.9,0,7.8,0,11.7,0,1.8,0,3.6,0,5.4,0,.3,0,.6,0,.9,0,.7.1,1.2.5,1.3,1.3,0,.3.1.7.1,1,0,1.5.1,3.1.3,4.6.2,1.5.6,3,1.3,4.3.5.9,1.2,1.7,2.1,2.2,1.1.7,2.3,1.1,3.5,1.4,1.1.3,2.2.5,3.4.6,1.3.1,2.6.3,3.9.4,1.4,0,2.7.2,4.1.2,3.6,0,7.1,0,10.7,0,1.7,0,3.5-.1,5.2-.2,1,0,2-.1,3-.2,1.1-.1,2.2-.2,3.3-.4,1.6-.2,3.2-.6,4.7-1.1.8-.3,1.6-.7,2.3-1.1.9-.5,1.6-1.3,2.1-2.2.5-1.1.8-2.3,1-3.5.3-2.2.4-4.4.5-6.6,0-1.8,0-3.6,0-5.3,0-1.7,0-3.3-.1-5,0-1.5-.2-2.9-.5-4.3-.2-1-.6-2-1.1-3-.7-1.4-1.7-2.4-3.1-3.2-1.4-.8-2.9-1.3-4.5-1.6-2-.4-4-.6-6.1-.8-2.8-.2-5.6-.3-8.4-.3-2.4,0-4.9,0-7.3,0-1.8,0-3.7.1-5.5.2-.9,0-1.7,0-2.6.2-2,.2-4.1.4-6,1.1-.6.2-1.1.4-1.6.7-1.2.6-2.2,1.6-2.8,2.8-.2.5-.4,1-.6,1.5-.3.8-.9,1.2-1.7,1.3-.2,0-.3,0-.5,0-5.3,0-10.6,0-15.9,0-.4,0-.7,0-1.1-.1-.6-.2-.9-.5-1-1.1,0-.3,0-.5-.1-.8,0-.2,0-.3,0-.5,0-16.3,0-32.6,0-48.9,0-.4,0-.8,0-1.2.1-.7.5-1,1.2-1.2.2,0,.4,0,.6,0,.2,0,.4,0,.6,0,27.5,0,55,0,82.5,0,.3,0,.7,0,1,0,.8.1,1.3.6,1.4,1.4,0,.2,0,.4,0,.6,0,3.7,0,7.4,0,11.1,0,.3,0,.6-.1.9-.1.6-.5.9-1.1,1-.3,0-.5,0-.8,0-.2,0-.5,0-.7,0-20.8,0-41.6,0-62.4,0-.3,0-.7,0-1,0h0Z"/>
          <path d="M772.1,91.7c.2-.2.3-.5.4-.8,1.4-3.6,2.7-7.3,4.1-10.9,1.8-4.8,3.9-9.5,5.9-14.2,7.7-18,15.4-36,23-54,0-.2.1-.3.2-.5.3-.7.8-1.1,1.6-1.1.2,0,.3,0,.5,0,6.2,0,12.5,0,18.7,0,.3,0,.7,0,1,.1.8.2,1.3,1,1.2,1.8,0,.4-.2.7-.4,1.1-1.7,4.1-3.5,8.3-5.3,12.4-8.8,20.8-17.7,41.6-26.5,62.3-2.9,6.9-5.9,13.8-8.8,20.7,0,.1-.1.3-.2.4-.3.7-.9,1.1-1.6,1.1-.1,0-.3,0-.4,0-9,0-18,0-27.1,0-.2,0-.4,0-.6,0-.7,0-1.2-.4-1.5-1.1,0-.2-.2-.4-.2-.5-12.2-28.6-24.4-57.2-36.6-85.8-1.4-3.2-2.7-6.3-4.1-9.5-.1-.3-.2-.5-.3-.8-.3-1.1.3-2,1.4-2.1.2,0,.5,0,.7,0,6.2,0,12.3,0,18.5,0,.3,0,.5,0,.8,0,.5,0,.9.4,1.2.8.1.2.2.4.3.7,9,20.8,18,41.6,27,62.4,1.3,2.9,2.4,5.9,3.5,8.8,1,2.7,2,5.3,3.1,8,0,.2.2.5.3.8h0Z"/>
        </g>
      </g>
      <g id="uuid-85091f4c-c228-4d70-aa1b-5ec912b6d59d">
        <g>
          <path class="cls-5" d="M268,46.8c1-1.8,2-3.7,3-5.5,5.2-9.7,10.4-19.4,15.7-29,.1-.2.2-.4.3-.6.3-.5.7-.8,1.3-.8.2,0,.4,0,.6,0,4.6,0,9.2,0,13.8,0,.1,0,.3,0,.4,0,1,0,1.5.5,1.5,1.4,0,.2,0,.4,0,.6,0,16.1,0,32.2,0,48.3s0,.2,0,.3c0,1.2-.5,1.7-1.7,1.7-2.9,0-5.8,0-8.7,0-1.5,0-1.9-.4-1.9-1.9,0-8,.2-15.9.2-23.9,0-3.5,0-7,0-10.4,0-.2,0-.3,0-.5-.2.2-.3.4-.4.6-6.3,11.6-12.7,23.3-19,34.9-.5.9-1.1,1.2-2,1.2-2.2,0-4.4,0-6.6,0-1,0-1.6-.3-2-1.2-6.2-11.6-12.5-23.2-18.8-34.8-.1-.3-.3-.5-.5-.9-.2.3,0,.5,0,.7,0,11.3.1,22.5.2,33.8,0,.4,0,.7,0,1.1,0,.7-.5,1.1-1.2,1.2-.2,0-.4,0-.6,0-2.8,0-5.7,0-8.5,0-.1,0-.3,0-.4,0-.9,0-1.4-.5-1.5-1.4,0-.2,0-.4,0-.6,0-16.1,0-32.2,0-48.3s0-.2,0-.3c0-1.2.5-1.7,1.7-1.7,4.8,0,9.7,0,14.5,0,.8,0,1.4.4,1.8,1.1,6.1,11.4,12.3,22.7,18.4,34.1.1.3.2.6.5.8h0ZM293,21.5h.1c0,.2,0,.3,0,.5,0,4.5,0,9-.1,13.5,0,8.7-.2,17.4-.2,26,0,.7,0,.7.7.7,2.8,0,5.5,0,8.3,0,.7,0,.7,0,.7-.7,0-16.1,0-32.2,0-48.3,0-.7,0-.7-.7-.7-4.6,0-9.2,0-13.8,0-.5,0-.7.1-1,.6-1,2-2.1,4-3.2,6-5.4,10.1-10.9,20.2-16.3,30.3-.1.2-.2.5-.4.6-.1-.2-.2-.4-.4-.6-3.4-6.2-6.7-12.4-10.1-18.7-3.1-5.8-6.3-11.6-9.4-17.5-.2-.4-.4-.6-.8-.6-4.7,0-9.5,0-14.2,0-.6,0-.6,0-.6.6,0,.1,0,.2,0,.4v47.8c0,.1,0,.2,0,.4,0,.6,0,.6.6.6,1,0,2,0,3,0,1.8,0,3.6,0,5.3,0,.7,0,.7,0,.7-.8,0-.8,0-1.6,0-2.4,0-12.3-.2-24.5-.2-36.8,0-.2,0-.5,0-.7,0,0,0,0,.1,0,.3.6.6,1.2,1,1.7,6.9,12.8,13.8,25.6,20.7,38.3.3.5.5.6,1.1.6,2.1,0,4.1,0,6.2,0,.7,0,1-.2,1.3-.8,7-13,14.1-25.9,21.1-38.9.2-.4.4-.7.6-1.1h0Z"/>
          <path class="cls-5" d="M674.1,42.5c-5.1,0-8.8,0-12.4-.2-2.2-.1-4.4-.4-6.6-1-3.7-1.1-6-3.5-7.2-7.1-.9-2.8-1-5.7-.8-8.5.1-2.2.5-4.4,1.2-6.6,1.1-3.4,3.3-5.6,6.7-6.8,2.5-.9,5.1-1.3,7.7-1.6,6.2-.6,12.5-.5,18.8-.4,2.8,0,5.5.2,8.2.8,1.9.4,3.7,1,5.4,2.1,1.8,1.2,3,2.8,3.8,4.8.9,2.4,1.1,5,1.1,7.6,0,.4,0,.9,0,1.3-.1.6-.5,1-1.1,1-.2,0-.4,0-.6,0-2.9,0-5.7,0-8.6,0,0,0-.2,0-.3,0-1,0-1.5-.5-1.6-1.5,0-.6,0-1.2-.2-1.9-.2-1.2-.8-2-2-2.3-1.1-.4-2.3-.6-3.5-.7-3.9-.5-7.8-.4-11.6-.2-2.2,0-4.5.3-6.7.6-.7.1-1.4.3-2.1.5-1.2.5-1.9,1.4-2.1,2.6-.1.9-.1,1.9,0,2.8.2,1.3,1,2.1,2.3,2.4,1.3.3,2.6.4,3.9.4,4.7.2,9.5,0,14.2.1,2.8,0,5.6,0,8.4.3,1.8.2,3.7.5,5.4,1.1,3.5,1.1,5.6,3.5,6.7,6.9.6,1.7.9,3.5.9,5.3.2,3.4,0,6.8-1.1,10.2-1.2,3.5-3.4,5.8-7,7-2,.6-4.1,1.1-6.3,1.3-7.5.7-15.1.6-22.7.3-2.5,0-5-.3-7.4-.8-1.7-.4-3.4-.8-5-1.8-2-1.3-3.3-3.1-4-5.4-1-3-1.1-6.2-.9-9.3,0-.9.6-1.4,1.6-1.4,1.9,0,3.8,0,5.7,0,1.1,0,2.2,0,3.3,0,1.2,0,1.7.5,1.7,1.7,0,1,0,2.1.2,3.1.2,1.1.7,1.8,1.8,2.1.9.3,1.9.5,2.9.6,2.3.2,4.7.3,7,.3,3.1,0,6.3-.1,9.4-.4,1.6-.2,3.3-.4,4.9-.7,1.8-.3,2.6-1.4,3-3.1.2-.9.2-1.9,0-2.9-.1-1-.7-1.6-1.5-2.1-1.1-.6-2.3-.8-3.5-.8-3.7-.2-7.4-.1-9.7-.1h0ZM671.8,41.5c3.7,0,7.4,0,11.2.1,1.4,0,2.7.3,3.9.9,1.3.6,2.2,1.5,2.5,3,.4,1.9.1,3.7-.8,5.4-.4.8-1.1,1.3-1.9,1.7-.4.2-.9.3-1.4.4-2.4.5-4.9.8-7.3.9-4.6.3-9.1.3-13.7,0-1.3,0-2.6-.3-3.8-.7-1.5-.5-2.4-1.5-2.7-3-.2-1.1-.3-2.2-.3-3.3,0-.6,0-.6-.6-.6-2.9,0-5.7,0-8.6,0-.6,0-.6,0-.6.6,0,1.1,0,2.3,0,3.4,0,1.8.3,3.6,1,5.4,1,2.6,2.8,4.4,5.4,5.3,1,.3,2,.5,3,.7,2.6.4,5.2.6,7.9.7,7.1.1,14.3.3,21.4-.4,2-.2,3.9-.5,5.8-1.2,2.6-.8,4.5-2.4,5.6-4.9.2-.5.5-1.1.6-1.7,1-3.2,1-6.5.8-9.8,0-1.1-.2-2.2-.5-3.3-1-4-3.4-6.6-7.5-7.5-1.5-.3-3-.5-4.5-.7-3.1-.2-6.3-.3-9.4-.3-3.1,0-6.2,0-9.3,0-1.6,0-3.1,0-4.7-.2-1.1,0-2.3-.2-3.4-.7-1.2-.5-2-1.3-2.4-2.5-.4-1.2-.4-2.4-.2-3.6.3-2.2,1.5-3.6,3.7-4.1.1,0,.3,0,.4-.1,1.8-.4,3.6-.6,5.5-.8,4.7-.3,9.3-.5,14,0,1.4.2,2.7.4,4.1.8,1.5.5,2.4,1.5,2.8,3,.1.7.3,1.4.3,2.1,0,.3.1.5.5.5,2.9,0,5.8,0,8.7,0,.4,0,.5-.1.5-.5,0-1.9,0-3.9-.5-5.8-.7-3.5-2.6-5.9-6-7.2-1.5-.5-3-.9-4.6-1.1-2.4-.3-4.8-.4-7.2-.5-6.5-.1-13-.2-19.5.6-1.9.2-3.8.6-5.7,1.3-2.9,1-4.8,3-5.7,5.9-.6,1.8-.9,3.7-1.1,5.6-.2,2.6-.2,5.2.4,7.7,1,4,3.3,6.5,7.4,7.5,1.9.4,3.8.6,5.7.7,3.5.2,7.1.1,10.7.1h0Z"/>
          <path class="cls-5" d="M614.7,42.5c-5.2,0-8.9,0-12.5-.2-2.2-.1-4.3-.4-6.5-.9-3.9-1.1-6.3-3.6-7.4-7.5-.5-1.7-.7-3.4-.8-5.1,0-3.3.3-6.5,1.3-9.6,1.1-3.4,3.3-5.6,6.7-6.8,2.1-.7,4.3-1.2,6.5-1.4,6.7-.8,13.5-.7,20.3-.5,2.6,0,5.3.2,7.9.8,1.9.4,3.6,1,5.3,2,1.9,1.2,3.2,2.9,4,5,.6,1.7.9,3.5,1,5.3,0,1,0,2,0,2.9,0,1-.5,1.5-1.6,1.6-.2,0-.3,0-.5,0-2.7,0-5.4,0-8.1,0s-.2,0-.4,0c-1.2,0-1.7-.5-1.7-1.6,0-.5,0-1.1-.1-1.6-.2-1.2-.8-2.1-2-2.4-1.2-.4-2.4-.6-3.6-.7-4.7-.5-9.4-.4-14.1,0-1.8.1-3.6.3-5.4.7-1.6.4-2.7,1.3-2.9,3.3,0,.9,0,1.7,0,2.6.2,1.3,1.1,1.9,2.3,2.2,1.2.3,2.4.4,3.6.4,2.4,0,4.7.1,7.1.1,3.6,0,7.1,0,10.7,0,2.7,0,5.4.2,8,.7,1,.2,2,.4,2.9.8,3.3,1.2,5.3,3.6,6.3,6.9.9,2.9,1.1,5.9,1,9,0,2.1-.4,4.2-1.1,6.3-1.2,3.7-3.6,6.1-7.3,7.2-2.4.7-4.9,1.1-7.4,1.3-6.5.5-13,.4-19.6.3-3,0-6-.2-8.9-.8-1-.2-2-.5-3-.8-3.2-1.1-5.1-3.4-6.1-6.6-.9-2.9-1-5.9-.8-8.9,0-1.2.6-1.6,1.8-1.6,3,0,5.9,0,8.9,0,1.2,0,1.7.5,1.7,1.7,0,1.1,0,2.1.2,3.2.2,1,.7,1.7,1.8,2.1.9.3,1.9.5,2.9.6,3.4.3,6.9.3,10.4.2,3.5,0,6.9-.4,10.3-.9.2,0,.4,0,.6-.1,1.8-.4,2.6-1.1,3.1-3.2.2-1,.2-2,0-2.9-.2-.8-.7-1.4-1.4-1.8-1.2-.6-2.4-.8-3.7-.9-3.7-.2-7.4-.1-9.5-.1h0ZM612.3,41.5c3.7,0,7.5,0,11.2.2,1.4,0,2.7.3,3.9.9,1.3.6,2.1,1.5,2.4,2.9.3,1.8.1,3.6-.7,5.2-.5,1-1.3,1.7-2.3,2-.3.1-.7.2-1,.3-2.4.5-4.9.8-7.4,1-4.5.3-9,.3-13.5,0-1.3,0-2.6-.3-3.9-.7-1.5-.5-2.3-1.4-2.7-2.9-.3-1.1-.3-2.2-.3-3.4,0-.6,0-.6-.6-.6-2.9,0-5.7,0-8.6,0-.6,0-.6,0-.6.6,0,1.3,0,2.6,0,3.9,0,1.8.4,3.7,1.1,5.4,1,2.2,2.6,3.8,4.9,4.7.8.3,1.7.5,2.6.7,2.9.6,5.9.7,8.8.8,6.6.2,13.2.3,19.8-.3,2.3-.2,4.6-.5,6.9-1.1,3.1-.9,5.3-2.8,6.4-5.8.2-.5.3-1,.5-1.5.8-2.9.8-5.9.6-8.9,0-1.4-.3-2.8-.7-4.2-1-3.7-3.4-6.1-7.2-7-1.5-.4-3.1-.6-4.7-.7-3.1-.2-6.3-.3-9.4-.3-3.2,0-6.3,0-9.5,0-1.5,0-3,0-4.5-.2-1,0-2-.2-3-.5-1.5-.5-2.4-1.5-2.8-3-.3-1.1-.3-2.2,0-3.4.3-2.1,1.5-3.4,3.6-4,.4-.1.8-.2,1.3-.3,2.4-.5,4.8-.7,7.3-.8,3.9-.2,7.7-.3,11.6.2,1.5.2,2.9.4,4.3.9,1.2.4,2,1.3,2.3,2.5.2.8.3,1.5.4,2.3,0,.4.1.6.6.6,2.8,0,5.7,0,8.5,0,.6,0,.6,0,.6-.6,0-1.9,0-3.7-.4-5.6-.7-3.6-2.6-6.1-6.1-7.4-1.8-.7-3.6-1-5.5-1.2-3.1-.3-6.2-.4-9.3-.4-4.5,0-9.1,0-13.6.4-2.2.2-4.4.5-6.6,1-.6.1-1.1.3-1.7.5-3.1,1-5.1,3.1-6,6.2-.9,2.9-1.1,5.8-1.1,8.7,0,1.5.1,3,.5,4.4,1,3.9,3.4,6.4,7.4,7.3,1.9.4,3.7.6,5.6.7,3.6.2,7.1.1,10.7.1h0Z"/>
          <path class="cls-5" d="M394.7,63.2c-7.4,0-14.8,0-22.2,0-.2,0-.4,0-.6,0-1.1,0-1.6-.5-1.6-1.6,0-.7,0-1.4,0-2.1,0-15.5,0-31,0-46.5,0-1.8.7-2,2-2,14.8,0,29.5,0,44.3,0,1.6,0,2,.4,2,2,0,2.4,0,4.8,0,7.3,0,.2,0,.3,0,.5,0,1-.5,1.4-1.5,1.5-.2,0-.4,0-.6,0-11,0-21.9,0-32.9,0-1,0-.9-.1-.9.9,0,2.5,0,5,0,7.6,0,.8-.1.7.7.7,10.5,0,21,0,31.5,0,.3,0,.6,0,.9,0,.6.2.9.5,1,1.1,0,.2,0,.4,0,.6,0,2.2,0,4.5,0,6.7,0,1.4-.4,1.9-1.9,1.9-10.4,0-20.8,0-31.2,0-.1,0-.3,0-.4,0-.7,0-.6,0-.6.6,0,2.9,0,5.8,0,8.7,0,.8,0,.7.7.7,11.2,0,22.3,0,33.5,0,1.6,0,2.1.4,2.1,2.1,0,2.5,0,4.9,0,7.4,0,1.3-.5,1.8-1.8,1.8-7.5,0-15,0-22.5,0h0ZM370.8,37.3c0,8,0,16.1,0,24.1,0,.7,0,.7.7.7,14.9,0,29.7,0,44.6,0,.7,0,.7,0,.7-.7,0-2.4,0-4.7,0-7.1,0-1,0-.9-.9-.9-11.4,0-22.9,0-34.3,0-.2,0-.4,0-.6,0-.4,0-.5-.1-.4-.5,0-.2,0-.3,0-.5,0-3.5,0-7.1,0-10.6,0-1.3-.1-1.1,1.1-1.1,10.8,0,21.5,0,32.3,0,.8,0,.8,0,.8-.8,0-2,0-4,0-6s.1-.9-.9-.9c-10.8,0-21.5,0-32.3,0-.2,0-.4,0-.6,0-.2,0-.4-.1-.4-.4,0-.2,0-.4,0-.6,0-3.3,0-6.6,0-9.9,0-1.1-.1-1,1-1,11.4,0,22.7,0,34.1,0,1,0,.9,0,.9-.8,0-2.3,0-4.6,0-6.9,0-1,.1-.9-.9-.9-14.6,0-29.2,0-43.8,0-.1,0-.3,0-.4,0-.3,0-.5.1-.5.4,0,.2,0,.4,0,.6,0,7.9,0,15.9,0,23.8h0Z"/>
          <path class="cls-5" d="M546.6,31.3h.8c10.4,0,20.8,0,31.2,0,.2,0,.4,0,.6,0,.9,0,1.4.6,1.4,1.5,0,2.5,0,5,0,7.5,0,.9-.4,1.3-1.3,1.4-.2,0-.5,0-.7,0-10.3,0-20.7,0-31,0-.1,0-.3,0-.4,0-.8,0-.7,0-.7.7,0,2.9,0,5.8,0,8.6,0,.8,0,.7.7.7,11.1,0,22.2,0,33.3,0,.2,0,.4,0,.6,0,1.1,0,1.6.5,1.6,1.6,0,.8,0,1.7,0,2.5,0,1.8,0,3.5,0,5.3,0,1.4-.5,1.8-1.8,1.8-15,0-30.1,0-45.1,0-1.3,0-1.8-.5-1.8-1.7,0-16.3,0-32.6,0-48.9,0-1.3.5-1.7,1.7-1.7,14.9,0,29.9,0,44.8,0,1.3,0,1.8.5,1.8,1.8,0,2.5,0,5.1,0,7.6,0,1.5-.4,1.9-1.9,1.9-11,0-22,0-33,0-.6,0-1,.3-1,.9,0,2.6,0,5.2,0,7.8,0,.1,0,.3.1.5h0ZM557.6,62.2c7.4,0,14.9,0,22.3,0,.7,0,.7,0,.7-.7,0-2.3,0-4.7,0-7,0-1.1.1-.9-1-.9-11.5,0-23,0-34.6,0-.9,0-.8,0-.8-.8,0-3.6,0-7.3,0-10.9,0-1.1-.1-1,1-1,10.8,0,21.5,0,32.3,0,.8,0,.8.1.8-.8,0-2,0-4,0-6,0-1,.1-.9-.9-.9-10.8,0-21.5,0-32.3,0-.2,0-.4,0-.6,0-.2,0-.4-.1-.4-.3,0-.2,0-.3,0-.5,0-3.3,0-6.6,0-9.9,0-1.2-.2-1.1,1.1-1.1,11.4,0,22.7,0,34.1,0,.8,0,.8,0,.8-.8,0-2.3,0-4.7,0-7,0-1,0-.9-.9-.9-14.6,0-29.1,0-43.7,0-1.1,0-1-.1-1,1,0,15.9,0,31.8,0,47.7,0,.2,0,.3,0,.5,0,.4.2.5.5.5.2,0,.4,0,.6,0,7.3,0,14.6,0,21.9,0h0Z"/>
          <path class="cls-5" d="M224.1,30.5c0,4.4,0,8.9,0,13.3,0,2.6,0,5.3-.6,7.9-.3,1.8-.8,3.6-1.8,5.2-1.8,2.8-4.4,4.5-7.5,5.5-2,.6-4,.9-6,1-7.3.4-14.5.4-21.8.1-3.1-.1-6.2-.4-9.2-1.4-3.9-1.3-6.5-3.9-7.8-7.8-.8-2.3-1-4.6-1.1-7-.1-2.6-.1-5.2-.1-7.8,0-8.8,0-17.7,0-26.5,0-.2,0-.3,0-.5,0-1.1.5-1.6,1.7-1.6,3,0,6,0,9.1,0,1.4,0,1.8.4,1.8,1.8,0,8.1,0,16.3,0,24.4,0,2.6,0,5.3,0,7.9,0,1.1.2,2.1.5,3.1.3,1.2,1,2.1,2.2,2.6,1,.4,2.1.6,3.1.7,3.5.4,7,.4,10.6.4,3.1,0,6.1,0,9.2-.4.7,0,1.4-.1,2.1-.3,1.5-.5,2.4-1.6,2.8-3.1.3-1,.3-2.1.4-3.1,0-2.2,0-4.4,0-6.5,0-8.3,0-16.6,0-25s0-.3,0-.5c0-1.7.7-2,2-2,2.9,0,5.7,0,8.6,0,.1,0,.3,0,.4,0,1,0,1.5.5,1.6,1.6,0,.2,0,.3,0,.5,0,5.9,0,11.8,0,17.6h0ZM168.7,30.8c0,3.5,0,7.1,0,10.6,0,2.3,0,4.7.2,7,.1,1.7.3,3.4.7,5.1,1,3.8,3.3,6.5,7.1,7.7,1.1.4,2.2.6,3.3.8,2.5.4,5,.6,7.5.6,7.2.2,14.3.3,21.4-.3,1.7-.1,3.3-.4,4.8-1,4-1.5,6.7-4.2,7.5-8.4.4-2,.7-3.9.7-5.9.1-11.3,0-22.5,0-33.8,0-.6,0-.6-.7-.6-2.8,0-5.7,0-8.5,0-.7,0-.7,0-.7.7,0,3,0,6.1,0,9.1,0,7.7,0,15.3,0,23,0,1-.1,2-.3,3-.6,2.7-2.2,4.2-4.9,4.6-1.9.3-3.7.4-5.6.4-5,.2-9.9.3-14.9-.2-1.3-.1-2.7-.4-3.9-.8-1.7-.6-2.7-1.8-3.2-3.5-.3-1.3-.5-2.5-.6-3.8,0-1.5,0-3.1,0-4.6,0-9,0-18,0-27,0-1,0-.9-.9-.9-2.7,0-5.4,0-8.1,0-.9,0-.9-.1-.9.8,0,5.8,0,11.7,0,17.5h0Z"/>
          <path class="cls-5" d="M475.1,41.4c2.3,1.2,3,3.2,3.4,5.4.2,1.2.3,2.5.3,3.7,0,3.6,0,7.2,0,10.9,0,1.3-.5,1.7-1.7,1.7-3,0-6,0-9.1,0-1.3,0-1.8-.5-1.8-1.8,0-2.8,0-5.6,0-8.4,0-.8-.1-1.7-.3-2.5-.3-1.5-1.2-2.4-2.8-2.6-1-.2-2.1-.2-3.1-.2-7.5,0-14.9,0-22.4,0-.2,0-.4,0-.6,0-.2.3,0,.6,0,.8,0,4.1,0,8.2,0,12.4,0,.1,0,.3,0,.4,0,1.4-.5,1.9-1.8,1.9-2,0-4,0-6,0-1,0-1.9,0-2.9,0-1.2,0-1.7-.5-1.7-1.7,0-.3,0-.6,0-.9,0-15.9,0-31.7,0-47.6,0-.3,0-.6,0-.9.2-.7.6-1,1.3-1.1.2,0,.4,0,.6,0,12,0,24,0,36.1,0,2.5,0,4.9,0,7.3.6,1.5.3,2.9.8,4.2,1.6,2.3,1.4,3.6,3.6,4.4,6.1.7,2.3,1,4.7,1.1,7.1,0,2.7,0,5.4-.4,8.1-.3,1.9-.8,3.6-2,5.2-.5.7-1.2,1.3-2,1.9h0ZM470.6,42s0,0,0-.1c.3,0,.6-.2.9-.3,2.6-.8,4.3-2.5,5.1-5,.3-.9.5-1.8.6-2.7.3-2.6.3-5.2.2-7.8,0-1.7-.3-3.5-.7-5.2-.4-1.6-1-3.2-2.1-4.5-1.5-1.9-3.6-2.9-6-3.3-2.4-.5-4.8-.6-7.2-.6-11.8,0-23.7,0-35.5,0-1,0-.9-.1-.9.9,0,15.9,0,31.9,0,47.8,0,.1,0,.3,0,.4,0,.4.1.5.5.5,3,0,5.9,0,8.9,0,.3,0,.5-.1.5-.5,0-.2,0-.3,0-.5,0-4.6,0-9.1,0-13.7,0-.9-.1-.9.8-.9,7.5,0,15.1,0,22.6,0,.9,0,1.8,0,2.7,0,.6,0,1.3.1,1.9.3,1.9.4,3,1.5,3.4,3.4.4,1.5.4,3,.4,4.5,0,2.2,0,4.5,0,6.7,0,.6,0,.6.6.6,2.9,0,5.8,0,8.6,0,.7,0,.7,0,.7-.7,0-3.6,0-7.2,0-10.9,0-1.2,0-2.4-.3-3.6-.5-2.9-1.8-4.2-4.7-4.7-.4,0-.7-.1-1.1-.2h0Z"/>
          <path class="cls-5" d="M145.6,29.5c0-5.6,0-11.1,0-16.7,0-.2,0-.4,0-.6,0-.8.5-1.2,1.4-1.3.2,0,.3,0,.5,0,3.6,0,7.2,0,10.7,0,.1,0,.3,0,.4,0,.9,0,1.4.5,1.5,1.4,0,.2,0,.4,0,.6,0,9.4,0,18.9,0,28.3,0,2.9-.1,5.8-.5,8.7-.2,1.6-.6,3.2-1.2,4.7-1.5,3.8-4.3,6.3-8.2,7.5-2.6.8-5.2,1.2-7.8,1.3-5.4.2-10.8.3-16.3.1-3,0-6.1-.3-9.1-1-1.7-.4-3.3-1-4.9-1.9-2.5-1.5-4.1-3.7-5-6.5-.8-2.6-1-5.2-.9-7.8,0-1.3,0-2.7,0-4,0-1.2.5-1.7,1.8-1.7,3.5,0,7,0,10.4,0,1.3,0,1.8.5,1.8,1.8,0,1.6,0,3.2.1,4.7,0,.4,0,.9.2,1.3.3,1.2,1,2.1,2.3,2.5,1.3.4,2.7.6,4.1.7,3.6.4,7.3.3,10.9.1,1.4,0,2.8-.2,4.2-.5,2-.5,3-1.6,3.2-3.6.2-1.8.3-3.7.3-5.5,0-4.2,0-8.3,0-12.5ZM158,29.9h0c0-5.5,0-11,0-16.5,0-.2,0-.4,0-.6,0-.2,0-.4-.3-.4-.2,0-.3,0-.5,0-3.4,0-6.7,0-10.1,0-1,0-.9-.1-.9.9,0,9.4,0,18.8,0,28.2,0,2,0,4.1-.3,6.1-.3,2.9-1.6,4.4-4.4,5.1-1.1.3-2.3.5-3.5.5-4.1.3-8.2.3-12.4-.1-1.5-.2-2.9-.4-4.3-.9-1.2-.4-2.1-1.3-2.5-2.5-.4-.9-.5-1.8-.6-2.7-.1-1.4-.1-2.9-.1-4.3,0-.6,0-.6-.5-.6-.2,0-.4,0-.6,0-3.2,0-6.3,0-9.5,0-.7,0-.7,0-.7.7,0,.7,0,1.3,0,2,0,2.5,0,5,.4,7.5.6,3.1,2,5.7,4.7,7.4,1.3.8,2.8,1.4,4.3,1.8,3,.7,6.1.9,9.1,1,5.5.1,10.9.1,16.4-.1,2.3,0,4.5-.4,6.7-1.1,3.3-.9,5.9-2.8,7.5-5.9.8-1.6,1.2-3.3,1.5-5.1.4-2.7.6-5.5.6-8.2,0-4.1,0-8.1,0-12.2h0Z"/>
          <path class="cls-5" d="M311.8,37c0-8,0-16,0-24,0-.2,0-.4,0-.6,0-1.1.5-1.5,1.5-1.6,0,0,.1,0,.2,0,11.8,0,23.7,0,35.5,0,1.9,0,3.8,0,5.7.4,1.3.3,2.5.7,3.7,1.2,2.8,1.4,4.5,3.6,5.4,6.6.8,2.6,1.1,5.2,1.1,7.9,0,2.7,0,5.4-.3,8.1-.2,1.8-.6,3.6-1.2,5.3-1.4,3.7-4.1,6-8,6.9-2.5.6-5,.7-7.5.7-7.7,0-15.3,0-23,0-.6,0-.8.3-.8.8,0,4.1,0,8.2,0,12.2,0,.1,0,.3,0,.4,0,1.2-.5,1.7-1.7,1.7-3,0-6,0-8.9,0-1.4,0-1.8-.5-1.8-1.8,0-8.1,0-16.3,0-24.4h0ZM312.4,37.3c0,8,0,16.1,0,24.1,0,.7,0,.8.7.8,2.8,0,5.6,0,8.4,0,0,0,.1,0,.2,0,.4,0,.5-.2.5-.5,0-.2,0-.3,0-.5,0-4.4,0-8.8,0-13.2,0-1.1-.1-1,.9-1,8,0,16,0,24,0,2.3,0,4.6,0,6.9-.5,3.9-.7,6.4-3,7.7-6.8.6-1.7.8-3.4,1-5.2.3-3.3.3-6.6,0-9.8-.1-1.8-.4-3.5-1-5.2-.8-2.2-2.1-4-4.2-5.2-1.6-.8-3.2-1.3-5-1.5-2.1-.2-4.1-.3-6.2-.3-11.1,0-22.1,0-33.2,0-.9,0-.8,0-.8.9,0,8,0,16,0,24h0Z"/>
          <path class="cls-5" d="M498.5,51.3h29.2c.1,0,.2,0,.4,0,1.4,0,1.9.5,1.9,1.9,0,2.7,0,5.4,0,8.1,0,.3,0,.5,0,.8-.1.7-.6,1-1.2,1.1-.2,0-.4,0-.6,0-13.4,0-26.8,0-40.2,0-.2,0-.4,0-.6,0-.7-.1-1.1-.5-1.2-1.2,0-.2,0-.5,0-.7,0-16.1,0-32.3,0-48.4s0-.2,0-.4c0-1.1.5-1.6,1.7-1.6,3.1,0,6.1,0,9.2,0,1.1,0,1.6.5,1.7,1.6,0,.2,0,.4,0,.6v38.2h0ZM486.5,37.3c0,8,0,16.1,0,24.1,0,.7,0,.8.7.8,13.3,0,26.6,0,39.9,0,.7,0,.7,0,.7-.7,0-2.6,0-5.2,0-7.8,0-.9.1-.8-.9-.8-9.8,0-19.7,0-29.5,0-.2,0-.3,0-.5,0-.4,0-.6-.1-.5-.5,0-.2,0-.4,0-.6,0-12.7,0-25.4,0-38.1s0-.3,0-.5c0-.5-.2-.7-.7-.7-.4,0-.7,0-1.1,0-2.5,0-5,0-7.6,0-.6,0-.6,0-.6.6,0,.2,0,.3,0,.5v23.7h0Z"/>
          <path class="cls-10" d="M293,21.5c-.2.4-.4.7-.6,1.1-7,13-14.1,25.9-21.1,38.9-.3.6-.6.8-1.3.8-2.1,0-4.1,0-6.2,0-.5,0-.8-.2-1.1-.6-6.9-12.8-13.8-25.6-20.7-38.3-.3-.6-.6-1.2-1-1.7,0,0,0,0-.1,0,0,.2,0,.5,0,.7,0,12.3.1,24.5.2,36.8,0,.8,0,1.6,0,2.4,0,.8,0,.8-.7.8-1.8,0-3.6,0-5.3,0-1,0-2,0-3,0-.6,0-.6,0-.6-.6,0-.1,0-.2,0-.4V13.4c0-.1,0-.2,0-.4,0-.6,0-.6.6-.6,4.7,0,9.5,0,14.2,0,.5,0,.7.2.8.6,3.1,5.8,6.3,11.6,9.4,17.5,3.4,6.2,6.7,12.4,10.1,18.7.1.2.2.4.4.6.3-.1.3-.4.4-.6,5.4-10.1,10.9-20.2,16.3-30.3,1.1-2,2.1-4,3.2-6,.2-.4.5-.6,1-.6,4.6,0,9.2,0,13.8,0,.7,0,.7,0,.7.7,0,16.1,0,32.2,0,48.3,0,.7,0,.7-.7.7-2.8,0-5.5,0-8.3,0-.7,0-.7,0-.7-.7,0-8.7.2-17.4.2-26,0-4.5,0-9,.1-13.5,0-.1,0-.3,0-.4h-.1q0,0,0,0Z"/>
          <path class="cls-2" d="M486.5,37.3V13.6c0-.2,0-.3,0-.5,0-.6,0-.6.6-.6,2.5,0,5,0,7.6,0,.4,0,.7,0,1.1,0,.4,0,.6.2.7.7,0,.2,0,.3,0,.5,0,12.7,0,25.4,0,38.1s0,.4,0,.6c0,.4.1.6.5.5.2,0,.3,0,.5,0,9.8,0,19.7,0,29.5,0,1,0,.9,0,.9.8,0,2.6,0,5.2,0,7.8,0,.7,0,.7-.7.7-13.3,0-26.6,0-39.9,0-.7,0-.7,0-.7-.8,0-8,0-16.1,0-24.1h0Z"/>
          <path class="cls-11" d="M671.8,41.5c-3.6,0-7.1,0-10.7-.1-1.9-.1-3.8-.3-5.7-.7-4.1-.9-6.4-3.5-7.4-7.5-.6-2.5-.5-5.1-.4-7.7.1-1.9.5-3.7,1.1-5.6.9-2.9,2.8-4.9,5.7-5.9,1.8-.7,3.7-1.1,5.7-1.3,6.5-.8,13-.8,19.5-.6,2.4,0,4.8.2,7.2.5,1.6.2,3.1.6,4.6,1.1,3.4,1.2,5.4,3.7,6,7.2.4,1.9.5,3.9.5,5.8,0,.4-.1.5-.5.5-2.9,0-5.8,0-8.7,0-.3,0-.5-.1-.5-.5,0-.7-.1-1.4-.3-2.1-.3-1.5-1.2-2.5-2.8-3-1.3-.4-2.7-.7-4.1-.8-4.7-.5-9.3-.3-14,0-1.8.1-3.7.3-5.5.8-.1,0-.3,0-.4.1-2.2.5-3.4,1.9-3.7,4.1-.2,1.2-.2,2.4.2,3.6.4,1.2,1.2,2.1,2.4,2.5,1.1.4,2.2.6,3.4.7,1.6.1,3.1.2,4.7.2,3.1,0,6.2,0,9.3,0,3.1,0,6.3,0,9.4.3,1.5.1,3,.3,4.5.7,4.1.9,6.5,3.5,7.5,7.5.3,1.1.4,2.2.5,3.3.2,3.3.2,6.6-.8,9.8-.2.6-.4,1.1-.6,1.7-1.1,2.5-3.1,4.1-5.6,4.9-1.9.6-3.9,1-5.8,1.2-7.1.7-14.3.5-21.4.4-2.6,0-5.3-.2-7.9-.7-1-.2-2-.4-3-.7-2.7-.9-4.4-2.7-5.4-5.3-.7-1.7-.9-3.5-1-5.4,0-1.1,0-2.3,0-3.4,0-.6,0-.6.6-.6,2.9,0,5.7,0,8.6,0,.5,0,.5,0,.6.6,0,1.1,0,2.2.3,3.3.3,1.5,1.2,2.5,2.7,3,1.2.4,2.5.6,3.8.7,4.6.3,9.1.3,13.7,0,2.5-.2,4.9-.4,7.3-.9.5-.1.9-.3,1.4-.4.8-.3,1.5-.9,1.9-1.7,1-1.7,1.2-3.5.8-5.4-.3-1.4-1.1-2.4-2.5-3-1.2-.5-2.6-.8-3.9-.9-3.7-.2-7.4-.1-11.2-.1h0Z"/>
          <path class="cls-8" d="M612.3,41.5c-3.6,0-7.2,0-10.7-.1-1.9-.1-3.8-.3-5.6-.7-4-.9-6.4-3.4-7.4-7.3-.4-1.5-.5-2.9-.5-4.4,0-3,.2-5.9,1.1-8.7.9-3.1,2.9-5.2,6-6.2.5-.2,1.1-.4,1.7-.5,2.2-.6,4.4-.8,6.6-1,4.5-.4,9.1-.4,13.6-.4,3.1,0,6.2,0,9.3.4,1.9.2,3.7.6,5.5,1.2,3.5,1.3,5.5,3.8,6.1,7.4.3,1.8.4,3.7.4,5.6,0,.5,0,.6-.6.6-2.8,0-5.7,0-8.5,0-.4,0-.6-.1-.6-.6,0-.8-.1-1.6-.4-2.3-.4-1.2-1.1-2.1-2.3-2.5-1.4-.5-2.9-.8-4.3-.9-3.9-.5-7.7-.3-11.6-.2-2.4,0-4.9.3-7.3.8-.4,0-.8.2-1.3.3-2.1.5-3.2,1.9-3.6,4-.2,1.1-.2,2.2,0,3.4.3,1.5,1.3,2.5,2.8,3,1,.3,2,.5,3,.5,1.5.1,3,.2,4.5.2,3.2,0,6.3,0,9.5,0,3.1,0,6.3,0,9.4.3,1.6.1,3.1.3,4.7.7,3.8.9,6.1,3.3,7.2,7,.4,1.4.6,2.8.7,4.2.2,3,.1,5.9-.6,8.9-.1.5-.3,1-.5,1.5-1.1,3-3.3,4.9-6.4,5.8-2.2.7-4.5,1-6.9,1.1-6.6.5-13.2.4-19.8.3-2.9,0-5.9-.2-8.8-.8-.9-.2-1.7-.4-2.6-.7-2.3-.8-3.9-2.4-4.9-4.7-.8-1.7-1-3.5-1.1-5.4,0-1.3,0-2.6,0-3.9,0-.5,0-.6.6-.6,2.9,0,5.7,0,8.6,0,.5,0,.5,0,.6.6,0,1.1,0,2.2.3,3.4.3,1.5,1.2,2.5,2.7,2.9,1.3.4,2.6.6,3.9.7,4.5.3,9,.3,13.5,0,2.5-.2,5-.4,7.4-1,.4,0,.7-.2,1-.3,1-.4,1.8-1,2.3-2,.9-1.7,1.1-3.4.7-5.2-.3-1.4-1.1-2.4-2.4-2.9-1.2-.5-2.5-.8-3.9-.9-3.7-.2-7.5-.1-11.2-.2h0Z"/>
          <path class="cls-1" d="M370.8,37.3c0-7.9,0-15.9,0-23.8,0-.2,0-.4,0-.6,0-.4.1-.5.5-.4.1,0,.3,0,.4,0,14.6,0,29.2,0,43.8,0,1,0,.9-.1.9.9,0,2.3,0,4.6,0,6.9,0,.9,0,.8-.9.8-11.4,0-22.7,0-34.1,0-1.1,0-1-.1-1,1,0,3.3,0,6.6,0,9.9,0,.2,0,.4,0,.6,0,.2.1.4.4.4.2,0,.4,0,.6,0,10.8,0,21.5,0,32.3,0,1.1,0,.9,0,.9.9,0,2,0,4,0,6,0,.8,0,.8-.8.8-10.8,0-21.5,0-32.3,0-1.2,0-1.1-.2-1.1,1.1,0,3.5,0,7.1,0,10.6,0,.2,0,.3,0,.5,0,.3,0,.5.4.5.2,0,.4,0,.6,0,11.4,0,22.9,0,34.3,0,1,0,.9-.1.9.9,0,2.4,0,4.7,0,7.1,0,.7,0,.7-.7.7-14.9,0-29.7,0-44.6,0-.7,0-.7,0-.7-.7,0-8,0-16.1,0-24.1Z"/>
          <path class="cls-4" d="M557.6,62.2c-7.3,0-14.6,0-21.9,0-.2,0-.4,0-.6,0-.4,0-.5-.1-.5-.5,0-.2,0-.3,0-.5,0-15.9,0-31.8,0-47.7,0-1.1,0-1,1-1,14.6,0,29.1,0,43.7,0,1,0,.9-.1.9.9,0,2.3,0,4.7,0,7,0,.8,0,.8-.8.8-11.4,0-22.7,0-34.1,0-1.3,0-1.1,0-1.1,1.1,0,3.3,0,6.6,0,9.9,0,.2,0,.3,0,.5,0,.2.1.3.4.3.2,0,.4,0,.6,0,10.8,0,21.5,0,32.3,0,1,0,.9-.1.9.9,0,2,0,4,0,6,0,.9,0,.8-.8.8-10.8,0-21.5,0-32.3,0-1,0-1,0-1,1,0,3.6,0,7.3,0,10.9,0,.8,0,.8.8.8,11.5,0,23,0,34.6,0,1.1,0,1-.1,1,.9,0,2.3,0,4.7,0,7,0,.7,0,.7-.7.7-7.4,0-14.9,0-22.3,0h0Z"/>
          <path class="cls-9" d="M168.7,30.8c0-5.8,0-11.7,0-17.5,0-.9,0-.8.9-.8,2.7,0,5.4,0,8.1,0,.9,0,.9,0,.9.9,0,9,0,18,0,27,0,1.5,0,3.1,0,4.6,0,1.3.3,2.6.6,3.8.4,1.7,1.5,2.9,3.2,3.5,1.3.5,2.6.7,3.9.8,5,.4,9.9.4,14.9.2,1.9,0,3.7-.1,5.6-.4,2.7-.4,4.3-2,4.9-4.6.2-1,.3-2,.3-3,.2-7.7,0-15.3,0-23,0-3,0-6.1,0-9.1,0-.7,0-.7.7-.7,2.8,0,5.7,0,8.5,0,.7,0,.7,0,.7.6,0,11.3,0,22.5,0,33.8,0,2-.3,4-.7,5.9-.9,4.3-3.6,6.9-7.5,8.4-1.6.6-3.2.9-4.8,1-7.1.6-14.3.5-21.4.3-2.5,0-5-.2-7.5-.6-1.1-.2-2.2-.4-3.3-.8-3.8-1.3-6.1-3.9-7.1-7.7-.5-1.7-.6-3.4-.7-5.1-.2-2.3-.2-4.6-.2-7,0-3.5,0-7.1,0-10.6h0Z"/>
          <path class="cls-3" d="M470.6,42c.4,0,.7.1,1.1.2,2.9.5,4.2,1.9,4.7,4.7.2,1.2.3,2.4.3,3.6,0,3.6,0,7.2,0,10.9,0,.7,0,.7-.7.7-2.9,0-5.8,0-8.6,0-.6,0-.6,0-.6-.6,0-2.2,0-4.5,0-6.7,0-1.5,0-3-.4-4.5-.4-1.8-1.6-3-3.4-3.4-.6-.1-1.3-.2-1.9-.3-.9,0-1.8,0-2.7,0-7.5,0-15.1,0-22.6,0-1,0-.8,0-.8.9,0,4.6,0,9.1,0,13.7,0,.2,0,.3,0,.5,0,.4-.1.5-.5.5-3,0-5.9,0-8.9,0-.4,0-.5-.1-.5-.5,0-.1,0-.3,0-.4,0-15.9,0-31.9,0-47.8,0-1.1-.1-.9.9-.9,11.8,0,23.7,0,35.5,0,2.4,0,4.8,0,7.2.6,2.3.5,4.4,1.4,6,3.3,1.1,1.3,1.7,2.9,2.1,4.5.4,1.7.6,3.4.7,5.2,0,2.6,0,5.2-.2,7.8-.1.9-.3,1.8-.6,2.7-.8,2.6-2.5,4.3-5.1,5-.3,0-.6.2-.9.3,0,0,0,0,0,.1h0ZM448.1,37.5h0c4.1,0,8.1,0,12.2,0,1.2,0,2.4-.2,3.5-.5,1.9-.5,3-1.8,3.4-3.7.5-2.3.4-4.6,0-6.9-.5-2.8-1.6-3.9-4.4-4.4-1.3-.3-2.7-.3-4.1-.3-7.7,0-15.4,0-23.2,0-.2,0-.3,0-.5,0-.2,0-.3.1-.3.3,0,.2,0,.4,0,.6,0,3.9,0,7.8,0,11.7,0,.9,0,1.8,0,2.7,0,.3,0,.5.4.5.2,0,.3,0,.5,0,4.1,0,8.3,0,12.4,0h0Z"/>
          <path class="cls-6" d="M158,29.9c0,4.1,0,8.1,0,12.2,0,2.8-.1,5.5-.6,8.2-.3,1.8-.7,3.5-1.5,5.1-1.6,3.1-4.2,5-7.5,5.9-2.2.6-4.4,1-6.7,1.1-5.5.2-10.9.3-16.4.1-3.1,0-6.1-.3-9.1-1-1.5-.4-3-.9-4.3-1.8-2.8-1.7-4.1-4.3-4.7-7.4-.5-2.5-.4-5-.4-7.5,0-.7,0-1.3,0-2,0-.7,0-.7.7-.7,3.2,0,6.3,0,9.5,0s.4,0,.6,0c.5,0,.5,0,.5.6,0,1.4,0,2.9.1,4.3,0,.9.2,1.9.6,2.7.5,1.2,1.3,2,2.5,2.5,1.4.5,2.8.7,4.3.9,4.1.4,8.2.4,12.4.1,1.2,0,2.3-.2,3.5-.5,2.8-.7,4.1-2.2,4.4-5.1.2-2,.3-4.1.3-6.1,0-9.4,0-18.8,0-28.2,0-1,0-.9.9-.9,3.4,0,6.7,0,10.1,0,.2,0,.3,0,.5,0,.3,0,.3.1.3.4,0,.2,0,.4,0,.6,0,5.5,0,11,0,16.5h0Z"/>
          <path class="cls-12" d="M312.4,37.3c0-8,0-16,0-24,0-1,0-.9.8-.9,11.1,0,22.1,0,33.2,0,2.1,0,4.1,0,6.2.3,1.8.2,3.4.7,5,1.5,2.1,1.1,3.4,2.9,4.2,5.2.6,1.7.9,3.4,1,5.2.3,3.3.3,6.6,0,9.8-.1,1.8-.4,3.5-1,5.2-1.2,3.7-3.8,6-7.7,6.8-2.3.4-4.6.5-6.9.5-8,0-16,0-24,0-1.1,0-.9-.1-.9,1,0,4.4,0,8.8,0,13.2,0,.2,0,.3,0,.5,0,.4,0,.6-.5.5,0,0-.1,0-.2,0-2.8,0-5.6,0-8.4,0-.7,0-.7,0-.7-.8,0-8,0-16.1,0-24.1h0ZM334.5,21.7h0c-3.9,0-7.7,0-11.6,0-.8,0-.8,0-.8.7,0,4.9,0,9.8,0,14.7,0,.7,0,.7.7.7,7.3,0,14.7,0,22,0,1.1,0,2.3,0,3.4-.3,2.7-.4,4-1.7,4.5-4.2.5-2.5.4-5-.1-7.4-.4-2.1-1.7-3.3-3.8-3.8-1.2-.3-2.5-.4-3.7-.4-3.5,0-7.1,0-10.6,0h0Z"/>
          <path class="cls-5" d="M448.1,37.5c-4.1,0-8.3,0-12.4,0-.2,0-.3,0-.5,0-.4,0-.5-.1-.4-.5,0-.9,0-1.8,0-2.7,0-3.9,0-7.8,0-11.7,0-.2,0-.4,0-.6,0-.2,0-.3.3-.3.2,0,.3,0,.5,0,7.7,0,15.4,0,23.2,0,1.4,0,2.7,0,4.1.3,2.8.5,3.9,1.6,4.4,4.4.4,2.3.4,4.6,0,6.9-.4,1.9-1.5,3.1-3.4,3.7-1.2.3-2.3.5-3.5.5-4.1,0-8.1,0-12.2,0h0s0,0,0,0ZM437,22.8c0,.2,0,.3,0,.3,0,4.1,0,8.2,0,12.2,0,.5,0,.5.5.5,7.6,0,15.1,0,22.7,0,1.3,0,2.6,0,3.9-.4,1.5-.4,2.5-1.2,2.7-2.7.4-2.3.3-4.7,0-7-.3-1.5-1.2-2.3-2.6-2.6-1.3-.3-2.6-.3-3.9-.3-7.5,0-15,0-22.5,0-.2,0-.4,0-.7,0h0Z"/>
          <path class="cls-5" d="M334.5,21.7c3.5,0,7.1,0,10.6,0,1.2,0,2.5.1,3.7.4,2.1.5,3.3,1.7,3.8,3.8.5,2.5.6,5,.1,7.4-.5,2.6-1.9,3.8-4.5,4.2-1.1.2-2.2.3-3.4.3-7.3,0-14.7,0-22,0-.7,0-.7,0-.7-.7,0-4.9,0-9.8,0-14.7,0-.7,0-.7.8-.7,3.9,0,7.7,0,11.6,0h0s0,0,0,0ZM336.1,36.1c3.1,0,6.2,0,9.3,0,1.3,0,2.7,0,4-.3,1.6-.3,2.6-1.4,2.9-3,.1-.8.2-1.5.2-2.3,0-1.6,0-3.2-.3-4.7-.3-1.6-1.3-2.5-2.9-2.8-1.2-.2-2.4-.3-3.6-.3-6.9,0-13.7,0-20.6,0-.1,0-.2,0-.4,0-.4,0-.4.1-.4.5,0,.8,0,1.7,0,2.5,0,3.3,0,6.6,0,9.9,0,.6,0,.6.6.6.1,0,.2,0,.4,0,3.6,0,7.2,0,10.9,0h0Z"/>
        </g>
      </g>
    </g>
  </g>
</svg>